M48
; DRILL file {KiCad 7.0.9} date Sat Feb 24 17:52:36 2024
; FORMAT={-:-/ absolute / inch / decimal}
; #@! TF.CreationDate,2024-02-24T17:52:36+09:00
; #@! TF.GenerationSoftware,Kicad,Pcbnew,7.0.9
; #@! TF.FileFunction,Plated,1,2,PTH
FMAT,2
INCH
; #@! TA.AperFunction,Plated,PTH,ComponentDrill
T1C0.0300
; #@! TA.AperFunction,Plated,PTH,ComponentDrill
T2C0.0374
; #@! TA.AperFunction,Plated,PTH,ComponentDrill
T3C0.0394
; #@! TA.AperFunction,Plated,PTH,ComponentDrill
T4C0.0512
; #@! TA.AperFunction,Plated,PTH,ComponentDrill
T5C0.0630
; #@! TA.AperFunction,Plated,PTH,ComponentDrill
T6C0.0827
%
G90
G05
T1
X1.0336Y1.8196
X1.0336Y0.6757
X1.0416Y1.6741
X1.0416Y0.9497
X1.1336Y1.8196
X1.1336Y0.6757
X1.1416Y1.6741
X1.1416Y0.9497
X1.4691Y1.6741
X1.4691Y0.9497
X1.4848Y1.8174
X1.4854Y0.6757
X1.5691Y1.6741
X1.5691Y0.9497
X1.5848Y1.8174
X1.5854Y0.6757
T2
X0.215Y1.031
X0.215Y0.9326
X0.215Y0.8341
X0.215Y0.7357
X0.215Y0.6373
T3
X0.0788Y1.9582
X0.215Y1.877
X0.215Y1.577
X0.215Y1.477
X0.405Y0.735
X0.405Y0.635
X0.415Y1.877
X0.415Y1.577
X0.415Y1.477
X0.505Y0.735
X0.505Y0.635
X0.5513Y1.9582
X0.68Y0.165
X0.757Y0.735
X0.757Y0.635
X0.7784Y0.165
X0.9536Y1.9313
X0.954Y0.3625
X1.0308Y0.165
X1.1292Y0.165
X1.38Y0.165
X1.4784Y0.165
X1.6563Y0.3629
X1.6565Y1.9317
T4
X0.0788Y1.4779
X0.317Y2.035
X0.5532Y1.4759
T5
X0.761Y1.925
X0.761Y1.325
T6
X0.205Y0.337
X0.4412Y0.337
X0.7715Y2.175
X1.0785Y2.175
T0
M30
