%TF.GenerationSoftware,KiCad,Pcbnew,7.0.7*%
%TF.CreationDate,2023-10-14T15:04:30+09:00*%
%TF.ProjectId,rasp_power_module,72617370-5f70-46f7-9765-725f6d6f6475,4*%
%TF.SameCoordinates,PX74269e8PY6f4e628*%
%TF.FileFunction,Legend,Top*%
%TF.FilePolarity,Positive*%
%FSLAX46Y46*%
G04 Gerber Fmt 4.6, Leading zero omitted, Abs format (unit mm)*
G04 Created by KiCad (PCBNEW 7.0.7) date 2023-10-14 15:04:30*
%MOMM*%
%LPD*%
G01*
G04 APERTURE LIST*
G04 Aperture macros list*
%AMRoundRect*
0 Rectangle with rounded corners*
0 $1 Rounding radius*
0 $2 $3 $4 $5 $6 $7 $8 $9 X,Y pos of 4 corners*
0 Add a 4 corners polygon primitive as box body*
4,1,4,$2,$3,$4,$5,$6,$7,$8,$9,$2,$3,0*
0 Add four circle primitives for the rounded corners*
1,1,$1+$1,$2,$3*
1,1,$1+$1,$4,$5*
1,1,$1+$1,$6,$7*
1,1,$1+$1,$8,$9*
0 Add four rect primitives between the rounded corners*
20,1,$1+$1,$2,$3,$4,$5,0*
20,1,$1+$1,$4,$5,$6,$7,0*
20,1,$1+$1,$6,$7,$8,$9,0*
20,1,$1+$1,$8,$9,$2,$3,0*%
G04 Aperture macros list end*
%ADD10C,0.150000*%
%ADD11C,0.120000*%
%ADD12C,1.524000*%
%ADD13RoundRect,0.250000X0.450000X-0.262500X0.450000X0.262500X-0.450000X0.262500X-0.450000X-0.262500X0*%
%ADD14R,3.000000X3.000000*%
%ADD15R,1.700000X1.700000*%
%ADD16O,1.700000X1.700000*%
%ADD17RoundRect,0.250000X-0.450000X0.262500X-0.450000X-0.262500X0.450000X-0.262500X0.450000X0.262500X0*%
%ADD18RoundRect,0.249999X-1.300001X-1.300001X1.300001X-1.300001X1.300001X1.300001X-1.300001X1.300001X0*%
%ADD19C,3.100000*%
%ADD20R,3.200000X3.200000*%
%ADD21O,3.200000X3.200000*%
%ADD22R,2.000000X2.000000*%
%ADD23C,2.000000*%
%ADD24RoundRect,0.250000X-0.600000X-0.750000X0.600000X-0.750000X0.600000X0.750000X-0.600000X0.750000X0*%
%ADD25O,1.700000X2.000000*%
%ADD26RoundRect,0.250000X-0.262500X-0.450000X0.262500X-0.450000X0.262500X0.450000X-0.262500X0.450000X0*%
%ADD27RoundRect,0.243750X-0.243750X-0.456250X0.243750X-0.456250X0.243750X0.456250X-0.243750X0.456250X0*%
%ADD28RoundRect,0.250002X-1.699998X-1.699998X1.699998X-1.699998X1.699998X1.699998X-1.699998X1.699998X0*%
%ADD29C,3.900000*%
%ADD30RoundRect,0.150000X-0.150000X0.587500X-0.150000X-0.587500X0.150000X-0.587500X0.150000X0.587500X0*%
%ADD31C,3.000000*%
%ADD32C,2.500000*%
%ADD33R,1.300000X1.700000*%
%ADD34RoundRect,0.250000X-0.725000X0.600000X-0.725000X-0.600000X0.725000X-0.600000X0.725000X0.600000X0*%
%ADD35O,1.950000X1.700000*%
G04 APERTURE END LIST*
D10*
X11201400Y31775400D02*
X11404600Y31775400D01*
X11404600Y30251400D01*
X11201400Y30251400D01*
X11201400Y31775400D01*
G36*
X11201400Y31775400D02*
G01*
X11404600Y31775400D01*
X11404600Y30251400D01*
X11201400Y30251400D01*
X11201400Y31775400D01*
G37*
X3225800Y10591800D02*
X13131800Y10591800D01*
X13131800Y6527800D01*
X3225800Y6527800D01*
X3225800Y10591800D01*
X20761000Y18648200D02*
X21209000Y19126200D01*
X17246600Y57632600D02*
X29743400Y57632600D01*
X29743400Y52857400D01*
X17246600Y52857400D01*
X17246600Y57632600D01*
X21209000Y19126200D02*
X21209000Y20396200D01*
X21209000Y15621000D02*
X21209000Y14351000D01*
X20761000Y16078200D02*
X21209000Y15621000D01*
X15245904Y16281381D02*
X15245904Y16662333D01*
X15245904Y16662333D02*
X14864952Y16700429D01*
X14864952Y16700429D02*
X14903047Y16662333D01*
X14903047Y16662333D02*
X14941142Y16586143D01*
X14941142Y16586143D02*
X14941142Y16395667D01*
X14941142Y16395667D02*
X14903047Y16319476D01*
X14903047Y16319476D02*
X14864952Y16281381D01*
X14864952Y16281381D02*
X14788761Y16243286D01*
X14788761Y16243286D02*
X14598285Y16243286D01*
X14598285Y16243286D02*
X14522095Y16281381D01*
X14522095Y16281381D02*
X14484000Y16319476D01*
X14484000Y16319476D02*
X14445904Y16395667D01*
X14445904Y16395667D02*
X14445904Y16586143D01*
X14445904Y16586143D02*
X14484000Y16662333D01*
X14484000Y16662333D02*
X14522095Y16700429D01*
X15245904Y16014714D02*
X14445904Y15748047D01*
X14445904Y15748047D02*
X15245904Y15481381D01*
X21616200Y9057001D02*
X21663819Y9199858D01*
X21663819Y9199858D02*
X21663819Y9437953D01*
X21663819Y9437953D02*
X21616200Y9533191D01*
X21616200Y9533191D02*
X21568580Y9580810D01*
X21568580Y9580810D02*
X21473342Y9628429D01*
X21473342Y9628429D02*
X21378104Y9628429D01*
X21378104Y9628429D02*
X21282866Y9580810D01*
X21282866Y9580810D02*
X21235247Y9533191D01*
X21235247Y9533191D02*
X21187628Y9437953D01*
X21187628Y9437953D02*
X21140009Y9247477D01*
X21140009Y9247477D02*
X21092390Y9152239D01*
X21092390Y9152239D02*
X21044771Y9104620D01*
X21044771Y9104620D02*
X20949533Y9057001D01*
X20949533Y9057001D02*
X20854295Y9057001D01*
X20854295Y9057001D02*
X20759057Y9104620D01*
X20759057Y9104620D02*
X20711438Y9152239D01*
X20711438Y9152239D02*
X20663819Y9247477D01*
X20663819Y9247477D02*
X20663819Y9485572D01*
X20663819Y9485572D02*
X20711438Y9628429D01*
X20616200Y10771286D02*
X21901914Y9914144D01*
X21663819Y11104620D02*
X20663819Y11104620D01*
X20663819Y11104620D02*
X20663819Y11342715D01*
X20663819Y11342715D02*
X20711438Y11485572D01*
X20711438Y11485572D02*
X20806676Y11580810D01*
X20806676Y11580810D02*
X20901914Y11628429D01*
X20901914Y11628429D02*
X21092390Y11676048D01*
X21092390Y11676048D02*
X21235247Y11676048D01*
X21235247Y11676048D02*
X21425723Y11628429D01*
X21425723Y11628429D02*
X21520961Y11580810D01*
X21520961Y11580810D02*
X21616200Y11485572D01*
X21616200Y11485572D02*
X21663819Y11342715D01*
X21663819Y11342715D02*
X21663819Y11104620D01*
X22044771Y12390334D02*
X21997152Y12342715D01*
X21997152Y12342715D02*
X21854295Y12247477D01*
X21854295Y12247477D02*
X21759057Y12199858D01*
X21759057Y12199858D02*
X21616200Y12152239D01*
X21616200Y12152239D02*
X21378104Y12104620D01*
X21378104Y12104620D02*
X21187628Y12104620D01*
X21187628Y12104620D02*
X20949533Y12152239D01*
X20949533Y12152239D02*
X20806676Y12199858D01*
X20806676Y12199858D02*
X20711438Y12247477D01*
X20711438Y12247477D02*
X20568580Y12342715D01*
X20568580Y12342715D02*
X20520961Y12390334D01*
X20663819Y12961763D02*
X20663819Y13152239D01*
X20663819Y13152239D02*
X20711438Y13247477D01*
X20711438Y13247477D02*
X20806676Y13342715D01*
X20806676Y13342715D02*
X20997152Y13390334D01*
X20997152Y13390334D02*
X21330485Y13390334D01*
X21330485Y13390334D02*
X21520961Y13342715D01*
X21520961Y13342715D02*
X21616200Y13247477D01*
X21616200Y13247477D02*
X21663819Y13152239D01*
X21663819Y13152239D02*
X21663819Y12961763D01*
X21663819Y12961763D02*
X21616200Y12866525D01*
X21616200Y12866525D02*
X21520961Y12771287D01*
X21520961Y12771287D02*
X21330485Y12723668D01*
X21330485Y12723668D02*
X20997152Y12723668D01*
X20997152Y12723668D02*
X20806676Y12771287D01*
X20806676Y12771287D02*
X20711438Y12866525D01*
X20711438Y12866525D02*
X20663819Y12961763D01*
X22044771Y13723668D02*
X21997152Y13771287D01*
X21997152Y13771287D02*
X21854295Y13866525D01*
X21854295Y13866525D02*
X21759057Y13914144D01*
X21759057Y13914144D02*
X21616200Y13961763D01*
X21616200Y13961763D02*
X21378104Y14009382D01*
X21378104Y14009382D02*
X21187628Y14009382D01*
X21187628Y14009382D02*
X20949533Y13961763D01*
X20949533Y13961763D02*
X20806676Y13914144D01*
X20806676Y13914144D02*
X20711438Y13866525D01*
X20711438Y13866525D02*
X20568580Y13771287D01*
X20568580Y13771287D02*
X20520961Y13723668D01*
X1377504Y16255838D02*
X1377504Y16636790D01*
X1377504Y16636790D02*
X996552Y16674886D01*
X996552Y16674886D02*
X1034647Y16636790D01*
X1034647Y16636790D02*
X1072742Y16560600D01*
X1072742Y16560600D02*
X1072742Y16370124D01*
X1072742Y16370124D02*
X1034647Y16293933D01*
X1034647Y16293933D02*
X996552Y16255838D01*
X996552Y16255838D02*
X920361Y16217743D01*
X920361Y16217743D02*
X729885Y16217743D01*
X729885Y16217743D02*
X653695Y16255838D01*
X653695Y16255838D02*
X615600Y16293933D01*
X615600Y16293933D02*
X577504Y16370124D01*
X577504Y16370124D02*
X577504Y16560600D01*
X577504Y16560600D02*
X615600Y16636790D01*
X615600Y16636790D02*
X653695Y16674886D01*
X1377504Y15989171D02*
X577504Y15722504D01*
X577504Y15722504D02*
X1377504Y15455838D01*
X501314Y15379647D02*
X501314Y14770124D01*
X1377504Y14427266D02*
X1377504Y14274885D01*
X1377504Y14274885D02*
X1339409Y14198695D01*
X1339409Y14198695D02*
X1263219Y14122504D01*
X1263219Y14122504D02*
X1110838Y14084409D01*
X1110838Y14084409D02*
X844171Y14084409D01*
X844171Y14084409D02*
X691790Y14122504D01*
X691790Y14122504D02*
X615600Y14198695D01*
X615600Y14198695D02*
X577504Y14274885D01*
X577504Y14274885D02*
X577504Y14427266D01*
X577504Y14427266D02*
X615600Y14503457D01*
X615600Y14503457D02*
X691790Y14579647D01*
X691790Y14579647D02*
X844171Y14617743D01*
X844171Y14617743D02*
X1110838Y14617743D01*
X1110838Y14617743D02*
X1263219Y14579647D01*
X1263219Y14579647D02*
X1339409Y14503457D01*
X1339409Y14503457D02*
X1377504Y14427266D01*
X577504Y13741552D02*
X1377504Y13741552D01*
X1377504Y13741552D02*
X577504Y13284409D01*
X577504Y13284409D02*
X1377504Y13284409D01*
X564800Y21894715D02*
X526704Y21780429D01*
X526704Y21780429D02*
X526704Y21589953D01*
X526704Y21589953D02*
X564800Y21513762D01*
X564800Y21513762D02*
X602895Y21475667D01*
X602895Y21475667D02*
X679085Y21437572D01*
X679085Y21437572D02*
X755276Y21437572D01*
X755276Y21437572D02*
X831466Y21475667D01*
X831466Y21475667D02*
X869561Y21513762D01*
X869561Y21513762D02*
X907657Y21589953D01*
X907657Y21589953D02*
X945752Y21742334D01*
X945752Y21742334D02*
X983847Y21818524D01*
X983847Y21818524D02*
X1021942Y21856619D01*
X1021942Y21856619D02*
X1098133Y21894715D01*
X1098133Y21894715D02*
X1174323Y21894715D01*
X1174323Y21894715D02*
X1250514Y21856619D01*
X1250514Y21856619D02*
X1288609Y21818524D01*
X1288609Y21818524D02*
X1326704Y21742334D01*
X1326704Y21742334D02*
X1326704Y21551857D01*
X1326704Y21551857D02*
X1288609Y21437572D01*
X1326704Y21170905D02*
X526704Y20980429D01*
X526704Y20980429D02*
X1098133Y20828048D01*
X1098133Y20828048D02*
X526704Y20675667D01*
X526704Y20675667D02*
X1326704Y20485190D01*
X23593588Y12385562D02*
X23498350Y12433181D01*
X23498350Y12433181D02*
X23355493Y12433181D01*
X23355493Y12433181D02*
X23212636Y12385562D01*
X23212636Y12385562D02*
X23117398Y12290324D01*
X23117398Y12290324D02*
X23069779Y12195086D01*
X23069779Y12195086D02*
X23022160Y12004610D01*
X23022160Y12004610D02*
X23022160Y11861753D01*
X23022160Y11861753D02*
X23069779Y11671277D01*
X23069779Y11671277D02*
X23117398Y11576039D01*
X23117398Y11576039D02*
X23212636Y11480800D01*
X23212636Y11480800D02*
X23355493Y11433181D01*
X23355493Y11433181D02*
X23450731Y11433181D01*
X23450731Y11433181D02*
X23593588Y11480800D01*
X23593588Y11480800D02*
X23641207Y11528420D01*
X23641207Y11528420D02*
X23641207Y11861753D01*
X23641207Y11861753D02*
X23450731Y11861753D01*
X24069779Y11433181D02*
X24069779Y12433181D01*
X24069779Y12433181D02*
X24641207Y11433181D01*
X24641207Y11433181D02*
X24641207Y12433181D01*
X25117398Y11433181D02*
X25117398Y12433181D01*
X25117398Y12433181D02*
X25355493Y12433181D01*
X25355493Y12433181D02*
X25498350Y12385562D01*
X25498350Y12385562D02*
X25593588Y12290324D01*
X25593588Y12290324D02*
X25641207Y12195086D01*
X25641207Y12195086D02*
X25688826Y12004610D01*
X25688826Y12004610D02*
X25688826Y11861753D01*
X25688826Y11861753D02*
X25641207Y11671277D01*
X25641207Y11671277D02*
X25593588Y11576039D01*
X25593588Y11576039D02*
X25498350Y11480800D01*
X25498350Y11480800D02*
X25355493Y11433181D01*
X25355493Y11433181D02*
X25117398Y11433181D01*
X18729914Y58606448D02*
X17968009Y58320734D01*
X17968009Y58320734D02*
X18729914Y58035020D01*
X19206104Y57939781D02*
X19206104Y58939781D01*
X19206104Y58939781D02*
X19587056Y58939781D01*
X19587056Y58939781D02*
X19682294Y58892162D01*
X19682294Y58892162D02*
X19729913Y58844543D01*
X19729913Y58844543D02*
X19777532Y58749305D01*
X19777532Y58749305D02*
X19777532Y58606448D01*
X19777532Y58606448D02*
X19729913Y58511210D01*
X19729913Y58511210D02*
X19682294Y58463591D01*
X19682294Y58463591D02*
X19587056Y58415972D01*
X19587056Y58415972D02*
X19206104Y58415972D01*
X20348961Y57939781D02*
X20253723Y57987400D01*
X20253723Y57987400D02*
X20206104Y58035020D01*
X20206104Y58035020D02*
X20158485Y58130258D01*
X20158485Y58130258D02*
X20158485Y58415972D01*
X20158485Y58415972D02*
X20206104Y58511210D01*
X20206104Y58511210D02*
X20253723Y58558829D01*
X20253723Y58558829D02*
X20348961Y58606448D01*
X20348961Y58606448D02*
X20491818Y58606448D01*
X20491818Y58606448D02*
X20587056Y58558829D01*
X20587056Y58558829D02*
X20634675Y58511210D01*
X20634675Y58511210D02*
X20682294Y58415972D01*
X20682294Y58415972D02*
X20682294Y58130258D01*
X20682294Y58130258D02*
X20634675Y58035020D01*
X20634675Y58035020D02*
X20587056Y57987400D01*
X20587056Y57987400D02*
X20491818Y57939781D01*
X20491818Y57939781D02*
X20348961Y57939781D01*
X21015628Y58606448D02*
X21206104Y57939781D01*
X21206104Y57939781D02*
X21396580Y58415972D01*
X21396580Y58415972D02*
X21587056Y57939781D01*
X21587056Y57939781D02*
X21777532Y58606448D01*
X22539437Y57987400D02*
X22444199Y57939781D01*
X22444199Y57939781D02*
X22253723Y57939781D01*
X22253723Y57939781D02*
X22158485Y57987400D01*
X22158485Y57987400D02*
X22110866Y58082639D01*
X22110866Y58082639D02*
X22110866Y58463591D01*
X22110866Y58463591D02*
X22158485Y58558829D01*
X22158485Y58558829D02*
X22253723Y58606448D01*
X22253723Y58606448D02*
X22444199Y58606448D01*
X22444199Y58606448D02*
X22539437Y58558829D01*
X22539437Y58558829D02*
X22587056Y58463591D01*
X22587056Y58463591D02*
X22587056Y58368353D01*
X22587056Y58368353D02*
X22110866Y58273115D01*
X23015628Y57939781D02*
X23015628Y58606448D01*
X23015628Y58415972D02*
X23063247Y58511210D01*
X23063247Y58511210D02*
X23110866Y58558829D01*
X23110866Y58558829D02*
X23206104Y58606448D01*
X23206104Y58606448D02*
X23301342Y58606448D01*
X24396581Y57939781D02*
X24396581Y58939781D01*
X24872771Y58606448D02*
X24872771Y57939781D01*
X24872771Y58511210D02*
X24920390Y58558829D01*
X24920390Y58558829D02*
X25015628Y58606448D01*
X25015628Y58606448D02*
X25158485Y58606448D01*
X25158485Y58606448D02*
X25253723Y58558829D01*
X25253723Y58558829D02*
X25301342Y58463591D01*
X25301342Y58463591D02*
X25301342Y57939781D01*
X25777533Y58606448D02*
X25777533Y57606448D01*
X25777533Y58558829D02*
X25872771Y58606448D01*
X25872771Y58606448D02*
X26063247Y58606448D01*
X26063247Y58606448D02*
X26158485Y58558829D01*
X26158485Y58558829D02*
X26206104Y58511210D01*
X26206104Y58511210D02*
X26253723Y58415972D01*
X26253723Y58415972D02*
X26253723Y58130258D01*
X26253723Y58130258D02*
X26206104Y58035020D01*
X26206104Y58035020D02*
X26158485Y57987400D01*
X26158485Y57987400D02*
X26063247Y57939781D01*
X26063247Y57939781D02*
X25872771Y57939781D01*
X25872771Y57939781D02*
X25777533Y57987400D01*
X27110866Y58606448D02*
X27110866Y57939781D01*
X26682295Y58606448D02*
X26682295Y58082639D01*
X26682295Y58082639D02*
X26729914Y57987400D01*
X26729914Y57987400D02*
X26825152Y57939781D01*
X26825152Y57939781D02*
X26968009Y57939781D01*
X26968009Y57939781D02*
X27063247Y57987400D01*
X27063247Y57987400D02*
X27110866Y58035020D01*
X27444200Y58606448D02*
X27825152Y58606448D01*
X27587057Y58939781D02*
X27587057Y58082639D01*
X27587057Y58082639D02*
X27634676Y57987400D01*
X27634676Y57987400D02*
X27729914Y57939781D01*
X27729914Y57939781D02*
X27825152Y57939781D01*
X28158486Y58606448D02*
X28920391Y58320734D01*
X28920391Y58320734D02*
X28158486Y58035020D01*
X10388695Y11851362D02*
X10293457Y11898981D01*
X10293457Y11898981D02*
X10150600Y11898981D01*
X10150600Y11898981D02*
X10007743Y11851362D01*
X10007743Y11851362D02*
X9912505Y11756124D01*
X9912505Y11756124D02*
X9864886Y11660886D01*
X9864886Y11660886D02*
X9817267Y11470410D01*
X9817267Y11470410D02*
X9817267Y11327553D01*
X9817267Y11327553D02*
X9864886Y11137077D01*
X9864886Y11137077D02*
X9912505Y11041839D01*
X9912505Y11041839D02*
X10007743Y10946600D01*
X10007743Y10946600D02*
X10150600Y10898981D01*
X10150600Y10898981D02*
X10245838Y10898981D01*
X10245838Y10898981D02*
X10388695Y10946600D01*
X10388695Y10946600D02*
X10436314Y10994220D01*
X10436314Y10994220D02*
X10436314Y11327553D01*
X10436314Y11327553D02*
X10245838Y11327553D01*
X10864886Y10898981D02*
X10864886Y11898981D01*
X10864886Y11898981D02*
X11436314Y10898981D01*
X11436314Y10898981D02*
X11436314Y11898981D01*
X11912505Y10898981D02*
X11912505Y11898981D01*
X11912505Y11898981D02*
X12150600Y11898981D01*
X12150600Y11898981D02*
X12293457Y11851362D01*
X12293457Y11851362D02*
X12388695Y11756124D01*
X12388695Y11756124D02*
X12436314Y11660886D01*
X12436314Y11660886D02*
X12483933Y11470410D01*
X12483933Y11470410D02*
X12483933Y11327553D01*
X12483933Y11327553D02*
X12436314Y11137077D01*
X12436314Y11137077D02*
X12388695Y11041839D01*
X12388695Y11041839D02*
X12293457Y10946600D01*
X12293457Y10946600D02*
X12150600Y10898981D01*
X12150600Y10898981D02*
X11912505Y10898981D01*
X526704Y19183286D02*
X526704Y19564238D01*
X526704Y19564238D02*
X1326704Y19564238D01*
X945752Y18916619D02*
X945752Y18649953D01*
X526704Y18535667D02*
X526704Y18916619D01*
X526704Y18916619D02*
X1326704Y18916619D01*
X1326704Y18916619D02*
X1326704Y18535667D01*
X526704Y18192809D02*
X1326704Y18192809D01*
X1326704Y18192809D02*
X1326704Y18002333D01*
X1326704Y18002333D02*
X1288609Y17888047D01*
X1288609Y17888047D02*
X1212419Y17811857D01*
X1212419Y17811857D02*
X1136228Y17773762D01*
X1136228Y17773762D02*
X983847Y17735666D01*
X983847Y17735666D02*
X869561Y17735666D01*
X869561Y17735666D02*
X717180Y17773762D01*
X717180Y17773762D02*
X640990Y17811857D01*
X640990Y17811857D02*
X564800Y17888047D01*
X564800Y17888047D02*
X526704Y18002333D01*
X526704Y18002333D02*
X526704Y18192809D01*
X30980333Y8562181D02*
X30504143Y8562181D01*
X30504143Y8562181D02*
X30504143Y9562181D01*
X31313667Y8562181D02*
X31313667Y9562181D01*
X31313667Y9562181D02*
X31647000Y8847896D01*
X31647000Y8847896D02*
X31980333Y9562181D01*
X31980333Y9562181D02*
X31980333Y8562181D01*
X32408905Y9466943D02*
X32456524Y9514562D01*
X32456524Y9514562D02*
X32551762Y9562181D01*
X32551762Y9562181D02*
X32789857Y9562181D01*
X32789857Y9562181D02*
X32885095Y9514562D01*
X32885095Y9514562D02*
X32932714Y9466943D01*
X32932714Y9466943D02*
X32980333Y9371705D01*
X32980333Y9371705D02*
X32980333Y9276467D01*
X32980333Y9276467D02*
X32932714Y9133610D01*
X32932714Y9133610D02*
X32361286Y8562181D01*
X32361286Y8562181D02*
X32980333Y8562181D01*
X33885095Y9562181D02*
X33408905Y9562181D01*
X33408905Y9562181D02*
X33361286Y9085991D01*
X33361286Y9085991D02*
X33408905Y9133610D01*
X33408905Y9133610D02*
X33504143Y9181229D01*
X33504143Y9181229D02*
X33742238Y9181229D01*
X33742238Y9181229D02*
X33837476Y9133610D01*
X33837476Y9133610D02*
X33885095Y9085991D01*
X33885095Y9085991D02*
X33932714Y8990753D01*
X33932714Y8990753D02*
X33932714Y8752658D01*
X33932714Y8752658D02*
X33885095Y8657420D01*
X33885095Y8657420D02*
X33837476Y8609800D01*
X33837476Y8609800D02*
X33742238Y8562181D01*
X33742238Y8562181D02*
X33504143Y8562181D01*
X33504143Y8562181D02*
X33408905Y8609800D01*
X33408905Y8609800D02*
X33361286Y8657420D01*
X34408905Y8562181D02*
X34599381Y8562181D01*
X34599381Y8562181D02*
X34694619Y8609800D01*
X34694619Y8609800D02*
X34742238Y8657420D01*
X34742238Y8657420D02*
X34837476Y8800277D01*
X34837476Y8800277D02*
X34885095Y8990753D01*
X34885095Y8990753D02*
X34885095Y9371705D01*
X34885095Y9371705D02*
X34837476Y9466943D01*
X34837476Y9466943D02*
X34789857Y9514562D01*
X34789857Y9514562D02*
X34694619Y9562181D01*
X34694619Y9562181D02*
X34504143Y9562181D01*
X34504143Y9562181D02*
X34408905Y9514562D01*
X34408905Y9514562D02*
X34361286Y9466943D01*
X34361286Y9466943D02*
X34313667Y9371705D01*
X34313667Y9371705D02*
X34313667Y9133610D01*
X34313667Y9133610D02*
X34361286Y9038372D01*
X34361286Y9038372D02*
X34408905Y8990753D01*
X34408905Y8990753D02*
X34504143Y8943134D01*
X34504143Y8943134D02*
X34694619Y8943134D01*
X34694619Y8943134D02*
X34789857Y8990753D01*
X34789857Y8990753D02*
X34837476Y9038372D01*
X34837476Y9038372D02*
X34885095Y9133610D01*
X35742238Y9562181D02*
X35551762Y9562181D01*
X35551762Y9562181D02*
X35456524Y9514562D01*
X35456524Y9514562D02*
X35408905Y9466943D01*
X35408905Y9466943D02*
X35313667Y9324086D01*
X35313667Y9324086D02*
X35266048Y9133610D01*
X35266048Y9133610D02*
X35266048Y8752658D01*
X35266048Y8752658D02*
X35313667Y8657420D01*
X35313667Y8657420D02*
X35361286Y8609800D01*
X35361286Y8609800D02*
X35456524Y8562181D01*
X35456524Y8562181D02*
X35647000Y8562181D01*
X35647000Y8562181D02*
X35742238Y8609800D01*
X35742238Y8609800D02*
X35789857Y8657420D01*
X35789857Y8657420D02*
X35837476Y8752658D01*
X35837476Y8752658D02*
X35837476Y8990753D01*
X35837476Y8990753D02*
X35789857Y9085991D01*
X35789857Y9085991D02*
X35742238Y9133610D01*
X35742238Y9133610D02*
X35647000Y9181229D01*
X35647000Y9181229D02*
X35456524Y9181229D01*
X35456524Y9181229D02*
X35361286Y9133610D01*
X35361286Y9133610D02*
X35313667Y9085991D01*
X35313667Y9085991D02*
X35266048Y8990753D01*
X41373588Y45977181D02*
X40802160Y45977181D01*
X41087874Y45977181D02*
X41087874Y46977181D01*
X41087874Y46977181D02*
X40992636Y46834324D01*
X40992636Y46834324D02*
X40897398Y46739086D01*
X40897398Y46739086D02*
X40802160Y46691467D01*
X41754541Y46881943D02*
X41802160Y46929562D01*
X41802160Y46929562D02*
X41897398Y46977181D01*
X41897398Y46977181D02*
X42135493Y46977181D01*
X42135493Y46977181D02*
X42230731Y46929562D01*
X42230731Y46929562D02*
X42278350Y46881943D01*
X42278350Y46881943D02*
X42325969Y46786705D01*
X42325969Y46786705D02*
X42325969Y46691467D01*
X42325969Y46691467D02*
X42278350Y46548610D01*
X42278350Y46548610D02*
X41706922Y45977181D01*
X41706922Y45977181D02*
X42325969Y45977181D01*
X42611684Y46977181D02*
X42945017Y45977181D01*
X42945017Y45977181D02*
X43278350Y46977181D01*
X9199857Y21500181D02*
X9390333Y21500181D01*
X9390333Y21500181D02*
X9485571Y21452562D01*
X9485571Y21452562D02*
X9580809Y21357324D01*
X9580809Y21357324D02*
X9628428Y21166848D01*
X9628428Y21166848D02*
X9628428Y20833515D01*
X9628428Y20833515D02*
X9580809Y20643039D01*
X9580809Y20643039D02*
X9485571Y20547800D01*
X9485571Y20547800D02*
X9390333Y20500181D01*
X9390333Y20500181D02*
X9199857Y20500181D01*
X9199857Y20500181D02*
X9104619Y20547800D01*
X9104619Y20547800D02*
X9009381Y20643039D01*
X9009381Y20643039D02*
X8961762Y20833515D01*
X8961762Y20833515D02*
X8961762Y21166848D01*
X8961762Y21166848D02*
X9009381Y21357324D01*
X9009381Y21357324D02*
X9104619Y21452562D01*
X9104619Y21452562D02*
X9199857Y21500181D01*
X10057000Y20500181D02*
X10057000Y21500181D01*
X10057000Y21500181D02*
X10628428Y20500181D01*
X10628428Y20500181D02*
X10628428Y21500181D01*
X10866524Y20404943D02*
X11628428Y20404943D01*
X12342714Y20500181D02*
X11866524Y20500181D01*
X11866524Y20500181D02*
X11866524Y21500181D01*
X12676048Y21023991D02*
X13009381Y21023991D01*
X13152238Y20500181D02*
X12676048Y20500181D01*
X12676048Y20500181D02*
X12676048Y21500181D01*
X12676048Y21500181D02*
X13152238Y21500181D01*
X13580810Y20500181D02*
X13580810Y21500181D01*
X13580810Y21500181D02*
X13818905Y21500181D01*
X13818905Y21500181D02*
X13961762Y21452562D01*
X13961762Y21452562D02*
X14057000Y21357324D01*
X14057000Y21357324D02*
X14104619Y21262086D01*
X14104619Y21262086D02*
X14152238Y21071610D01*
X14152238Y21071610D02*
X14152238Y20928753D01*
X14152238Y20928753D02*
X14104619Y20738277D01*
X14104619Y20738277D02*
X14057000Y20643039D01*
X14057000Y20643039D02*
X13961762Y20547800D01*
X13961762Y20547800D02*
X13818905Y20500181D01*
X13818905Y20500181D02*
X13580810Y20500181D01*
X1288609Y23488677D02*
X1326704Y23564867D01*
X1326704Y23564867D02*
X1326704Y23679153D01*
X1326704Y23679153D02*
X1288609Y23793439D01*
X1288609Y23793439D02*
X1212419Y23869629D01*
X1212419Y23869629D02*
X1136228Y23907724D01*
X1136228Y23907724D02*
X983847Y23945820D01*
X983847Y23945820D02*
X869561Y23945820D01*
X869561Y23945820D02*
X717180Y23907724D01*
X717180Y23907724D02*
X640990Y23869629D01*
X640990Y23869629D02*
X564800Y23793439D01*
X564800Y23793439D02*
X526704Y23679153D01*
X526704Y23679153D02*
X526704Y23602962D01*
X526704Y23602962D02*
X564800Y23488677D01*
X564800Y23488677D02*
X602895Y23450581D01*
X602895Y23450581D02*
X869561Y23450581D01*
X869561Y23450581D02*
X869561Y23602962D01*
X20663819Y20955191D02*
X20663819Y21145667D01*
X20663819Y21145667D02*
X20711438Y21240905D01*
X20711438Y21240905D02*
X20806676Y21336143D01*
X20806676Y21336143D02*
X20997152Y21383762D01*
X20997152Y21383762D02*
X21330485Y21383762D01*
X21330485Y21383762D02*
X21520961Y21336143D01*
X21520961Y21336143D02*
X21616200Y21240905D01*
X21616200Y21240905D02*
X21663819Y21145667D01*
X21663819Y21145667D02*
X21663819Y20955191D01*
X21663819Y20955191D02*
X21616200Y20859953D01*
X21616200Y20859953D02*
X21520961Y20764715D01*
X21520961Y20764715D02*
X21330485Y20717096D01*
X21330485Y20717096D02*
X20997152Y20717096D01*
X20997152Y20717096D02*
X20806676Y20764715D01*
X20806676Y20764715D02*
X20711438Y20859953D01*
X20711438Y20859953D02*
X20663819Y20955191D01*
X21663819Y21812334D02*
X20663819Y21812334D01*
X20663819Y21812334D02*
X21663819Y22383762D01*
X21663819Y22383762D02*
X20663819Y22383762D01*
X22044771Y23145667D02*
X21997152Y23098048D01*
X21997152Y23098048D02*
X21854295Y23002810D01*
X21854295Y23002810D02*
X21759057Y22955191D01*
X21759057Y22955191D02*
X21616200Y22907572D01*
X21616200Y22907572D02*
X21378104Y22859953D01*
X21378104Y22859953D02*
X21187628Y22859953D01*
X21187628Y22859953D02*
X20949533Y22907572D01*
X20949533Y22907572D02*
X20806676Y22955191D01*
X20806676Y22955191D02*
X20711438Y23002810D01*
X20711438Y23002810D02*
X20568580Y23098048D01*
X20568580Y23098048D02*
X20520961Y23145667D01*
X21663819Y23526620D02*
X20663819Y23526620D01*
X22044771Y23907572D02*
X21997152Y23955191D01*
X21997152Y23955191D02*
X21854295Y24050429D01*
X21854295Y24050429D02*
X21759057Y24098048D01*
X21759057Y24098048D02*
X21616200Y24145667D01*
X21616200Y24145667D02*
X21378104Y24193286D01*
X21378104Y24193286D02*
X21187628Y24193286D01*
X21187628Y24193286D02*
X20949533Y24145667D01*
X20949533Y24145667D02*
X20806676Y24098048D01*
X20806676Y24098048D02*
X20711438Y24050429D01*
X20711438Y24050429D02*
X20568580Y23955191D01*
X20568580Y23955191D02*
X20520961Y23907572D01*
X14445904Y19164239D02*
X14445904Y19621382D01*
X14445904Y19392810D02*
X15245904Y19392810D01*
X15245904Y19392810D02*
X15131619Y19469001D01*
X15131619Y19469001D02*
X15055428Y19545191D01*
X15055428Y19545191D02*
X15017333Y19621382D01*
X15169714Y18859477D02*
X15207809Y18821381D01*
X15207809Y18821381D02*
X15245904Y18745191D01*
X15245904Y18745191D02*
X15245904Y18554715D01*
X15245904Y18554715D02*
X15207809Y18478524D01*
X15207809Y18478524D02*
X15169714Y18440429D01*
X15169714Y18440429D02*
X15093523Y18402334D01*
X15093523Y18402334D02*
X15017333Y18402334D01*
X15017333Y18402334D02*
X14903047Y18440429D01*
X14903047Y18440429D02*
X14445904Y18897572D01*
X14445904Y18897572D02*
X14445904Y18402334D01*
X15245904Y18173762D02*
X14445904Y17907095D01*
X14445904Y17907095D02*
X15245904Y17640429D01*
X18975952Y51538981D02*
X18404524Y51538981D01*
X18690238Y51538981D02*
X18690238Y52538981D01*
X18690238Y52538981D02*
X18595000Y52396124D01*
X18595000Y52396124D02*
X18499762Y52300886D01*
X18499762Y52300886D02*
X18404524Y52253267D01*
X19356905Y52443743D02*
X19404524Y52491362D01*
X19404524Y52491362D02*
X19499762Y52538981D01*
X19499762Y52538981D02*
X19737857Y52538981D01*
X19737857Y52538981D02*
X19833095Y52491362D01*
X19833095Y52491362D02*
X19880714Y52443743D01*
X19880714Y52443743D02*
X19928333Y52348505D01*
X19928333Y52348505D02*
X19928333Y52253267D01*
X19928333Y52253267D02*
X19880714Y52110410D01*
X19880714Y52110410D02*
X19309286Y51538981D01*
X19309286Y51538981D02*
X19928333Y51538981D01*
X20214048Y52538981D02*
X20547381Y51538981D01*
X20547381Y51538981D02*
X20880714Y52538981D01*
X23593588Y46929562D02*
X23498350Y46977181D01*
X23498350Y46977181D02*
X23355493Y46977181D01*
X23355493Y46977181D02*
X23212636Y46929562D01*
X23212636Y46929562D02*
X23117398Y46834324D01*
X23117398Y46834324D02*
X23069779Y46739086D01*
X23069779Y46739086D02*
X23022160Y46548610D01*
X23022160Y46548610D02*
X23022160Y46405753D01*
X23022160Y46405753D02*
X23069779Y46215277D01*
X23069779Y46215277D02*
X23117398Y46120039D01*
X23117398Y46120039D02*
X23212636Y46024800D01*
X23212636Y46024800D02*
X23355493Y45977181D01*
X23355493Y45977181D02*
X23450731Y45977181D01*
X23450731Y45977181D02*
X23593588Y46024800D01*
X23593588Y46024800D02*
X23641207Y46072420D01*
X23641207Y46072420D02*
X23641207Y46405753D01*
X23641207Y46405753D02*
X23450731Y46405753D01*
X24069779Y45977181D02*
X24069779Y46977181D01*
X24069779Y46977181D02*
X24641207Y45977181D01*
X24641207Y45977181D02*
X24641207Y46977181D01*
X25117398Y45977181D02*
X25117398Y46977181D01*
X25117398Y46977181D02*
X25355493Y46977181D01*
X25355493Y46977181D02*
X25498350Y46929562D01*
X25498350Y46929562D02*
X25593588Y46834324D01*
X25593588Y46834324D02*
X25641207Y46739086D01*
X25641207Y46739086D02*
X25688826Y46548610D01*
X25688826Y46548610D02*
X25688826Y46405753D01*
X25688826Y46405753D02*
X25641207Y46215277D01*
X25641207Y46215277D02*
X25593588Y46120039D01*
X25593588Y46120039D02*
X25498350Y46024800D01*
X25498350Y46024800D02*
X25355493Y45977181D01*
X25355493Y45977181D02*
X25117398Y45977181D01*
X10337876Y24999505D02*
X10337876Y24428077D01*
X10337876Y24428077D02*
X10299781Y24313791D01*
X10299781Y24313791D02*
X10223590Y24237600D01*
X10223590Y24237600D02*
X10109305Y24199505D01*
X10109305Y24199505D02*
X10033114Y24199505D01*
X10642638Y24999505D02*
X11137876Y24999505D01*
X11137876Y24999505D02*
X10871210Y24694743D01*
X10871210Y24694743D02*
X10985495Y24694743D01*
X10985495Y24694743D02*
X11061686Y24656648D01*
X11061686Y24656648D02*
X11099781Y24618553D01*
X11099781Y24618553D02*
X11137876Y24542362D01*
X11137876Y24542362D02*
X11137876Y24351886D01*
X11137876Y24351886D02*
X11099781Y24275696D01*
X11099781Y24275696D02*
X11061686Y24237600D01*
X11061686Y24237600D02*
X10985495Y24199505D01*
X10985495Y24199505D02*
X10756924Y24199505D01*
X10756924Y24199505D02*
X10680733Y24237600D01*
X10680733Y24237600D02*
X10642638Y24275696D01*
X11633115Y24580458D02*
X11633115Y24199505D01*
X11366448Y24999505D02*
X11633115Y24580458D01*
X11633115Y24580458D02*
X11899781Y24999505D01*
X26041495Y2749105D02*
X25660543Y2749105D01*
X25660543Y2749105D02*
X25622447Y2368153D01*
X25622447Y2368153D02*
X25660543Y2406248D01*
X25660543Y2406248D02*
X25736733Y2444343D01*
X25736733Y2444343D02*
X25927209Y2444343D01*
X25927209Y2444343D02*
X26003400Y2406248D01*
X26003400Y2406248D02*
X26041495Y2368153D01*
X26041495Y2368153D02*
X26079590Y2291962D01*
X26079590Y2291962D02*
X26079590Y2101486D01*
X26079590Y2101486D02*
X26041495Y2025296D01*
X26041495Y2025296D02*
X26003400Y1987200D01*
X26003400Y1987200D02*
X25927209Y1949105D01*
X25927209Y1949105D02*
X25736733Y1949105D01*
X25736733Y1949105D02*
X25660543Y1987200D01*
X25660543Y1987200D02*
X25622447Y2025296D01*
X26308162Y2749105D02*
X26574829Y1949105D01*
X26574829Y1949105D02*
X26841495Y2749105D01*
X28746257Y2711010D02*
X28670067Y2749105D01*
X28670067Y2749105D02*
X28555781Y2749105D01*
X28555781Y2749105D02*
X28441495Y2711010D01*
X28441495Y2711010D02*
X28365305Y2634820D01*
X28365305Y2634820D02*
X28327210Y2558629D01*
X28327210Y2558629D02*
X28289114Y2406248D01*
X28289114Y2406248D02*
X28289114Y2291962D01*
X28289114Y2291962D02*
X28327210Y2139581D01*
X28327210Y2139581D02*
X28365305Y2063391D01*
X28365305Y2063391D02*
X28441495Y1987200D01*
X28441495Y1987200D02*
X28555781Y1949105D01*
X28555781Y1949105D02*
X28631972Y1949105D01*
X28631972Y1949105D02*
X28746257Y1987200D01*
X28746257Y1987200D02*
X28784353Y2025296D01*
X28784353Y2025296D02*
X28784353Y2291962D01*
X28784353Y2291962D02*
X28631972Y2291962D01*
X36750600Y52697839D02*
X36750600Y53174029D01*
X36722029Y52697839D02*
X36722029Y53174029D01*
X36693457Y52745458D02*
X36693457Y53126410D01*
X36664886Y52745458D02*
X36664886Y53126410D01*
X36636314Y52745458D02*
X36636314Y53126410D01*
X36607743Y52793077D02*
X36607743Y53078791D01*
X36579172Y52793077D02*
X36579172Y53078791D01*
X36550600Y52793077D02*
X36550600Y53078791D01*
X36522029Y52840696D02*
X36522029Y53031172D01*
X36493457Y52840696D02*
X36493457Y53031172D01*
X36464886Y52888315D02*
X36464886Y52983553D01*
X36436314Y52888315D02*
X36436314Y52983553D01*
X36407743Y52888315D02*
X36407743Y52983553D01*
X36379172Y52935934D02*
X36407743Y52935934D01*
X36779172Y52697839D02*
X36350600Y52935934D01*
X36350600Y52935934D02*
X36779172Y53174029D01*
X36322029Y52935934D02*
X36779172Y53221648D01*
X36779172Y53221648D02*
X36779172Y52650220D01*
X36779172Y52650220D02*
X36322029Y52935934D01*
X38125476Y40658610D02*
X38049286Y40696705D01*
X38049286Y40696705D02*
X37935000Y40696705D01*
X37935000Y40696705D02*
X37820714Y40658610D01*
X37820714Y40658610D02*
X37744524Y40582420D01*
X37744524Y40582420D02*
X37706429Y40506229D01*
X37706429Y40506229D02*
X37668333Y40353848D01*
X37668333Y40353848D02*
X37668333Y40239562D01*
X37668333Y40239562D02*
X37706429Y40087181D01*
X37706429Y40087181D02*
X37744524Y40010991D01*
X37744524Y40010991D02*
X37820714Y39934800D01*
X37820714Y39934800D02*
X37935000Y39896705D01*
X37935000Y39896705D02*
X38011191Y39896705D01*
X38011191Y39896705D02*
X38125476Y39934800D01*
X38125476Y39934800D02*
X38163572Y39972896D01*
X38163572Y39972896D02*
X38163572Y40239562D01*
X38163572Y40239562D02*
X38011191Y40239562D01*
X38506429Y39896705D02*
X38506429Y40696705D01*
X38506429Y40696705D02*
X38963572Y39896705D01*
X38963572Y39896705D02*
X38963572Y40696705D01*
X39344524Y39896705D02*
X39344524Y40696705D01*
X39344524Y40696705D02*
X39535000Y40696705D01*
X39535000Y40696705D02*
X39649286Y40658610D01*
X39649286Y40658610D02*
X39725476Y40582420D01*
X39725476Y40582420D02*
X39763571Y40506229D01*
X39763571Y40506229D02*
X39801667Y40353848D01*
X39801667Y40353848D02*
X39801667Y40239562D01*
X39801667Y40239562D02*
X39763571Y40087181D01*
X39763571Y40087181D02*
X39725476Y40010991D01*
X39725476Y40010991D02*
X39649286Y39934800D01*
X39649286Y39934800D02*
X39535000Y39896705D01*
X39535000Y39896705D02*
X39344524Y39896705D01*
X34880695Y2749105D02*
X34499743Y2749105D01*
X34499743Y2749105D02*
X34461647Y2368153D01*
X34461647Y2368153D02*
X34499743Y2406248D01*
X34499743Y2406248D02*
X34575933Y2444343D01*
X34575933Y2444343D02*
X34766409Y2444343D01*
X34766409Y2444343D02*
X34842600Y2406248D01*
X34842600Y2406248D02*
X34880695Y2368153D01*
X34880695Y2368153D02*
X34918790Y2291962D01*
X34918790Y2291962D02*
X34918790Y2101486D01*
X34918790Y2101486D02*
X34880695Y2025296D01*
X34880695Y2025296D02*
X34842600Y1987200D01*
X34842600Y1987200D02*
X34766409Y1949105D01*
X34766409Y1949105D02*
X34575933Y1949105D01*
X34575933Y1949105D02*
X34499743Y1987200D01*
X34499743Y1987200D02*
X34461647Y2025296D01*
X35147362Y2749105D02*
X35414029Y1949105D01*
X35414029Y1949105D02*
X35680695Y2749105D01*
X37585457Y2711010D02*
X37509267Y2749105D01*
X37509267Y2749105D02*
X37394981Y2749105D01*
X37394981Y2749105D02*
X37280695Y2711010D01*
X37280695Y2711010D02*
X37204505Y2634820D01*
X37204505Y2634820D02*
X37166410Y2558629D01*
X37166410Y2558629D02*
X37128314Y2406248D01*
X37128314Y2406248D02*
X37128314Y2291962D01*
X37128314Y2291962D02*
X37166410Y2139581D01*
X37166410Y2139581D02*
X37204505Y2063391D01*
X37204505Y2063391D02*
X37280695Y1987200D01*
X37280695Y1987200D02*
X37394981Y1949105D01*
X37394981Y1949105D02*
X37471172Y1949105D01*
X37471172Y1949105D02*
X37585457Y1987200D01*
X37585457Y1987200D02*
X37623553Y2025296D01*
X37623553Y2025296D02*
X37623553Y2291962D01*
X37623553Y2291962D02*
X37471172Y2291962D01*
X6770904Y35676562D02*
X6675666Y35724181D01*
X6675666Y35724181D02*
X6532809Y35724181D01*
X6532809Y35724181D02*
X6389952Y35676562D01*
X6389952Y35676562D02*
X6294714Y35581324D01*
X6294714Y35581324D02*
X6247095Y35486086D01*
X6247095Y35486086D02*
X6199476Y35295610D01*
X6199476Y35295610D02*
X6199476Y35152753D01*
X6199476Y35152753D02*
X6247095Y34962277D01*
X6247095Y34962277D02*
X6294714Y34867039D01*
X6294714Y34867039D02*
X6389952Y34771800D01*
X6389952Y34771800D02*
X6532809Y34724181D01*
X6532809Y34724181D02*
X6628047Y34724181D01*
X6628047Y34724181D02*
X6770904Y34771800D01*
X6770904Y34771800D02*
X6818523Y34819420D01*
X6818523Y34819420D02*
X6818523Y35152753D01*
X6818523Y35152753D02*
X6628047Y35152753D01*
X7723285Y35724181D02*
X7247095Y35724181D01*
X7247095Y35724181D02*
X7199476Y35247991D01*
X7199476Y35247991D02*
X7247095Y35295610D01*
X7247095Y35295610D02*
X7342333Y35343229D01*
X7342333Y35343229D02*
X7580428Y35343229D01*
X7580428Y35343229D02*
X7675666Y35295610D01*
X7675666Y35295610D02*
X7723285Y35247991D01*
X7723285Y35247991D02*
X7770904Y35152753D01*
X7770904Y35152753D02*
X7770904Y34914658D01*
X7770904Y34914658D02*
X7723285Y34819420D01*
X7723285Y34819420D02*
X7675666Y34771800D01*
X7675666Y34771800D02*
X7580428Y34724181D01*
X7580428Y34724181D02*
X7342333Y34724181D01*
X7342333Y34724181D02*
X7247095Y34771800D01*
X7247095Y34771800D02*
X7199476Y34819420D01*
X8056619Y35724181D02*
X8389952Y34724181D01*
X8389952Y34724181D02*
X8723285Y35724181D01*
X9056619Y35105134D02*
X9818524Y35105134D01*
X10818523Y34724181D02*
X10247095Y34724181D01*
X10532809Y34724181D02*
X10532809Y35724181D01*
X10532809Y35724181D02*
X10437571Y35581324D01*
X10437571Y35581324D02*
X10342333Y35486086D01*
X10342333Y35486086D02*
X10247095Y35438467D01*
X37871476Y25672610D02*
X37795286Y25710705D01*
X37795286Y25710705D02*
X37681000Y25710705D01*
X37681000Y25710705D02*
X37566714Y25672610D01*
X37566714Y25672610D02*
X37490524Y25596420D01*
X37490524Y25596420D02*
X37452429Y25520229D01*
X37452429Y25520229D02*
X37414333Y25367848D01*
X37414333Y25367848D02*
X37414333Y25253562D01*
X37414333Y25253562D02*
X37452429Y25101181D01*
X37452429Y25101181D02*
X37490524Y25024991D01*
X37490524Y25024991D02*
X37566714Y24948800D01*
X37566714Y24948800D02*
X37681000Y24910705D01*
X37681000Y24910705D02*
X37757191Y24910705D01*
X37757191Y24910705D02*
X37871476Y24948800D01*
X37871476Y24948800D02*
X37909572Y24986896D01*
X37909572Y24986896D02*
X37909572Y25253562D01*
X37909572Y25253562D02*
X37757191Y25253562D01*
X38252429Y24910705D02*
X38252429Y25710705D01*
X38252429Y25710705D02*
X38709572Y24910705D01*
X38709572Y24910705D02*
X38709572Y25710705D01*
X39090524Y24910705D02*
X39090524Y25710705D01*
X39090524Y25710705D02*
X39281000Y25710705D01*
X39281000Y25710705D02*
X39395286Y25672610D01*
X39395286Y25672610D02*
X39471476Y25596420D01*
X39471476Y25596420D02*
X39509571Y25520229D01*
X39509571Y25520229D02*
X39547667Y25367848D01*
X39547667Y25367848D02*
X39547667Y25253562D01*
X39547667Y25253562D02*
X39509571Y25101181D01*
X39509571Y25101181D02*
X39471476Y25024991D01*
X39471476Y25024991D02*
X39395286Y24948800D01*
X39395286Y24948800D02*
X39281000Y24910705D01*
X39281000Y24910705D02*
X39090524Y24910705D01*
X17100695Y2749105D02*
X16719743Y2749105D01*
X16719743Y2749105D02*
X16681647Y2368153D01*
X16681647Y2368153D02*
X16719743Y2406248D01*
X16719743Y2406248D02*
X16795933Y2444343D01*
X16795933Y2444343D02*
X16986409Y2444343D01*
X16986409Y2444343D02*
X17062600Y2406248D01*
X17062600Y2406248D02*
X17100695Y2368153D01*
X17100695Y2368153D02*
X17138790Y2291962D01*
X17138790Y2291962D02*
X17138790Y2101486D01*
X17138790Y2101486D02*
X17100695Y2025296D01*
X17100695Y2025296D02*
X17062600Y1987200D01*
X17062600Y1987200D02*
X16986409Y1949105D01*
X16986409Y1949105D02*
X16795933Y1949105D01*
X16795933Y1949105D02*
X16719743Y1987200D01*
X16719743Y1987200D02*
X16681647Y2025296D01*
X17367362Y2749105D02*
X17634029Y1949105D01*
X17634029Y1949105D02*
X17900695Y2749105D01*
X19805457Y2711010D02*
X19729267Y2749105D01*
X19729267Y2749105D02*
X19614981Y2749105D01*
X19614981Y2749105D02*
X19500695Y2711010D01*
X19500695Y2711010D02*
X19424505Y2634820D01*
X19424505Y2634820D02*
X19386410Y2558629D01*
X19386410Y2558629D02*
X19348314Y2406248D01*
X19348314Y2406248D02*
X19348314Y2291962D01*
X19348314Y2291962D02*
X19386410Y2139581D01*
X19386410Y2139581D02*
X19424505Y2063391D01*
X19424505Y2063391D02*
X19500695Y1987200D01*
X19500695Y1987200D02*
X19614981Y1949105D01*
X19614981Y1949105D02*
X19691172Y1949105D01*
X19691172Y1949105D02*
X19805457Y1987200D01*
X19805457Y1987200D02*
X19843553Y2025296D01*
X19843553Y2025296D02*
X19843553Y2291962D01*
X19843553Y2291962D02*
X19691172Y2291962D01*
X4587952Y10898981D02*
X4016524Y10898981D01*
X4302238Y10898981D02*
X4302238Y11898981D01*
X4302238Y11898981D02*
X4207000Y11756124D01*
X4207000Y11756124D02*
X4111762Y11660886D01*
X4111762Y11660886D02*
X4016524Y11613267D01*
X4968905Y11803743D02*
X5016524Y11851362D01*
X5016524Y11851362D02*
X5111762Y11898981D01*
X5111762Y11898981D02*
X5349857Y11898981D01*
X5349857Y11898981D02*
X5445095Y11851362D01*
X5445095Y11851362D02*
X5492714Y11803743D01*
X5492714Y11803743D02*
X5540333Y11708505D01*
X5540333Y11708505D02*
X5540333Y11613267D01*
X5540333Y11613267D02*
X5492714Y11470410D01*
X5492714Y11470410D02*
X4921286Y10898981D01*
X4921286Y10898981D02*
X5540333Y10898981D01*
X5826048Y11898981D02*
X6159381Y10898981D01*
X6159381Y10898981D02*
X6492714Y11898981D01*
X41833969Y12433181D02*
X41357779Y12433181D01*
X41357779Y12433181D02*
X41310160Y11956991D01*
X41310160Y11956991D02*
X41357779Y12004610D01*
X41357779Y12004610D02*
X41453017Y12052229D01*
X41453017Y12052229D02*
X41691112Y12052229D01*
X41691112Y12052229D02*
X41786350Y12004610D01*
X41786350Y12004610D02*
X41833969Y11956991D01*
X41833969Y11956991D02*
X41881588Y11861753D01*
X41881588Y11861753D02*
X41881588Y11623658D01*
X41881588Y11623658D02*
X41833969Y11528420D01*
X41833969Y11528420D02*
X41786350Y11480800D01*
X41786350Y11480800D02*
X41691112Y11433181D01*
X41691112Y11433181D02*
X41453017Y11433181D01*
X41453017Y11433181D02*
X41357779Y11480800D01*
X41357779Y11480800D02*
X41310160Y11528420D01*
X42167303Y12433181D02*
X42500636Y11433181D01*
X42500636Y11433181D02*
X42833969Y12433181D01*
X7647324Y5215648D02*
X6885419Y4929934D01*
X6885419Y4929934D02*
X7647324Y4644220D01*
X8313990Y5548981D02*
X8504466Y5548981D01*
X8504466Y5548981D02*
X8599704Y5501362D01*
X8599704Y5501362D02*
X8694942Y5406124D01*
X8694942Y5406124D02*
X8742561Y5215648D01*
X8742561Y5215648D02*
X8742561Y4882315D01*
X8742561Y4882315D02*
X8694942Y4691839D01*
X8694942Y4691839D02*
X8599704Y4596600D01*
X8599704Y4596600D02*
X8504466Y4548981D01*
X8504466Y4548981D02*
X8313990Y4548981D01*
X8313990Y4548981D02*
X8218752Y4596600D01*
X8218752Y4596600D02*
X8123514Y4691839D01*
X8123514Y4691839D02*
X8075895Y4882315D01*
X8075895Y4882315D02*
X8075895Y5215648D01*
X8075895Y5215648D02*
X8123514Y5406124D01*
X8123514Y5406124D02*
X8218752Y5501362D01*
X8218752Y5501362D02*
X8313990Y5548981D01*
X9599704Y5215648D02*
X9599704Y4548981D01*
X9171133Y5215648D02*
X9171133Y4691839D01*
X9171133Y4691839D02*
X9218752Y4596600D01*
X9218752Y4596600D02*
X9313990Y4548981D01*
X9313990Y4548981D02*
X9456847Y4548981D01*
X9456847Y4548981D02*
X9552085Y4596600D01*
X9552085Y4596600D02*
X9599704Y4644220D01*
X9933038Y5215648D02*
X10313990Y5215648D01*
X10075895Y5548981D02*
X10075895Y4691839D01*
X10075895Y4691839D02*
X10123514Y4596600D01*
X10123514Y4596600D02*
X10218752Y4548981D01*
X10218752Y4548981D02*
X10313990Y4548981D01*
X10647324Y5215648D02*
X10647324Y4215648D01*
X10647324Y5168029D02*
X10742562Y5215648D01*
X10742562Y5215648D02*
X10933038Y5215648D01*
X10933038Y5215648D02*
X11028276Y5168029D01*
X11028276Y5168029D02*
X11075895Y5120410D01*
X11075895Y5120410D02*
X11123514Y5025172D01*
X11123514Y5025172D02*
X11123514Y4739458D01*
X11123514Y4739458D02*
X11075895Y4644220D01*
X11075895Y4644220D02*
X11028276Y4596600D01*
X11028276Y4596600D02*
X10933038Y4548981D01*
X10933038Y4548981D02*
X10742562Y4548981D01*
X10742562Y4548981D02*
X10647324Y4596600D01*
X11980657Y5215648D02*
X11980657Y4548981D01*
X11552086Y5215648D02*
X11552086Y4691839D01*
X11552086Y4691839D02*
X11599705Y4596600D01*
X11599705Y4596600D02*
X11694943Y4548981D01*
X11694943Y4548981D02*
X11837800Y4548981D01*
X11837800Y4548981D02*
X11933038Y4596600D01*
X11933038Y4596600D02*
X11980657Y4644220D01*
X12313991Y5215648D02*
X12694943Y5215648D01*
X12456848Y5548981D02*
X12456848Y4691839D01*
X12456848Y4691839D02*
X12504467Y4596600D01*
X12504467Y4596600D02*
X12599705Y4548981D01*
X12599705Y4548981D02*
X12694943Y4548981D01*
X13028277Y5215648D02*
X13790182Y4929934D01*
X13790182Y4929934D02*
X13028277Y4644220D01*
X26670095Y52491362D02*
X26574857Y52538981D01*
X26574857Y52538981D02*
X26432000Y52538981D01*
X26432000Y52538981D02*
X26289143Y52491362D01*
X26289143Y52491362D02*
X26193905Y52396124D01*
X26193905Y52396124D02*
X26146286Y52300886D01*
X26146286Y52300886D02*
X26098667Y52110410D01*
X26098667Y52110410D02*
X26098667Y51967553D01*
X26098667Y51967553D02*
X26146286Y51777077D01*
X26146286Y51777077D02*
X26193905Y51681839D01*
X26193905Y51681839D02*
X26289143Y51586600D01*
X26289143Y51586600D02*
X26432000Y51538981D01*
X26432000Y51538981D02*
X26527238Y51538981D01*
X26527238Y51538981D02*
X26670095Y51586600D01*
X26670095Y51586600D02*
X26717714Y51634220D01*
X26717714Y51634220D02*
X26717714Y51967553D01*
X26717714Y51967553D02*
X26527238Y51967553D01*
X27146286Y51538981D02*
X27146286Y52538981D01*
X27146286Y52538981D02*
X27717714Y51538981D01*
X27717714Y51538981D02*
X27717714Y52538981D01*
X28193905Y51538981D02*
X28193905Y52538981D01*
X28193905Y52538981D02*
X28432000Y52538981D01*
X28432000Y52538981D02*
X28574857Y52491362D01*
X28574857Y52491362D02*
X28670095Y52396124D01*
X28670095Y52396124D02*
X28717714Y52300886D01*
X28717714Y52300886D02*
X28765333Y52110410D01*
X28765333Y52110410D02*
X28765333Y51967553D01*
X28765333Y51967553D02*
X28717714Y51777077D01*
X28717714Y51777077D02*
X28670095Y51681839D01*
X28670095Y51681839D02*
X28574857Y51586600D01*
X28574857Y51586600D02*
X28432000Y51538981D01*
X28432000Y51538981D02*
X28193905Y51538981D01*
X27660619Y25456705D02*
X27279667Y25456705D01*
X27279667Y25456705D02*
X27241571Y25075753D01*
X27241571Y25075753D02*
X27279667Y25113848D01*
X27279667Y25113848D02*
X27355857Y25151943D01*
X27355857Y25151943D02*
X27546333Y25151943D01*
X27546333Y25151943D02*
X27622524Y25113848D01*
X27622524Y25113848D02*
X27660619Y25075753D01*
X27660619Y25075753D02*
X27698714Y24999562D01*
X27698714Y24999562D02*
X27698714Y24809086D01*
X27698714Y24809086D02*
X27660619Y24732896D01*
X27660619Y24732896D02*
X27622524Y24694800D01*
X27622524Y24694800D02*
X27546333Y24656705D01*
X27546333Y24656705D02*
X27355857Y24656705D01*
X27355857Y24656705D02*
X27279667Y24694800D01*
X27279667Y24694800D02*
X27241571Y24732896D01*
X27927286Y25456705D02*
X28193953Y24656705D01*
X28193953Y24656705D02*
X28460619Y25456705D01*
X4771143Y56853896D02*
X5247333Y56853896D01*
X4675905Y56568181D02*
X5009238Y57568181D01*
X5009238Y57568181D02*
X5342571Y56568181D01*
X5675905Y56568181D02*
X5675905Y57234848D01*
X5675905Y57139610D02*
X5723524Y57187229D01*
X5723524Y57187229D02*
X5818762Y57234848D01*
X5818762Y57234848D02*
X5961619Y57234848D01*
X5961619Y57234848D02*
X6056857Y57187229D01*
X6056857Y57187229D02*
X6104476Y57091991D01*
X6104476Y57091991D02*
X6104476Y56568181D01*
X6104476Y57091991D02*
X6152095Y57187229D01*
X6152095Y57187229D02*
X6247333Y57234848D01*
X6247333Y57234848D02*
X6390190Y57234848D01*
X6390190Y57234848D02*
X6485429Y57187229D01*
X6485429Y57187229D02*
X6533048Y57091991D01*
X6533048Y57091991D02*
X6533048Y56568181D01*
X7152095Y56568181D02*
X7056857Y56615800D01*
X7056857Y56615800D02*
X7009238Y56663420D01*
X7009238Y56663420D02*
X6961619Y56758658D01*
X6961619Y56758658D02*
X6961619Y57044372D01*
X6961619Y57044372D02*
X7009238Y57139610D01*
X7009238Y57139610D02*
X7056857Y57187229D01*
X7056857Y57187229D02*
X7152095Y57234848D01*
X7152095Y57234848D02*
X7294952Y57234848D01*
X7294952Y57234848D02*
X7390190Y57187229D01*
X7390190Y57187229D02*
X7437809Y57139610D01*
X7437809Y57139610D02*
X7485428Y57044372D01*
X7485428Y57044372D02*
X7485428Y56758658D01*
X7485428Y56758658D02*
X7437809Y56663420D01*
X7437809Y56663420D02*
X7390190Y56615800D01*
X7390190Y56615800D02*
X7294952Y56568181D01*
X7294952Y56568181D02*
X7152095Y56568181D01*
X7866381Y56615800D02*
X7961619Y56568181D01*
X7961619Y56568181D02*
X8152095Y56568181D01*
X8152095Y56568181D02*
X8247333Y56615800D01*
X8247333Y56615800D02*
X8294952Y56711039D01*
X8294952Y56711039D02*
X8294952Y56758658D01*
X8294952Y56758658D02*
X8247333Y56853896D01*
X8247333Y56853896D02*
X8152095Y56901515D01*
X8152095Y56901515D02*
X8009238Y56901515D01*
X8009238Y56901515D02*
X7914000Y56949134D01*
X7914000Y56949134D02*
X7866381Y57044372D01*
X7866381Y57044372D02*
X7866381Y57091991D01*
X7866381Y57091991D02*
X7914000Y57187229D01*
X7914000Y57187229D02*
X8009238Y57234848D01*
X8009238Y57234848D02*
X8152095Y57234848D01*
X8152095Y57234848D02*
X8247333Y57187229D01*
X10056857Y56568181D02*
X9723524Y57044372D01*
X9485429Y56568181D02*
X9485429Y57568181D01*
X9485429Y57568181D02*
X9866381Y57568181D01*
X9866381Y57568181D02*
X9961619Y57520562D01*
X9961619Y57520562D02*
X10009238Y57472943D01*
X10009238Y57472943D02*
X10056857Y57377705D01*
X10056857Y57377705D02*
X10056857Y57234848D01*
X10056857Y57234848D02*
X10009238Y57139610D01*
X10009238Y57139610D02*
X9961619Y57091991D01*
X9961619Y57091991D02*
X9866381Y57044372D01*
X9866381Y57044372D02*
X9485429Y57044372D01*
X10914000Y56568181D02*
X10914000Y57091991D01*
X10914000Y57091991D02*
X10866381Y57187229D01*
X10866381Y57187229D02*
X10771143Y57234848D01*
X10771143Y57234848D02*
X10580667Y57234848D01*
X10580667Y57234848D02*
X10485429Y57187229D01*
X10914000Y56615800D02*
X10818762Y56568181D01*
X10818762Y56568181D02*
X10580667Y56568181D01*
X10580667Y56568181D02*
X10485429Y56615800D01*
X10485429Y56615800D02*
X10437810Y56711039D01*
X10437810Y56711039D02*
X10437810Y56806277D01*
X10437810Y56806277D02*
X10485429Y56901515D01*
X10485429Y56901515D02*
X10580667Y56949134D01*
X10580667Y56949134D02*
X10818762Y56949134D01*
X10818762Y56949134D02*
X10914000Y56996753D01*
X11342572Y56615800D02*
X11437810Y56568181D01*
X11437810Y56568181D02*
X11628286Y56568181D01*
X11628286Y56568181D02*
X11723524Y56615800D01*
X11723524Y56615800D02*
X11771143Y56711039D01*
X11771143Y56711039D02*
X11771143Y56758658D01*
X11771143Y56758658D02*
X11723524Y56853896D01*
X11723524Y56853896D02*
X11628286Y56901515D01*
X11628286Y56901515D02*
X11485429Y56901515D01*
X11485429Y56901515D02*
X11390191Y56949134D01*
X11390191Y56949134D02*
X11342572Y57044372D01*
X11342572Y57044372D02*
X11342572Y57091991D01*
X11342572Y57091991D02*
X11390191Y57187229D01*
X11390191Y57187229D02*
X11485429Y57234848D01*
X11485429Y57234848D02*
X11628286Y57234848D01*
X11628286Y57234848D02*
X11723524Y57187229D01*
X12199715Y57234848D02*
X12199715Y56234848D01*
X12199715Y57187229D02*
X12294953Y57234848D01*
X12294953Y57234848D02*
X12485429Y57234848D01*
X12485429Y57234848D02*
X12580667Y57187229D01*
X12580667Y57187229D02*
X12628286Y57139610D01*
X12628286Y57139610D02*
X12675905Y57044372D01*
X12675905Y57044372D02*
X12675905Y56758658D01*
X12675905Y56758658D02*
X12628286Y56663420D01*
X12628286Y56663420D02*
X12580667Y56615800D01*
X12580667Y56615800D02*
X12485429Y56568181D01*
X12485429Y56568181D02*
X12294953Y56568181D01*
X12294953Y56568181D02*
X12199715Y56615800D01*
X13104477Y56949134D02*
X13866382Y56949134D01*
X14342572Y56568181D02*
X14342572Y57568181D01*
X14342572Y57568181D02*
X14723524Y57568181D01*
X14723524Y57568181D02*
X14818762Y57520562D01*
X14818762Y57520562D02*
X14866381Y57472943D01*
X14866381Y57472943D02*
X14914000Y57377705D01*
X14914000Y57377705D02*
X14914000Y57234848D01*
X14914000Y57234848D02*
X14866381Y57139610D01*
X14866381Y57139610D02*
X14818762Y57091991D01*
X14818762Y57091991D02*
X14723524Y57044372D01*
X14723524Y57044372D02*
X14342572Y57044372D01*
X15342572Y56568181D02*
X15342572Y57568181D01*
X15342572Y57568181D02*
X15675905Y56853896D01*
X15675905Y56853896D02*
X16009238Y57568181D01*
X16009238Y57568181D02*
X16009238Y56568181D01*
X27063761Y39896705D02*
X26606618Y39896705D01*
X26835190Y39896705D02*
X26835190Y40696705D01*
X26835190Y40696705D02*
X26758999Y40582420D01*
X26758999Y40582420D02*
X26682809Y40506229D01*
X26682809Y40506229D02*
X26606618Y40468134D01*
X27368523Y40620515D02*
X27406619Y40658610D01*
X27406619Y40658610D02*
X27482809Y40696705D01*
X27482809Y40696705D02*
X27673285Y40696705D01*
X27673285Y40696705D02*
X27749476Y40658610D01*
X27749476Y40658610D02*
X27787571Y40620515D01*
X27787571Y40620515D02*
X27825666Y40544324D01*
X27825666Y40544324D02*
X27825666Y40468134D01*
X27825666Y40468134D02*
X27787571Y40353848D01*
X27787571Y40353848D02*
X27330428Y39896705D01*
X27330428Y39896705D02*
X27825666Y39896705D01*
X28054238Y40696705D02*
X28320905Y39896705D01*
X28320905Y39896705D02*
X28587571Y40696705D01*
X30408905Y32438181D02*
X30408905Y33438181D01*
X30408905Y33438181D02*
X30742238Y32723896D01*
X30742238Y32723896D02*
X31075571Y33438181D01*
X31075571Y33438181D02*
X31075571Y32438181D01*
X31551762Y32438181D02*
X31551762Y33438181D01*
X31551762Y33438181D02*
X31932714Y33438181D01*
X31932714Y33438181D02*
X32027952Y33390562D01*
X32027952Y33390562D02*
X32075571Y33342943D01*
X32075571Y33342943D02*
X32123190Y33247705D01*
X32123190Y33247705D02*
X32123190Y33104848D01*
X32123190Y33104848D02*
X32075571Y33009610D01*
X32075571Y33009610D02*
X32027952Y32961991D01*
X32027952Y32961991D02*
X31932714Y32914372D01*
X31932714Y32914372D02*
X31551762Y32914372D01*
X33075571Y32438181D02*
X32504143Y32438181D01*
X32789857Y32438181D02*
X32789857Y33438181D01*
X32789857Y33438181D02*
X32694619Y33295324D01*
X32694619Y33295324D02*
X32599381Y33200086D01*
X32599381Y33200086D02*
X32504143Y33152467D01*
X33980333Y33438181D02*
X33504143Y33438181D01*
X33504143Y33438181D02*
X33456524Y32961991D01*
X33456524Y32961991D02*
X33504143Y33009610D01*
X33504143Y33009610D02*
X33599381Y33057229D01*
X33599381Y33057229D02*
X33837476Y33057229D01*
X33837476Y33057229D02*
X33932714Y33009610D01*
X33932714Y33009610D02*
X33980333Y32961991D01*
X33980333Y32961991D02*
X34027952Y32866753D01*
X34027952Y32866753D02*
X34027952Y32628658D01*
X34027952Y32628658D02*
X33980333Y32533420D01*
X33980333Y32533420D02*
X33932714Y32485800D01*
X33932714Y32485800D02*
X33837476Y32438181D01*
X33837476Y32438181D02*
X33599381Y32438181D01*
X33599381Y32438181D02*
X33504143Y32485800D01*
X33504143Y32485800D02*
X33456524Y32533420D01*
X34599381Y33009610D02*
X34504143Y33057229D01*
X34504143Y33057229D02*
X34456524Y33104848D01*
X34456524Y33104848D02*
X34408905Y33200086D01*
X34408905Y33200086D02*
X34408905Y33247705D01*
X34408905Y33247705D02*
X34456524Y33342943D01*
X34456524Y33342943D02*
X34504143Y33390562D01*
X34504143Y33390562D02*
X34599381Y33438181D01*
X34599381Y33438181D02*
X34789857Y33438181D01*
X34789857Y33438181D02*
X34885095Y33390562D01*
X34885095Y33390562D02*
X34932714Y33342943D01*
X34932714Y33342943D02*
X34980333Y33247705D01*
X34980333Y33247705D02*
X34980333Y33200086D01*
X34980333Y33200086D02*
X34932714Y33104848D01*
X34932714Y33104848D02*
X34885095Y33057229D01*
X34885095Y33057229D02*
X34789857Y33009610D01*
X34789857Y33009610D02*
X34599381Y33009610D01*
X34599381Y33009610D02*
X34504143Y32961991D01*
X34504143Y32961991D02*
X34456524Y32914372D01*
X34456524Y32914372D02*
X34408905Y32819134D01*
X34408905Y32819134D02*
X34408905Y32628658D01*
X34408905Y32628658D02*
X34456524Y32533420D01*
X34456524Y32533420D02*
X34504143Y32485800D01*
X34504143Y32485800D02*
X34599381Y32438181D01*
X34599381Y32438181D02*
X34789857Y32438181D01*
X34789857Y32438181D02*
X34885095Y32485800D01*
X34885095Y32485800D02*
X34932714Y32533420D01*
X34932714Y32533420D02*
X34980333Y32628658D01*
X34980333Y32628658D02*
X34980333Y32819134D01*
X34980333Y32819134D02*
X34932714Y32914372D01*
X34932714Y32914372D02*
X34885095Y32961991D01*
X34885095Y32961991D02*
X34789857Y33009610D01*
X35837476Y33104848D02*
X35837476Y32438181D01*
X35599381Y33485800D02*
X35361286Y32771515D01*
X35361286Y32771515D02*
X35980333Y32771515D01*
X13009714Y54790181D02*
X12676381Y55266372D01*
X12438286Y54790181D02*
X12438286Y55790181D01*
X12438286Y55790181D02*
X12819238Y55790181D01*
X12819238Y55790181D02*
X12914476Y55742562D01*
X12914476Y55742562D02*
X12962095Y55694943D01*
X12962095Y55694943D02*
X13009714Y55599705D01*
X13009714Y55599705D02*
X13009714Y55456848D01*
X13009714Y55456848D02*
X12962095Y55361610D01*
X12962095Y55361610D02*
X12914476Y55313991D01*
X12914476Y55313991D02*
X12819238Y55266372D01*
X12819238Y55266372D02*
X12438286Y55266372D01*
X13819238Y54837800D02*
X13724000Y54790181D01*
X13724000Y54790181D02*
X13533524Y54790181D01*
X13533524Y54790181D02*
X13438286Y54837800D01*
X13438286Y54837800D02*
X13390667Y54933039D01*
X13390667Y54933039D02*
X13390667Y55313991D01*
X13390667Y55313991D02*
X13438286Y55409229D01*
X13438286Y55409229D02*
X13533524Y55456848D01*
X13533524Y55456848D02*
X13724000Y55456848D01*
X13724000Y55456848D02*
X13819238Y55409229D01*
X13819238Y55409229D02*
X13866857Y55313991D01*
X13866857Y55313991D02*
X13866857Y55218753D01*
X13866857Y55218753D02*
X13390667Y55123515D01*
X14200191Y55456848D02*
X14438286Y54790181D01*
X14438286Y54790181D02*
X14676381Y55456848D01*
X15057334Y54885420D02*
X15104953Y54837800D01*
X15104953Y54837800D02*
X15057334Y54790181D01*
X15057334Y54790181D02*
X15009715Y54837800D01*
X15009715Y54837800D02*
X15057334Y54885420D01*
X15057334Y54885420D02*
X15057334Y54790181D01*
X15962095Y55456848D02*
X15962095Y54790181D01*
X15724000Y55837800D02*
X15485905Y55123515D01*
X15485905Y55123515D02*
X16104952Y55123515D01*
X526704Y26682639D02*
X526704Y27139782D01*
X526704Y26911210D02*
X1326704Y26911210D01*
X1326704Y26911210D02*
X1212419Y26987401D01*
X1212419Y26987401D02*
X1136228Y27063591D01*
X1136228Y27063591D02*
X1098133Y27139782D01*
X1250514Y26377877D02*
X1288609Y26339781D01*
X1288609Y26339781D02*
X1326704Y26263591D01*
X1326704Y26263591D02*
X1326704Y26073115D01*
X1326704Y26073115D02*
X1288609Y25996924D01*
X1288609Y25996924D02*
X1250514Y25958829D01*
X1250514Y25958829D02*
X1174323Y25920734D01*
X1174323Y25920734D02*
X1098133Y25920734D01*
X1098133Y25920734D02*
X983847Y25958829D01*
X983847Y25958829D02*
X526704Y26415972D01*
X526704Y26415972D02*
X526704Y25920734D01*
X1326704Y25692162D02*
X526704Y25425495D01*
X526704Y25425495D02*
X1326704Y25158829D01*
X18726495Y28098772D02*
X18726495Y27641629D01*
X18726495Y27870201D02*
X17926495Y27870201D01*
X17926495Y27870201D02*
X18040780Y27794010D01*
X18040780Y27794010D02*
X18116971Y27717820D01*
X18116971Y27717820D02*
X18155066Y27641629D01*
X18726495Y28441630D02*
X17926495Y28441630D01*
X18726495Y28898773D02*
X18269352Y28555915D01*
X17926495Y28898773D02*
X18383638Y28441630D01*
X17926495Y23564981D02*
X17926495Y24060219D01*
X17926495Y24060219D02*
X18231257Y23793553D01*
X18231257Y23793553D02*
X18231257Y23907838D01*
X18231257Y23907838D02*
X18269352Y23984029D01*
X18269352Y23984029D02*
X18307447Y24022124D01*
X18307447Y24022124D02*
X18383638Y24060219D01*
X18383638Y24060219D02*
X18574114Y24060219D01*
X18574114Y24060219D02*
X18650304Y24022124D01*
X18650304Y24022124D02*
X18688400Y23984029D01*
X18688400Y23984029D02*
X18726495Y23907838D01*
X18726495Y23907838D02*
X18726495Y23679267D01*
X18726495Y23679267D02*
X18688400Y23603076D01*
X18688400Y23603076D02*
X18650304Y23564981D01*
X17926495Y24555458D02*
X17926495Y24631648D01*
X17926495Y24631648D02*
X17964590Y24707839D01*
X17964590Y24707839D02*
X18002685Y24745934D01*
X18002685Y24745934D02*
X18078876Y24784029D01*
X18078876Y24784029D02*
X18231257Y24822124D01*
X18231257Y24822124D02*
X18421733Y24822124D01*
X18421733Y24822124D02*
X18574114Y24784029D01*
X18574114Y24784029D02*
X18650304Y24745934D01*
X18650304Y24745934D02*
X18688400Y24707839D01*
X18688400Y24707839D02*
X18726495Y24631648D01*
X18726495Y24631648D02*
X18726495Y24555458D01*
X18726495Y24555458D02*
X18688400Y24479267D01*
X18688400Y24479267D02*
X18650304Y24441172D01*
X18650304Y24441172D02*
X18574114Y24403077D01*
X18574114Y24403077D02*
X18421733Y24364981D01*
X18421733Y24364981D02*
X18231257Y24364981D01*
X18231257Y24364981D02*
X18078876Y24403077D01*
X18078876Y24403077D02*
X18002685Y24441172D01*
X18002685Y24441172D02*
X17964590Y24479267D01*
X17964590Y24479267D02*
X17926495Y24555458D01*
X18726495Y25164982D02*
X17926495Y25164982D01*
X18726495Y25622125D02*
X18269352Y25279267D01*
X17926495Y25622125D02*
X18383638Y25164982D01*
X21368095Y39973325D02*
X20568095Y39973325D01*
X20568095Y39973325D02*
X20568095Y40163801D01*
X20568095Y40163801D02*
X20606190Y40278087D01*
X20606190Y40278087D02*
X20682380Y40354277D01*
X20682380Y40354277D02*
X20758571Y40392372D01*
X20758571Y40392372D02*
X20910952Y40430468D01*
X20910952Y40430468D02*
X21025238Y40430468D01*
X21025238Y40430468D02*
X21177619Y40392372D01*
X21177619Y40392372D02*
X21253809Y40354277D01*
X21253809Y40354277D02*
X21330000Y40278087D01*
X21330000Y40278087D02*
X21368095Y40163801D01*
X21368095Y40163801D02*
X21368095Y39973325D01*
X20644285Y40735229D02*
X20606190Y40773325D01*
X20606190Y40773325D02*
X20568095Y40849515D01*
X20568095Y40849515D02*
X20568095Y41039991D01*
X20568095Y41039991D02*
X20606190Y41116182D01*
X20606190Y41116182D02*
X20644285Y41154277D01*
X20644285Y41154277D02*
X20720476Y41192372D01*
X20720476Y41192372D02*
X20796666Y41192372D01*
X20796666Y41192372D02*
X20910952Y41154277D01*
X20910952Y41154277D02*
X21368095Y40697134D01*
X21368095Y40697134D02*
X21368095Y41192372D01*
X19590095Y38849514D02*
X19590095Y38392371D01*
X19590095Y38620943D02*
X18790095Y38620943D01*
X18790095Y38620943D02*
X18904380Y38544752D01*
X18904380Y38544752D02*
X18980571Y38468562D01*
X18980571Y38468562D02*
X19018666Y38392371D01*
X19590095Y39192372D02*
X18790095Y39192372D01*
X18790095Y39192372D02*
X19590095Y39649515D01*
X19590095Y39649515D02*
X18790095Y39649515D01*
X18790095Y40411419D02*
X18790095Y40030467D01*
X18790095Y40030467D02*
X19171047Y39992371D01*
X19171047Y39992371D02*
X19132952Y40030467D01*
X19132952Y40030467D02*
X19094857Y40106657D01*
X19094857Y40106657D02*
X19094857Y40297133D01*
X19094857Y40297133D02*
X19132952Y40373324D01*
X19132952Y40373324D02*
X19171047Y40411419D01*
X19171047Y40411419D02*
X19247238Y40449514D01*
X19247238Y40449514D02*
X19437714Y40449514D01*
X19437714Y40449514D02*
X19513904Y40411419D01*
X19513904Y40411419D02*
X19552000Y40373324D01*
X19552000Y40373324D02*
X19590095Y40297133D01*
X19590095Y40297133D02*
X19590095Y40106657D01*
X19590095Y40106657D02*
X19552000Y40030467D01*
X19552000Y40030467D02*
X19513904Y39992371D01*
X19056761Y41135229D02*
X19590095Y41135229D01*
X18752000Y40944753D02*
X19323428Y40754276D01*
X19323428Y40754276D02*
X19323428Y41249515D01*
X18790095Y41706658D02*
X18790095Y41782848D01*
X18790095Y41782848D02*
X18828190Y41859039D01*
X18828190Y41859039D02*
X18866285Y41897134D01*
X18866285Y41897134D02*
X18942476Y41935229D01*
X18942476Y41935229D02*
X19094857Y41973324D01*
X19094857Y41973324D02*
X19285333Y41973324D01*
X19285333Y41973324D02*
X19437714Y41935229D01*
X19437714Y41935229D02*
X19513904Y41897134D01*
X19513904Y41897134D02*
X19552000Y41859039D01*
X19552000Y41859039D02*
X19590095Y41782848D01*
X19590095Y41782848D02*
X19590095Y41706658D01*
X19590095Y41706658D02*
X19552000Y41630467D01*
X19552000Y41630467D02*
X19513904Y41592372D01*
X19513904Y41592372D02*
X19437714Y41554277D01*
X19437714Y41554277D02*
X19285333Y41516181D01*
X19285333Y41516181D02*
X19094857Y41516181D01*
X19094857Y41516181D02*
X18942476Y41554277D01*
X18942476Y41554277D02*
X18866285Y41592372D01*
X18866285Y41592372D02*
X18828190Y41630467D01*
X18828190Y41630467D02*
X18790095Y41706658D01*
X18790095Y42468563D02*
X18790095Y42544753D01*
X18790095Y42544753D02*
X18828190Y42620944D01*
X18828190Y42620944D02*
X18866285Y42659039D01*
X18866285Y42659039D02*
X18942476Y42697134D01*
X18942476Y42697134D02*
X19094857Y42735229D01*
X19094857Y42735229D02*
X19285333Y42735229D01*
X19285333Y42735229D02*
X19437714Y42697134D01*
X19437714Y42697134D02*
X19513904Y42659039D01*
X19513904Y42659039D02*
X19552000Y42620944D01*
X19552000Y42620944D02*
X19590095Y42544753D01*
X19590095Y42544753D02*
X19590095Y42468563D01*
X19590095Y42468563D02*
X19552000Y42392372D01*
X19552000Y42392372D02*
X19513904Y42354277D01*
X19513904Y42354277D02*
X19437714Y42316182D01*
X19437714Y42316182D02*
X19285333Y42278086D01*
X19285333Y42278086D02*
X19094857Y42278086D01*
X19094857Y42278086D02*
X18942476Y42316182D01*
X18942476Y42316182D02*
X18866285Y42354277D01*
X18866285Y42354277D02*
X18828190Y42392372D01*
X18828190Y42392372D02*
X18790095Y42468563D01*
X14002095Y27717819D02*
X14002095Y27260676D01*
X14002095Y27489248D02*
X13202095Y27489248D01*
X13202095Y27489248D02*
X13316380Y27413057D01*
X13316380Y27413057D02*
X13392571Y27336867D01*
X13392571Y27336867D02*
X13430666Y27260676D01*
X13202095Y28213058D02*
X13202095Y28289248D01*
X13202095Y28289248D02*
X13240190Y28365439D01*
X13240190Y28365439D02*
X13278285Y28403534D01*
X13278285Y28403534D02*
X13354476Y28441629D01*
X13354476Y28441629D02*
X13506857Y28479724D01*
X13506857Y28479724D02*
X13697333Y28479724D01*
X13697333Y28479724D02*
X13849714Y28441629D01*
X13849714Y28441629D02*
X13925904Y28403534D01*
X13925904Y28403534D02*
X13964000Y28365439D01*
X13964000Y28365439D02*
X14002095Y28289248D01*
X14002095Y28289248D02*
X14002095Y28213058D01*
X14002095Y28213058D02*
X13964000Y28136867D01*
X13964000Y28136867D02*
X13925904Y28098772D01*
X13925904Y28098772D02*
X13849714Y28060677D01*
X13849714Y28060677D02*
X13697333Y28022581D01*
X13697333Y28022581D02*
X13506857Y28022581D01*
X13506857Y28022581D02*
X13354476Y28060677D01*
X13354476Y28060677D02*
X13278285Y28098772D01*
X13278285Y28098772D02*
X13240190Y28136867D01*
X13240190Y28136867D02*
X13202095Y28213058D01*
X14002095Y28822582D02*
X13202095Y28822582D01*
X14002095Y29279725D02*
X13544952Y28936867D01*
X13202095Y29279725D02*
X13659238Y28822582D01*
X32315228Y51707639D02*
X32315228Y51174305D01*
X32124752Y52012400D02*
X31934275Y51440972D01*
X31934275Y51440972D02*
X32429514Y51440972D01*
X32734276Y51174305D02*
X32734276Y51974305D01*
X33191419Y51174305D02*
X32848561Y51631448D01*
X33191419Y51974305D02*
X32734276Y51517162D01*
X33458085Y51974305D02*
X33991419Y51974305D01*
X33991419Y51974305D02*
X33648561Y51174305D01*
X35960124Y51021905D02*
X35960124Y51821905D01*
X35960124Y51821905D02*
X36150600Y51821905D01*
X36150600Y51821905D02*
X36264886Y51783810D01*
X36264886Y51783810D02*
X36341076Y51707620D01*
X36341076Y51707620D02*
X36379171Y51631429D01*
X36379171Y51631429D02*
X36417267Y51479048D01*
X36417267Y51479048D02*
X36417267Y51364762D01*
X36417267Y51364762D02*
X36379171Y51212381D01*
X36379171Y51212381D02*
X36341076Y51136191D01*
X36341076Y51136191D02*
X36264886Y51060000D01*
X36264886Y51060000D02*
X36150600Y51021905D01*
X36150600Y51021905D02*
X35960124Y51021905D01*
X36683933Y51821905D02*
X37179171Y51821905D01*
X37179171Y51821905D02*
X36912505Y51517143D01*
X36912505Y51517143D02*
X37026790Y51517143D01*
X37026790Y51517143D02*
X37102981Y51479048D01*
X37102981Y51479048D02*
X37141076Y51440953D01*
X37141076Y51440953D02*
X37179171Y51364762D01*
X37179171Y51364762D02*
X37179171Y51174286D01*
X37179171Y51174286D02*
X37141076Y51098096D01*
X37141076Y51098096D02*
X37102981Y51060000D01*
X37102981Y51060000D02*
X37026790Y51021905D01*
X37026790Y51021905D02*
X36798219Y51021905D01*
X36798219Y51021905D02*
X36722028Y51060000D01*
X36722028Y51060000D02*
X36683933Y51098096D01*
X35909314Y54425505D02*
X35528362Y54425505D01*
X35528362Y54425505D02*
X35528362Y55225505D01*
X36175981Y54844553D02*
X36442647Y54844553D01*
X36556933Y54425505D02*
X36175981Y54425505D01*
X36175981Y54425505D02*
X36175981Y55225505D01*
X36175981Y55225505D02*
X36556933Y55225505D01*
X36899791Y54425505D02*
X36899791Y55225505D01*
X36899791Y55225505D02*
X37090267Y55225505D01*
X37090267Y55225505D02*
X37204553Y55187410D01*
X37204553Y55187410D02*
X37280743Y55111220D01*
X37280743Y55111220D02*
X37318838Y55035029D01*
X37318838Y55035029D02*
X37356934Y54882648D01*
X37356934Y54882648D02*
X37356934Y54768362D01*
X37356934Y54768362D02*
X37318838Y54615981D01*
X37318838Y54615981D02*
X37280743Y54539791D01*
X37280743Y54539791D02*
X37204553Y54463600D01*
X37204553Y54463600D02*
X37090267Y54425505D01*
X37090267Y54425505D02*
X36899791Y54425505D01*
X9201485Y26924010D02*
X9163390Y26847820D01*
X9163390Y26847820D02*
X9087200Y26771629D01*
X9087200Y26771629D02*
X8972914Y26657343D01*
X8972914Y26657343D02*
X8934819Y26581153D01*
X8934819Y26581153D02*
X8934819Y26504962D01*
X9125295Y26543058D02*
X9087200Y26466867D01*
X9087200Y26466867D02*
X9011009Y26390677D01*
X9011009Y26390677D02*
X8858628Y26352581D01*
X8858628Y26352581D02*
X8591961Y26352581D01*
X8591961Y26352581D02*
X8439580Y26390677D01*
X8439580Y26390677D02*
X8363390Y26466867D01*
X8363390Y26466867D02*
X8325295Y26543058D01*
X8325295Y26543058D02*
X8325295Y26695439D01*
X8325295Y26695439D02*
X8363390Y26771629D01*
X8363390Y26771629D02*
X8439580Y26847820D01*
X8439580Y26847820D02*
X8591961Y26885915D01*
X8591961Y26885915D02*
X8858628Y26885915D01*
X8858628Y26885915D02*
X9011009Y26847820D01*
X9011009Y26847820D02*
X9087200Y26771629D01*
X9087200Y26771629D02*
X9125295Y26695439D01*
X9125295Y26695439D02*
X9125295Y26543058D01*
X9125295Y27647819D02*
X9125295Y27190676D01*
X9125295Y27419248D02*
X8325295Y27419248D01*
X8325295Y27419248D02*
X8439580Y27343057D01*
X8439580Y27343057D02*
X8515771Y27266867D01*
X8515771Y27266867D02*
X8553866Y27190676D01*
X6546924Y30651105D02*
X6546924Y31451105D01*
X6546924Y31451105D02*
X6737400Y31451105D01*
X6737400Y31451105D02*
X6851686Y31413010D01*
X6851686Y31413010D02*
X6927876Y31336820D01*
X6927876Y31336820D02*
X6965971Y31260629D01*
X6965971Y31260629D02*
X7004067Y31108248D01*
X7004067Y31108248D02*
X7004067Y30993962D01*
X7004067Y30993962D02*
X6965971Y30841581D01*
X6965971Y30841581D02*
X6927876Y30765391D01*
X6927876Y30765391D02*
X6851686Y30689200D01*
X6851686Y30689200D02*
X6737400Y30651105D01*
X6737400Y30651105D02*
X6546924Y30651105D01*
X7765971Y30651105D02*
X7308828Y30651105D01*
X7537400Y30651105D02*
X7537400Y31451105D01*
X7537400Y31451105D02*
X7461209Y31336820D01*
X7461209Y31336820D02*
X7385019Y31260629D01*
X7385019Y31260629D02*
X7308828Y31222534D01*
X8991799Y32327505D02*
X8610847Y32327505D01*
X8610847Y32327505D02*
X8610847Y33127505D01*
X9639418Y32327505D02*
X9258466Y32327505D01*
X9258466Y32327505D02*
X9258466Y33127505D01*
X10248942Y32860839D02*
X10248942Y32327505D01*
X10058466Y33165600D02*
X9867989Y32594172D01*
X9867989Y32594172D02*
X10363228Y32594172D01*
X11087037Y32327505D02*
X10629894Y32327505D01*
X10858466Y32327505D02*
X10858466Y33127505D01*
X10858466Y33127505D02*
X10782275Y33013220D01*
X10782275Y33013220D02*
X10706085Y32937029D01*
X10706085Y32937029D02*
X10629894Y32898934D01*
X11772752Y32860839D02*
X11772752Y32327505D01*
X11582276Y33165600D02*
X11391799Y32594172D01*
X11391799Y32594172D02*
X11887038Y32594172D01*
X12306085Y32784648D02*
X12229895Y32822743D01*
X12229895Y32822743D02*
X12191800Y32860839D01*
X12191800Y32860839D02*
X12153704Y32937029D01*
X12153704Y32937029D02*
X12153704Y32975124D01*
X12153704Y32975124D02*
X12191800Y33051315D01*
X12191800Y33051315D02*
X12229895Y33089410D01*
X12229895Y33089410D02*
X12306085Y33127505D01*
X12306085Y33127505D02*
X12458466Y33127505D01*
X12458466Y33127505D02*
X12534657Y33089410D01*
X12534657Y33089410D02*
X12572752Y33051315D01*
X12572752Y33051315D02*
X12610847Y32975124D01*
X12610847Y32975124D02*
X12610847Y32937029D01*
X12610847Y32937029D02*
X12572752Y32860839D01*
X12572752Y32860839D02*
X12534657Y32822743D01*
X12534657Y32822743D02*
X12458466Y32784648D01*
X12458466Y32784648D02*
X12306085Y32784648D01*
X12306085Y32784648D02*
X12229895Y32746553D01*
X12229895Y32746553D02*
X12191800Y32708458D01*
X12191800Y32708458D02*
X12153704Y32632267D01*
X12153704Y32632267D02*
X12153704Y32479886D01*
X12153704Y32479886D02*
X12191800Y32403696D01*
X12191800Y32403696D02*
X12229895Y32365600D01*
X12229895Y32365600D02*
X12306085Y32327505D01*
X12306085Y32327505D02*
X12458466Y32327505D01*
X12458466Y32327505D02*
X12534657Y32365600D01*
X12534657Y32365600D02*
X12572752Y32403696D01*
X12572752Y32403696D02*
X12610847Y32479886D01*
X12610847Y32479886D02*
X12610847Y32632267D01*
X12610847Y32632267D02*
X12572752Y32708458D01*
X12572752Y32708458D02*
X12534657Y32746553D01*
X12534657Y32746553D02*
X12458466Y32784648D01*
X14002095Y23679267D02*
X14002095Y23222124D01*
X14002095Y23450696D02*
X13202095Y23450696D01*
X13202095Y23450696D02*
X13316380Y23374505D01*
X13316380Y23374505D02*
X13392571Y23298315D01*
X13392571Y23298315D02*
X13430666Y23222124D01*
X13202095Y24174506D02*
X13202095Y24250696D01*
X13202095Y24250696D02*
X13240190Y24326887D01*
X13240190Y24326887D02*
X13278285Y24364982D01*
X13278285Y24364982D02*
X13354476Y24403077D01*
X13354476Y24403077D02*
X13506857Y24441172D01*
X13506857Y24441172D02*
X13697333Y24441172D01*
X13697333Y24441172D02*
X13849714Y24403077D01*
X13849714Y24403077D02*
X13925904Y24364982D01*
X13925904Y24364982D02*
X13964000Y24326887D01*
X13964000Y24326887D02*
X14002095Y24250696D01*
X14002095Y24250696D02*
X14002095Y24174506D01*
X14002095Y24174506D02*
X13964000Y24098315D01*
X13964000Y24098315D02*
X13925904Y24060220D01*
X13925904Y24060220D02*
X13849714Y24022125D01*
X13849714Y24022125D02*
X13697333Y23984029D01*
X13697333Y23984029D02*
X13506857Y23984029D01*
X13506857Y23984029D02*
X13354476Y24022125D01*
X13354476Y24022125D02*
X13278285Y24060220D01*
X13278285Y24060220D02*
X13240190Y24098315D01*
X13240190Y24098315D02*
X13202095Y24174506D01*
X13202095Y24936411D02*
X13202095Y25012601D01*
X13202095Y25012601D02*
X13240190Y25088792D01*
X13240190Y25088792D02*
X13278285Y25126887D01*
X13278285Y25126887D02*
X13354476Y25164982D01*
X13354476Y25164982D02*
X13506857Y25203077D01*
X13506857Y25203077D02*
X13697333Y25203077D01*
X13697333Y25203077D02*
X13849714Y25164982D01*
X13849714Y25164982D02*
X13925904Y25126887D01*
X13925904Y25126887D02*
X13964000Y25088792D01*
X13964000Y25088792D02*
X14002095Y25012601D01*
X14002095Y25012601D02*
X14002095Y24936411D01*
X14002095Y24936411D02*
X13964000Y24860220D01*
X13964000Y24860220D02*
X13925904Y24822125D01*
X13925904Y24822125D02*
X13849714Y24784030D01*
X13849714Y24784030D02*
X13697333Y24745934D01*
X13697333Y24745934D02*
X13506857Y24745934D01*
X13506857Y24745934D02*
X13354476Y24784030D01*
X13354476Y24784030D02*
X13278285Y24822125D01*
X13278285Y24822125D02*
X13240190Y24860220D01*
X13240190Y24860220D02*
X13202095Y24936411D01*
X14002095Y25545935D02*
X13202095Y25545935D01*
X14002095Y26003078D02*
X13544952Y25660220D01*
X13202095Y26003078D02*
X13659238Y25545935D01*
D11*
%TO.C,DCDC1*%
X41656000Y43688000D02*
X24656000Y43688000D01*
X24656000Y43688000D02*
X24656000Y21688000D01*
X24656000Y21688000D02*
X41656000Y21688000D01*
X41656000Y21688000D02*
X41656000Y43688000D01*
%TO.C,R1*%
X16308400Y28043136D02*
X16308400Y28497264D01*
X17778400Y28043136D02*
X17778400Y28497264D01*
%TO.C,DCDC2*%
X43647000Y50633800D02*
X22647000Y50633800D01*
X22647000Y50633800D02*
X22647000Y7633800D01*
X22647000Y7633800D02*
X43647000Y7633800D01*
X43647000Y7633800D02*
X43647000Y50633800D01*
%TO.C,JP1*%
X8957000Y19999000D02*
X10287000Y19999000D01*
X8957000Y18669000D02*
X8957000Y19999000D01*
X8957000Y17399000D02*
X8957000Y17339000D01*
X8957000Y17399000D02*
X11557000Y17399000D01*
X8957000Y17339000D02*
X14157000Y17339000D01*
X11557000Y19999000D02*
X14157000Y19999000D01*
X11557000Y17399000D02*
X11557000Y19999000D01*
X14157000Y19999000D02*
X14157000Y17339000D01*
%TO.C,R4*%
X17778400Y24850464D02*
X17778400Y24396336D01*
X16308400Y24850464D02*
X16308400Y24396336D01*
%TO.C,D2*%
X19329400Y47055000D02*
X19329400Y46145000D01*
X22049400Y46145000D02*
X16609400Y46145000D01*
X16609400Y46145000D02*
X16609400Y36405000D01*
X22049400Y44720000D02*
X16609400Y44720000D01*
X22049400Y44600000D02*
X16609400Y44600000D01*
X22049400Y44480000D02*
X16609400Y44480000D01*
X22049400Y36405000D02*
X22049400Y46145000D01*
X16609400Y36405000D02*
X22049400Y36405000D01*
X19329400Y35495000D02*
X19329400Y36405000D01*
%TO.C,R2*%
X14174800Y28043136D02*
X14174800Y28497264D01*
X15644800Y28043136D02*
X15644800Y28497264D01*
%TO.C,J3*%
X20557800Y14799000D02*
X19227800Y14799000D01*
X20557800Y16129000D02*
X20557800Y14799000D01*
X20557800Y17399000D02*
X20557800Y19999000D01*
X20557800Y17399000D02*
X17897800Y17399000D01*
X20557800Y19999000D02*
X17897800Y19999000D01*
X17897800Y17399000D02*
X17897800Y19999000D01*
%TO.C,K1*%
X12141000Y36015800D02*
X9941000Y36015800D01*
X12141000Y38115800D02*
X12141000Y36015800D01*
X11941000Y36215800D02*
X4141000Y36215800D01*
X11941000Y48915800D02*
X11941000Y36215800D01*
X9779000Y41198800D02*
X9779000Y41833800D01*
X9779000Y41833800D02*
X9119000Y41833800D01*
X9119000Y41325800D02*
X9119000Y42341800D01*
X9119000Y42341800D02*
X7214000Y42341800D01*
X7595000Y41325800D02*
X8230000Y42341800D01*
X7214000Y41325800D02*
X9119000Y41325800D01*
X7214000Y41325800D02*
X7214000Y42341800D01*
X6579000Y41198800D02*
X6579000Y41833800D01*
X6579000Y41833800D02*
X7214000Y41833800D01*
X4141000Y36215800D02*
X4141000Y48915800D01*
X4141000Y48915800D02*
X11941000Y48915800D01*
%TO.C,J7*%
X14422000Y6941000D02*
X14422000Y5691000D01*
X14712000Y6651000D02*
X14712000Y681000D01*
X14712000Y681000D02*
X22332000Y681000D01*
X14722000Y6641000D02*
X14722000Y5891000D01*
X14722000Y5891000D02*
X16522000Y5891000D01*
X14722000Y4391000D02*
X15472000Y4391000D01*
X15472000Y4391000D02*
X15472000Y1441000D01*
X15472000Y1441000D02*
X18522000Y1441000D01*
X15672000Y6941000D02*
X14422000Y6941000D01*
X16522000Y6641000D02*
X14722000Y6641000D01*
X16522000Y5891000D02*
X16522000Y6641000D01*
X18022000Y6641000D02*
X18022000Y5891000D01*
X18022000Y5891000D02*
X19022000Y5891000D01*
X19022000Y6641000D02*
X18022000Y6641000D01*
X19022000Y5891000D02*
X19022000Y6641000D01*
X20522000Y6641000D02*
X20522000Y5891000D01*
X20522000Y5891000D02*
X22322000Y5891000D01*
X21572000Y4391000D02*
X21572000Y1441000D01*
X21572000Y1441000D02*
X18522000Y1441000D01*
X22322000Y6641000D02*
X20522000Y6641000D01*
X22322000Y5891000D02*
X22322000Y6641000D01*
X22322000Y4391000D02*
X21572000Y4391000D01*
X22332000Y6651000D02*
X14712000Y6651000D01*
X22332000Y681000D02*
X22332000Y6651000D01*
%TO.C,R5*%
X32716736Y53694000D02*
X33170864Y53694000D01*
X32716736Y52224000D02*
X33170864Y52224000D01*
%TO.C,D3*%
X34865600Y53919000D02*
X34865600Y51999000D01*
X34865600Y51999000D02*
X37550600Y51999000D01*
X37550600Y53919000D02*
X34865600Y53919000D01*
%TO.C,J9*%
X32202000Y6941000D02*
X32202000Y5691000D01*
X32492000Y6651000D02*
X32492000Y681000D01*
X32492000Y681000D02*
X40112000Y681000D01*
X32502000Y6641000D02*
X32502000Y5891000D01*
X32502000Y5891000D02*
X34302000Y5891000D01*
X32502000Y4391000D02*
X33252000Y4391000D01*
X33252000Y4391000D02*
X33252000Y1441000D01*
X33252000Y1441000D02*
X36302000Y1441000D01*
X33452000Y6941000D02*
X32202000Y6941000D01*
X34302000Y6641000D02*
X32502000Y6641000D01*
X34302000Y5891000D02*
X34302000Y6641000D01*
X35802000Y6641000D02*
X35802000Y5891000D01*
X35802000Y5891000D02*
X36802000Y5891000D01*
X36802000Y6641000D02*
X35802000Y6641000D01*
X36802000Y5891000D02*
X36802000Y6641000D01*
X38302000Y6641000D02*
X38302000Y5891000D01*
X38302000Y5891000D02*
X40102000Y5891000D01*
X39352000Y4391000D02*
X39352000Y1441000D01*
X39352000Y1441000D02*
X36302000Y1441000D01*
X40102000Y6641000D02*
X38302000Y6641000D01*
X40102000Y5891000D02*
X40102000Y6641000D01*
X40102000Y4391000D02*
X39352000Y4391000D01*
X40112000Y6651000D02*
X32492000Y6651000D01*
X40112000Y681000D02*
X40112000Y6651000D01*
%TO.C,J8*%
X23332000Y6941000D02*
X23332000Y5691000D01*
X23622000Y6651000D02*
X23622000Y681000D01*
X23622000Y681000D02*
X31242000Y681000D01*
X23632000Y6641000D02*
X23632000Y5891000D01*
X23632000Y5891000D02*
X25432000Y5891000D01*
X23632000Y4391000D02*
X24382000Y4391000D01*
X24382000Y4391000D02*
X24382000Y1441000D01*
X24382000Y1441000D02*
X27432000Y1441000D01*
X24582000Y6941000D02*
X23332000Y6941000D01*
X25432000Y6641000D02*
X23632000Y6641000D01*
X25432000Y5891000D02*
X25432000Y6641000D01*
X26932000Y6641000D02*
X26932000Y5891000D01*
X26932000Y5891000D02*
X27932000Y5891000D01*
X27932000Y6641000D02*
X26932000Y6641000D01*
X27932000Y5891000D02*
X27932000Y6641000D01*
X29432000Y6641000D02*
X29432000Y5891000D01*
X29432000Y5891000D02*
X31232000Y5891000D01*
X30482000Y4391000D02*
X30482000Y1441000D01*
X30482000Y1441000D02*
X27432000Y1441000D01*
X31232000Y6641000D02*
X29432000Y6641000D01*
X31232000Y5891000D02*
X31232000Y6641000D01*
X31232000Y4391000D02*
X30482000Y4391000D01*
X31242000Y6651000D02*
X23622000Y6651000D01*
X31242000Y681000D02*
X31242000Y6651000D01*
%TO.C,Q1*%
X12482000Y27051000D02*
X12482000Y28726000D01*
X12482000Y27051000D02*
X12482000Y26401000D01*
X9362000Y27051000D02*
X9362000Y27701000D01*
X9362000Y27051000D02*
X9362000Y26401000D01*
%TO.C,JP2*%
X8957000Y17459000D02*
X10287000Y17459000D01*
X8957000Y16129000D02*
X8957000Y17459000D01*
X8957000Y14859000D02*
X8957000Y14799000D01*
X8957000Y14859000D02*
X11557000Y14859000D01*
X8957000Y14799000D02*
X14157000Y14799000D01*
X11557000Y17459000D02*
X14157000Y17459000D01*
X11557000Y14859000D02*
X11557000Y17459000D01*
X14157000Y17459000D02*
X14157000Y14799000D01*
%TO.C,K2*%
X15851800Y53089000D02*
X9251800Y53089000D01*
X15851800Y53089000D02*
X15851800Y33289000D01*
X6851800Y53089000D02*
X251800Y53089000D01*
X8001800Y49039000D02*
X8001800Y49839000D01*
X8001800Y49039000D02*
X4401800Y49039000D01*
X2001800Y48139000D02*
X2001800Y45639000D01*
X9801800Y47639000D02*
X9801800Y43639000D01*
X6201800Y47639000D02*
X9801800Y47639000D01*
X14001800Y45639000D02*
X14001800Y48139000D01*
X14001800Y45639000D02*
X9801800Y45639000D01*
X6201800Y45639000D02*
X2001800Y45639000D01*
X9801800Y43639000D02*
X6201800Y43639000D01*
X6201800Y43639000D02*
X9801800Y47639000D01*
X6201800Y43639000D02*
X6201800Y47639000D01*
X8001800Y42239000D02*
X4401800Y42239000D01*
X8001800Y42239000D02*
X8001800Y40739000D01*
X4401800Y42239000D02*
X4401800Y49039000D01*
X8001800Y40739000D02*
X10501800Y36139000D01*
X12251800Y37539000D02*
X9751800Y37539000D01*
X3851800Y37539000D02*
X6301800Y37539000D01*
X15851800Y33289000D02*
X251800Y33289000D01*
X251800Y33289000D02*
X251800Y53089000D01*
%TO.C,D1*%
X13141800Y30013400D02*
X13141800Y32013400D01*
X13141800Y32013400D02*
X8841800Y32013400D01*
X8841800Y30013400D02*
X13141800Y30013400D01*
%TO.C,J2*%
X8211000Y29037400D02*
X6961000Y29037400D01*
X7921000Y28747400D02*
X1951000Y28747400D01*
X1951000Y28747400D02*
X1951000Y13627400D01*
X7911000Y28737400D02*
X7161000Y28737400D01*
X7161000Y28737400D02*
X7161000Y26937400D01*
X5661000Y28737400D02*
X5661000Y27987400D01*
X5661000Y27987400D02*
X2711000Y27987400D01*
X2711000Y27987400D02*
X2711000Y21187400D01*
X8211000Y27787400D02*
X8211000Y29037400D01*
X7911000Y26937400D02*
X7911000Y28737400D01*
X7161000Y26937400D02*
X7911000Y26937400D01*
X7911000Y25437400D02*
X7161000Y25437400D01*
X7161000Y25437400D02*
X7161000Y16937400D01*
X7911000Y16937400D02*
X7911000Y25437400D01*
X7161000Y16937400D02*
X7911000Y16937400D01*
X7911000Y15437400D02*
X7161000Y15437400D01*
X7161000Y15437400D02*
X7161000Y13637400D01*
X5661000Y14387400D02*
X2711000Y14387400D01*
X2711000Y14387400D02*
X2711000Y21187400D01*
X7911000Y13637400D02*
X7911000Y15437400D01*
X7161000Y13637400D02*
X7911000Y13637400D01*
X5661000Y13637400D02*
X5661000Y14387400D01*
X7921000Y13627400D02*
X7921000Y28747400D01*
X1951000Y13627400D02*
X7921000Y13627400D01*
%TO.C,R3*%
X15644800Y24850464D02*
X15644800Y24396336D01*
X14174800Y24850464D02*
X14174800Y24396336D01*
%TD*%
%LPC*%
D12*
%TO.C,DCDC1*%
X28996000Y41888000D03*
X26456000Y41888000D03*
X39856000Y41888000D03*
X37316000Y41888000D03*
X28996000Y23488000D03*
X26456000Y23488000D03*
X39856000Y23488000D03*
X37316000Y23488000D03*
%TD*%
D13*
%TO.C,R1*%
X17043400Y27357700D03*
X17043400Y29182700D03*
%TD*%
D14*
%TO.C,DCDC2*%
X42074728Y49064717D03*
X24221890Y49055988D03*
X42069444Y9216627D03*
X24231217Y9207065D03*
%TD*%
D15*
%TO.C,JP1*%
X10287000Y18669000D03*
D16*
X12827000Y18669000D03*
%TD*%
D17*
%TO.C,R4*%
X17043400Y25535900D03*
X17043400Y23710900D03*
%TD*%
D18*
%TO.C,J5*%
X5207000Y8559800D03*
D19*
X11207000Y8559800D03*
%TD*%
D20*
%TO.C,D2*%
X19329400Y48895000D03*
D21*
X19329400Y33655000D03*
%TD*%
D13*
%TO.C,R2*%
X14909800Y27357700D03*
X14909800Y29182700D03*
%TD*%
D15*
%TO.C,J3*%
X19227800Y16129000D03*
D16*
X19227800Y18669000D03*
%TD*%
D22*
%TO.C,K1*%
X10541000Y37515800D03*
D23*
X10541000Y40055800D03*
X10541000Y47675800D03*
X5461000Y47675800D03*
X5461000Y40055800D03*
X5461000Y37515800D03*
%TD*%
D24*
%TO.C,J7*%
X17272000Y4191000D03*
D25*
X19772000Y4191000D03*
%TD*%
D26*
%TO.C,R5*%
X32031300Y52959000D03*
X33856300Y52959000D03*
%TD*%
D27*
%TO.C,D3*%
X35613100Y52959000D03*
X37488100Y52959000D03*
%TD*%
D28*
%TO.C,J1*%
X19595000Y55245000D03*
D29*
X27395000Y55245000D03*
%TD*%
D24*
%TO.C,J9*%
X35052000Y4191000D03*
D25*
X37552000Y4191000D03*
%TD*%
D24*
%TO.C,J8*%
X26182000Y4191000D03*
D25*
X28682000Y4191000D03*
%TD*%
D30*
%TO.C,Q1*%
X11872000Y27988500D03*
X9972000Y27988500D03*
X10922000Y26113500D03*
%TD*%
D15*
%TO.C,JP2*%
X10287000Y16129000D03*
D16*
X12827000Y16129000D03*
%TD*%
D31*
%TO.C,K2*%
X8051800Y51689000D03*
D32*
X2001800Y49739000D03*
D31*
X2001800Y37539000D03*
X14051800Y37489000D03*
D32*
X14001800Y49739000D03*
%TD*%
D33*
%TO.C,D1*%
X12341800Y31013400D03*
X8841800Y31013400D03*
%TD*%
D34*
%TO.C,J2*%
X5461000Y26187400D03*
D35*
X5461000Y23687400D03*
X5461000Y21187400D03*
X5461000Y18687400D03*
X5461000Y16187400D03*
%TD*%
D17*
%TO.C,R3*%
X14909800Y25535900D03*
X14909800Y23710900D03*
%TD*%
%LPD*%
M02*
