%TF.GenerationSoftware,KiCad,Pcbnew,7.0.7*%
%TF.CreationDate,2023-10-14T15:04:30+09:00*%
%TF.ProjectId,rasp_power_module,72617370-5f70-46f7-9765-725f6d6f6475,4*%
%TF.SameCoordinates,PX74269e8PY6f4e628*%
%TF.FileFunction,Legend,Bot*%
%TF.FilePolarity,Positive*%
%FSLAX46Y46*%
G04 Gerber Fmt 4.6, Leading zero omitted, Abs format (unit mm)*
G04 Created by KiCad (PCBNEW 7.0.7) date 2023-10-14 15:04:30*
%MOMM*%
%LPD*%
G01*
G04 APERTURE LIST*
G04 Aperture macros list*
%AMRoundRect*
0 Rectangle with rounded corners*
0 $1 Rounding radius*
0 $2 $3 $4 $5 $6 $7 $8 $9 X,Y pos of 4 corners*
0 Add a 4 corners polygon primitive as box body*
4,1,4,$2,$3,$4,$5,$6,$7,$8,$9,$2,$3,0*
0 Add four circle primitives for the rounded corners*
1,1,$1+$1,$2,$3*
1,1,$1+$1,$4,$5*
1,1,$1+$1,$6,$7*
1,1,$1+$1,$8,$9*
0 Add four rect primitives between the rounded corners*
20,1,$1+$1,$2,$3,$4,$5,0*
20,1,$1+$1,$4,$5,$6,$7,0*
20,1,$1+$1,$6,$7,$8,$9,0*
20,1,$1+$1,$8,$9,$2,$3,0*%
G04 Aperture macros list end*
%ADD10C,0.150000*%
%ADD11C,1.524000*%
%ADD12R,3.000000X3.000000*%
%ADD13R,1.700000X1.700000*%
%ADD14O,1.700000X1.700000*%
%ADD15RoundRect,0.249999X-1.300001X-1.300001X1.300001X-1.300001X1.300001X1.300001X-1.300001X1.300001X0*%
%ADD16C,3.100000*%
%ADD17R,3.200000X3.200000*%
%ADD18O,3.200000X3.200000*%
%ADD19R,2.000000X2.000000*%
%ADD20C,2.000000*%
%ADD21RoundRect,0.250000X-0.600000X-0.750000X0.600000X-0.750000X0.600000X0.750000X-0.600000X0.750000X0*%
%ADD22O,1.700000X2.000000*%
%ADD23RoundRect,0.250002X-1.699998X-1.699998X1.699998X-1.699998X1.699998X1.699998X-1.699998X1.699998X0*%
%ADD24C,3.900000*%
%ADD25C,3.000000*%
%ADD26C,2.500000*%
%ADD27RoundRect,0.250000X-0.725000X0.600000X-0.725000X-0.600000X0.725000X-0.600000X0.725000X0.600000X0*%
%ADD28O,1.950000X1.700000*%
G04 APERTURE END LIST*
D10*
X28178047Y39550181D02*
X28749475Y39550181D01*
X28463761Y39550181D02*
X28463761Y40550181D01*
X28463761Y40550181D02*
X28558999Y40407324D01*
X28558999Y40407324D02*
X28654237Y40312086D01*
X28654237Y40312086D02*
X28749475Y40264467D01*
X27797094Y40454943D02*
X27749475Y40502562D01*
X27749475Y40502562D02*
X27654237Y40550181D01*
X27654237Y40550181D02*
X27416142Y40550181D01*
X27416142Y40550181D02*
X27320904Y40502562D01*
X27320904Y40502562D02*
X27273285Y40454943D01*
X27273285Y40454943D02*
X27225666Y40359705D01*
X27225666Y40359705D02*
X27225666Y40264467D01*
X27225666Y40264467D02*
X27273285Y40121610D01*
X27273285Y40121610D02*
X27844713Y39550181D01*
X27844713Y39550181D02*
X27225666Y39550181D01*
X26939951Y40550181D02*
X26606618Y39550181D01*
X26606618Y39550181D02*
X26273285Y40550181D01*
X26995095Y7276181D02*
X26804619Y7276181D01*
X26804619Y7276181D02*
X26709381Y7228562D01*
X26709381Y7228562D02*
X26614143Y7133324D01*
X26614143Y7133324D02*
X26566524Y6942848D01*
X26566524Y6942848D02*
X26566524Y6609515D01*
X26566524Y6609515D02*
X26614143Y6419039D01*
X26614143Y6419039D02*
X26709381Y6323800D01*
X26709381Y6323800D02*
X26804619Y6276181D01*
X26804619Y6276181D02*
X26995095Y6276181D01*
X26995095Y6276181D02*
X27090333Y6323800D01*
X27090333Y6323800D02*
X27185571Y6419039D01*
X27185571Y6419039D02*
X27233190Y6609515D01*
X27233190Y6609515D02*
X27233190Y6942848D01*
X27233190Y6942848D02*
X27185571Y7133324D01*
X27185571Y7133324D02*
X27090333Y7228562D01*
X27090333Y7228562D02*
X26995095Y7276181D01*
X25709381Y6942848D02*
X25709381Y6276181D01*
X26137952Y6942848D02*
X26137952Y6419039D01*
X26137952Y6419039D02*
X26090333Y6323800D01*
X26090333Y6323800D02*
X25995095Y6276181D01*
X25995095Y6276181D02*
X25852238Y6276181D01*
X25852238Y6276181D02*
X25757000Y6323800D01*
X25757000Y6323800D02*
X25709381Y6371420D01*
X25376047Y6942848D02*
X24995095Y6942848D01*
X25233190Y7276181D02*
X25233190Y6419039D01*
X25233190Y6419039D02*
X25185571Y6323800D01*
X25185571Y6323800D02*
X25090333Y6276181D01*
X25090333Y6276181D02*
X24995095Y6276181D01*
X24899857Y6180943D02*
X24137952Y6180943D01*
X23376047Y7228562D02*
X23471285Y7276181D01*
X23471285Y7276181D02*
X23614142Y7276181D01*
X23614142Y7276181D02*
X23756999Y7228562D01*
X23756999Y7228562D02*
X23852237Y7133324D01*
X23852237Y7133324D02*
X23899856Y7038086D01*
X23899856Y7038086D02*
X23947475Y6847610D01*
X23947475Y6847610D02*
X23947475Y6704753D01*
X23947475Y6704753D02*
X23899856Y6514277D01*
X23899856Y6514277D02*
X23852237Y6419039D01*
X23852237Y6419039D02*
X23756999Y6323800D01*
X23756999Y6323800D02*
X23614142Y6276181D01*
X23614142Y6276181D02*
X23518904Y6276181D01*
X23518904Y6276181D02*
X23376047Y6323800D01*
X23376047Y6323800D02*
X23328428Y6371420D01*
X23328428Y6371420D02*
X23328428Y6704753D01*
X23328428Y6704753D02*
X23518904Y6704753D01*
X22899856Y6276181D02*
X22899856Y7276181D01*
X22899856Y7276181D02*
X22328428Y6276181D01*
X22328428Y6276181D02*
X22328428Y7276181D01*
X21852237Y6276181D02*
X21852237Y7276181D01*
X21852237Y7276181D02*
X21614142Y7276181D01*
X21614142Y7276181D02*
X21471285Y7228562D01*
X21471285Y7228562D02*
X21376047Y7133324D01*
X21376047Y7133324D02*
X21328428Y7038086D01*
X21328428Y7038086D02*
X21280809Y6847610D01*
X21280809Y6847610D02*
X21280809Y6704753D01*
X21280809Y6704753D02*
X21328428Y6514277D01*
X21328428Y6514277D02*
X21376047Y6419039D01*
X21376047Y6419039D02*
X21471285Y6323800D01*
X21471285Y6323800D02*
X21614142Y6276181D01*
X21614142Y6276181D02*
X21852237Y6276181D01*
X44425857Y7022181D02*
X44235381Y7022181D01*
X44235381Y7022181D02*
X44140143Y6974562D01*
X44140143Y6974562D02*
X44044905Y6879324D01*
X44044905Y6879324D02*
X43997286Y6688848D01*
X43997286Y6688848D02*
X43997286Y6355515D01*
X43997286Y6355515D02*
X44044905Y6165039D01*
X44044905Y6165039D02*
X44140143Y6069800D01*
X44140143Y6069800D02*
X44235381Y6022181D01*
X44235381Y6022181D02*
X44425857Y6022181D01*
X44425857Y6022181D02*
X44521095Y6069800D01*
X44521095Y6069800D02*
X44616333Y6165039D01*
X44616333Y6165039D02*
X44663952Y6355515D01*
X44663952Y6355515D02*
X44663952Y6688848D01*
X44663952Y6688848D02*
X44616333Y6879324D01*
X44616333Y6879324D02*
X44521095Y6974562D01*
X44521095Y6974562D02*
X44425857Y7022181D01*
X43140143Y6688848D02*
X43140143Y6022181D01*
X43568714Y6688848D02*
X43568714Y6165039D01*
X43568714Y6165039D02*
X43521095Y6069800D01*
X43521095Y6069800D02*
X43425857Y6022181D01*
X43425857Y6022181D02*
X43283000Y6022181D01*
X43283000Y6022181D02*
X43187762Y6069800D01*
X43187762Y6069800D02*
X43140143Y6117420D01*
X42806809Y6688848D02*
X42425857Y6688848D01*
X42663952Y7022181D02*
X42663952Y6165039D01*
X42663952Y6165039D02*
X42616333Y6069800D01*
X42616333Y6069800D02*
X42521095Y6022181D01*
X42521095Y6022181D02*
X42425857Y6022181D01*
X42330619Y5926943D02*
X41568714Y5926943D01*
X41473475Y7022181D02*
X41140142Y6022181D01*
X41140142Y6022181D02*
X40806809Y7022181D01*
X39902047Y6117420D02*
X39949666Y6069800D01*
X39949666Y6069800D02*
X40092523Y6022181D01*
X40092523Y6022181D02*
X40187761Y6022181D01*
X40187761Y6022181D02*
X40330618Y6069800D01*
X40330618Y6069800D02*
X40425856Y6165039D01*
X40425856Y6165039D02*
X40473475Y6260277D01*
X40473475Y6260277D02*
X40521094Y6450753D01*
X40521094Y6450753D02*
X40521094Y6593610D01*
X40521094Y6593610D02*
X40473475Y6784086D01*
X40473475Y6784086D02*
X40425856Y6879324D01*
X40425856Y6879324D02*
X40330618Y6974562D01*
X40330618Y6974562D02*
X40187761Y7022181D01*
X40187761Y7022181D02*
X40092523Y7022181D01*
X40092523Y7022181D02*
X39949666Y6974562D01*
X39949666Y6974562D02*
X39902047Y6926943D01*
X38902047Y6117420D02*
X38949666Y6069800D01*
X38949666Y6069800D02*
X39092523Y6022181D01*
X39092523Y6022181D02*
X39187761Y6022181D01*
X39187761Y6022181D02*
X39330618Y6069800D01*
X39330618Y6069800D02*
X39425856Y6165039D01*
X39425856Y6165039D02*
X39473475Y6260277D01*
X39473475Y6260277D02*
X39521094Y6450753D01*
X39521094Y6450753D02*
X39521094Y6593610D01*
X39521094Y6593610D02*
X39473475Y6784086D01*
X39473475Y6784086D02*
X39425856Y6879324D01*
X39425856Y6879324D02*
X39330618Y6974562D01*
X39330618Y6974562D02*
X39187761Y7022181D01*
X39187761Y7022181D02*
X39092523Y7022181D01*
X39092523Y7022181D02*
X38949666Y6974562D01*
X38949666Y6974562D02*
X38902047Y6926943D01*
X37268009Y2711010D02*
X37344199Y2749105D01*
X37344199Y2749105D02*
X37458485Y2749105D01*
X37458485Y2749105D02*
X37572771Y2711010D01*
X37572771Y2711010D02*
X37648961Y2634820D01*
X37648961Y2634820D02*
X37687056Y2558629D01*
X37687056Y2558629D02*
X37725152Y2406248D01*
X37725152Y2406248D02*
X37725152Y2291962D01*
X37725152Y2291962D02*
X37687056Y2139581D01*
X37687056Y2139581D02*
X37648961Y2063391D01*
X37648961Y2063391D02*
X37572771Y1987200D01*
X37572771Y1987200D02*
X37458485Y1949105D01*
X37458485Y1949105D02*
X37382294Y1949105D01*
X37382294Y1949105D02*
X37268009Y1987200D01*
X37268009Y1987200D02*
X37229913Y2025296D01*
X37229913Y2025296D02*
X37229913Y2291962D01*
X37229913Y2291962D02*
X37382294Y2291962D01*
X35287056Y2749105D02*
X35668008Y2749105D01*
X35668008Y2749105D02*
X35706104Y2368153D01*
X35706104Y2368153D02*
X35668008Y2406248D01*
X35668008Y2406248D02*
X35591818Y2444343D01*
X35591818Y2444343D02*
X35401342Y2444343D01*
X35401342Y2444343D02*
X35325151Y2406248D01*
X35325151Y2406248D02*
X35287056Y2368153D01*
X35287056Y2368153D02*
X35248961Y2291962D01*
X35248961Y2291962D02*
X35248961Y2101486D01*
X35248961Y2101486D02*
X35287056Y2025296D01*
X35287056Y2025296D02*
X35325151Y1987200D01*
X35325151Y1987200D02*
X35401342Y1949105D01*
X35401342Y1949105D02*
X35591818Y1949105D01*
X35591818Y1949105D02*
X35668008Y1987200D01*
X35668008Y1987200D02*
X35706104Y2025296D01*
X35020389Y2749105D02*
X34753722Y1949105D01*
X34753722Y1949105D02*
X34487056Y2749105D01*
X37781952Y21008181D02*
X37781952Y22008181D01*
X37781952Y22008181D02*
X37448619Y21293896D01*
X37448619Y21293896D02*
X37115286Y22008181D01*
X37115286Y22008181D02*
X37115286Y21008181D01*
X36639095Y21008181D02*
X36639095Y22008181D01*
X36639095Y22008181D02*
X36258143Y22008181D01*
X36258143Y22008181D02*
X36162905Y21960562D01*
X36162905Y21960562D02*
X36115286Y21912943D01*
X36115286Y21912943D02*
X36067667Y21817705D01*
X36067667Y21817705D02*
X36067667Y21674848D01*
X36067667Y21674848D02*
X36115286Y21579610D01*
X36115286Y21579610D02*
X36162905Y21531991D01*
X36162905Y21531991D02*
X36258143Y21484372D01*
X36258143Y21484372D02*
X36639095Y21484372D01*
X35115286Y21008181D02*
X35686714Y21008181D01*
X35401000Y21008181D02*
X35401000Y22008181D01*
X35401000Y22008181D02*
X35496238Y21865324D01*
X35496238Y21865324D02*
X35591476Y21770086D01*
X35591476Y21770086D02*
X35686714Y21722467D01*
X34210524Y22008181D02*
X34686714Y22008181D01*
X34686714Y22008181D02*
X34734333Y21531991D01*
X34734333Y21531991D02*
X34686714Y21579610D01*
X34686714Y21579610D02*
X34591476Y21627229D01*
X34591476Y21627229D02*
X34353381Y21627229D01*
X34353381Y21627229D02*
X34258143Y21579610D01*
X34258143Y21579610D02*
X34210524Y21531991D01*
X34210524Y21531991D02*
X34162905Y21436753D01*
X34162905Y21436753D02*
X34162905Y21198658D01*
X34162905Y21198658D02*
X34210524Y21103420D01*
X34210524Y21103420D02*
X34258143Y21055800D01*
X34258143Y21055800D02*
X34353381Y21008181D01*
X34353381Y21008181D02*
X34591476Y21008181D01*
X34591476Y21008181D02*
X34686714Y21055800D01*
X34686714Y21055800D02*
X34734333Y21103420D01*
X33591476Y21579610D02*
X33686714Y21627229D01*
X33686714Y21627229D02*
X33734333Y21674848D01*
X33734333Y21674848D02*
X33781952Y21770086D01*
X33781952Y21770086D02*
X33781952Y21817705D01*
X33781952Y21817705D02*
X33734333Y21912943D01*
X33734333Y21912943D02*
X33686714Y21960562D01*
X33686714Y21960562D02*
X33591476Y22008181D01*
X33591476Y22008181D02*
X33401000Y22008181D01*
X33401000Y22008181D02*
X33305762Y21960562D01*
X33305762Y21960562D02*
X33258143Y21912943D01*
X33258143Y21912943D02*
X33210524Y21817705D01*
X33210524Y21817705D02*
X33210524Y21770086D01*
X33210524Y21770086D02*
X33258143Y21674848D01*
X33258143Y21674848D02*
X33305762Y21627229D01*
X33305762Y21627229D02*
X33401000Y21579610D01*
X33401000Y21579610D02*
X33591476Y21579610D01*
X33591476Y21579610D02*
X33686714Y21531991D01*
X33686714Y21531991D02*
X33734333Y21484372D01*
X33734333Y21484372D02*
X33781952Y21389134D01*
X33781952Y21389134D02*
X33781952Y21198658D01*
X33781952Y21198658D02*
X33734333Y21103420D01*
X33734333Y21103420D02*
X33686714Y21055800D01*
X33686714Y21055800D02*
X33591476Y21008181D01*
X33591476Y21008181D02*
X33401000Y21008181D01*
X33401000Y21008181D02*
X33305762Y21055800D01*
X33305762Y21055800D02*
X33258143Y21103420D01*
X33258143Y21103420D02*
X33210524Y21198658D01*
X33210524Y21198658D02*
X33210524Y21389134D01*
X33210524Y21389134D02*
X33258143Y21484372D01*
X33258143Y21484372D02*
X33305762Y21531991D01*
X33305762Y21531991D02*
X33401000Y21579610D01*
X32353381Y21674848D02*
X32353381Y21008181D01*
X32591476Y22055800D02*
X32829571Y21341515D01*
X32829571Y21341515D02*
X32210524Y21341515D01*
X30877190Y22008181D02*
X30686714Y22008181D01*
X30686714Y22008181D02*
X30591476Y21960562D01*
X30591476Y21960562D02*
X30496238Y21865324D01*
X30496238Y21865324D02*
X30448619Y21674848D01*
X30448619Y21674848D02*
X30448619Y21341515D01*
X30448619Y21341515D02*
X30496238Y21151039D01*
X30496238Y21151039D02*
X30591476Y21055800D01*
X30591476Y21055800D02*
X30686714Y21008181D01*
X30686714Y21008181D02*
X30877190Y21008181D01*
X30877190Y21008181D02*
X30972428Y21055800D01*
X30972428Y21055800D02*
X31067666Y21151039D01*
X31067666Y21151039D02*
X31115285Y21341515D01*
X31115285Y21341515D02*
X31115285Y21674848D01*
X31115285Y21674848D02*
X31067666Y21865324D01*
X31067666Y21865324D02*
X30972428Y21960562D01*
X30972428Y21960562D02*
X30877190Y22008181D01*
X29591476Y21674848D02*
X29591476Y21008181D01*
X30020047Y21674848D02*
X30020047Y21151039D01*
X30020047Y21151039D02*
X29972428Y21055800D01*
X29972428Y21055800D02*
X29877190Y21008181D01*
X29877190Y21008181D02*
X29734333Y21008181D01*
X29734333Y21008181D02*
X29639095Y21055800D01*
X29639095Y21055800D02*
X29591476Y21103420D01*
X29258142Y21674848D02*
X28877190Y21674848D01*
X29115285Y22008181D02*
X29115285Y21151039D01*
X29115285Y21151039D02*
X29067666Y21055800D01*
X29067666Y21055800D02*
X28972428Y21008181D01*
X28972428Y21008181D02*
X28877190Y21008181D01*
X44298904Y51030981D02*
X44298904Y52030981D01*
X43822714Y51697648D02*
X43822714Y51030981D01*
X43822714Y51602410D02*
X43775095Y51650029D01*
X43775095Y51650029D02*
X43679857Y51697648D01*
X43679857Y51697648D02*
X43537000Y51697648D01*
X43537000Y51697648D02*
X43441762Y51650029D01*
X43441762Y51650029D02*
X43394143Y51554791D01*
X43394143Y51554791D02*
X43394143Y51030981D01*
X43156048Y50935743D02*
X42394143Y50935743D01*
X42298904Y52030981D02*
X41965571Y51030981D01*
X41965571Y51030981D02*
X41632238Y52030981D01*
X40727476Y51126220D02*
X40775095Y51078600D01*
X40775095Y51078600D02*
X40917952Y51030981D01*
X40917952Y51030981D02*
X41013190Y51030981D01*
X41013190Y51030981D02*
X41156047Y51078600D01*
X41156047Y51078600D02*
X41251285Y51173839D01*
X41251285Y51173839D02*
X41298904Y51269077D01*
X41298904Y51269077D02*
X41346523Y51459553D01*
X41346523Y51459553D02*
X41346523Y51602410D01*
X41346523Y51602410D02*
X41298904Y51792886D01*
X41298904Y51792886D02*
X41251285Y51888124D01*
X41251285Y51888124D02*
X41156047Y51983362D01*
X41156047Y51983362D02*
X41013190Y52030981D01*
X41013190Y52030981D02*
X40917952Y52030981D01*
X40917952Y52030981D02*
X40775095Y51983362D01*
X40775095Y51983362D02*
X40727476Y51935743D01*
X39727476Y51126220D02*
X39775095Y51078600D01*
X39775095Y51078600D02*
X39917952Y51030981D01*
X39917952Y51030981D02*
X40013190Y51030981D01*
X40013190Y51030981D02*
X40156047Y51078600D01*
X40156047Y51078600D02*
X40251285Y51173839D01*
X40251285Y51173839D02*
X40298904Y51269077D01*
X40298904Y51269077D02*
X40346523Y51459553D01*
X40346523Y51459553D02*
X40346523Y51602410D01*
X40346523Y51602410D02*
X40298904Y51792886D01*
X40298904Y51792886D02*
X40251285Y51888124D01*
X40251285Y51888124D02*
X40156047Y51983362D01*
X40156047Y51983362D02*
X40013190Y52030981D01*
X40013190Y52030981D02*
X39917952Y52030981D01*
X39917952Y52030981D02*
X39775095Y51983362D01*
X39775095Y51983362D02*
X39727476Y51935743D01*
X26563342Y50980181D02*
X26563342Y51980181D01*
X26087152Y51646848D02*
X26087152Y50980181D01*
X26087152Y51551610D02*
X26039533Y51599229D01*
X26039533Y51599229D02*
X25944295Y51646848D01*
X25944295Y51646848D02*
X25801438Y51646848D01*
X25801438Y51646848D02*
X25706200Y51599229D01*
X25706200Y51599229D02*
X25658581Y51503991D01*
X25658581Y51503991D02*
X25658581Y50980181D01*
X25420486Y50884943D02*
X24658581Y50884943D01*
X23896676Y51932562D02*
X23991914Y51980181D01*
X23991914Y51980181D02*
X24134771Y51980181D01*
X24134771Y51980181D02*
X24277628Y51932562D01*
X24277628Y51932562D02*
X24372866Y51837324D01*
X24372866Y51837324D02*
X24420485Y51742086D01*
X24420485Y51742086D02*
X24468104Y51551610D01*
X24468104Y51551610D02*
X24468104Y51408753D01*
X24468104Y51408753D02*
X24420485Y51218277D01*
X24420485Y51218277D02*
X24372866Y51123039D01*
X24372866Y51123039D02*
X24277628Y51027800D01*
X24277628Y51027800D02*
X24134771Y50980181D01*
X24134771Y50980181D02*
X24039533Y50980181D01*
X24039533Y50980181D02*
X23896676Y51027800D01*
X23896676Y51027800D02*
X23849057Y51075420D01*
X23849057Y51075420D02*
X23849057Y51408753D01*
X23849057Y51408753D02*
X24039533Y51408753D01*
X23420485Y50980181D02*
X23420485Y51980181D01*
X23420485Y51980181D02*
X22849057Y50980181D01*
X22849057Y50980181D02*
X22849057Y51980181D01*
X22372866Y50980181D02*
X22372866Y51980181D01*
X22372866Y51980181D02*
X22134771Y51980181D01*
X22134771Y51980181D02*
X21991914Y51932562D01*
X21991914Y51932562D02*
X21896676Y51837324D01*
X21896676Y51837324D02*
X21849057Y51742086D01*
X21849057Y51742086D02*
X21801438Y51551610D01*
X21801438Y51551610D02*
X21801438Y51408753D01*
X21801438Y51408753D02*
X21849057Y51218277D01*
X21849057Y51218277D02*
X21896676Y51123039D01*
X21896676Y51123039D02*
X21991914Y51027800D01*
X21991914Y51027800D02*
X22134771Y50980181D01*
X22134771Y50980181D02*
X22372866Y50980181D01*
X11912504Y11851362D02*
X12007742Y11898981D01*
X12007742Y11898981D02*
X12150599Y11898981D01*
X12150599Y11898981D02*
X12293456Y11851362D01*
X12293456Y11851362D02*
X12388694Y11756124D01*
X12388694Y11756124D02*
X12436313Y11660886D01*
X12436313Y11660886D02*
X12483932Y11470410D01*
X12483932Y11470410D02*
X12483932Y11327553D01*
X12483932Y11327553D02*
X12436313Y11137077D01*
X12436313Y11137077D02*
X12388694Y11041839D01*
X12388694Y11041839D02*
X12293456Y10946600D01*
X12293456Y10946600D02*
X12150599Y10898981D01*
X12150599Y10898981D02*
X12055361Y10898981D01*
X12055361Y10898981D02*
X11912504Y10946600D01*
X11912504Y10946600D02*
X11864885Y10994220D01*
X11864885Y10994220D02*
X11864885Y11327553D01*
X11864885Y11327553D02*
X12055361Y11327553D01*
X11436313Y10898981D02*
X11436313Y11898981D01*
X11436313Y11898981D02*
X10864885Y10898981D01*
X10864885Y10898981D02*
X10864885Y11898981D01*
X10388694Y10898981D02*
X10388694Y11898981D01*
X10388694Y11898981D02*
X10150599Y11898981D01*
X10150599Y11898981D02*
X10007742Y11851362D01*
X10007742Y11851362D02*
X9912504Y11756124D01*
X9912504Y11756124D02*
X9864885Y11660886D01*
X9864885Y11660886D02*
X9817266Y11470410D01*
X9817266Y11470410D02*
X9817266Y11327553D01*
X9817266Y11327553D02*
X9864885Y11137077D01*
X9864885Y11137077D02*
X9912504Y11041839D01*
X9912504Y11041839D02*
X10007742Y10946600D01*
X10007742Y10946600D02*
X10150599Y10898981D01*
X10150599Y10898981D02*
X10388694Y10898981D01*
X28428809Y2711010D02*
X28504999Y2749105D01*
X28504999Y2749105D02*
X28619285Y2749105D01*
X28619285Y2749105D02*
X28733571Y2711010D01*
X28733571Y2711010D02*
X28809761Y2634820D01*
X28809761Y2634820D02*
X28847856Y2558629D01*
X28847856Y2558629D02*
X28885952Y2406248D01*
X28885952Y2406248D02*
X28885952Y2291962D01*
X28885952Y2291962D02*
X28847856Y2139581D01*
X28847856Y2139581D02*
X28809761Y2063391D01*
X28809761Y2063391D02*
X28733571Y1987200D01*
X28733571Y1987200D02*
X28619285Y1949105D01*
X28619285Y1949105D02*
X28543094Y1949105D01*
X28543094Y1949105D02*
X28428809Y1987200D01*
X28428809Y1987200D02*
X28390713Y2025296D01*
X28390713Y2025296D02*
X28390713Y2291962D01*
X28390713Y2291962D02*
X28543094Y2291962D01*
X26447856Y2749105D02*
X26828808Y2749105D01*
X26828808Y2749105D02*
X26866904Y2368153D01*
X26866904Y2368153D02*
X26828808Y2406248D01*
X26828808Y2406248D02*
X26752618Y2444343D01*
X26752618Y2444343D02*
X26562142Y2444343D01*
X26562142Y2444343D02*
X26485951Y2406248D01*
X26485951Y2406248D02*
X26447856Y2368153D01*
X26447856Y2368153D02*
X26409761Y2291962D01*
X26409761Y2291962D02*
X26409761Y2101486D01*
X26409761Y2101486D02*
X26447856Y2025296D01*
X26447856Y2025296D02*
X26485951Y1987200D01*
X26485951Y1987200D02*
X26562142Y1949105D01*
X26562142Y1949105D02*
X26752618Y1949105D01*
X26752618Y1949105D02*
X26828808Y1987200D01*
X26828808Y1987200D02*
X26866904Y2025296D01*
X26181189Y2749105D02*
X25914522Y1949105D01*
X25914522Y1949105D02*
X25647856Y2749105D01*
X32384904Y55742562D02*
X32480142Y55790181D01*
X32480142Y55790181D02*
X32622999Y55790181D01*
X32622999Y55790181D02*
X32765856Y55742562D01*
X32765856Y55742562D02*
X32861094Y55647324D01*
X32861094Y55647324D02*
X32908713Y55552086D01*
X32908713Y55552086D02*
X32956332Y55361610D01*
X32956332Y55361610D02*
X32956332Y55218753D01*
X32956332Y55218753D02*
X32908713Y55028277D01*
X32908713Y55028277D02*
X32861094Y54933039D01*
X32861094Y54933039D02*
X32765856Y54837800D01*
X32765856Y54837800D02*
X32622999Y54790181D01*
X32622999Y54790181D02*
X32527761Y54790181D01*
X32527761Y54790181D02*
X32384904Y54837800D01*
X32384904Y54837800D02*
X32337285Y54885420D01*
X32337285Y54885420D02*
X32337285Y55218753D01*
X32337285Y55218753D02*
X32527761Y55218753D01*
X31908713Y54790181D02*
X31908713Y55790181D01*
X31908713Y55790181D02*
X31337285Y54790181D01*
X31337285Y54790181D02*
X31337285Y55790181D01*
X30861094Y54790181D02*
X30861094Y55790181D01*
X30861094Y55790181D02*
X30622999Y55790181D01*
X30622999Y55790181D02*
X30480142Y55742562D01*
X30480142Y55742562D02*
X30384904Y55647324D01*
X30384904Y55647324D02*
X30337285Y55552086D01*
X30337285Y55552086D02*
X30289666Y55361610D01*
X30289666Y55361610D02*
X30289666Y55218753D01*
X30289666Y55218753D02*
X30337285Y55028277D01*
X30337285Y55028277D02*
X30384904Y54933039D01*
X30384904Y54933039D02*
X30480142Y54837800D01*
X30480142Y54837800D02*
X30622999Y54790181D01*
X30622999Y54790181D02*
X30861094Y54790181D01*
X19437209Y2711010D02*
X19513399Y2749105D01*
X19513399Y2749105D02*
X19627685Y2749105D01*
X19627685Y2749105D02*
X19741971Y2711010D01*
X19741971Y2711010D02*
X19818161Y2634820D01*
X19818161Y2634820D02*
X19856256Y2558629D01*
X19856256Y2558629D02*
X19894352Y2406248D01*
X19894352Y2406248D02*
X19894352Y2291962D01*
X19894352Y2291962D02*
X19856256Y2139581D01*
X19856256Y2139581D02*
X19818161Y2063391D01*
X19818161Y2063391D02*
X19741971Y1987200D01*
X19741971Y1987200D02*
X19627685Y1949105D01*
X19627685Y1949105D02*
X19551494Y1949105D01*
X19551494Y1949105D02*
X19437209Y1987200D01*
X19437209Y1987200D02*
X19399113Y2025296D01*
X19399113Y2025296D02*
X19399113Y2291962D01*
X19399113Y2291962D02*
X19551494Y2291962D01*
X17456256Y2749105D02*
X17837208Y2749105D01*
X17837208Y2749105D02*
X17875304Y2368153D01*
X17875304Y2368153D02*
X17837208Y2406248D01*
X17837208Y2406248D02*
X17761018Y2444343D01*
X17761018Y2444343D02*
X17570542Y2444343D01*
X17570542Y2444343D02*
X17494351Y2406248D01*
X17494351Y2406248D02*
X17456256Y2368153D01*
X17456256Y2368153D02*
X17418161Y2291962D01*
X17418161Y2291962D02*
X17418161Y2101486D01*
X17418161Y2101486D02*
X17456256Y2025296D01*
X17456256Y2025296D02*
X17494351Y1987200D01*
X17494351Y1987200D02*
X17570542Y1949105D01*
X17570542Y1949105D02*
X17761018Y1949105D01*
X17761018Y1949105D02*
X17837208Y1987200D01*
X17837208Y1987200D02*
X17875304Y2025296D01*
X17189589Y2749105D02*
X16922922Y1949105D01*
X16922922Y1949105D02*
X16656256Y2749105D01*
X5826047Y10898981D02*
X6397475Y10898981D01*
X6111761Y10898981D02*
X6111761Y11898981D01*
X6111761Y11898981D02*
X6206999Y11756124D01*
X6206999Y11756124D02*
X6302237Y11660886D01*
X6302237Y11660886D02*
X6397475Y11613267D01*
X5445094Y11803743D02*
X5397475Y11851362D01*
X5397475Y11851362D02*
X5302237Y11898981D01*
X5302237Y11898981D02*
X5064142Y11898981D01*
X5064142Y11898981D02*
X4968904Y11851362D01*
X4968904Y11851362D02*
X4921285Y11803743D01*
X4921285Y11803743D02*
X4873666Y11708505D01*
X4873666Y11708505D02*
X4873666Y11613267D01*
X4873666Y11613267D02*
X4921285Y11470410D01*
X4921285Y11470410D02*
X5492713Y10898981D01*
X5492713Y10898981D02*
X4873666Y10898981D01*
X4587951Y11898981D02*
X4254618Y10898981D01*
X4254618Y10898981D02*
X3921285Y11898981D01*
X39496904Y40502562D02*
X39592142Y40550181D01*
X39592142Y40550181D02*
X39734999Y40550181D01*
X39734999Y40550181D02*
X39877856Y40502562D01*
X39877856Y40502562D02*
X39973094Y40407324D01*
X39973094Y40407324D02*
X40020713Y40312086D01*
X40020713Y40312086D02*
X40068332Y40121610D01*
X40068332Y40121610D02*
X40068332Y39978753D01*
X40068332Y39978753D02*
X40020713Y39788277D01*
X40020713Y39788277D02*
X39973094Y39693039D01*
X39973094Y39693039D02*
X39877856Y39597800D01*
X39877856Y39597800D02*
X39734999Y39550181D01*
X39734999Y39550181D02*
X39639761Y39550181D01*
X39639761Y39550181D02*
X39496904Y39597800D01*
X39496904Y39597800D02*
X39449285Y39645420D01*
X39449285Y39645420D02*
X39449285Y39978753D01*
X39449285Y39978753D02*
X39639761Y39978753D01*
X39020713Y39550181D02*
X39020713Y40550181D01*
X39020713Y40550181D02*
X38449285Y39550181D01*
X38449285Y39550181D02*
X38449285Y40550181D01*
X37973094Y39550181D02*
X37973094Y40550181D01*
X37973094Y40550181D02*
X37734999Y40550181D01*
X37734999Y40550181D02*
X37592142Y40502562D01*
X37592142Y40502562D02*
X37496904Y40407324D01*
X37496904Y40407324D02*
X37449285Y40312086D01*
X37449285Y40312086D02*
X37401666Y40121610D01*
X37401666Y40121610D02*
X37401666Y39978753D01*
X37401666Y39978753D02*
X37449285Y39788277D01*
X37449285Y39788277D02*
X37496904Y39693039D01*
X37496904Y39693039D02*
X37592142Y39597800D01*
X37592142Y39597800D02*
X37734999Y39550181D01*
X37734999Y39550181D02*
X37973094Y39550181D01*
X16113047Y54663181D02*
X16684475Y54663181D01*
X16398761Y54663181D02*
X16398761Y55663181D01*
X16398761Y55663181D02*
X16493999Y55520324D01*
X16493999Y55520324D02*
X16589237Y55425086D01*
X16589237Y55425086D02*
X16684475Y55377467D01*
X15732094Y55567943D02*
X15684475Y55615562D01*
X15684475Y55615562D02*
X15589237Y55663181D01*
X15589237Y55663181D02*
X15351142Y55663181D01*
X15351142Y55663181D02*
X15255904Y55615562D01*
X15255904Y55615562D02*
X15208285Y55567943D01*
X15208285Y55567943D02*
X15160666Y55472705D01*
X15160666Y55472705D02*
X15160666Y55377467D01*
X15160666Y55377467D02*
X15208285Y55234610D01*
X15208285Y55234610D02*
X15779713Y54663181D01*
X15779713Y54663181D02*
X15160666Y54663181D01*
X14874951Y55663181D02*
X14541618Y54663181D01*
X14541618Y54663181D02*
X14208285Y55663181D01*
X27749476Y25818181D02*
X28225666Y25818181D01*
X28225666Y25818181D02*
X28273285Y25341991D01*
X28273285Y25341991D02*
X28225666Y25389610D01*
X28225666Y25389610D02*
X28130428Y25437229D01*
X28130428Y25437229D02*
X27892333Y25437229D01*
X27892333Y25437229D02*
X27797095Y25389610D01*
X27797095Y25389610D02*
X27749476Y25341991D01*
X27749476Y25341991D02*
X27701857Y25246753D01*
X27701857Y25246753D02*
X27701857Y25008658D01*
X27701857Y25008658D02*
X27749476Y24913420D01*
X27749476Y24913420D02*
X27797095Y24865800D01*
X27797095Y24865800D02*
X27892333Y24818181D01*
X27892333Y24818181D02*
X28130428Y24818181D01*
X28130428Y24818181D02*
X28225666Y24865800D01*
X28225666Y24865800D02*
X28273285Y24913420D01*
X27416142Y25818181D02*
X27082809Y24818181D01*
X27082809Y24818181D02*
X26749476Y25818181D01*
X39242904Y26024562D02*
X39338142Y26072181D01*
X39338142Y26072181D02*
X39480999Y26072181D01*
X39480999Y26072181D02*
X39623856Y26024562D01*
X39623856Y26024562D02*
X39719094Y25929324D01*
X39719094Y25929324D02*
X39766713Y25834086D01*
X39766713Y25834086D02*
X39814332Y25643610D01*
X39814332Y25643610D02*
X39814332Y25500753D01*
X39814332Y25500753D02*
X39766713Y25310277D01*
X39766713Y25310277D02*
X39719094Y25215039D01*
X39719094Y25215039D02*
X39623856Y25119800D01*
X39623856Y25119800D02*
X39480999Y25072181D01*
X39480999Y25072181D02*
X39385761Y25072181D01*
X39385761Y25072181D02*
X39242904Y25119800D01*
X39242904Y25119800D02*
X39195285Y25167420D01*
X39195285Y25167420D02*
X39195285Y25500753D01*
X39195285Y25500753D02*
X39385761Y25500753D01*
X38766713Y25072181D02*
X38766713Y26072181D01*
X38766713Y26072181D02*
X38195285Y25072181D01*
X38195285Y25072181D02*
X38195285Y26072181D01*
X37719094Y25072181D02*
X37719094Y26072181D01*
X37719094Y26072181D02*
X37480999Y26072181D01*
X37480999Y26072181D02*
X37338142Y26024562D01*
X37338142Y26024562D02*
X37242904Y25929324D01*
X37242904Y25929324D02*
X37195285Y25834086D01*
X37195285Y25834086D02*
X37147666Y25643610D01*
X37147666Y25643610D02*
X37147666Y25500753D01*
X37147666Y25500753D02*
X37195285Y25310277D01*
X37195285Y25310277D02*
X37242904Y25215039D01*
X37242904Y25215039D02*
X37338142Y25119800D01*
X37338142Y25119800D02*
X37480999Y25072181D01*
X37480999Y25072181D02*
X37719094Y25072181D01*
%LPC*%
D11*
%TO.C,DCDC1*%
X28996000Y41888000D03*
X26456000Y41888000D03*
X39856000Y41888000D03*
X37316000Y41888000D03*
X28996000Y23488000D03*
X26456000Y23488000D03*
X39856000Y23488000D03*
X37316000Y23488000D03*
%TD*%
D12*
%TO.C,DCDC2*%
X42074728Y49064717D03*
X24221890Y49055988D03*
X42069444Y9216627D03*
X24231217Y9207065D03*
%TD*%
D13*
%TO.C,JP1*%
X10287000Y18669000D03*
D14*
X12827000Y18669000D03*
%TD*%
D15*
%TO.C,J5*%
X5207000Y8559800D03*
D16*
X11207000Y8559800D03*
%TD*%
D17*
%TO.C,D2*%
X19329400Y48895000D03*
D18*
X19329400Y33655000D03*
%TD*%
D13*
%TO.C,J3*%
X19227800Y16129000D03*
D14*
X19227800Y18669000D03*
%TD*%
D19*
%TO.C,K1*%
X10541000Y37515800D03*
D20*
X10541000Y40055800D03*
X10541000Y47675800D03*
X5461000Y47675800D03*
X5461000Y40055800D03*
X5461000Y37515800D03*
%TD*%
D21*
%TO.C,J7*%
X17272000Y4191000D03*
D22*
X19772000Y4191000D03*
%TD*%
D23*
%TO.C,J1*%
X19595000Y55245000D03*
D24*
X27395000Y55245000D03*
%TD*%
D21*
%TO.C,J9*%
X35052000Y4191000D03*
D22*
X37552000Y4191000D03*
%TD*%
D21*
%TO.C,J8*%
X26182000Y4191000D03*
D22*
X28682000Y4191000D03*
%TD*%
D13*
%TO.C,JP2*%
X10287000Y16129000D03*
D14*
X12827000Y16129000D03*
%TD*%
D25*
%TO.C,K2*%
X8051800Y51689000D03*
D26*
X2001800Y49739000D03*
D25*
X2001800Y37539000D03*
X14051800Y37489000D03*
D26*
X14001800Y49739000D03*
%TD*%
D27*
%TO.C,J2*%
X5461000Y26187400D03*
D28*
X5461000Y23687400D03*
X5461000Y21187400D03*
X5461000Y18687400D03*
X5461000Y16187400D03*
%TD*%
%LPD*%
M02*
