%TF.GenerationSoftware,KiCad,Pcbnew,7.0.1*%
%TF.CreationDate,2023-03-25T18:58:35+09:00*%
%TF.ProjectId,rasp_power_module,72617370-5f70-46f7-9765-725f6d6f6475,3*%
%TF.SameCoordinates,PX74269e8PY6f4e628*%
%TF.FileFunction,Legend,Top*%
%TF.FilePolarity,Positive*%
%FSLAX46Y46*%
G04 Gerber Fmt 4.6, Leading zero omitted, Abs format (unit mm)*
G04 Created by KiCad (PCBNEW 7.0.1) date 2023-03-25 18:58:35*
%MOMM*%
%LPD*%
G01*
G04 APERTURE LIST*
G04 Aperture macros list*
%AMRoundRect*
0 Rectangle with rounded corners*
0 $1 Rounding radius*
0 $2 $3 $4 $5 $6 $7 $8 $9 X,Y pos of 4 corners*
0 Add a 4 corners polygon primitive as box body*
4,1,4,$2,$3,$4,$5,$6,$7,$8,$9,$2,$3,0*
0 Add four circle primitives for the rounded corners*
1,1,$1+$1,$2,$3*
1,1,$1+$1,$4,$5*
1,1,$1+$1,$6,$7*
1,1,$1+$1,$8,$9*
0 Add four rect primitives between the rounded corners*
20,1,$1+$1,$2,$3,$4,$5,0*
20,1,$1+$1,$4,$5,$6,$7,0*
20,1,$1+$1,$6,$7,$8,$9,0*
20,1,$1+$1,$8,$9,$2,$3,0*%
G04 Aperture macros list end*
%ADD10C,0.150000*%
%ADD11C,0.120000*%
%ADD12C,1.524000*%
%ADD13RoundRect,0.250000X0.450000X-0.262500X0.450000X0.262500X-0.450000X0.262500X-0.450000X-0.262500X0*%
%ADD14R,3.000000X3.000000*%
%ADD15R,1.700000X1.700000*%
%ADD16O,1.700000X1.700000*%
%ADD17RoundRect,0.250000X-0.450000X0.262500X-0.450000X-0.262500X0.450000X-0.262500X0.450000X0.262500X0*%
%ADD18RoundRect,0.249999X-1.300001X-1.300001X1.300001X-1.300001X1.300001X1.300001X-1.300001X1.300001X0*%
%ADD19C,3.100000*%
%ADD20R,3.200000X3.200000*%
%ADD21O,3.200000X3.200000*%
%ADD22R,2.000000X2.000000*%
%ADD23C,2.000000*%
%ADD24RoundRect,0.250000X-0.600000X-0.750000X0.600000X-0.750000X0.600000X0.750000X-0.600000X0.750000X0*%
%ADD25O,1.700000X2.000000*%
%ADD26RoundRect,0.250000X-0.262500X-0.450000X0.262500X-0.450000X0.262500X0.450000X-0.262500X0.450000X0*%
%ADD27RoundRect,0.243750X-0.243750X-0.456250X0.243750X-0.456250X0.243750X0.456250X-0.243750X0.456250X0*%
%ADD28RoundRect,0.250002X-1.699998X-1.699998X1.699998X-1.699998X1.699998X1.699998X-1.699998X1.699998X0*%
%ADD29C,3.900000*%
%ADD30RoundRect,0.150000X-0.150000X0.587500X-0.150000X-0.587500X0.150000X-0.587500X0.150000X0.587500X0*%
%ADD31C,3.000000*%
%ADD32C,2.500000*%
%ADD33R,1.300000X1.700000*%
%ADD34RoundRect,0.250000X-0.725000X0.600000X-0.725000X-0.600000X0.725000X-0.600000X0.725000X0.600000X0*%
%ADD35O,1.950000X1.700000*%
G04 APERTURE END LIST*
D10*
X11201400Y31775400D02*
X11404600Y31775400D01*
X11404600Y30251400D01*
X11201400Y30251400D01*
X11201400Y31775400D01*
G36*
X11201400Y31775400D02*
G01*
X11404600Y31775400D01*
X11404600Y30251400D01*
X11201400Y30251400D01*
X11201400Y31775400D01*
G37*
X3225800Y10591800D02*
X13131800Y10591800D01*
X13131800Y6527800D01*
X3225800Y6527800D01*
X3225800Y10591800D01*
X20761000Y18648200D02*
X21209000Y19126200D01*
X17246600Y57632600D02*
X29743400Y57632600D01*
X29743400Y52857400D01*
X17246600Y52857400D01*
X17246600Y57632600D01*
X21209000Y19126200D02*
X21209000Y20396200D01*
X21209000Y15621000D02*
X21209000Y14351000D01*
X20761000Y16078200D02*
X21209000Y15621000D01*
X15238104Y16281381D02*
X15238104Y16662333D01*
X15238104Y16662333D02*
X14857152Y16700429D01*
X14857152Y16700429D02*
X14895247Y16662333D01*
X14895247Y16662333D02*
X14933342Y16586143D01*
X14933342Y16586143D02*
X14933342Y16395667D01*
X14933342Y16395667D02*
X14895247Y16319476D01*
X14895247Y16319476D02*
X14857152Y16281381D01*
X14857152Y16281381D02*
X14780961Y16243286D01*
X14780961Y16243286D02*
X14590485Y16243286D01*
X14590485Y16243286D02*
X14514295Y16281381D01*
X14514295Y16281381D02*
X14476200Y16319476D01*
X14476200Y16319476D02*
X14438104Y16395667D01*
X14438104Y16395667D02*
X14438104Y16586143D01*
X14438104Y16586143D02*
X14476200Y16662333D01*
X14476200Y16662333D02*
X14514295Y16700429D01*
X15238104Y16014714D02*
X14438104Y15748047D01*
X14438104Y15748047D02*
X15238104Y15481381D01*
X21624000Y9057001D02*
X21671619Y9199858D01*
X21671619Y9199858D02*
X21671619Y9437953D01*
X21671619Y9437953D02*
X21624000Y9533191D01*
X21624000Y9533191D02*
X21576380Y9580810D01*
X21576380Y9580810D02*
X21481142Y9628429D01*
X21481142Y9628429D02*
X21385904Y9628429D01*
X21385904Y9628429D02*
X21290666Y9580810D01*
X21290666Y9580810D02*
X21243047Y9533191D01*
X21243047Y9533191D02*
X21195428Y9437953D01*
X21195428Y9437953D02*
X21147809Y9247477D01*
X21147809Y9247477D02*
X21100190Y9152239D01*
X21100190Y9152239D02*
X21052571Y9104620D01*
X21052571Y9104620D02*
X20957333Y9057001D01*
X20957333Y9057001D02*
X20862095Y9057001D01*
X20862095Y9057001D02*
X20766857Y9104620D01*
X20766857Y9104620D02*
X20719238Y9152239D01*
X20719238Y9152239D02*
X20671619Y9247477D01*
X20671619Y9247477D02*
X20671619Y9485572D01*
X20671619Y9485572D02*
X20719238Y9628429D01*
X20624000Y10771286D02*
X21909714Y9914144D01*
X21671619Y11104620D02*
X20671619Y11104620D01*
X20671619Y11104620D02*
X20671619Y11342715D01*
X20671619Y11342715D02*
X20719238Y11485572D01*
X20719238Y11485572D02*
X20814476Y11580810D01*
X20814476Y11580810D02*
X20909714Y11628429D01*
X20909714Y11628429D02*
X21100190Y11676048D01*
X21100190Y11676048D02*
X21243047Y11676048D01*
X21243047Y11676048D02*
X21433523Y11628429D01*
X21433523Y11628429D02*
X21528761Y11580810D01*
X21528761Y11580810D02*
X21624000Y11485572D01*
X21624000Y11485572D02*
X21671619Y11342715D01*
X21671619Y11342715D02*
X21671619Y11104620D01*
X22052571Y12390334D02*
X22004952Y12342715D01*
X22004952Y12342715D02*
X21862095Y12247477D01*
X21862095Y12247477D02*
X21766857Y12199858D01*
X21766857Y12199858D02*
X21624000Y12152239D01*
X21624000Y12152239D02*
X21385904Y12104620D01*
X21385904Y12104620D02*
X21195428Y12104620D01*
X21195428Y12104620D02*
X20957333Y12152239D01*
X20957333Y12152239D02*
X20814476Y12199858D01*
X20814476Y12199858D02*
X20719238Y12247477D01*
X20719238Y12247477D02*
X20576380Y12342715D01*
X20576380Y12342715D02*
X20528761Y12390334D01*
X20671619Y12961763D02*
X20671619Y13152239D01*
X20671619Y13152239D02*
X20719238Y13247477D01*
X20719238Y13247477D02*
X20814476Y13342715D01*
X20814476Y13342715D02*
X21004952Y13390334D01*
X21004952Y13390334D02*
X21338285Y13390334D01*
X21338285Y13390334D02*
X21528761Y13342715D01*
X21528761Y13342715D02*
X21624000Y13247477D01*
X21624000Y13247477D02*
X21671619Y13152239D01*
X21671619Y13152239D02*
X21671619Y12961763D01*
X21671619Y12961763D02*
X21624000Y12866525D01*
X21624000Y12866525D02*
X21528761Y12771287D01*
X21528761Y12771287D02*
X21338285Y12723668D01*
X21338285Y12723668D02*
X21004952Y12723668D01*
X21004952Y12723668D02*
X20814476Y12771287D01*
X20814476Y12771287D02*
X20719238Y12866525D01*
X20719238Y12866525D02*
X20671619Y12961763D01*
X22052571Y13723668D02*
X22004952Y13771287D01*
X22004952Y13771287D02*
X21862095Y13866525D01*
X21862095Y13866525D02*
X21766857Y13914144D01*
X21766857Y13914144D02*
X21624000Y13961763D01*
X21624000Y13961763D02*
X21385904Y14009382D01*
X21385904Y14009382D02*
X21195428Y14009382D01*
X21195428Y14009382D02*
X20957333Y13961763D01*
X20957333Y13961763D02*
X20814476Y13914144D01*
X20814476Y13914144D02*
X20719238Y13866525D01*
X20719238Y13866525D02*
X20576380Y13771287D01*
X20576380Y13771287D02*
X20528761Y13723668D01*
X1369704Y16255838D02*
X1369704Y16636790D01*
X1369704Y16636790D02*
X988752Y16674886D01*
X988752Y16674886D02*
X1026847Y16636790D01*
X1026847Y16636790D02*
X1064942Y16560600D01*
X1064942Y16560600D02*
X1064942Y16370124D01*
X1064942Y16370124D02*
X1026847Y16293933D01*
X1026847Y16293933D02*
X988752Y16255838D01*
X988752Y16255838D02*
X912561Y16217743D01*
X912561Y16217743D02*
X722085Y16217743D01*
X722085Y16217743D02*
X645895Y16255838D01*
X645895Y16255838D02*
X607800Y16293933D01*
X607800Y16293933D02*
X569704Y16370124D01*
X569704Y16370124D02*
X569704Y16560600D01*
X569704Y16560600D02*
X607800Y16636790D01*
X607800Y16636790D02*
X645895Y16674886D01*
X1369704Y15989171D02*
X569704Y15722504D01*
X569704Y15722504D02*
X1369704Y15455838D01*
X493514Y15379647D02*
X493514Y14770124D01*
X1369704Y14427266D02*
X1369704Y14274885D01*
X1369704Y14274885D02*
X1331609Y14198695D01*
X1331609Y14198695D02*
X1255419Y14122504D01*
X1255419Y14122504D02*
X1103038Y14084409D01*
X1103038Y14084409D02*
X836371Y14084409D01*
X836371Y14084409D02*
X683990Y14122504D01*
X683990Y14122504D02*
X607800Y14198695D01*
X607800Y14198695D02*
X569704Y14274885D01*
X569704Y14274885D02*
X569704Y14427266D01*
X569704Y14427266D02*
X607800Y14503457D01*
X607800Y14503457D02*
X683990Y14579647D01*
X683990Y14579647D02*
X836371Y14617743D01*
X836371Y14617743D02*
X1103038Y14617743D01*
X1103038Y14617743D02*
X1255419Y14579647D01*
X1255419Y14579647D02*
X1331609Y14503457D01*
X1331609Y14503457D02*
X1369704Y14427266D01*
X569704Y13741552D02*
X1369704Y13741552D01*
X1369704Y13741552D02*
X569704Y13284409D01*
X569704Y13284409D02*
X1369704Y13284409D01*
X557000Y21894715D02*
X518904Y21780429D01*
X518904Y21780429D02*
X518904Y21589953D01*
X518904Y21589953D02*
X557000Y21513762D01*
X557000Y21513762D02*
X595095Y21475667D01*
X595095Y21475667D02*
X671285Y21437572D01*
X671285Y21437572D02*
X747476Y21437572D01*
X747476Y21437572D02*
X823666Y21475667D01*
X823666Y21475667D02*
X861761Y21513762D01*
X861761Y21513762D02*
X899857Y21589953D01*
X899857Y21589953D02*
X937952Y21742334D01*
X937952Y21742334D02*
X976047Y21818524D01*
X976047Y21818524D02*
X1014142Y21856619D01*
X1014142Y21856619D02*
X1090333Y21894715D01*
X1090333Y21894715D02*
X1166523Y21894715D01*
X1166523Y21894715D02*
X1242714Y21856619D01*
X1242714Y21856619D02*
X1280809Y21818524D01*
X1280809Y21818524D02*
X1318904Y21742334D01*
X1318904Y21742334D02*
X1318904Y21551857D01*
X1318904Y21551857D02*
X1280809Y21437572D01*
X1318904Y21170905D02*
X518904Y20980429D01*
X518904Y20980429D02*
X1090333Y20828048D01*
X1090333Y20828048D02*
X518904Y20675667D01*
X518904Y20675667D02*
X1318904Y20485190D01*
X18729914Y58598648D02*
X17968009Y58312934D01*
X17968009Y58312934D02*
X18729914Y58027220D01*
X19206104Y57931981D02*
X19206104Y58931981D01*
X19206104Y58931981D02*
X19587056Y58931981D01*
X19587056Y58931981D02*
X19682294Y58884362D01*
X19682294Y58884362D02*
X19729913Y58836743D01*
X19729913Y58836743D02*
X19777532Y58741505D01*
X19777532Y58741505D02*
X19777532Y58598648D01*
X19777532Y58598648D02*
X19729913Y58503410D01*
X19729913Y58503410D02*
X19682294Y58455791D01*
X19682294Y58455791D02*
X19587056Y58408172D01*
X19587056Y58408172D02*
X19206104Y58408172D01*
X20348961Y57931981D02*
X20253723Y57979600D01*
X20253723Y57979600D02*
X20206104Y58027220D01*
X20206104Y58027220D02*
X20158485Y58122458D01*
X20158485Y58122458D02*
X20158485Y58408172D01*
X20158485Y58408172D02*
X20206104Y58503410D01*
X20206104Y58503410D02*
X20253723Y58551029D01*
X20253723Y58551029D02*
X20348961Y58598648D01*
X20348961Y58598648D02*
X20491818Y58598648D01*
X20491818Y58598648D02*
X20587056Y58551029D01*
X20587056Y58551029D02*
X20634675Y58503410D01*
X20634675Y58503410D02*
X20682294Y58408172D01*
X20682294Y58408172D02*
X20682294Y58122458D01*
X20682294Y58122458D02*
X20634675Y58027220D01*
X20634675Y58027220D02*
X20587056Y57979600D01*
X20587056Y57979600D02*
X20491818Y57931981D01*
X20491818Y57931981D02*
X20348961Y57931981D01*
X21015628Y58598648D02*
X21206104Y57931981D01*
X21206104Y57931981D02*
X21396580Y58408172D01*
X21396580Y58408172D02*
X21587056Y57931981D01*
X21587056Y57931981D02*
X21777532Y58598648D01*
X22539437Y57979600D02*
X22444199Y57931981D01*
X22444199Y57931981D02*
X22253723Y57931981D01*
X22253723Y57931981D02*
X22158485Y57979600D01*
X22158485Y57979600D02*
X22110866Y58074839D01*
X22110866Y58074839D02*
X22110866Y58455791D01*
X22110866Y58455791D02*
X22158485Y58551029D01*
X22158485Y58551029D02*
X22253723Y58598648D01*
X22253723Y58598648D02*
X22444199Y58598648D01*
X22444199Y58598648D02*
X22539437Y58551029D01*
X22539437Y58551029D02*
X22587056Y58455791D01*
X22587056Y58455791D02*
X22587056Y58360553D01*
X22587056Y58360553D02*
X22110866Y58265315D01*
X23015628Y57931981D02*
X23015628Y58598648D01*
X23015628Y58408172D02*
X23063247Y58503410D01*
X23063247Y58503410D02*
X23110866Y58551029D01*
X23110866Y58551029D02*
X23206104Y58598648D01*
X23206104Y58598648D02*
X23301342Y58598648D01*
X24396581Y57931981D02*
X24396581Y58931981D01*
X24872771Y58598648D02*
X24872771Y57931981D01*
X24872771Y58503410D02*
X24920390Y58551029D01*
X24920390Y58551029D02*
X25015628Y58598648D01*
X25015628Y58598648D02*
X25158485Y58598648D01*
X25158485Y58598648D02*
X25253723Y58551029D01*
X25253723Y58551029D02*
X25301342Y58455791D01*
X25301342Y58455791D02*
X25301342Y57931981D01*
X25777533Y58598648D02*
X25777533Y57598648D01*
X25777533Y58551029D02*
X25872771Y58598648D01*
X25872771Y58598648D02*
X26063247Y58598648D01*
X26063247Y58598648D02*
X26158485Y58551029D01*
X26158485Y58551029D02*
X26206104Y58503410D01*
X26206104Y58503410D02*
X26253723Y58408172D01*
X26253723Y58408172D02*
X26253723Y58122458D01*
X26253723Y58122458D02*
X26206104Y58027220D01*
X26206104Y58027220D02*
X26158485Y57979600D01*
X26158485Y57979600D02*
X26063247Y57931981D01*
X26063247Y57931981D02*
X25872771Y57931981D01*
X25872771Y57931981D02*
X25777533Y57979600D01*
X27110866Y58598648D02*
X27110866Y57931981D01*
X26682295Y58598648D02*
X26682295Y58074839D01*
X26682295Y58074839D02*
X26729914Y57979600D01*
X26729914Y57979600D02*
X26825152Y57931981D01*
X26825152Y57931981D02*
X26968009Y57931981D01*
X26968009Y57931981D02*
X27063247Y57979600D01*
X27063247Y57979600D02*
X27110866Y58027220D01*
X27444200Y58598648D02*
X27825152Y58598648D01*
X27587057Y58931981D02*
X27587057Y58074839D01*
X27587057Y58074839D02*
X27634676Y57979600D01*
X27634676Y57979600D02*
X27729914Y57931981D01*
X27729914Y57931981D02*
X27825152Y57931981D01*
X28158486Y58598648D02*
X28920391Y58312934D01*
X28920391Y58312934D02*
X28158486Y58027220D01*
X10388695Y11843562D02*
X10293457Y11891181D01*
X10293457Y11891181D02*
X10150600Y11891181D01*
X10150600Y11891181D02*
X10007743Y11843562D01*
X10007743Y11843562D02*
X9912505Y11748324D01*
X9912505Y11748324D02*
X9864886Y11653086D01*
X9864886Y11653086D02*
X9817267Y11462610D01*
X9817267Y11462610D02*
X9817267Y11319753D01*
X9817267Y11319753D02*
X9864886Y11129277D01*
X9864886Y11129277D02*
X9912505Y11034039D01*
X9912505Y11034039D02*
X10007743Y10938800D01*
X10007743Y10938800D02*
X10150600Y10891181D01*
X10150600Y10891181D02*
X10245838Y10891181D01*
X10245838Y10891181D02*
X10388695Y10938800D01*
X10388695Y10938800D02*
X10436314Y10986420D01*
X10436314Y10986420D02*
X10436314Y11319753D01*
X10436314Y11319753D02*
X10245838Y11319753D01*
X10864886Y10891181D02*
X10864886Y11891181D01*
X10864886Y11891181D02*
X11436314Y10891181D01*
X11436314Y10891181D02*
X11436314Y11891181D01*
X11912505Y10891181D02*
X11912505Y11891181D01*
X11912505Y11891181D02*
X12150600Y11891181D01*
X12150600Y11891181D02*
X12293457Y11843562D01*
X12293457Y11843562D02*
X12388695Y11748324D01*
X12388695Y11748324D02*
X12436314Y11653086D01*
X12436314Y11653086D02*
X12483933Y11462610D01*
X12483933Y11462610D02*
X12483933Y11319753D01*
X12483933Y11319753D02*
X12436314Y11129277D01*
X12436314Y11129277D02*
X12388695Y11034039D01*
X12388695Y11034039D02*
X12293457Y10938800D01*
X12293457Y10938800D02*
X12150600Y10891181D01*
X12150600Y10891181D02*
X11912505Y10891181D01*
X518904Y19183286D02*
X518904Y19564238D01*
X518904Y19564238D02*
X1318904Y19564238D01*
X937952Y18916619D02*
X937952Y18649953D01*
X518904Y18535667D02*
X518904Y18916619D01*
X518904Y18916619D02*
X1318904Y18916619D01*
X1318904Y18916619D02*
X1318904Y18535667D01*
X518904Y18192809D02*
X1318904Y18192809D01*
X1318904Y18192809D02*
X1318904Y18002333D01*
X1318904Y18002333D02*
X1280809Y17888047D01*
X1280809Y17888047D02*
X1204619Y17811857D01*
X1204619Y17811857D02*
X1128428Y17773762D01*
X1128428Y17773762D02*
X976047Y17735666D01*
X976047Y17735666D02*
X861761Y17735666D01*
X861761Y17735666D02*
X709380Y17773762D01*
X709380Y17773762D02*
X633190Y17811857D01*
X633190Y17811857D02*
X557000Y17888047D01*
X557000Y17888047D02*
X518904Y18002333D01*
X518904Y18002333D02*
X518904Y18192809D01*
X9199857Y21492381D02*
X9390333Y21492381D01*
X9390333Y21492381D02*
X9485571Y21444762D01*
X9485571Y21444762D02*
X9580809Y21349524D01*
X9580809Y21349524D02*
X9628428Y21159048D01*
X9628428Y21159048D02*
X9628428Y20825715D01*
X9628428Y20825715D02*
X9580809Y20635239D01*
X9580809Y20635239D02*
X9485571Y20540000D01*
X9485571Y20540000D02*
X9390333Y20492381D01*
X9390333Y20492381D02*
X9199857Y20492381D01*
X9199857Y20492381D02*
X9104619Y20540000D01*
X9104619Y20540000D02*
X9009381Y20635239D01*
X9009381Y20635239D02*
X8961762Y20825715D01*
X8961762Y20825715D02*
X8961762Y21159048D01*
X8961762Y21159048D02*
X9009381Y21349524D01*
X9009381Y21349524D02*
X9104619Y21444762D01*
X9104619Y21444762D02*
X9199857Y21492381D01*
X10057000Y20492381D02*
X10057000Y21492381D01*
X10057000Y21492381D02*
X10628428Y20492381D01*
X10628428Y20492381D02*
X10628428Y21492381D01*
X10866524Y20397143D02*
X11628428Y20397143D01*
X12342714Y20492381D02*
X11866524Y20492381D01*
X11866524Y20492381D02*
X11866524Y21492381D01*
X12676048Y21016191D02*
X13009381Y21016191D01*
X13152238Y20492381D02*
X12676048Y20492381D01*
X12676048Y20492381D02*
X12676048Y21492381D01*
X12676048Y21492381D02*
X13152238Y21492381D01*
X13580810Y20492381D02*
X13580810Y21492381D01*
X13580810Y21492381D02*
X13818905Y21492381D01*
X13818905Y21492381D02*
X13961762Y21444762D01*
X13961762Y21444762D02*
X14057000Y21349524D01*
X14057000Y21349524D02*
X14104619Y21254286D01*
X14104619Y21254286D02*
X14152238Y21063810D01*
X14152238Y21063810D02*
X14152238Y20920953D01*
X14152238Y20920953D02*
X14104619Y20730477D01*
X14104619Y20730477D02*
X14057000Y20635239D01*
X14057000Y20635239D02*
X13961762Y20540000D01*
X13961762Y20540000D02*
X13818905Y20492381D01*
X13818905Y20492381D02*
X13580810Y20492381D01*
X1280809Y23488677D02*
X1318904Y23564867D01*
X1318904Y23564867D02*
X1318904Y23679153D01*
X1318904Y23679153D02*
X1280809Y23793439D01*
X1280809Y23793439D02*
X1204619Y23869629D01*
X1204619Y23869629D02*
X1128428Y23907724D01*
X1128428Y23907724D02*
X976047Y23945820D01*
X976047Y23945820D02*
X861761Y23945820D01*
X861761Y23945820D02*
X709380Y23907724D01*
X709380Y23907724D02*
X633190Y23869629D01*
X633190Y23869629D02*
X557000Y23793439D01*
X557000Y23793439D02*
X518904Y23679153D01*
X518904Y23679153D02*
X518904Y23602962D01*
X518904Y23602962D02*
X557000Y23488677D01*
X557000Y23488677D02*
X595095Y23450581D01*
X595095Y23450581D02*
X861761Y23450581D01*
X861761Y23450581D02*
X861761Y23602962D01*
X20671619Y20955191D02*
X20671619Y21145667D01*
X20671619Y21145667D02*
X20719238Y21240905D01*
X20719238Y21240905D02*
X20814476Y21336143D01*
X20814476Y21336143D02*
X21004952Y21383762D01*
X21004952Y21383762D02*
X21338285Y21383762D01*
X21338285Y21383762D02*
X21528761Y21336143D01*
X21528761Y21336143D02*
X21624000Y21240905D01*
X21624000Y21240905D02*
X21671619Y21145667D01*
X21671619Y21145667D02*
X21671619Y20955191D01*
X21671619Y20955191D02*
X21624000Y20859953D01*
X21624000Y20859953D02*
X21528761Y20764715D01*
X21528761Y20764715D02*
X21338285Y20717096D01*
X21338285Y20717096D02*
X21004952Y20717096D01*
X21004952Y20717096D02*
X20814476Y20764715D01*
X20814476Y20764715D02*
X20719238Y20859953D01*
X20719238Y20859953D02*
X20671619Y20955191D01*
X21671619Y21812334D02*
X20671619Y21812334D01*
X20671619Y21812334D02*
X21671619Y22383762D01*
X21671619Y22383762D02*
X20671619Y22383762D01*
X22052571Y23145667D02*
X22004952Y23098048D01*
X22004952Y23098048D02*
X21862095Y23002810D01*
X21862095Y23002810D02*
X21766857Y22955191D01*
X21766857Y22955191D02*
X21624000Y22907572D01*
X21624000Y22907572D02*
X21385904Y22859953D01*
X21385904Y22859953D02*
X21195428Y22859953D01*
X21195428Y22859953D02*
X20957333Y22907572D01*
X20957333Y22907572D02*
X20814476Y22955191D01*
X20814476Y22955191D02*
X20719238Y23002810D01*
X20719238Y23002810D02*
X20576380Y23098048D01*
X20576380Y23098048D02*
X20528761Y23145667D01*
X21671619Y23526620D02*
X20671619Y23526620D01*
X22052571Y23907572D02*
X22004952Y23955191D01*
X22004952Y23955191D02*
X21862095Y24050429D01*
X21862095Y24050429D02*
X21766857Y24098048D01*
X21766857Y24098048D02*
X21624000Y24145667D01*
X21624000Y24145667D02*
X21385904Y24193286D01*
X21385904Y24193286D02*
X21195428Y24193286D01*
X21195428Y24193286D02*
X20957333Y24145667D01*
X20957333Y24145667D02*
X20814476Y24098048D01*
X20814476Y24098048D02*
X20719238Y24050429D01*
X20719238Y24050429D02*
X20576380Y23955191D01*
X20576380Y23955191D02*
X20528761Y23907572D01*
X14438104Y19164239D02*
X14438104Y19621382D01*
X14438104Y19392810D02*
X15238104Y19392810D01*
X15238104Y19392810D02*
X15123819Y19469001D01*
X15123819Y19469001D02*
X15047628Y19545191D01*
X15047628Y19545191D02*
X15009533Y19621382D01*
X15161914Y18859477D02*
X15200009Y18821381D01*
X15200009Y18821381D02*
X15238104Y18745191D01*
X15238104Y18745191D02*
X15238104Y18554715D01*
X15238104Y18554715D02*
X15200009Y18478524D01*
X15200009Y18478524D02*
X15161914Y18440429D01*
X15161914Y18440429D02*
X15085723Y18402334D01*
X15085723Y18402334D02*
X15009533Y18402334D01*
X15009533Y18402334D02*
X14895247Y18440429D01*
X14895247Y18440429D02*
X14438104Y18897572D01*
X14438104Y18897572D02*
X14438104Y18402334D01*
X15238104Y18173762D02*
X14438104Y17907095D01*
X14438104Y17907095D02*
X15238104Y17640429D01*
X18975952Y51531181D02*
X18404524Y51531181D01*
X18690238Y51531181D02*
X18690238Y52531181D01*
X18690238Y52531181D02*
X18595000Y52388324D01*
X18595000Y52388324D02*
X18499762Y52293086D01*
X18499762Y52293086D02*
X18404524Y52245467D01*
X19356905Y52435943D02*
X19404524Y52483562D01*
X19404524Y52483562D02*
X19499762Y52531181D01*
X19499762Y52531181D02*
X19737857Y52531181D01*
X19737857Y52531181D02*
X19833095Y52483562D01*
X19833095Y52483562D02*
X19880714Y52435943D01*
X19880714Y52435943D02*
X19928333Y52340705D01*
X19928333Y52340705D02*
X19928333Y52245467D01*
X19928333Y52245467D02*
X19880714Y52102610D01*
X19880714Y52102610D02*
X19309286Y51531181D01*
X19309286Y51531181D02*
X19928333Y51531181D01*
X20214048Y52531181D02*
X20547381Y51531181D01*
X20547381Y51531181D02*
X20880714Y52531181D01*
X10337876Y24991705D02*
X10337876Y24420277D01*
X10337876Y24420277D02*
X10299781Y24305991D01*
X10299781Y24305991D02*
X10223590Y24229800D01*
X10223590Y24229800D02*
X10109305Y24191705D01*
X10109305Y24191705D02*
X10033114Y24191705D01*
X10642638Y24991705D02*
X11137876Y24991705D01*
X11137876Y24991705D02*
X10871210Y24686943D01*
X10871210Y24686943D02*
X10985495Y24686943D01*
X10985495Y24686943D02*
X11061686Y24648848D01*
X11061686Y24648848D02*
X11099781Y24610753D01*
X11099781Y24610753D02*
X11137876Y24534562D01*
X11137876Y24534562D02*
X11137876Y24344086D01*
X11137876Y24344086D02*
X11099781Y24267896D01*
X11099781Y24267896D02*
X11061686Y24229800D01*
X11061686Y24229800D02*
X10985495Y24191705D01*
X10985495Y24191705D02*
X10756924Y24191705D01*
X10756924Y24191705D02*
X10680733Y24229800D01*
X10680733Y24229800D02*
X10642638Y24267896D01*
X11633115Y24572658D02*
X11633115Y24191705D01*
X11366448Y24991705D02*
X11633115Y24572658D01*
X11633115Y24572658D02*
X11899781Y24991705D01*
X26041495Y2741305D02*
X25660543Y2741305D01*
X25660543Y2741305D02*
X25622447Y2360353D01*
X25622447Y2360353D02*
X25660543Y2398448D01*
X25660543Y2398448D02*
X25736733Y2436543D01*
X25736733Y2436543D02*
X25927209Y2436543D01*
X25927209Y2436543D02*
X26003400Y2398448D01*
X26003400Y2398448D02*
X26041495Y2360353D01*
X26041495Y2360353D02*
X26079590Y2284162D01*
X26079590Y2284162D02*
X26079590Y2093686D01*
X26079590Y2093686D02*
X26041495Y2017496D01*
X26041495Y2017496D02*
X26003400Y1979400D01*
X26003400Y1979400D02*
X25927209Y1941305D01*
X25927209Y1941305D02*
X25736733Y1941305D01*
X25736733Y1941305D02*
X25660543Y1979400D01*
X25660543Y1979400D02*
X25622447Y2017496D01*
X26308162Y2741305D02*
X26574829Y1941305D01*
X26574829Y1941305D02*
X26841495Y2741305D01*
X28746257Y2703210D02*
X28670067Y2741305D01*
X28670067Y2741305D02*
X28555781Y2741305D01*
X28555781Y2741305D02*
X28441495Y2703210D01*
X28441495Y2703210D02*
X28365305Y2627020D01*
X28365305Y2627020D02*
X28327210Y2550829D01*
X28327210Y2550829D02*
X28289114Y2398448D01*
X28289114Y2398448D02*
X28289114Y2284162D01*
X28289114Y2284162D02*
X28327210Y2131781D01*
X28327210Y2131781D02*
X28365305Y2055591D01*
X28365305Y2055591D02*
X28441495Y1979400D01*
X28441495Y1979400D02*
X28555781Y1941305D01*
X28555781Y1941305D02*
X28631972Y1941305D01*
X28631972Y1941305D02*
X28746257Y1979400D01*
X28746257Y1979400D02*
X28784353Y2017496D01*
X28784353Y2017496D02*
X28784353Y2284162D01*
X28784353Y2284162D02*
X28631972Y2284162D01*
X36750600Y52690039D02*
X36750600Y53166229D01*
X36722029Y52690039D02*
X36722029Y53166229D01*
X36693457Y52737658D02*
X36693457Y53118610D01*
X36664886Y52737658D02*
X36664886Y53118610D01*
X36636314Y52737658D02*
X36636314Y53118610D01*
X36607743Y52785277D02*
X36607743Y53070991D01*
X36579172Y52785277D02*
X36579172Y53070991D01*
X36550600Y52785277D02*
X36550600Y53070991D01*
X36522029Y52832896D02*
X36522029Y53023372D01*
X36493457Y52832896D02*
X36493457Y53023372D01*
X36464886Y52880515D02*
X36464886Y52975753D01*
X36436314Y52880515D02*
X36436314Y52975753D01*
X36407743Y52880515D02*
X36407743Y52975753D01*
X36379172Y52928134D02*
X36407743Y52928134D01*
X36779172Y52690039D02*
X36350600Y52928134D01*
X36350600Y52928134D02*
X36779172Y53166229D01*
X36322029Y52928134D02*
X36779172Y53213848D01*
X36779172Y53213848D02*
X36779172Y52642420D01*
X36779172Y52642420D02*
X36322029Y52928134D01*
X42682809Y45034124D02*
X42720904Y45110314D01*
X42720904Y45110314D02*
X42720904Y45224600D01*
X42720904Y45224600D02*
X42682809Y45338886D01*
X42682809Y45338886D02*
X42606619Y45415076D01*
X42606619Y45415076D02*
X42530428Y45453171D01*
X42530428Y45453171D02*
X42378047Y45491267D01*
X42378047Y45491267D02*
X42263761Y45491267D01*
X42263761Y45491267D02*
X42111380Y45453171D01*
X42111380Y45453171D02*
X42035190Y45415076D01*
X42035190Y45415076D02*
X41959000Y45338886D01*
X41959000Y45338886D02*
X41920904Y45224600D01*
X41920904Y45224600D02*
X41920904Y45148409D01*
X41920904Y45148409D02*
X41959000Y45034124D01*
X41959000Y45034124D02*
X41997095Y44996028D01*
X41997095Y44996028D02*
X42263761Y44996028D01*
X42263761Y44996028D02*
X42263761Y45148409D01*
X41920904Y44653171D02*
X42720904Y44653171D01*
X42720904Y44653171D02*
X41920904Y44196028D01*
X41920904Y44196028D02*
X42720904Y44196028D01*
X41920904Y43815076D02*
X42720904Y43815076D01*
X42720904Y43815076D02*
X42720904Y43624600D01*
X42720904Y43624600D02*
X42682809Y43510314D01*
X42682809Y43510314D02*
X42606619Y43434124D01*
X42606619Y43434124D02*
X42530428Y43396029D01*
X42530428Y43396029D02*
X42378047Y43357933D01*
X42378047Y43357933D02*
X42263761Y43357933D01*
X42263761Y43357933D02*
X42111380Y43396029D01*
X42111380Y43396029D02*
X42035190Y43434124D01*
X42035190Y43434124D02*
X41959000Y43510314D01*
X41959000Y43510314D02*
X41920904Y43624600D01*
X41920904Y43624600D02*
X41920904Y43815076D01*
X34880695Y2741305D02*
X34499743Y2741305D01*
X34499743Y2741305D02*
X34461647Y2360353D01*
X34461647Y2360353D02*
X34499743Y2398448D01*
X34499743Y2398448D02*
X34575933Y2436543D01*
X34575933Y2436543D02*
X34766409Y2436543D01*
X34766409Y2436543D02*
X34842600Y2398448D01*
X34842600Y2398448D02*
X34880695Y2360353D01*
X34880695Y2360353D02*
X34918790Y2284162D01*
X34918790Y2284162D02*
X34918790Y2093686D01*
X34918790Y2093686D02*
X34880695Y2017496D01*
X34880695Y2017496D02*
X34842600Y1979400D01*
X34842600Y1979400D02*
X34766409Y1941305D01*
X34766409Y1941305D02*
X34575933Y1941305D01*
X34575933Y1941305D02*
X34499743Y1979400D01*
X34499743Y1979400D02*
X34461647Y2017496D01*
X35147362Y2741305D02*
X35414029Y1941305D01*
X35414029Y1941305D02*
X35680695Y2741305D01*
X37585457Y2703210D02*
X37509267Y2741305D01*
X37509267Y2741305D02*
X37394981Y2741305D01*
X37394981Y2741305D02*
X37280695Y2703210D01*
X37280695Y2703210D02*
X37204505Y2627020D01*
X37204505Y2627020D02*
X37166410Y2550829D01*
X37166410Y2550829D02*
X37128314Y2398448D01*
X37128314Y2398448D02*
X37128314Y2284162D01*
X37128314Y2284162D02*
X37166410Y2131781D01*
X37166410Y2131781D02*
X37204505Y2055591D01*
X37204505Y2055591D02*
X37280695Y1979400D01*
X37280695Y1979400D02*
X37394981Y1941305D01*
X37394981Y1941305D02*
X37471172Y1941305D01*
X37471172Y1941305D02*
X37585457Y1979400D01*
X37585457Y1979400D02*
X37623553Y2017496D01*
X37623553Y2017496D02*
X37623553Y2284162D01*
X37623553Y2284162D02*
X37471172Y2284162D01*
X6770904Y35668762D02*
X6675666Y35716381D01*
X6675666Y35716381D02*
X6532809Y35716381D01*
X6532809Y35716381D02*
X6389952Y35668762D01*
X6389952Y35668762D02*
X6294714Y35573524D01*
X6294714Y35573524D02*
X6247095Y35478286D01*
X6247095Y35478286D02*
X6199476Y35287810D01*
X6199476Y35287810D02*
X6199476Y35144953D01*
X6199476Y35144953D02*
X6247095Y34954477D01*
X6247095Y34954477D02*
X6294714Y34859239D01*
X6294714Y34859239D02*
X6389952Y34764000D01*
X6389952Y34764000D02*
X6532809Y34716381D01*
X6532809Y34716381D02*
X6628047Y34716381D01*
X6628047Y34716381D02*
X6770904Y34764000D01*
X6770904Y34764000D02*
X6818523Y34811620D01*
X6818523Y34811620D02*
X6818523Y35144953D01*
X6818523Y35144953D02*
X6628047Y35144953D01*
X7723285Y35716381D02*
X7247095Y35716381D01*
X7247095Y35716381D02*
X7199476Y35240191D01*
X7199476Y35240191D02*
X7247095Y35287810D01*
X7247095Y35287810D02*
X7342333Y35335429D01*
X7342333Y35335429D02*
X7580428Y35335429D01*
X7580428Y35335429D02*
X7675666Y35287810D01*
X7675666Y35287810D02*
X7723285Y35240191D01*
X7723285Y35240191D02*
X7770904Y35144953D01*
X7770904Y35144953D02*
X7770904Y34906858D01*
X7770904Y34906858D02*
X7723285Y34811620D01*
X7723285Y34811620D02*
X7675666Y34764000D01*
X7675666Y34764000D02*
X7580428Y34716381D01*
X7580428Y34716381D02*
X7342333Y34716381D01*
X7342333Y34716381D02*
X7247095Y34764000D01*
X7247095Y34764000D02*
X7199476Y34811620D01*
X8056619Y35716381D02*
X8389952Y34716381D01*
X8389952Y34716381D02*
X8723285Y35716381D01*
X9056619Y35097334D02*
X9818524Y35097334D01*
X10818523Y34716381D02*
X10247095Y34716381D01*
X10532809Y34716381D02*
X10532809Y35716381D01*
X10532809Y35716381D02*
X10437571Y35573524D01*
X10437571Y35573524D02*
X10342333Y35478286D01*
X10342333Y35478286D02*
X10247095Y35430667D01*
X42682809Y26644524D02*
X42720904Y26720714D01*
X42720904Y26720714D02*
X42720904Y26835000D01*
X42720904Y26835000D02*
X42682809Y26949286D01*
X42682809Y26949286D02*
X42606619Y27025476D01*
X42606619Y27025476D02*
X42530428Y27063571D01*
X42530428Y27063571D02*
X42378047Y27101667D01*
X42378047Y27101667D02*
X42263761Y27101667D01*
X42263761Y27101667D02*
X42111380Y27063571D01*
X42111380Y27063571D02*
X42035190Y27025476D01*
X42035190Y27025476D02*
X41959000Y26949286D01*
X41959000Y26949286D02*
X41920904Y26835000D01*
X41920904Y26835000D02*
X41920904Y26758809D01*
X41920904Y26758809D02*
X41959000Y26644524D01*
X41959000Y26644524D02*
X41997095Y26606428D01*
X41997095Y26606428D02*
X42263761Y26606428D01*
X42263761Y26606428D02*
X42263761Y26758809D01*
X41920904Y26263571D02*
X42720904Y26263571D01*
X42720904Y26263571D02*
X41920904Y25806428D01*
X41920904Y25806428D02*
X42720904Y25806428D01*
X41920904Y25425476D02*
X42720904Y25425476D01*
X42720904Y25425476D02*
X42720904Y25235000D01*
X42720904Y25235000D02*
X42682809Y25120714D01*
X42682809Y25120714D02*
X42606619Y25044524D01*
X42606619Y25044524D02*
X42530428Y25006429D01*
X42530428Y25006429D02*
X42378047Y24968333D01*
X42378047Y24968333D02*
X42263761Y24968333D01*
X42263761Y24968333D02*
X42111380Y25006429D01*
X42111380Y25006429D02*
X42035190Y25044524D01*
X42035190Y25044524D02*
X41959000Y25120714D01*
X41959000Y25120714D02*
X41920904Y25235000D01*
X41920904Y25235000D02*
X41920904Y25425476D01*
X17100695Y2741305D02*
X16719743Y2741305D01*
X16719743Y2741305D02*
X16681647Y2360353D01*
X16681647Y2360353D02*
X16719743Y2398448D01*
X16719743Y2398448D02*
X16795933Y2436543D01*
X16795933Y2436543D02*
X16986409Y2436543D01*
X16986409Y2436543D02*
X17062600Y2398448D01*
X17062600Y2398448D02*
X17100695Y2360353D01*
X17100695Y2360353D02*
X17138790Y2284162D01*
X17138790Y2284162D02*
X17138790Y2093686D01*
X17138790Y2093686D02*
X17100695Y2017496D01*
X17100695Y2017496D02*
X17062600Y1979400D01*
X17062600Y1979400D02*
X16986409Y1941305D01*
X16986409Y1941305D02*
X16795933Y1941305D01*
X16795933Y1941305D02*
X16719743Y1979400D01*
X16719743Y1979400D02*
X16681647Y2017496D01*
X17367362Y2741305D02*
X17634029Y1941305D01*
X17634029Y1941305D02*
X17900695Y2741305D01*
X19805457Y2703210D02*
X19729267Y2741305D01*
X19729267Y2741305D02*
X19614981Y2741305D01*
X19614981Y2741305D02*
X19500695Y2703210D01*
X19500695Y2703210D02*
X19424505Y2627020D01*
X19424505Y2627020D02*
X19386410Y2550829D01*
X19386410Y2550829D02*
X19348314Y2398448D01*
X19348314Y2398448D02*
X19348314Y2284162D01*
X19348314Y2284162D02*
X19386410Y2131781D01*
X19386410Y2131781D02*
X19424505Y2055591D01*
X19424505Y2055591D02*
X19500695Y1979400D01*
X19500695Y1979400D02*
X19614981Y1941305D01*
X19614981Y1941305D02*
X19691172Y1941305D01*
X19691172Y1941305D02*
X19805457Y1979400D01*
X19805457Y1979400D02*
X19843553Y2017496D01*
X19843553Y2017496D02*
X19843553Y2284162D01*
X19843553Y2284162D02*
X19691172Y2284162D01*
X4587952Y10891181D02*
X4016524Y10891181D01*
X4302238Y10891181D02*
X4302238Y11891181D01*
X4302238Y11891181D02*
X4207000Y11748324D01*
X4207000Y11748324D02*
X4111762Y11653086D01*
X4111762Y11653086D02*
X4016524Y11605467D01*
X4968905Y11795943D02*
X5016524Y11843562D01*
X5016524Y11843562D02*
X5111762Y11891181D01*
X5111762Y11891181D02*
X5349857Y11891181D01*
X5349857Y11891181D02*
X5445095Y11843562D01*
X5445095Y11843562D02*
X5492714Y11795943D01*
X5492714Y11795943D02*
X5540333Y11700705D01*
X5540333Y11700705D02*
X5540333Y11605467D01*
X5540333Y11605467D02*
X5492714Y11462610D01*
X5492714Y11462610D02*
X4921286Y10891181D01*
X4921286Y10891181D02*
X5540333Y10891181D01*
X5826048Y11891181D02*
X6159381Y10891181D01*
X6159381Y10891181D02*
X6492714Y11891181D01*
X7647324Y5207848D02*
X6885419Y4922134D01*
X6885419Y4922134D02*
X7647324Y4636420D01*
X8313990Y5541181D02*
X8504466Y5541181D01*
X8504466Y5541181D02*
X8599704Y5493562D01*
X8599704Y5493562D02*
X8694942Y5398324D01*
X8694942Y5398324D02*
X8742561Y5207848D01*
X8742561Y5207848D02*
X8742561Y4874515D01*
X8742561Y4874515D02*
X8694942Y4684039D01*
X8694942Y4684039D02*
X8599704Y4588800D01*
X8599704Y4588800D02*
X8504466Y4541181D01*
X8504466Y4541181D02*
X8313990Y4541181D01*
X8313990Y4541181D02*
X8218752Y4588800D01*
X8218752Y4588800D02*
X8123514Y4684039D01*
X8123514Y4684039D02*
X8075895Y4874515D01*
X8075895Y4874515D02*
X8075895Y5207848D01*
X8075895Y5207848D02*
X8123514Y5398324D01*
X8123514Y5398324D02*
X8218752Y5493562D01*
X8218752Y5493562D02*
X8313990Y5541181D01*
X9599704Y5207848D02*
X9599704Y4541181D01*
X9171133Y5207848D02*
X9171133Y4684039D01*
X9171133Y4684039D02*
X9218752Y4588800D01*
X9218752Y4588800D02*
X9313990Y4541181D01*
X9313990Y4541181D02*
X9456847Y4541181D01*
X9456847Y4541181D02*
X9552085Y4588800D01*
X9552085Y4588800D02*
X9599704Y4636420D01*
X9933038Y5207848D02*
X10313990Y5207848D01*
X10075895Y5541181D02*
X10075895Y4684039D01*
X10075895Y4684039D02*
X10123514Y4588800D01*
X10123514Y4588800D02*
X10218752Y4541181D01*
X10218752Y4541181D02*
X10313990Y4541181D01*
X10647324Y5207848D02*
X10647324Y4207848D01*
X10647324Y5160229D02*
X10742562Y5207848D01*
X10742562Y5207848D02*
X10933038Y5207848D01*
X10933038Y5207848D02*
X11028276Y5160229D01*
X11028276Y5160229D02*
X11075895Y5112610D01*
X11075895Y5112610D02*
X11123514Y5017372D01*
X11123514Y5017372D02*
X11123514Y4731658D01*
X11123514Y4731658D02*
X11075895Y4636420D01*
X11075895Y4636420D02*
X11028276Y4588800D01*
X11028276Y4588800D02*
X10933038Y4541181D01*
X10933038Y4541181D02*
X10742562Y4541181D01*
X10742562Y4541181D02*
X10647324Y4588800D01*
X11980657Y5207848D02*
X11980657Y4541181D01*
X11552086Y5207848D02*
X11552086Y4684039D01*
X11552086Y4684039D02*
X11599705Y4588800D01*
X11599705Y4588800D02*
X11694943Y4541181D01*
X11694943Y4541181D02*
X11837800Y4541181D01*
X11837800Y4541181D02*
X11933038Y4588800D01*
X11933038Y4588800D02*
X11980657Y4636420D01*
X12313991Y5207848D02*
X12694943Y5207848D01*
X12456848Y5541181D02*
X12456848Y4684039D01*
X12456848Y4684039D02*
X12504467Y4588800D01*
X12504467Y4588800D02*
X12599705Y4541181D01*
X12599705Y4541181D02*
X12694943Y4541181D01*
X13028277Y5207848D02*
X13790182Y4922134D01*
X13790182Y4922134D02*
X13028277Y4636420D01*
X26670095Y52483562D02*
X26574857Y52531181D01*
X26574857Y52531181D02*
X26432000Y52531181D01*
X26432000Y52531181D02*
X26289143Y52483562D01*
X26289143Y52483562D02*
X26193905Y52388324D01*
X26193905Y52388324D02*
X26146286Y52293086D01*
X26146286Y52293086D02*
X26098667Y52102610D01*
X26098667Y52102610D02*
X26098667Y51959753D01*
X26098667Y51959753D02*
X26146286Y51769277D01*
X26146286Y51769277D02*
X26193905Y51674039D01*
X26193905Y51674039D02*
X26289143Y51578800D01*
X26289143Y51578800D02*
X26432000Y51531181D01*
X26432000Y51531181D02*
X26527238Y51531181D01*
X26527238Y51531181D02*
X26670095Y51578800D01*
X26670095Y51578800D02*
X26717714Y51626420D01*
X26717714Y51626420D02*
X26717714Y51959753D01*
X26717714Y51959753D02*
X26527238Y51959753D01*
X27146286Y51531181D02*
X27146286Y52531181D01*
X27146286Y52531181D02*
X27717714Y51531181D01*
X27717714Y51531181D02*
X27717714Y52531181D01*
X28193905Y51531181D02*
X28193905Y52531181D01*
X28193905Y52531181D02*
X28432000Y52531181D01*
X28432000Y52531181D02*
X28574857Y52483562D01*
X28574857Y52483562D02*
X28670095Y52388324D01*
X28670095Y52388324D02*
X28717714Y52293086D01*
X28717714Y52293086D02*
X28765333Y52102610D01*
X28765333Y52102610D02*
X28765333Y51959753D01*
X28765333Y51959753D02*
X28717714Y51769277D01*
X28717714Y51769277D02*
X28670095Y51674039D01*
X28670095Y51674039D02*
X28574857Y51578800D01*
X28574857Y51578800D02*
X28432000Y51531181D01*
X28432000Y51531181D02*
X28193905Y51531181D01*
X23573095Y25882620D02*
X23573095Y25501668D01*
X23573095Y25501668D02*
X23954047Y25463572D01*
X23954047Y25463572D02*
X23915952Y25501668D01*
X23915952Y25501668D02*
X23877857Y25577858D01*
X23877857Y25577858D02*
X23877857Y25768334D01*
X23877857Y25768334D02*
X23915952Y25844525D01*
X23915952Y25844525D02*
X23954047Y25882620D01*
X23954047Y25882620D02*
X24030238Y25920715D01*
X24030238Y25920715D02*
X24220714Y25920715D01*
X24220714Y25920715D02*
X24296904Y25882620D01*
X24296904Y25882620D02*
X24335000Y25844525D01*
X24335000Y25844525D02*
X24373095Y25768334D01*
X24373095Y25768334D02*
X24373095Y25577858D01*
X24373095Y25577858D02*
X24335000Y25501668D01*
X24335000Y25501668D02*
X24296904Y25463572D01*
X23573095Y26149287D02*
X24373095Y26415954D01*
X24373095Y26415954D02*
X23573095Y26682620D01*
X4771143Y56846096D02*
X5247333Y56846096D01*
X4675905Y56560381D02*
X5009238Y57560381D01*
X5009238Y57560381D02*
X5342571Y56560381D01*
X5675905Y56560381D02*
X5675905Y57227048D01*
X5675905Y57131810D02*
X5723524Y57179429D01*
X5723524Y57179429D02*
X5818762Y57227048D01*
X5818762Y57227048D02*
X5961619Y57227048D01*
X5961619Y57227048D02*
X6056857Y57179429D01*
X6056857Y57179429D02*
X6104476Y57084191D01*
X6104476Y57084191D02*
X6104476Y56560381D01*
X6104476Y57084191D02*
X6152095Y57179429D01*
X6152095Y57179429D02*
X6247333Y57227048D01*
X6247333Y57227048D02*
X6390190Y57227048D01*
X6390190Y57227048D02*
X6485429Y57179429D01*
X6485429Y57179429D02*
X6533048Y57084191D01*
X6533048Y57084191D02*
X6533048Y56560381D01*
X7152095Y56560381D02*
X7056857Y56608000D01*
X7056857Y56608000D02*
X7009238Y56655620D01*
X7009238Y56655620D02*
X6961619Y56750858D01*
X6961619Y56750858D02*
X6961619Y57036572D01*
X6961619Y57036572D02*
X7009238Y57131810D01*
X7009238Y57131810D02*
X7056857Y57179429D01*
X7056857Y57179429D02*
X7152095Y57227048D01*
X7152095Y57227048D02*
X7294952Y57227048D01*
X7294952Y57227048D02*
X7390190Y57179429D01*
X7390190Y57179429D02*
X7437809Y57131810D01*
X7437809Y57131810D02*
X7485428Y57036572D01*
X7485428Y57036572D02*
X7485428Y56750858D01*
X7485428Y56750858D02*
X7437809Y56655620D01*
X7437809Y56655620D02*
X7390190Y56608000D01*
X7390190Y56608000D02*
X7294952Y56560381D01*
X7294952Y56560381D02*
X7152095Y56560381D01*
X7866381Y56608000D02*
X7961619Y56560381D01*
X7961619Y56560381D02*
X8152095Y56560381D01*
X8152095Y56560381D02*
X8247333Y56608000D01*
X8247333Y56608000D02*
X8294952Y56703239D01*
X8294952Y56703239D02*
X8294952Y56750858D01*
X8294952Y56750858D02*
X8247333Y56846096D01*
X8247333Y56846096D02*
X8152095Y56893715D01*
X8152095Y56893715D02*
X8009238Y56893715D01*
X8009238Y56893715D02*
X7914000Y56941334D01*
X7914000Y56941334D02*
X7866381Y57036572D01*
X7866381Y57036572D02*
X7866381Y57084191D01*
X7866381Y57084191D02*
X7914000Y57179429D01*
X7914000Y57179429D02*
X8009238Y57227048D01*
X8009238Y57227048D02*
X8152095Y57227048D01*
X8152095Y57227048D02*
X8247333Y57179429D01*
X10056857Y56560381D02*
X9723524Y57036572D01*
X9485429Y56560381D02*
X9485429Y57560381D01*
X9485429Y57560381D02*
X9866381Y57560381D01*
X9866381Y57560381D02*
X9961619Y57512762D01*
X9961619Y57512762D02*
X10009238Y57465143D01*
X10009238Y57465143D02*
X10056857Y57369905D01*
X10056857Y57369905D02*
X10056857Y57227048D01*
X10056857Y57227048D02*
X10009238Y57131810D01*
X10009238Y57131810D02*
X9961619Y57084191D01*
X9961619Y57084191D02*
X9866381Y57036572D01*
X9866381Y57036572D02*
X9485429Y57036572D01*
X10914000Y56560381D02*
X10914000Y57084191D01*
X10914000Y57084191D02*
X10866381Y57179429D01*
X10866381Y57179429D02*
X10771143Y57227048D01*
X10771143Y57227048D02*
X10580667Y57227048D01*
X10580667Y57227048D02*
X10485429Y57179429D01*
X10914000Y56608000D02*
X10818762Y56560381D01*
X10818762Y56560381D02*
X10580667Y56560381D01*
X10580667Y56560381D02*
X10485429Y56608000D01*
X10485429Y56608000D02*
X10437810Y56703239D01*
X10437810Y56703239D02*
X10437810Y56798477D01*
X10437810Y56798477D02*
X10485429Y56893715D01*
X10485429Y56893715D02*
X10580667Y56941334D01*
X10580667Y56941334D02*
X10818762Y56941334D01*
X10818762Y56941334D02*
X10914000Y56988953D01*
X11342572Y56608000D02*
X11437810Y56560381D01*
X11437810Y56560381D02*
X11628286Y56560381D01*
X11628286Y56560381D02*
X11723524Y56608000D01*
X11723524Y56608000D02*
X11771143Y56703239D01*
X11771143Y56703239D02*
X11771143Y56750858D01*
X11771143Y56750858D02*
X11723524Y56846096D01*
X11723524Y56846096D02*
X11628286Y56893715D01*
X11628286Y56893715D02*
X11485429Y56893715D01*
X11485429Y56893715D02*
X11390191Y56941334D01*
X11390191Y56941334D02*
X11342572Y57036572D01*
X11342572Y57036572D02*
X11342572Y57084191D01*
X11342572Y57084191D02*
X11390191Y57179429D01*
X11390191Y57179429D02*
X11485429Y57227048D01*
X11485429Y57227048D02*
X11628286Y57227048D01*
X11628286Y57227048D02*
X11723524Y57179429D01*
X12199715Y57227048D02*
X12199715Y56227048D01*
X12199715Y57179429D02*
X12294953Y57227048D01*
X12294953Y57227048D02*
X12485429Y57227048D01*
X12485429Y57227048D02*
X12580667Y57179429D01*
X12580667Y57179429D02*
X12628286Y57131810D01*
X12628286Y57131810D02*
X12675905Y57036572D01*
X12675905Y57036572D02*
X12675905Y56750858D01*
X12675905Y56750858D02*
X12628286Y56655620D01*
X12628286Y56655620D02*
X12580667Y56608000D01*
X12580667Y56608000D02*
X12485429Y56560381D01*
X12485429Y56560381D02*
X12294953Y56560381D01*
X12294953Y56560381D02*
X12199715Y56608000D01*
X13104477Y56941334D02*
X13866382Y56941334D01*
X14342572Y56560381D02*
X14342572Y57560381D01*
X14342572Y57560381D02*
X14723524Y57560381D01*
X14723524Y57560381D02*
X14818762Y57512762D01*
X14818762Y57512762D02*
X14866381Y57465143D01*
X14866381Y57465143D02*
X14914000Y57369905D01*
X14914000Y57369905D02*
X14914000Y57227048D01*
X14914000Y57227048D02*
X14866381Y57131810D01*
X14866381Y57131810D02*
X14818762Y57084191D01*
X14818762Y57084191D02*
X14723524Y57036572D01*
X14723524Y57036572D02*
X14342572Y57036572D01*
X15342572Y56560381D02*
X15342572Y57560381D01*
X15342572Y57560381D02*
X15675905Y56846096D01*
X15675905Y56846096D02*
X16009238Y57560381D01*
X16009238Y57560381D02*
X16009238Y56560381D01*
X24423895Y43827762D02*
X24423895Y43370619D01*
X24423895Y43599191D02*
X23623895Y43599191D01*
X23623895Y43599191D02*
X23738180Y43523000D01*
X23738180Y43523000D02*
X23814371Y43446810D01*
X23814371Y43446810D02*
X23852466Y43370619D01*
X23700085Y44132524D02*
X23661990Y44170620D01*
X23661990Y44170620D02*
X23623895Y44246810D01*
X23623895Y44246810D02*
X23623895Y44437286D01*
X23623895Y44437286D02*
X23661990Y44513477D01*
X23661990Y44513477D02*
X23700085Y44551572D01*
X23700085Y44551572D02*
X23776276Y44589667D01*
X23776276Y44589667D02*
X23852466Y44589667D01*
X23852466Y44589667D02*
X23966752Y44551572D01*
X23966752Y44551572D02*
X24423895Y44094429D01*
X24423895Y44094429D02*
X24423895Y44589667D01*
X23623895Y44818239D02*
X24423895Y45084906D01*
X24423895Y45084906D02*
X23623895Y45351572D01*
X13009714Y54782381D02*
X12676381Y55258572D01*
X12438286Y54782381D02*
X12438286Y55782381D01*
X12438286Y55782381D02*
X12819238Y55782381D01*
X12819238Y55782381D02*
X12914476Y55734762D01*
X12914476Y55734762D02*
X12962095Y55687143D01*
X12962095Y55687143D02*
X13009714Y55591905D01*
X13009714Y55591905D02*
X13009714Y55449048D01*
X13009714Y55449048D02*
X12962095Y55353810D01*
X12962095Y55353810D02*
X12914476Y55306191D01*
X12914476Y55306191D02*
X12819238Y55258572D01*
X12819238Y55258572D02*
X12438286Y55258572D01*
X13819238Y54830000D02*
X13724000Y54782381D01*
X13724000Y54782381D02*
X13533524Y54782381D01*
X13533524Y54782381D02*
X13438286Y54830000D01*
X13438286Y54830000D02*
X13390667Y54925239D01*
X13390667Y54925239D02*
X13390667Y55306191D01*
X13390667Y55306191D02*
X13438286Y55401429D01*
X13438286Y55401429D02*
X13533524Y55449048D01*
X13533524Y55449048D02*
X13724000Y55449048D01*
X13724000Y55449048D02*
X13819238Y55401429D01*
X13819238Y55401429D02*
X13866857Y55306191D01*
X13866857Y55306191D02*
X13866857Y55210953D01*
X13866857Y55210953D02*
X13390667Y55115715D01*
X14200191Y55449048D02*
X14438286Y54782381D01*
X14438286Y54782381D02*
X14676381Y55449048D01*
X15057334Y54877620D02*
X15104953Y54830000D01*
X15104953Y54830000D02*
X15057334Y54782381D01*
X15057334Y54782381D02*
X15009715Y54830000D01*
X15009715Y54830000D02*
X15057334Y54877620D01*
X15057334Y54877620D02*
X15057334Y54782381D01*
X15438286Y55782381D02*
X16057333Y55782381D01*
X16057333Y55782381D02*
X15724000Y55401429D01*
X15724000Y55401429D02*
X15866857Y55401429D01*
X15866857Y55401429D02*
X15962095Y55353810D01*
X15962095Y55353810D02*
X16009714Y55306191D01*
X16009714Y55306191D02*
X16057333Y55210953D01*
X16057333Y55210953D02*
X16057333Y54972858D01*
X16057333Y54972858D02*
X16009714Y54877620D01*
X16009714Y54877620D02*
X15962095Y54830000D01*
X15962095Y54830000D02*
X15866857Y54782381D01*
X15866857Y54782381D02*
X15581143Y54782381D01*
X15581143Y54782381D02*
X15485905Y54830000D01*
X15485905Y54830000D02*
X15438286Y54877620D01*
X518904Y26682639D02*
X518904Y27139782D01*
X518904Y26911210D02*
X1318904Y26911210D01*
X1318904Y26911210D02*
X1204619Y26987401D01*
X1204619Y26987401D02*
X1128428Y27063591D01*
X1128428Y27063591D02*
X1090333Y27139782D01*
X1242714Y26377877D02*
X1280809Y26339781D01*
X1280809Y26339781D02*
X1318904Y26263591D01*
X1318904Y26263591D02*
X1318904Y26073115D01*
X1318904Y26073115D02*
X1280809Y25996924D01*
X1280809Y25996924D02*
X1242714Y25958829D01*
X1242714Y25958829D02*
X1166523Y25920734D01*
X1166523Y25920734D02*
X1090333Y25920734D01*
X1090333Y25920734D02*
X976047Y25958829D01*
X976047Y25958829D02*
X518904Y26415972D01*
X518904Y26415972D02*
X518904Y25920734D01*
X1318904Y25692162D02*
X518904Y25425495D01*
X518904Y25425495D02*
X1318904Y25158829D01*
%TO.C,R1*%
X18734295Y28098772D02*
X18734295Y27641629D01*
X18734295Y27870201D02*
X17934295Y27870201D01*
X17934295Y27870201D02*
X18048580Y27794010D01*
X18048580Y27794010D02*
X18124771Y27717820D01*
X18124771Y27717820D02*
X18162866Y27641629D01*
X18734295Y28441630D02*
X17934295Y28441630D01*
X18734295Y28898773D02*
X18277152Y28555915D01*
X17934295Y28898773D02*
X18391438Y28441630D01*
%TO.C,R4*%
X17934295Y23564981D02*
X17934295Y24060219D01*
X17934295Y24060219D02*
X18239057Y23793553D01*
X18239057Y23793553D02*
X18239057Y23907838D01*
X18239057Y23907838D02*
X18277152Y23984029D01*
X18277152Y23984029D02*
X18315247Y24022124D01*
X18315247Y24022124D02*
X18391438Y24060219D01*
X18391438Y24060219D02*
X18581914Y24060219D01*
X18581914Y24060219D02*
X18658104Y24022124D01*
X18658104Y24022124D02*
X18696200Y23984029D01*
X18696200Y23984029D02*
X18734295Y23907838D01*
X18734295Y23907838D02*
X18734295Y23679267D01*
X18734295Y23679267D02*
X18696200Y23603076D01*
X18696200Y23603076D02*
X18658104Y23564981D01*
X17934295Y24555458D02*
X17934295Y24631648D01*
X17934295Y24631648D02*
X17972390Y24707839D01*
X17972390Y24707839D02*
X18010485Y24745934D01*
X18010485Y24745934D02*
X18086676Y24784029D01*
X18086676Y24784029D02*
X18239057Y24822124D01*
X18239057Y24822124D02*
X18429533Y24822124D01*
X18429533Y24822124D02*
X18581914Y24784029D01*
X18581914Y24784029D02*
X18658104Y24745934D01*
X18658104Y24745934D02*
X18696200Y24707839D01*
X18696200Y24707839D02*
X18734295Y24631648D01*
X18734295Y24631648D02*
X18734295Y24555458D01*
X18734295Y24555458D02*
X18696200Y24479267D01*
X18696200Y24479267D02*
X18658104Y24441172D01*
X18658104Y24441172D02*
X18581914Y24403077D01*
X18581914Y24403077D02*
X18429533Y24364981D01*
X18429533Y24364981D02*
X18239057Y24364981D01*
X18239057Y24364981D02*
X18086676Y24403077D01*
X18086676Y24403077D02*
X18010485Y24441172D01*
X18010485Y24441172D02*
X17972390Y24479267D01*
X17972390Y24479267D02*
X17934295Y24555458D01*
X18734295Y25164982D02*
X17934295Y25164982D01*
X18734295Y25622125D02*
X18277152Y25279267D01*
X17934295Y25622125D02*
X18391438Y25164982D01*
%TO.C,D2*%
X21375895Y39973325D02*
X20575895Y39973325D01*
X20575895Y39973325D02*
X20575895Y40163801D01*
X20575895Y40163801D02*
X20613990Y40278087D01*
X20613990Y40278087D02*
X20690180Y40354277D01*
X20690180Y40354277D02*
X20766371Y40392372D01*
X20766371Y40392372D02*
X20918752Y40430468D01*
X20918752Y40430468D02*
X21033038Y40430468D01*
X21033038Y40430468D02*
X21185419Y40392372D01*
X21185419Y40392372D02*
X21261609Y40354277D01*
X21261609Y40354277D02*
X21337800Y40278087D01*
X21337800Y40278087D02*
X21375895Y40163801D01*
X21375895Y40163801D02*
X21375895Y39973325D01*
X20652085Y40735229D02*
X20613990Y40773325D01*
X20613990Y40773325D02*
X20575895Y40849515D01*
X20575895Y40849515D02*
X20575895Y41039991D01*
X20575895Y41039991D02*
X20613990Y41116182D01*
X20613990Y41116182D02*
X20652085Y41154277D01*
X20652085Y41154277D02*
X20728276Y41192372D01*
X20728276Y41192372D02*
X20804466Y41192372D01*
X20804466Y41192372D02*
X20918752Y41154277D01*
X20918752Y41154277D02*
X21375895Y40697134D01*
X21375895Y40697134D02*
X21375895Y41192372D01*
X19597895Y38849514D02*
X19597895Y38392371D01*
X19597895Y38620943D02*
X18797895Y38620943D01*
X18797895Y38620943D02*
X18912180Y38544752D01*
X18912180Y38544752D02*
X18988371Y38468562D01*
X18988371Y38468562D02*
X19026466Y38392371D01*
X19597895Y39192372D02*
X18797895Y39192372D01*
X18797895Y39192372D02*
X19597895Y39649515D01*
X19597895Y39649515D02*
X18797895Y39649515D01*
X18797895Y40411419D02*
X18797895Y40030467D01*
X18797895Y40030467D02*
X19178847Y39992371D01*
X19178847Y39992371D02*
X19140752Y40030467D01*
X19140752Y40030467D02*
X19102657Y40106657D01*
X19102657Y40106657D02*
X19102657Y40297133D01*
X19102657Y40297133D02*
X19140752Y40373324D01*
X19140752Y40373324D02*
X19178847Y40411419D01*
X19178847Y40411419D02*
X19255038Y40449514D01*
X19255038Y40449514D02*
X19445514Y40449514D01*
X19445514Y40449514D02*
X19521704Y40411419D01*
X19521704Y40411419D02*
X19559800Y40373324D01*
X19559800Y40373324D02*
X19597895Y40297133D01*
X19597895Y40297133D02*
X19597895Y40106657D01*
X19597895Y40106657D02*
X19559800Y40030467D01*
X19559800Y40030467D02*
X19521704Y39992371D01*
X19064561Y41135229D02*
X19597895Y41135229D01*
X18759800Y40944753D02*
X19331228Y40754276D01*
X19331228Y40754276D02*
X19331228Y41249515D01*
X18797895Y41706658D02*
X18797895Y41782848D01*
X18797895Y41782848D02*
X18835990Y41859039D01*
X18835990Y41859039D02*
X18874085Y41897134D01*
X18874085Y41897134D02*
X18950276Y41935229D01*
X18950276Y41935229D02*
X19102657Y41973324D01*
X19102657Y41973324D02*
X19293133Y41973324D01*
X19293133Y41973324D02*
X19445514Y41935229D01*
X19445514Y41935229D02*
X19521704Y41897134D01*
X19521704Y41897134D02*
X19559800Y41859039D01*
X19559800Y41859039D02*
X19597895Y41782848D01*
X19597895Y41782848D02*
X19597895Y41706658D01*
X19597895Y41706658D02*
X19559800Y41630467D01*
X19559800Y41630467D02*
X19521704Y41592372D01*
X19521704Y41592372D02*
X19445514Y41554277D01*
X19445514Y41554277D02*
X19293133Y41516181D01*
X19293133Y41516181D02*
X19102657Y41516181D01*
X19102657Y41516181D02*
X18950276Y41554277D01*
X18950276Y41554277D02*
X18874085Y41592372D01*
X18874085Y41592372D02*
X18835990Y41630467D01*
X18835990Y41630467D02*
X18797895Y41706658D01*
X18797895Y42468563D02*
X18797895Y42544753D01*
X18797895Y42544753D02*
X18835990Y42620944D01*
X18835990Y42620944D02*
X18874085Y42659039D01*
X18874085Y42659039D02*
X18950276Y42697134D01*
X18950276Y42697134D02*
X19102657Y42735229D01*
X19102657Y42735229D02*
X19293133Y42735229D01*
X19293133Y42735229D02*
X19445514Y42697134D01*
X19445514Y42697134D02*
X19521704Y42659039D01*
X19521704Y42659039D02*
X19559800Y42620944D01*
X19559800Y42620944D02*
X19597895Y42544753D01*
X19597895Y42544753D02*
X19597895Y42468563D01*
X19597895Y42468563D02*
X19559800Y42392372D01*
X19559800Y42392372D02*
X19521704Y42354277D01*
X19521704Y42354277D02*
X19445514Y42316182D01*
X19445514Y42316182D02*
X19293133Y42278086D01*
X19293133Y42278086D02*
X19102657Y42278086D01*
X19102657Y42278086D02*
X18950276Y42316182D01*
X18950276Y42316182D02*
X18874085Y42354277D01*
X18874085Y42354277D02*
X18835990Y42392372D01*
X18835990Y42392372D02*
X18797895Y42468563D01*
%TO.C,R2*%
X14009895Y27717819D02*
X14009895Y27260676D01*
X14009895Y27489248D02*
X13209895Y27489248D01*
X13209895Y27489248D02*
X13324180Y27413057D01*
X13324180Y27413057D02*
X13400371Y27336867D01*
X13400371Y27336867D02*
X13438466Y27260676D01*
X13209895Y28213058D02*
X13209895Y28289248D01*
X13209895Y28289248D02*
X13247990Y28365439D01*
X13247990Y28365439D02*
X13286085Y28403534D01*
X13286085Y28403534D02*
X13362276Y28441629D01*
X13362276Y28441629D02*
X13514657Y28479724D01*
X13514657Y28479724D02*
X13705133Y28479724D01*
X13705133Y28479724D02*
X13857514Y28441629D01*
X13857514Y28441629D02*
X13933704Y28403534D01*
X13933704Y28403534D02*
X13971800Y28365439D01*
X13971800Y28365439D02*
X14009895Y28289248D01*
X14009895Y28289248D02*
X14009895Y28213058D01*
X14009895Y28213058D02*
X13971800Y28136867D01*
X13971800Y28136867D02*
X13933704Y28098772D01*
X13933704Y28098772D02*
X13857514Y28060677D01*
X13857514Y28060677D02*
X13705133Y28022581D01*
X13705133Y28022581D02*
X13514657Y28022581D01*
X13514657Y28022581D02*
X13362276Y28060677D01*
X13362276Y28060677D02*
X13286085Y28098772D01*
X13286085Y28098772D02*
X13247990Y28136867D01*
X13247990Y28136867D02*
X13209895Y28213058D01*
X14009895Y28822582D02*
X13209895Y28822582D01*
X14009895Y29279725D02*
X13552752Y28936867D01*
X13209895Y29279725D02*
X13667038Y28822582D01*
%TO.C,R5*%
X32315228Y51699839D02*
X32315228Y51166505D01*
X32124752Y52004600D02*
X31934275Y51433172D01*
X31934275Y51433172D02*
X32429514Y51433172D01*
X32734276Y51166505D02*
X32734276Y51966505D01*
X33191419Y51166505D02*
X32848561Y51623648D01*
X33191419Y51966505D02*
X32734276Y51509362D01*
X33458085Y51966505D02*
X33991419Y51966505D01*
X33991419Y51966505D02*
X33648561Y51166505D01*
%TO.C,D3*%
X35960124Y51014105D02*
X35960124Y51814105D01*
X35960124Y51814105D02*
X36150600Y51814105D01*
X36150600Y51814105D02*
X36264886Y51776010D01*
X36264886Y51776010D02*
X36341076Y51699820D01*
X36341076Y51699820D02*
X36379171Y51623629D01*
X36379171Y51623629D02*
X36417267Y51471248D01*
X36417267Y51471248D02*
X36417267Y51356962D01*
X36417267Y51356962D02*
X36379171Y51204581D01*
X36379171Y51204581D02*
X36341076Y51128391D01*
X36341076Y51128391D02*
X36264886Y51052200D01*
X36264886Y51052200D02*
X36150600Y51014105D01*
X36150600Y51014105D02*
X35960124Y51014105D01*
X36683933Y51814105D02*
X37179171Y51814105D01*
X37179171Y51814105D02*
X36912505Y51509343D01*
X36912505Y51509343D02*
X37026790Y51509343D01*
X37026790Y51509343D02*
X37102981Y51471248D01*
X37102981Y51471248D02*
X37141076Y51433153D01*
X37141076Y51433153D02*
X37179171Y51356962D01*
X37179171Y51356962D02*
X37179171Y51166486D01*
X37179171Y51166486D02*
X37141076Y51090296D01*
X37141076Y51090296D02*
X37102981Y51052200D01*
X37102981Y51052200D02*
X37026790Y51014105D01*
X37026790Y51014105D02*
X36798219Y51014105D01*
X36798219Y51014105D02*
X36722028Y51052200D01*
X36722028Y51052200D02*
X36683933Y51090296D01*
X38779514Y52588905D02*
X38398562Y52588905D01*
X38398562Y52588905D02*
X38398562Y53388905D01*
X39046181Y53007953D02*
X39312847Y53007953D01*
X39427133Y52588905D02*
X39046181Y52588905D01*
X39046181Y52588905D02*
X39046181Y53388905D01*
X39046181Y53388905D02*
X39427133Y53388905D01*
X39769991Y52588905D02*
X39769991Y53388905D01*
X39769991Y53388905D02*
X39960467Y53388905D01*
X39960467Y53388905D02*
X40074753Y53350810D01*
X40074753Y53350810D02*
X40150943Y53274620D01*
X40150943Y53274620D02*
X40189038Y53198429D01*
X40189038Y53198429D02*
X40227134Y53046048D01*
X40227134Y53046048D02*
X40227134Y52931762D01*
X40227134Y52931762D02*
X40189038Y52779381D01*
X40189038Y52779381D02*
X40150943Y52703191D01*
X40150943Y52703191D02*
X40074753Y52627000D01*
X40074753Y52627000D02*
X39960467Y52588905D01*
X39960467Y52588905D02*
X39769991Y52588905D01*
%TO.C,Q1*%
X9209285Y26924010D02*
X9171190Y26847820D01*
X9171190Y26847820D02*
X9095000Y26771629D01*
X9095000Y26771629D02*
X8980714Y26657343D01*
X8980714Y26657343D02*
X8942619Y26581153D01*
X8942619Y26581153D02*
X8942619Y26504962D01*
X9133095Y26543058D02*
X9095000Y26466867D01*
X9095000Y26466867D02*
X9018809Y26390677D01*
X9018809Y26390677D02*
X8866428Y26352581D01*
X8866428Y26352581D02*
X8599761Y26352581D01*
X8599761Y26352581D02*
X8447380Y26390677D01*
X8447380Y26390677D02*
X8371190Y26466867D01*
X8371190Y26466867D02*
X8333095Y26543058D01*
X8333095Y26543058D02*
X8333095Y26695439D01*
X8333095Y26695439D02*
X8371190Y26771629D01*
X8371190Y26771629D02*
X8447380Y26847820D01*
X8447380Y26847820D02*
X8599761Y26885915D01*
X8599761Y26885915D02*
X8866428Y26885915D01*
X8866428Y26885915D02*
X9018809Y26847820D01*
X9018809Y26847820D02*
X9095000Y26771629D01*
X9095000Y26771629D02*
X9133095Y26695439D01*
X9133095Y26695439D02*
X9133095Y26543058D01*
X9133095Y27647819D02*
X9133095Y27190676D01*
X9133095Y27419248D02*
X8333095Y27419248D01*
X8333095Y27419248D02*
X8447380Y27343057D01*
X8447380Y27343057D02*
X8523571Y27266867D01*
X8523571Y27266867D02*
X8561666Y27190676D01*
%TO.C,D1*%
X6546924Y30643305D02*
X6546924Y31443305D01*
X6546924Y31443305D02*
X6737400Y31443305D01*
X6737400Y31443305D02*
X6851686Y31405210D01*
X6851686Y31405210D02*
X6927876Y31329020D01*
X6927876Y31329020D02*
X6965971Y31252829D01*
X6965971Y31252829D02*
X7004067Y31100448D01*
X7004067Y31100448D02*
X7004067Y30986162D01*
X7004067Y30986162D02*
X6965971Y30833781D01*
X6965971Y30833781D02*
X6927876Y30757591D01*
X6927876Y30757591D02*
X6851686Y30681400D01*
X6851686Y30681400D02*
X6737400Y30643305D01*
X6737400Y30643305D02*
X6546924Y30643305D01*
X7765971Y30643305D02*
X7308828Y30643305D01*
X7537400Y30643305D02*
X7537400Y31443305D01*
X7537400Y31443305D02*
X7461209Y31329020D01*
X7461209Y31329020D02*
X7385019Y31252829D01*
X7385019Y31252829D02*
X7308828Y31214734D01*
X8991799Y32319705D02*
X8610847Y32319705D01*
X8610847Y32319705D02*
X8610847Y33119705D01*
X9639418Y32319705D02*
X9258466Y32319705D01*
X9258466Y32319705D02*
X9258466Y33119705D01*
X10248942Y32853039D02*
X10248942Y32319705D01*
X10058466Y33157800D02*
X9867989Y32586372D01*
X9867989Y32586372D02*
X10363228Y32586372D01*
X11087037Y32319705D02*
X10629894Y32319705D01*
X10858466Y32319705D02*
X10858466Y33119705D01*
X10858466Y33119705D02*
X10782275Y33005420D01*
X10782275Y33005420D02*
X10706085Y32929229D01*
X10706085Y32929229D02*
X10629894Y32891134D01*
X11772752Y32853039D02*
X11772752Y32319705D01*
X11582276Y33157800D02*
X11391799Y32586372D01*
X11391799Y32586372D02*
X11887038Y32586372D01*
X12306085Y32776848D02*
X12229895Y32814943D01*
X12229895Y32814943D02*
X12191800Y32853039D01*
X12191800Y32853039D02*
X12153704Y32929229D01*
X12153704Y32929229D02*
X12153704Y32967324D01*
X12153704Y32967324D02*
X12191800Y33043515D01*
X12191800Y33043515D02*
X12229895Y33081610D01*
X12229895Y33081610D02*
X12306085Y33119705D01*
X12306085Y33119705D02*
X12458466Y33119705D01*
X12458466Y33119705D02*
X12534657Y33081610D01*
X12534657Y33081610D02*
X12572752Y33043515D01*
X12572752Y33043515D02*
X12610847Y32967324D01*
X12610847Y32967324D02*
X12610847Y32929229D01*
X12610847Y32929229D02*
X12572752Y32853039D01*
X12572752Y32853039D02*
X12534657Y32814943D01*
X12534657Y32814943D02*
X12458466Y32776848D01*
X12458466Y32776848D02*
X12306085Y32776848D01*
X12306085Y32776848D02*
X12229895Y32738753D01*
X12229895Y32738753D02*
X12191800Y32700658D01*
X12191800Y32700658D02*
X12153704Y32624467D01*
X12153704Y32624467D02*
X12153704Y32472086D01*
X12153704Y32472086D02*
X12191800Y32395896D01*
X12191800Y32395896D02*
X12229895Y32357800D01*
X12229895Y32357800D02*
X12306085Y32319705D01*
X12306085Y32319705D02*
X12458466Y32319705D01*
X12458466Y32319705D02*
X12534657Y32357800D01*
X12534657Y32357800D02*
X12572752Y32395896D01*
X12572752Y32395896D02*
X12610847Y32472086D01*
X12610847Y32472086D02*
X12610847Y32624467D01*
X12610847Y32624467D02*
X12572752Y32700658D01*
X12572752Y32700658D02*
X12534657Y32738753D01*
X12534657Y32738753D02*
X12458466Y32776848D01*
%TO.C,R3*%
X14009895Y23679267D02*
X14009895Y23222124D01*
X14009895Y23450696D02*
X13209895Y23450696D01*
X13209895Y23450696D02*
X13324180Y23374505D01*
X13324180Y23374505D02*
X13400371Y23298315D01*
X13400371Y23298315D02*
X13438466Y23222124D01*
X13209895Y24174506D02*
X13209895Y24250696D01*
X13209895Y24250696D02*
X13247990Y24326887D01*
X13247990Y24326887D02*
X13286085Y24364982D01*
X13286085Y24364982D02*
X13362276Y24403077D01*
X13362276Y24403077D02*
X13514657Y24441172D01*
X13514657Y24441172D02*
X13705133Y24441172D01*
X13705133Y24441172D02*
X13857514Y24403077D01*
X13857514Y24403077D02*
X13933704Y24364982D01*
X13933704Y24364982D02*
X13971800Y24326887D01*
X13971800Y24326887D02*
X14009895Y24250696D01*
X14009895Y24250696D02*
X14009895Y24174506D01*
X14009895Y24174506D02*
X13971800Y24098315D01*
X13971800Y24098315D02*
X13933704Y24060220D01*
X13933704Y24060220D02*
X13857514Y24022125D01*
X13857514Y24022125D02*
X13705133Y23984029D01*
X13705133Y23984029D02*
X13514657Y23984029D01*
X13514657Y23984029D02*
X13362276Y24022125D01*
X13362276Y24022125D02*
X13286085Y24060220D01*
X13286085Y24060220D02*
X13247990Y24098315D01*
X13247990Y24098315D02*
X13209895Y24174506D01*
X13209895Y24936411D02*
X13209895Y25012601D01*
X13209895Y25012601D02*
X13247990Y25088792D01*
X13247990Y25088792D02*
X13286085Y25126887D01*
X13286085Y25126887D02*
X13362276Y25164982D01*
X13362276Y25164982D02*
X13514657Y25203077D01*
X13514657Y25203077D02*
X13705133Y25203077D01*
X13705133Y25203077D02*
X13857514Y25164982D01*
X13857514Y25164982D02*
X13933704Y25126887D01*
X13933704Y25126887D02*
X13971800Y25088792D01*
X13971800Y25088792D02*
X14009895Y25012601D01*
X14009895Y25012601D02*
X14009895Y24936411D01*
X14009895Y24936411D02*
X13971800Y24860220D01*
X13971800Y24860220D02*
X13933704Y24822125D01*
X13933704Y24822125D02*
X13857514Y24784030D01*
X13857514Y24784030D02*
X13705133Y24745934D01*
X13705133Y24745934D02*
X13514657Y24745934D01*
X13514657Y24745934D02*
X13362276Y24784030D01*
X13362276Y24784030D02*
X13286085Y24822125D01*
X13286085Y24822125D02*
X13247990Y24860220D01*
X13247990Y24860220D02*
X13209895Y24936411D01*
X14009895Y25545935D02*
X13209895Y25545935D01*
X14009895Y26003078D02*
X13552752Y25660220D01*
X13209895Y26003078D02*
X13667038Y25545935D01*
D11*
%TO.C,DCDC1*%
X41656000Y46228000D02*
X24656000Y46228000D01*
X24656000Y46228000D02*
X24656000Y24228000D01*
X24656000Y24228000D02*
X41656000Y24228000D01*
X41656000Y24228000D02*
X41656000Y46228000D01*
%TO.C,R1*%
X16308400Y28043136D02*
X16308400Y28497264D01*
X17778400Y28043136D02*
X17778400Y28497264D01*
%TO.C,DCDC2*%
X43647000Y50633800D02*
X22647000Y50633800D01*
X22647000Y50633800D02*
X22647000Y7633800D01*
X22647000Y7633800D02*
X43647000Y7633800D01*
X43647000Y7633800D02*
X43647000Y50633800D01*
%TO.C,JP1*%
X8957000Y19999000D02*
X10287000Y19999000D01*
X8957000Y18669000D02*
X8957000Y19999000D01*
X8957000Y17399000D02*
X8957000Y17339000D01*
X8957000Y17399000D02*
X11557000Y17399000D01*
X8957000Y17339000D02*
X14157000Y17339000D01*
X11557000Y19999000D02*
X14157000Y19999000D01*
X11557000Y17399000D02*
X11557000Y19999000D01*
X14157000Y19999000D02*
X14157000Y17339000D01*
%TO.C,R4*%
X17778400Y24850464D02*
X17778400Y24396336D01*
X16308400Y24850464D02*
X16308400Y24396336D01*
%TO.C,D2*%
X19329400Y47055000D02*
X19329400Y46145000D01*
X22049400Y46145000D02*
X16609400Y46145000D01*
X16609400Y46145000D02*
X16609400Y36405000D01*
X22049400Y44720000D02*
X16609400Y44720000D01*
X22049400Y44600000D02*
X16609400Y44600000D01*
X22049400Y44480000D02*
X16609400Y44480000D01*
X22049400Y36405000D02*
X22049400Y46145000D01*
X16609400Y36405000D02*
X22049400Y36405000D01*
X19329400Y35495000D02*
X19329400Y36405000D01*
%TO.C,R2*%
X14174800Y28043136D02*
X14174800Y28497264D01*
X15644800Y28043136D02*
X15644800Y28497264D01*
%TO.C,J3*%
X20557800Y14799000D02*
X19227800Y14799000D01*
X20557800Y16129000D02*
X20557800Y14799000D01*
X20557800Y17399000D02*
X20557800Y19999000D01*
X20557800Y17399000D02*
X17897800Y17399000D01*
X20557800Y19999000D02*
X17897800Y19999000D01*
X17897800Y17399000D02*
X17897800Y19999000D01*
%TO.C,K1*%
X12141000Y36015800D02*
X9941000Y36015800D01*
X12141000Y38115800D02*
X12141000Y36015800D01*
X11941000Y36215800D02*
X4141000Y36215800D01*
X11941000Y48915800D02*
X11941000Y36215800D01*
X9779000Y41198800D02*
X9779000Y41833800D01*
X9779000Y41833800D02*
X9119000Y41833800D01*
X9119000Y41325800D02*
X9119000Y42341800D01*
X9119000Y42341800D02*
X7214000Y42341800D01*
X7595000Y41325800D02*
X8230000Y42341800D01*
X7214000Y41325800D02*
X9119000Y41325800D01*
X7214000Y41325800D02*
X7214000Y42341800D01*
X6579000Y41198800D02*
X6579000Y41833800D01*
X6579000Y41833800D02*
X7214000Y41833800D01*
X4141000Y36215800D02*
X4141000Y48915800D01*
X4141000Y48915800D02*
X11941000Y48915800D01*
%TO.C,J7*%
X14422000Y6941000D02*
X14422000Y5691000D01*
X14712000Y6651000D02*
X14712000Y681000D01*
X14712000Y681000D02*
X22332000Y681000D01*
X14722000Y6641000D02*
X14722000Y5891000D01*
X14722000Y5891000D02*
X16522000Y5891000D01*
X14722000Y4391000D02*
X15472000Y4391000D01*
X15472000Y4391000D02*
X15472000Y1441000D01*
X15472000Y1441000D02*
X18522000Y1441000D01*
X15672000Y6941000D02*
X14422000Y6941000D01*
X16522000Y6641000D02*
X14722000Y6641000D01*
X16522000Y5891000D02*
X16522000Y6641000D01*
X18022000Y6641000D02*
X18022000Y5891000D01*
X18022000Y5891000D02*
X19022000Y5891000D01*
X19022000Y6641000D02*
X18022000Y6641000D01*
X19022000Y5891000D02*
X19022000Y6641000D01*
X20522000Y6641000D02*
X20522000Y5891000D01*
X20522000Y5891000D02*
X22322000Y5891000D01*
X21572000Y4391000D02*
X21572000Y1441000D01*
X21572000Y1441000D02*
X18522000Y1441000D01*
X22322000Y6641000D02*
X20522000Y6641000D01*
X22322000Y5891000D02*
X22322000Y6641000D01*
X22322000Y4391000D02*
X21572000Y4391000D01*
X22332000Y6651000D02*
X14712000Y6651000D01*
X22332000Y681000D02*
X22332000Y6651000D01*
%TO.C,R5*%
X32716736Y53694000D02*
X33170864Y53694000D01*
X32716736Y52224000D02*
X33170864Y52224000D01*
%TO.C,D3*%
X34865600Y53919000D02*
X34865600Y51999000D01*
X34865600Y51999000D02*
X37550600Y51999000D01*
X37550600Y53919000D02*
X34865600Y53919000D01*
%TO.C,J9*%
X32202000Y6941000D02*
X32202000Y5691000D01*
X32492000Y6651000D02*
X32492000Y681000D01*
X32492000Y681000D02*
X40112000Y681000D01*
X32502000Y6641000D02*
X32502000Y5891000D01*
X32502000Y5891000D02*
X34302000Y5891000D01*
X32502000Y4391000D02*
X33252000Y4391000D01*
X33252000Y4391000D02*
X33252000Y1441000D01*
X33252000Y1441000D02*
X36302000Y1441000D01*
X33452000Y6941000D02*
X32202000Y6941000D01*
X34302000Y6641000D02*
X32502000Y6641000D01*
X34302000Y5891000D02*
X34302000Y6641000D01*
X35802000Y6641000D02*
X35802000Y5891000D01*
X35802000Y5891000D02*
X36802000Y5891000D01*
X36802000Y6641000D02*
X35802000Y6641000D01*
X36802000Y5891000D02*
X36802000Y6641000D01*
X38302000Y6641000D02*
X38302000Y5891000D01*
X38302000Y5891000D02*
X40102000Y5891000D01*
X39352000Y4391000D02*
X39352000Y1441000D01*
X39352000Y1441000D02*
X36302000Y1441000D01*
X40102000Y6641000D02*
X38302000Y6641000D01*
X40102000Y5891000D02*
X40102000Y6641000D01*
X40102000Y4391000D02*
X39352000Y4391000D01*
X40112000Y6651000D02*
X32492000Y6651000D01*
X40112000Y681000D02*
X40112000Y6651000D01*
%TO.C,J8*%
X23332000Y6941000D02*
X23332000Y5691000D01*
X23622000Y6651000D02*
X23622000Y681000D01*
X23622000Y681000D02*
X31242000Y681000D01*
X23632000Y6641000D02*
X23632000Y5891000D01*
X23632000Y5891000D02*
X25432000Y5891000D01*
X23632000Y4391000D02*
X24382000Y4391000D01*
X24382000Y4391000D02*
X24382000Y1441000D01*
X24382000Y1441000D02*
X27432000Y1441000D01*
X24582000Y6941000D02*
X23332000Y6941000D01*
X25432000Y6641000D02*
X23632000Y6641000D01*
X25432000Y5891000D02*
X25432000Y6641000D01*
X26932000Y6641000D02*
X26932000Y5891000D01*
X26932000Y5891000D02*
X27932000Y5891000D01*
X27932000Y6641000D02*
X26932000Y6641000D01*
X27932000Y5891000D02*
X27932000Y6641000D01*
X29432000Y6641000D02*
X29432000Y5891000D01*
X29432000Y5891000D02*
X31232000Y5891000D01*
X30482000Y4391000D02*
X30482000Y1441000D01*
X30482000Y1441000D02*
X27432000Y1441000D01*
X31232000Y6641000D02*
X29432000Y6641000D01*
X31232000Y5891000D02*
X31232000Y6641000D01*
X31232000Y4391000D02*
X30482000Y4391000D01*
X31242000Y6651000D02*
X23622000Y6651000D01*
X31242000Y681000D02*
X31242000Y6651000D01*
%TO.C,Q1*%
X12482000Y27051000D02*
X12482000Y28726000D01*
X12482000Y27051000D02*
X12482000Y26401000D01*
X9362000Y27051000D02*
X9362000Y27701000D01*
X9362000Y27051000D02*
X9362000Y26401000D01*
%TO.C,JP2*%
X8957000Y17459000D02*
X10287000Y17459000D01*
X8957000Y16129000D02*
X8957000Y17459000D01*
X8957000Y14859000D02*
X8957000Y14799000D01*
X8957000Y14859000D02*
X11557000Y14859000D01*
X8957000Y14799000D02*
X14157000Y14799000D01*
X11557000Y17459000D02*
X14157000Y17459000D01*
X11557000Y14859000D02*
X11557000Y17459000D01*
X14157000Y17459000D02*
X14157000Y14799000D01*
%TO.C,K2*%
X15851800Y53089000D02*
X9251800Y53089000D01*
X15851800Y53089000D02*
X15851800Y33289000D01*
X6851800Y53089000D02*
X251800Y53089000D01*
X8001800Y49039000D02*
X8001800Y49839000D01*
X8001800Y49039000D02*
X4401800Y49039000D01*
X2001800Y48139000D02*
X2001800Y45639000D01*
X9801800Y47639000D02*
X9801800Y43639000D01*
X6201800Y47639000D02*
X9801800Y47639000D01*
X14001800Y45639000D02*
X14001800Y48139000D01*
X14001800Y45639000D02*
X9801800Y45639000D01*
X6201800Y45639000D02*
X2001800Y45639000D01*
X9801800Y43639000D02*
X6201800Y43639000D01*
X6201800Y43639000D02*
X9801800Y47639000D01*
X6201800Y43639000D02*
X6201800Y47639000D01*
X8001800Y42239000D02*
X4401800Y42239000D01*
X8001800Y42239000D02*
X8001800Y40739000D01*
X4401800Y42239000D02*
X4401800Y49039000D01*
X8001800Y40739000D02*
X10501800Y36139000D01*
X12251800Y37539000D02*
X9751800Y37539000D01*
X3851800Y37539000D02*
X6301800Y37539000D01*
X15851800Y33289000D02*
X251800Y33289000D01*
X251800Y33289000D02*
X251800Y53089000D01*
%TO.C,D1*%
X13141800Y30013400D02*
X13141800Y32013400D01*
X13141800Y32013400D02*
X8841800Y32013400D01*
X8841800Y30013400D02*
X13141800Y30013400D01*
%TO.C,J2*%
X8211000Y29037400D02*
X6961000Y29037400D01*
X7921000Y28747400D02*
X1951000Y28747400D01*
X1951000Y28747400D02*
X1951000Y13627400D01*
X7911000Y28737400D02*
X7161000Y28737400D01*
X7161000Y28737400D02*
X7161000Y26937400D01*
X5661000Y28737400D02*
X5661000Y27987400D01*
X5661000Y27987400D02*
X2711000Y27987400D01*
X2711000Y27987400D02*
X2711000Y21187400D01*
X8211000Y27787400D02*
X8211000Y29037400D01*
X7911000Y26937400D02*
X7911000Y28737400D01*
X7161000Y26937400D02*
X7911000Y26937400D01*
X7911000Y25437400D02*
X7161000Y25437400D01*
X7161000Y25437400D02*
X7161000Y16937400D01*
X7911000Y16937400D02*
X7911000Y25437400D01*
X7161000Y16937400D02*
X7911000Y16937400D01*
X7911000Y15437400D02*
X7161000Y15437400D01*
X7161000Y15437400D02*
X7161000Y13637400D01*
X5661000Y14387400D02*
X2711000Y14387400D01*
X2711000Y14387400D02*
X2711000Y21187400D01*
X7911000Y13637400D02*
X7911000Y15437400D01*
X7161000Y13637400D02*
X7911000Y13637400D01*
X5661000Y13637400D02*
X5661000Y14387400D01*
X7921000Y13627400D02*
X7921000Y28747400D01*
X1951000Y13627400D02*
X7921000Y13627400D01*
%TO.C,R3*%
X15644800Y24850464D02*
X15644800Y24396336D01*
X14174800Y24850464D02*
X14174800Y24396336D01*
%TD*%
%LPC*%
D12*
%TO.C,DCDC1*%
X37316000Y26028000D03*
X39856000Y26028000D03*
X26456000Y26028000D03*
X28996000Y26028000D03*
X37316000Y44428000D03*
X39856000Y44428000D03*
X26456000Y44428000D03*
X28996000Y44428000D03*
%TD*%
D13*
%TO.C,R1*%
X17043400Y27357700D03*
X17043400Y29182700D03*
%TD*%
D14*
%TO.C,DCDC2*%
X42074728Y49064717D03*
X24221890Y49055988D03*
X42069444Y9216627D03*
X24231217Y9207065D03*
%TD*%
D15*
%TO.C,JP1*%
X10287000Y18669000D03*
D16*
X12827000Y18669000D03*
%TD*%
D17*
%TO.C,R4*%
X17043400Y25535900D03*
X17043400Y23710900D03*
%TD*%
D18*
%TO.C,J5*%
X5207000Y8559800D03*
D19*
X11207000Y8559800D03*
%TD*%
D20*
%TO.C,D2*%
X19329400Y48895000D03*
D21*
X19329400Y33655000D03*
%TD*%
D13*
%TO.C,R2*%
X14909800Y27357700D03*
X14909800Y29182700D03*
%TD*%
D15*
%TO.C,J3*%
X19227800Y16129000D03*
D16*
X19227800Y18669000D03*
%TD*%
D22*
%TO.C,K1*%
X10541000Y37515800D03*
D23*
X10541000Y40055800D03*
X10541000Y47675800D03*
X5461000Y47675800D03*
X5461000Y40055800D03*
X5461000Y37515800D03*
%TD*%
D24*
%TO.C,J7*%
X17272000Y4191000D03*
D25*
X19772000Y4191000D03*
%TD*%
D26*
%TO.C,R5*%
X32031300Y52959000D03*
X33856300Y52959000D03*
%TD*%
D27*
%TO.C,D3*%
X35613100Y52959000D03*
X37488100Y52959000D03*
%TD*%
D28*
%TO.C,J1*%
X19595000Y55245000D03*
D29*
X27395000Y55245000D03*
%TD*%
D24*
%TO.C,J9*%
X35052000Y4191000D03*
D25*
X37552000Y4191000D03*
%TD*%
D24*
%TO.C,J8*%
X26182000Y4191000D03*
D25*
X28682000Y4191000D03*
%TD*%
D30*
%TO.C,Q1*%
X11872000Y27988500D03*
X9972000Y27988500D03*
X10922000Y26113500D03*
%TD*%
D15*
%TO.C,JP2*%
X10287000Y16129000D03*
D16*
X12827000Y16129000D03*
%TD*%
D31*
%TO.C,K2*%
X8051800Y51689000D03*
D32*
X2001800Y49739000D03*
D31*
X2001800Y37539000D03*
X14051800Y37489000D03*
D32*
X14001800Y49739000D03*
%TD*%
D33*
%TO.C,D1*%
X12341800Y31013400D03*
X8841800Y31013400D03*
%TD*%
D34*
%TO.C,J2*%
X5461000Y26187400D03*
D35*
X5461000Y23687400D03*
X5461000Y21187400D03*
X5461000Y18687400D03*
X5461000Y16187400D03*
%TD*%
D17*
%TO.C,R3*%
X14909800Y25535900D03*
X14909800Y23710900D03*
%TD*%
M02*
