%TF.GenerationSoftware,KiCad,Pcbnew,7.0.1*%
%TF.CreationDate,2023-03-25T18:58:35+09:00*%
%TF.ProjectId,rasp_power_module,72617370-5f70-46f7-9765-725f6d6f6475,3*%
%TF.SameCoordinates,PX74269e8PY6f4e628*%
%TF.FileFunction,Profile,NP*%
%FSLAX46Y46*%
G04 Gerber Fmt 4.6, Leading zero omitted, Abs format (unit mm)*
G04 Created by KiCad (PCBNEW 7.0.1) date 2023-03-25 18:58:35*
%MOMM*%
%LPD*%
G01*
G04 APERTURE LIST*
%TA.AperFunction,Profile*%
%ADD10C,0.100000*%
%TD*%
G04 APERTURE END LIST*
D10*
X45085000Y57404000D02*
G75*
G03*
X45085000Y57404000I-1270000J0D01*
G01*
X45085000Y1905000D02*
G75*
G03*
X45085000Y1905000I-1270000J0D01*
G01*
X40106600Y47167800D02*
X43205400Y47167800D01*
X43205400Y45672607D01*
X36068000Y45672607D01*
X36068000Y43181840D01*
X43205400Y43181840D01*
X43154600Y27305000D01*
X36068000Y27305000D01*
X36068000Y24815800D01*
X43154600Y24815800D01*
X43154600Y11099800D01*
X40106600Y11099800D01*
X40106600Y7797800D01*
X26187400Y7797800D01*
X26187400Y11099800D01*
X23139400Y11099800D01*
X23139400Y24790654D01*
X30251400Y24790654D01*
X30251400Y27305000D01*
X23088600Y27305000D01*
X23088600Y43182740D01*
X30251400Y43182740D01*
X30251400Y45672607D01*
X23088600Y45672607D01*
X23088600Y47167800D01*
X26187400Y47167800D01*
X26187400Y50317400D01*
X40106600Y50317400D01*
X40106600Y47167800D01*
X3175000Y57404000D02*
G75*
G03*
X3175000Y57404000I-1270000J0D01*
G01*
X3175000Y1905000D02*
G75*
G03*
X3175000Y1905000I-1270000J0D01*
G01*
X0Y59309000D02*
X45720000Y59309000D01*
X45720000Y0D01*
X0Y0D01*
X0Y59309000D01*
M02*
