%TF.GenerationSoftware,KiCad,Pcbnew,7.0.9*%
%TF.CreationDate,2024-02-24T17:52:34+09:00*%
%TF.ProjectId,rasp_power_module,72617370-5f70-46f7-9765-725f6d6f6475,5*%
%TF.SameCoordinates,PX4a5d990PY544c140*%
%TF.FileFunction,Copper,L2,Bot*%
%TF.FilePolarity,Positive*%
%FSLAX46Y46*%
G04 Gerber Fmt 4.6, Leading zero omitted, Abs format (unit mm)*
G04 Created by KiCad (PCBNEW 7.0.9) date 2024-02-24 17:52:34*
%MOMM*%
%LPD*%
G01*
G04 APERTURE LIST*
G04 Aperture macros list*
%AMRoundRect*
0 Rectangle with rounded corners*
0 $1 Rounding radius*
0 $2 $3 $4 $5 $6 $7 $8 $9 X,Y pos of 4 corners*
0 Add a 4 corners polygon primitive as box body*
4,1,4,$2,$3,$4,$5,$6,$7,$8,$9,$2,$3,0*
0 Add four circle primitives for the rounded corners*
1,1,$1+$1,$2,$3*
1,1,$1+$1,$4,$5*
1,1,$1+$1,$6,$7*
1,1,$1+$1,$8,$9*
0 Add four rect primitives between the rounded corners*
20,1,$1+$1,$2,$3,$4,$5,0*
20,1,$1+$1,$4,$5,$6,$7,0*
20,1,$1+$1,$6,$7,$8,$9,0*
20,1,$1+$1,$8,$9,$2,$3,0*%
G04 Aperture macros list end*
%TA.AperFunction,ComponentPad*%
%ADD10C,1.524000*%
%TD*%
%TA.AperFunction,ComponentPad*%
%ADD11R,3.000000X3.000000*%
%TD*%
%TA.AperFunction,ComponentPad*%
%ADD12R,1.700000X1.700000*%
%TD*%
%TA.AperFunction,ComponentPad*%
%ADD13O,1.700000X1.700000*%
%TD*%
%TA.AperFunction,ComponentPad*%
%ADD14RoundRect,0.249999X-1.300001X-1.300001X1.300001X-1.300001X1.300001X1.300001X-1.300001X1.300001X0*%
%TD*%
%TA.AperFunction,ComponentPad*%
%ADD15C,3.100000*%
%TD*%
%TA.AperFunction,ComponentPad*%
%ADD16R,3.200000X3.200000*%
%TD*%
%TA.AperFunction,ComponentPad*%
%ADD17O,3.200000X3.200000*%
%TD*%
%TA.AperFunction,ComponentPad*%
%ADD18R,2.000000X2.000000*%
%TD*%
%TA.AperFunction,ComponentPad*%
%ADD19C,2.000000*%
%TD*%
%TA.AperFunction,ComponentPad*%
%ADD20RoundRect,0.250000X-0.600000X-0.750000X0.600000X-0.750000X0.600000X0.750000X-0.600000X0.750000X0*%
%TD*%
%TA.AperFunction,ComponentPad*%
%ADD21O,1.700000X2.000000*%
%TD*%
%TA.AperFunction,ComponentPad*%
%ADD22RoundRect,0.250002X-1.699998X-1.699998X1.699998X-1.699998X1.699998X1.699998X-1.699998X1.699998X0*%
%TD*%
%TA.AperFunction,ComponentPad*%
%ADD23C,3.900000*%
%TD*%
%TA.AperFunction,ComponentPad*%
%ADD24C,3.000000*%
%TD*%
%TA.AperFunction,ComponentPad*%
%ADD25C,2.500000*%
%TD*%
%TA.AperFunction,ComponentPad*%
%ADD26RoundRect,0.250000X-0.725000X0.600000X-0.725000X-0.600000X0.725000X-0.600000X0.725000X0.600000X0*%
%TD*%
%TA.AperFunction,ComponentPad*%
%ADD27O,1.950000X1.700000*%
%TD*%
%TA.AperFunction,Conductor*%
%ADD28C,0.250000*%
%TD*%
%TA.AperFunction,Conductor*%
%ADD29C,2.000000*%
%TD*%
%TA.AperFunction,Conductor*%
%ADD30C,0.500000*%
%TD*%
%TA.AperFunction,Conductor*%
%ADD31C,1.200000*%
%TD*%
%TA.AperFunction,Conductor*%
%ADD32C,1.000000*%
%TD*%
G04 APERTURE END LIST*
D10*
%TO.P,DCDC3,1,InVCC*%
%TO.N,12V_ON*%
X40254000Y46163000D03*
X37714000Y46163000D03*
%TO.P,DCDC3,2,InGND*%
%TO.N,InGND*%
X28794000Y46218000D03*
X26254000Y46218000D03*
%TO.P,DCDC3,3,OutVCC*%
%TO.N,5V_ON*%
X40269000Y17163000D03*
X37729000Y17163000D03*
%TO.P,DCDC3,4,OutGND*%
%TO.N,InGND*%
X28794000Y17163000D03*
X26254000Y17163000D03*
%TD*%
%TO.P,DCDC1,1,InVCC*%
%TO.N,12V_ON*%
X28996000Y42523000D03*
X26456000Y42523000D03*
%TO.P,DCDC1,2,InGND*%
%TO.N,InGND*%
X39856000Y42523000D03*
X37316000Y42523000D03*
%TO.P,DCDC1,3,OutVCC*%
%TO.N,5V_ON*%
X28996000Y24123000D03*
X26456000Y24123000D03*
%TO.P,DCDC1,4,OutGND*%
%TO.N,InGND*%
X39856000Y24123000D03*
X37316000Y24123000D03*
%TD*%
D11*
%TO.P,DCDC2,1,InVCC*%
%TO.N,12V_ON*%
X42074728Y49064717D03*
%TO.P,DCDC2,2,InGND*%
%TO.N,InGND*%
X24221890Y49055988D03*
%TO.P,DCDC2,3,OutVCC*%
%TO.N,5V_ON*%
X42069444Y9216627D03*
%TO.P,DCDC2,4,OutGND*%
%TO.N,InGND*%
X24231217Y9207065D03*
%TD*%
D12*
%TO.P,JP1,1,A*%
%TO.N,/ON_LED*%
X10287000Y18669000D03*
D13*
%TO.P,JP1,2,B*%
%TO.N,12V_ON*%
X12827000Y18669000D03*
%TD*%
D14*
%TO.P,J5,1,Pin_1*%
%TO.N,12V_ON*%
X5207000Y8559800D03*
D15*
%TO.P,J5,2,Pin_2*%
%TO.N,InGND*%
X11207000Y8559800D03*
%TD*%
D16*
%TO.P,D2,1,K*%
%TO.N,12V_ON*%
X19329400Y48895000D03*
D17*
%TO.P,D2,2,A*%
%TO.N,/SWITCH*%
X19329400Y33655000D03*
%TD*%
D12*
%TO.P,J3,1,Pin_1*%
%TO.N,/SHUTDOWN*%
X19227800Y16129000D03*
D13*
%TO.P,J3,2,Pin_2*%
%TO.N,/POWER_SIG*%
X19227800Y18669000D03*
%TD*%
D18*
%TO.P,K1,1*%
%TO.N,unconnected-(K1-Pad1)*%
X10541000Y37515800D03*
D19*
%TO.P,K1,2*%
%TO.N,5V_ON*%
X10541000Y40055800D03*
%TO.P,K1,5*%
%TO.N,Relay_In*%
X10541000Y47675800D03*
%TO.P,K1,6*%
X5461000Y47675800D03*
%TO.P,K1,9*%
%TO.N,Relay_Coil_2*%
X5461000Y40055800D03*
%TO.P,K1,10*%
%TO.N,12V_ON*%
X5461000Y37515800D03*
%TD*%
D20*
%TO.P,J7,1,Pin_1*%
%TO.N,5V_ON*%
X17272000Y4191000D03*
D21*
%TO.P,J7,2,Pin_2*%
%TO.N,InGND*%
X19772000Y4191000D03*
%TD*%
D22*
%TO.P,J1,1,Pin_1*%
%TO.N,Relay_In*%
X19595000Y55245000D03*
D23*
%TO.P,J1,2,Pin_2*%
%TO.N,InGND*%
X27395000Y55245000D03*
%TD*%
D20*
%TO.P,J9,1,Pin_1*%
%TO.N,5V_ON*%
X35052000Y4191000D03*
D21*
%TO.P,J9,2,Pin_2*%
%TO.N,InGND*%
X37552000Y4191000D03*
%TD*%
D20*
%TO.P,J8,1,Pin_1*%
%TO.N,5V_ON*%
X26182000Y4191000D03*
D21*
%TO.P,J8,2,Pin_2*%
%TO.N,InGND*%
X28682000Y4191000D03*
%TD*%
D12*
%TO.P,JP2,1,A*%
%TO.N,/ON_LED*%
X10287000Y16129000D03*
D13*
%TO.P,JP2,2,B*%
%TO.N,5V_ON*%
X12827000Y16129000D03*
%TD*%
D24*
%TO.P,K2,1*%
%TO.N,Relay_In*%
X8051800Y51689000D03*
D25*
%TO.P,K2,2*%
%TO.N,Relay_Coil_2*%
X2001800Y49739000D03*
D24*
%TO.P,K2,3*%
%TO.N,12V_ON*%
X2001800Y37539000D03*
%TO.P,K2,4*%
%TO.N,unconnected-(K2-Pad4)*%
X14051800Y37489000D03*
D25*
%TO.P,K2,5*%
%TO.N,5V_ON*%
X14001800Y49739000D03*
%TD*%
D26*
%TO.P,J2,1,Pin_1*%
%TO.N,Relay_In*%
X5461000Y26187400D03*
D27*
%TO.P,J2,2,Pin_2*%
%TO.N,InGND*%
X5461000Y23687400D03*
%TO.P,J2,3,Pin_3*%
%TO.N,/SWITCH*%
X5461000Y21187400D03*
%TO.P,J2,4,Pin_4*%
%TO.N,/ON_LED*%
X5461000Y18687400D03*
%TO.P,J2,5,Pin_5*%
%TO.N,5V_ON*%
X5461000Y16187400D03*
%TD*%
D28*
%TO.N,Relay_Coil_2*%
X2001800Y49739000D02*
X2001800Y43515000D01*
X2001800Y43515000D02*
X5461000Y40055800D01*
%TO.N,5V_ON*%
X10541000Y40055800D02*
X14001800Y43516600D01*
X14001800Y43516600D02*
X14001800Y49739000D01*
D29*
X26456000Y24123000D02*
X23850600Y21517600D01*
D30*
X14732000Y8128000D02*
X17272000Y5588000D01*
X17272000Y5588000D02*
X17272000Y4572000D01*
D29*
X17272000Y8890000D02*
X17272000Y4191000D01*
D30*
X14732000Y8128000D02*
X14732000Y14224000D01*
X14732000Y14224000D02*
X12827000Y16129000D01*
D29*
X23850600Y15468600D02*
X17272000Y8890000D01*
X26456000Y24123000D02*
X28996000Y24123000D01*
X23850600Y21517600D02*
X23850600Y15468600D01*
D28*
%TO.N,12V_ON*%
X12827000Y18669000D02*
X12827000Y19177000D01*
X8128000Y19558000D02*
X8128000Y11480800D01*
X12827000Y19177000D02*
X11176000Y20828000D01*
D29*
X29018000Y42545000D02*
X26478000Y42545000D01*
D28*
X9398000Y20828000D02*
X8128000Y19558000D01*
D29*
X5437800Y37539000D02*
X5461000Y37515800D01*
X25701400Y42523000D02*
X19329400Y48895000D01*
X26478000Y42545000D02*
X26456000Y42523000D01*
D28*
X8128000Y11480800D02*
X5207000Y8559800D01*
X11176000Y20828000D02*
X9398000Y20828000D01*
D29*
X26456000Y42523000D02*
X25701400Y42523000D01*
D31*
X5207000Y8559800D02*
X2001800Y11765000D01*
D29*
X32636000Y46163000D02*
X29018000Y42545000D01*
X37634000Y46163000D02*
X32636000Y46163000D01*
D31*
X2001800Y11765000D02*
X2001800Y37539000D01*
D32*
X42074728Y49013917D02*
X42074728Y49064717D01*
X41955811Y48895000D02*
X42074728Y49013917D01*
D29*
X2001800Y37539000D02*
X5437800Y37539000D01*
D32*
%TO.N,InGND*%
X24231217Y8650217D02*
X24231217Y9207065D01*
D29*
X39856000Y24123000D02*
X39856000Y42523000D01*
D31*
X37552000Y3262000D02*
X36195000Y1905000D01*
D29*
X33959800Y20766800D02*
X33959800Y8690738D01*
D31*
X30968000Y1905000D02*
X28682000Y4191000D01*
D29*
X37316000Y24123000D02*
X39856000Y24123000D01*
D31*
X28682000Y3028000D02*
X27559000Y1905000D01*
X27559000Y1905000D02*
X22058000Y1905000D01*
X28682000Y4191000D02*
X28682000Y3028000D01*
D29*
X37552000Y5098538D02*
X37552000Y4191000D01*
D31*
X36195000Y1905000D02*
X30968000Y1905000D01*
D29*
X37316000Y42523000D02*
X39856000Y42523000D01*
D31*
X37552000Y4191000D02*
X37552000Y3262000D01*
D29*
X33959800Y8690738D02*
X37552000Y5098538D01*
D32*
X19772000Y4191000D02*
X24231217Y8650217D01*
D29*
X37316000Y24123000D02*
X33959800Y20766800D01*
D31*
X22058000Y1905000D02*
X19772000Y4191000D01*
D32*
%TO.N,/SWITCH*%
X6811000Y21187400D02*
X5461000Y21187400D01*
X19227800Y33696730D02*
X19227800Y33604200D01*
X19227800Y33604200D02*
X6811000Y21187400D01*
%TO.N,Relay_In*%
X8001000Y50673000D02*
X8001000Y28727400D01*
X8001000Y28727400D02*
X5461000Y26187400D01*
%TD*%
M02*
