%TF.GenerationSoftware,KiCad,Pcbnew,7.0.9*%
%TF.CreationDate,2024-02-24T17:52:34+09:00*%
%TF.ProjectId,rasp_power_module,72617370-5f70-46f7-9765-725f6d6f6475,5*%
%TF.SameCoordinates,PX4a5d990PY544c140*%
%TF.FileFunction,Soldermask,Top*%
%TF.FilePolarity,Negative*%
%FSLAX46Y46*%
G04 Gerber Fmt 4.6, Leading zero omitted, Abs format (unit mm)*
G04 Created by KiCad (PCBNEW 7.0.9) date 2024-02-24 17:52:34*
%MOMM*%
%LPD*%
G01*
G04 APERTURE LIST*
G04 Aperture macros list*
%AMRoundRect*
0 Rectangle with rounded corners*
0 $1 Rounding radius*
0 $2 $3 $4 $5 $6 $7 $8 $9 X,Y pos of 4 corners*
0 Add a 4 corners polygon primitive as box body*
4,1,4,$2,$3,$4,$5,$6,$7,$8,$9,$2,$3,0*
0 Add four circle primitives for the rounded corners*
1,1,$1+$1,$2,$3*
1,1,$1+$1,$4,$5*
1,1,$1+$1,$6,$7*
1,1,$1+$1,$8,$9*
0 Add four rect primitives between the rounded corners*
20,1,$1+$1,$2,$3,$4,$5,0*
20,1,$1+$1,$4,$5,$6,$7,0*
20,1,$1+$1,$6,$7,$8,$9,0*
20,1,$1+$1,$8,$9,$2,$3,0*%
G04 Aperture macros list end*
%ADD10R,2.540000X2.540000*%
%ADD11C,1.524000*%
%ADD12RoundRect,0.250000X0.450000X-0.262500X0.450000X0.262500X-0.450000X0.262500X-0.450000X-0.262500X0*%
%ADD13R,3.000000X3.000000*%
%ADD14R,1.700000X1.700000*%
%ADD15O,1.700000X1.700000*%
%ADD16RoundRect,0.250000X-0.450000X0.262500X-0.450000X-0.262500X0.450000X-0.262500X0.450000X0.262500X0*%
%ADD17RoundRect,0.249999X-1.300001X-1.300001X1.300001X-1.300001X1.300001X1.300001X-1.300001X1.300001X0*%
%ADD18C,3.100000*%
%ADD19R,3.200000X3.200000*%
%ADD20O,3.200000X3.200000*%
%ADD21R,2.000000X2.000000*%
%ADD22C,2.000000*%
%ADD23RoundRect,0.250000X-0.600000X-0.750000X0.600000X-0.750000X0.600000X0.750000X-0.600000X0.750000X0*%
%ADD24O,1.700000X2.000000*%
%ADD25RoundRect,0.250000X-0.262500X-0.450000X0.262500X-0.450000X0.262500X0.450000X-0.262500X0.450000X0*%
%ADD26RoundRect,0.243750X-0.243750X-0.456250X0.243750X-0.456250X0.243750X0.456250X-0.243750X0.456250X0*%
%ADD27RoundRect,0.250002X-1.699998X-1.699998X1.699998X-1.699998X1.699998X1.699998X-1.699998X1.699998X0*%
%ADD28C,3.900000*%
%ADD29RoundRect,0.150000X-0.150000X0.587500X-0.150000X-0.587500X0.150000X-0.587500X0.150000X0.587500X0*%
%ADD30C,3.000000*%
%ADD31C,2.500000*%
%ADD32RoundRect,0.250000X0.400000X0.600000X-0.400000X0.600000X-0.400000X-0.600000X0.400000X-0.600000X0*%
%ADD33RoundRect,0.250000X-0.725000X0.600000X-0.725000X-0.600000X0.725000X-0.600000X0.725000X0.600000X0*%
%ADD34O,1.950000X1.700000*%
G04 APERTURE END LIST*
D10*
%TO.C,DCDC3*%
X40254000Y48703000D03*
X37714000Y48703000D03*
D11*
X40254000Y46163000D03*
X37714000Y46163000D03*
D10*
X28794000Y48758000D03*
X26254000Y48758000D03*
D11*
X28794000Y46218000D03*
X26254000Y46218000D03*
X40269000Y17163000D03*
X37729000Y17163000D03*
D10*
X40269000Y14623000D03*
X37729000Y14623000D03*
D11*
X28794000Y17163000D03*
X26254000Y17163000D03*
D10*
X28794000Y14623000D03*
X26254000Y14623000D03*
%TD*%
D11*
%TO.C,DCDC1*%
X28996000Y42523000D03*
X26456000Y42523000D03*
X39856000Y42523000D03*
X37316000Y42523000D03*
X28996000Y24123000D03*
X26456000Y24123000D03*
X39856000Y24123000D03*
X37316000Y24123000D03*
%TD*%
D12*
%TO.C,R1*%
X17043400Y27357700D03*
X17043400Y29182700D03*
%TD*%
D13*
%TO.C,DCDC2*%
X42074728Y49064717D03*
X24221890Y49055988D03*
X42069444Y9216627D03*
X24231217Y9207065D03*
%TD*%
D14*
%TO.C,JP1*%
X10287000Y18669000D03*
D15*
X12827000Y18669000D03*
%TD*%
D16*
%TO.C,R4*%
X17043400Y25535900D03*
X17043400Y23710900D03*
%TD*%
D17*
%TO.C,J5*%
X5207000Y8559800D03*
D18*
X11207000Y8559800D03*
%TD*%
D19*
%TO.C,D2*%
X19329400Y48895000D03*
D20*
X19329400Y33655000D03*
%TD*%
D12*
%TO.C,R2*%
X14909800Y27357700D03*
X14909800Y29182700D03*
%TD*%
D14*
%TO.C,J3*%
X19227800Y16129000D03*
D15*
X19227800Y18669000D03*
%TD*%
D21*
%TO.C,K1*%
X10541000Y37515800D03*
D22*
X10541000Y40055800D03*
X10541000Y47675800D03*
X5461000Y47675800D03*
X5461000Y40055800D03*
X5461000Y37515800D03*
%TD*%
D23*
%TO.C,J7*%
X17272000Y4191000D03*
D24*
X19772000Y4191000D03*
%TD*%
D25*
%TO.C,R5*%
X32031300Y52959000D03*
X33856300Y52959000D03*
%TD*%
D26*
%TO.C,D3*%
X35613100Y52959000D03*
X37488100Y52959000D03*
%TD*%
D27*
%TO.C,J1*%
X19595000Y55245000D03*
D28*
X27395000Y55245000D03*
%TD*%
D23*
%TO.C,J9*%
X35052000Y4191000D03*
D24*
X37552000Y4191000D03*
%TD*%
D23*
%TO.C,J8*%
X26182000Y4191000D03*
D24*
X28682000Y4191000D03*
%TD*%
D29*
%TO.C,Q1*%
X11872000Y27988500D03*
X9972000Y27988500D03*
X10922000Y26113500D03*
%TD*%
D14*
%TO.C,JP2*%
X10287000Y16129000D03*
D15*
X12827000Y16129000D03*
%TD*%
D30*
%TO.C,K2*%
X8051800Y51689000D03*
D31*
X2001800Y49739000D03*
D30*
X2001800Y37539000D03*
X14051800Y37489000D03*
D31*
X14001800Y49739000D03*
%TD*%
D32*
%TO.C,D1*%
X12341800Y31013400D03*
X8841800Y31013400D03*
%TD*%
D33*
%TO.C,J2*%
X5461000Y26187400D03*
D34*
X5461000Y23687400D03*
X5461000Y21187400D03*
X5461000Y18687400D03*
X5461000Y16187400D03*
%TD*%
D16*
%TO.C,R3*%
X14909800Y25535900D03*
X14909800Y23710900D03*
%TD*%
M02*
