%TF.GenerationSoftware,KiCad,Pcbnew,7.0.9*%
%TF.CreationDate,2024-02-24T17:52:34+09:00*%
%TF.ProjectId,rasp_power_module,72617370-5f70-46f7-9765-725f6d6f6475,5*%
%TF.SameCoordinates,PX4a5d990PY544c140*%
%TF.FileFunction,Legend,Bot*%
%TF.FilePolarity,Positive*%
%FSLAX46Y46*%
G04 Gerber Fmt 4.6, Leading zero omitted, Abs format (unit mm)*
G04 Created by KiCad (PCBNEW 7.0.9) date 2024-02-24 17:52:34*
%MOMM*%
%LPD*%
G01*
G04 APERTURE LIST*
G04 Aperture macros list*
%AMRoundRect*
0 Rectangle with rounded corners*
0 $1 Rounding radius*
0 $2 $3 $4 $5 $6 $7 $8 $9 X,Y pos of 4 corners*
0 Add a 4 corners polygon primitive as box body*
4,1,4,$2,$3,$4,$5,$6,$7,$8,$9,$2,$3,0*
0 Add four circle primitives for the rounded corners*
1,1,$1+$1,$2,$3*
1,1,$1+$1,$4,$5*
1,1,$1+$1,$6,$7*
1,1,$1+$1,$8,$9*
0 Add four rect primitives between the rounded corners*
20,1,$1+$1,$2,$3,$4,$5,0*
20,1,$1+$1,$4,$5,$6,$7,0*
20,1,$1+$1,$6,$7,$8,$9,0*
20,1,$1+$1,$8,$9,$2,$3,0*%
G04 Aperture macros list end*
%ADD10C,0.150000*%
%ADD11C,1.524000*%
%ADD12R,3.000000X3.000000*%
%ADD13R,1.700000X1.700000*%
%ADD14O,1.700000X1.700000*%
%ADD15RoundRect,0.249999X-1.300001X-1.300001X1.300001X-1.300001X1.300001X1.300001X-1.300001X1.300001X0*%
%ADD16C,3.100000*%
%ADD17R,3.200000X3.200000*%
%ADD18O,3.200000X3.200000*%
%ADD19R,2.000000X2.000000*%
%ADD20C,2.000000*%
%ADD21RoundRect,0.250000X-0.600000X-0.750000X0.600000X-0.750000X0.600000X0.750000X-0.600000X0.750000X0*%
%ADD22O,1.700000X2.000000*%
%ADD23RoundRect,0.250002X-1.699998X-1.699998X1.699998X-1.699998X1.699998X1.699998X-1.699998X1.699998X0*%
%ADD24C,3.900000*%
%ADD25C,3.000000*%
%ADD26C,2.500000*%
%ADD27RoundRect,0.250000X-0.725000X0.600000X-0.725000X-0.600000X0.725000X-0.600000X0.725000X0.600000X0*%
%ADD28O,1.950000X1.700000*%
G04 APERTURE END LIST*
D10*
X24638000Y44323000D02*
X26288000Y44323000D01*
X26888000Y44323000D02*
X28538000Y44323000D01*
X29138000Y44323000D02*
X30788000Y44323000D01*
X31388000Y44323000D02*
X33038000Y44323000D01*
X33638000Y44323000D02*
X35288000Y44323000D01*
X35888000Y44323000D02*
X37538000Y44323000D01*
X38138000Y44323000D02*
X39788000Y44323000D01*
X40388000Y44323000D02*
X41656000Y44323000D01*
X41656000Y44323000D02*
X41656000Y42673000D01*
X41656000Y42073000D02*
X41656000Y40423000D01*
X41656000Y39823000D02*
X41656000Y38173000D01*
X41656000Y37573000D02*
X41656000Y35923000D01*
X41656000Y35323000D02*
X41656000Y33673000D01*
X41656000Y33073000D02*
X41656000Y31423000D01*
X41656000Y30823000D02*
X41656000Y29173000D01*
X41656000Y28573000D02*
X41656000Y26923000D01*
X41656000Y26323000D02*
X41656000Y24673000D01*
X41656000Y24073000D02*
X41656000Y22423000D01*
X41656000Y22352000D02*
X40006000Y22352000D01*
X39406000Y22352000D02*
X37756000Y22352000D01*
X37156000Y22352000D02*
X35506000Y22352000D01*
X34906000Y22352000D02*
X33256000Y22352000D01*
X32656000Y22352000D02*
X31006000Y22352000D01*
X30406000Y22352000D02*
X28756000Y22352000D01*
X28156000Y22352000D02*
X26506000Y22352000D01*
X25906000Y22352000D02*
X24638000Y22352000D01*
X24638000Y22352000D02*
X24638000Y24002000D01*
X24638000Y24602000D02*
X24638000Y26252000D01*
X24638000Y26852000D02*
X24638000Y28502000D01*
X24638000Y29102000D02*
X24638000Y30752000D01*
X24638000Y31352000D02*
X24638000Y33002000D01*
X24638000Y33602000D02*
X24638000Y35252000D01*
X24638000Y35852000D02*
X24638000Y37502000D01*
X24638000Y38102000D02*
X24638000Y39752000D01*
X24638000Y40352000D02*
X24638000Y42002000D01*
X24638000Y42602000D02*
X24638000Y44252000D01*
X24130000Y48260000D02*
X25780000Y48260000D01*
X26380000Y48260000D02*
X28030000Y48260000D01*
X28630000Y48260000D02*
X30280000Y48260000D01*
X30880000Y48260000D02*
X32530000Y48260000D01*
X33130000Y48260000D02*
X34780000Y48260000D01*
X35380000Y48260000D02*
X37030000Y48260000D01*
X37630000Y48260000D02*
X39280000Y48260000D01*
X39880000Y48260000D02*
X41530000Y48260000D01*
X42130000Y48260000D02*
X42164000Y48260000D01*
X42164000Y48260000D02*
X42164000Y46610000D01*
X42164000Y46010000D02*
X42164000Y44360000D01*
X42164000Y43760000D02*
X42164000Y42110000D01*
X42164000Y41510000D02*
X42164000Y39860000D01*
X42164000Y39260000D02*
X42164000Y37610000D01*
X42164000Y37010000D02*
X42164000Y35360000D01*
X42164000Y34760000D02*
X42164000Y33110000D01*
X42164000Y32510000D02*
X42164000Y30860000D01*
X42164000Y30260000D02*
X42164000Y28610000D01*
X42164000Y28010000D02*
X42164000Y26360000D01*
X42164000Y25760000D02*
X42164000Y24110000D01*
X42164000Y23510000D02*
X42164000Y21860000D01*
X42164000Y21260000D02*
X42164000Y19610000D01*
X42164000Y19010000D02*
X42164000Y17360000D01*
X42164000Y16760000D02*
X42164000Y15240000D01*
X42164000Y15240000D02*
X40514000Y15240000D01*
X39914000Y15240000D02*
X38264000Y15240000D01*
X37664000Y15240000D02*
X36014000Y15240000D01*
X35414000Y15240000D02*
X33764000Y15240000D01*
X33164000Y15240000D02*
X31514000Y15240000D01*
X30914000Y15240000D02*
X29264000Y15240000D01*
X28664000Y15240000D02*
X27014000Y15240000D01*
X26414000Y15240000D02*
X24764000Y15240000D01*
X24164000Y15240000D02*
X24130000Y15240000D01*
X24130000Y15240000D02*
X24130000Y16890000D01*
X24130000Y17490000D02*
X24130000Y19140000D01*
X24130000Y19740000D02*
X24130000Y21390000D01*
X24130000Y21990000D02*
X24130000Y23640000D01*
X24130000Y24240000D02*
X24130000Y25890000D01*
X24130000Y26490000D02*
X24130000Y28140000D01*
X24130000Y28740000D02*
X24130000Y30390000D01*
X24130000Y30990000D02*
X24130000Y32640000D01*
X24130000Y33240000D02*
X24130000Y34890000D01*
X24130000Y35490000D02*
X24130000Y37140000D01*
X24130000Y37740000D02*
X24130000Y39390000D01*
X24130000Y39990000D02*
X24130000Y41640000D01*
X24130000Y42240000D02*
X24130000Y43890000D01*
X24130000Y44490000D02*
X24130000Y46140000D01*
X24130000Y46740000D02*
X24130000Y48260000D01*
X33782000Y33909000D02*
X34544000Y33909000D01*
X33020000Y31877000D01*
X31496000Y33909000D01*
X32258000Y33909000D01*
X32258000Y36703000D01*
X33782000Y36703000D01*
X33782000Y33909000D01*
G36*
X33782000Y33909000D02*
G01*
X34544000Y33909000D01*
X33020000Y31877000D01*
X31496000Y33909000D01*
X32258000Y33909000D01*
X32258000Y36703000D01*
X33782000Y36703000D01*
X33782000Y33909000D01*
G37*
X22606000Y50546000D02*
X24256000Y50546000D01*
X24856000Y50546000D02*
X26506000Y50546000D01*
X27106000Y50546000D02*
X28756000Y50546000D01*
X29356000Y50546000D02*
X31006000Y50546000D01*
X31606000Y50546000D02*
X33256000Y50546000D01*
X33856000Y50546000D02*
X35506000Y50546000D01*
X36106000Y50546000D02*
X37756000Y50546000D01*
X38356000Y50546000D02*
X40006000Y50546000D01*
X40606000Y50546000D02*
X42256000Y50546000D01*
X42856000Y50546000D02*
X43688000Y50546000D01*
X43688000Y50546000D02*
X43688000Y48896000D01*
X43688000Y48296000D02*
X43688000Y46646000D01*
X43688000Y46046000D02*
X43688000Y44396000D01*
X43688000Y43796000D02*
X43688000Y42146000D01*
X43688000Y41546000D02*
X43688000Y39896000D01*
X43688000Y39296000D02*
X43688000Y37646000D01*
X43688000Y37046000D02*
X43688000Y35396000D01*
X43688000Y34796000D02*
X43688000Y33146000D01*
X43688000Y32546000D02*
X43688000Y30896000D01*
X43688000Y30296000D02*
X43688000Y28646000D01*
X43688000Y28046000D02*
X43688000Y26396000D01*
X43688000Y25796000D02*
X43688000Y24146000D01*
X43688000Y23546000D02*
X43688000Y21896000D01*
X43688000Y21296000D02*
X43688000Y19646000D01*
X43688000Y19046000D02*
X43688000Y17396000D01*
X43688000Y16796000D02*
X43688000Y15146000D01*
X43688000Y14546000D02*
X43688000Y12896000D01*
X43688000Y12296000D02*
X43688000Y10646000D01*
X43688000Y10046000D02*
X43688000Y8396000D01*
X43688000Y7796000D02*
X43688000Y7620000D01*
X43688000Y7620000D02*
X42038000Y7620000D01*
X41438000Y7620000D02*
X39788000Y7620000D01*
X39188000Y7620000D02*
X37538000Y7620000D01*
X36938000Y7620000D02*
X35288000Y7620000D01*
X34688000Y7620000D02*
X33038000Y7620000D01*
X32438000Y7620000D02*
X30788000Y7620000D01*
X30188000Y7620000D02*
X28538000Y7620000D01*
X27938000Y7620000D02*
X26288000Y7620000D01*
X25688000Y7620000D02*
X24038000Y7620000D01*
X23438000Y7620000D02*
X22606000Y7620000D01*
X22606000Y7620000D02*
X22606000Y9270000D01*
X22606000Y9870000D02*
X22606000Y11520000D01*
X22606000Y12120000D02*
X22606000Y13770000D01*
X22606000Y14370000D02*
X22606000Y16020000D01*
X22606000Y16620000D02*
X22606000Y18270000D01*
X22606000Y18870000D02*
X22606000Y20520000D01*
X22606000Y21120000D02*
X22606000Y22770000D01*
X22606000Y23370000D02*
X22606000Y25020000D01*
X22606000Y25620000D02*
X22606000Y27270000D01*
X22606000Y27870000D02*
X22606000Y29520000D01*
X22606000Y30120000D02*
X22606000Y31770000D01*
X22606000Y32370000D02*
X22606000Y34020000D01*
X22606000Y34620000D02*
X22606000Y36270000D01*
X22606000Y36870000D02*
X22606000Y38520000D01*
X22606000Y39120000D02*
X22606000Y40770000D01*
X22606000Y41370000D02*
X22606000Y43020000D01*
X22606000Y43620000D02*
X22606000Y45270000D01*
X22606000Y45870000D02*
X22606000Y47520000D01*
X22606000Y48120000D02*
X22606000Y49770000D01*
X22606000Y50370000D02*
X22606000Y50546000D01*
X28178047Y40185181D02*
X28749475Y40185181D01*
X28463761Y40185181D02*
X28463761Y41185181D01*
X28463761Y41185181D02*
X28558999Y41042324D01*
X28558999Y41042324D02*
X28654237Y40947086D01*
X28654237Y40947086D02*
X28749475Y40899467D01*
X27797094Y41089943D02*
X27749475Y41137562D01*
X27749475Y41137562D02*
X27654237Y41185181D01*
X27654237Y41185181D02*
X27416142Y41185181D01*
X27416142Y41185181D02*
X27320904Y41137562D01*
X27320904Y41137562D02*
X27273285Y41089943D01*
X27273285Y41089943D02*
X27225666Y40994705D01*
X27225666Y40994705D02*
X27225666Y40899467D01*
X27225666Y40899467D02*
X27273285Y40756610D01*
X27273285Y40756610D02*
X27844713Y40185181D01*
X27844713Y40185181D02*
X27225666Y40185181D01*
X26939951Y41185181D02*
X26606618Y40185181D01*
X26606618Y40185181D02*
X26273285Y41185181D01*
G36*
X26849094Y8637181D02*
G01*
X26698169Y8637181D01*
X26583656Y8675352D01*
X26509543Y8749466D01*
X26471049Y8826453D01*
X26427666Y8999987D01*
X26427666Y9124376D01*
X26471049Y9297910D01*
X26509543Y9374897D01*
X26583656Y9449010D01*
X26698169Y9487181D01*
X26849094Y9487181D01*
X26849094Y8637181D01*
G37*
G36*
X29237189Y8344324D02*
G01*
X26134809Y8344324D01*
X26134809Y8990753D01*
X26277666Y8990753D01*
X26278851Y8987496D01*
X26279905Y8972563D01*
X26327524Y8782087D01*
X26329512Y8779143D01*
X26333203Y8766736D01*
X26380822Y8671498D01*
X26382008Y8670375D01*
X26394871Y8652006D01*
X26490109Y8556767D01*
X26494173Y8554872D01*
X26496520Y8551052D01*
X26519425Y8538649D01*
X26662281Y8491030D01*
X26663916Y8491075D01*
X26685999Y8487181D01*
X26924094Y8487181D01*
X26942402Y8493845D01*
X26961594Y8497229D01*
X26965944Y8502414D01*
X26972303Y8504728D01*
X26982045Y8521602D01*
X26994571Y8536529D01*
X26996288Y8546272D01*
X26997955Y8549157D01*
X26997376Y8552440D01*
X26999094Y8562181D01*
X27325285Y8562181D01*
X27327656Y8555665D01*
X27326483Y8548829D01*
X27336222Y8532132D01*
X27342832Y8513972D01*
X27348837Y8510505D01*
X27352332Y8504513D01*
X27370523Y8497984D01*
X27387261Y8488320D01*
X27394092Y8489525D01*
X27400619Y8487182D01*
X27418750Y8493873D01*
X27437785Y8497229D01*
X27442242Y8502542D01*
X27448749Y8504942D01*
X27465403Y8524971D01*
X27896713Y9279765D01*
X27896713Y8562181D01*
X27914260Y8513972D01*
X27958689Y8488320D01*
X28009213Y8497229D01*
X28042190Y8536529D01*
X28046713Y8562181D01*
X28046713Y8657420D01*
X28325285Y8657420D01*
X28330884Y8642037D01*
X28332311Y8625725D01*
X28341703Y8612311D01*
X28342832Y8609211D01*
X28344581Y8608202D01*
X28347251Y8604388D01*
X28394870Y8556768D01*
X28398934Y8554873D01*
X28401282Y8551052D01*
X28424187Y8538649D01*
X28567043Y8491030D01*
X28568678Y8491075D01*
X28590761Y8487181D01*
X28685999Y8487181D01*
X28687537Y8487742D01*
X28709716Y8491030D01*
X28852573Y8538649D01*
X28856085Y8541437D01*
X28860552Y8541827D01*
X28881889Y8556767D01*
X28977128Y8652007D01*
X28977819Y8653490D01*
X28991176Y8671498D01*
X29038795Y8766736D01*
X29039201Y8770265D01*
X29044474Y8782087D01*
X29092093Y8972563D01*
X29091732Y8976012D01*
X29094332Y8990753D01*
X29094332Y9133610D01*
X29093146Y9136868D01*
X29092093Y9151800D01*
X29044474Y9342276D01*
X29042485Y9345221D01*
X29038795Y9357627D01*
X28991176Y9452865D01*
X28989989Y9453989D01*
X28977127Y9472357D01*
X28881889Y9567595D01*
X28877825Y9569490D01*
X28875478Y9573311D01*
X28852573Y9585713D01*
X28709716Y9633332D01*
X28708081Y9633288D01*
X28685999Y9637181D01*
X28543142Y9637181D01*
X28538928Y9635648D01*
X28534567Y9636689D01*
X28509601Y9629263D01*
X28414363Y9581644D01*
X28379091Y9544390D01*
X28376016Y9493179D01*
X28406580Y9451974D01*
X28456478Y9440054D01*
X28481445Y9447480D01*
X28560847Y9487181D01*
X28673829Y9487181D01*
X28788342Y9449010D01*
X28862455Y9374897D01*
X28900948Y9297910D01*
X28944332Y9124376D01*
X28944332Y8999987D01*
X28900948Y8826453D01*
X28862454Y8749466D01*
X28788342Y8675353D01*
X28673829Y8637181D01*
X28602931Y8637181D01*
X28488418Y8675352D01*
X28475285Y8688486D01*
X28475285Y8915753D01*
X28590761Y8915753D01*
X28638970Y8933300D01*
X28664622Y8977729D01*
X28655713Y9028253D01*
X28616413Y9061230D01*
X28590761Y9065753D01*
X28400285Y9065753D01*
X28381976Y9059090D01*
X28362785Y9055705D01*
X28358434Y9050521D01*
X28352076Y9048206D01*
X28342333Y9031333D01*
X28329808Y9016405D01*
X28328090Y9006663D01*
X28326424Y9003777D01*
X28327002Y9000495D01*
X28325285Y8990753D01*
X28325285Y8657420D01*
X28046713Y8657420D01*
X28046713Y9562181D01*
X28044340Y9568699D01*
X28045515Y9575534D01*
X28035775Y9592232D01*
X28029166Y9610390D01*
X28023161Y9613858D01*
X28019666Y9619849D01*
X28001474Y9626379D01*
X27984737Y9636042D01*
X27977905Y9634838D01*
X27971379Y9637180D01*
X27953247Y9630490D01*
X27934213Y9627133D01*
X27929755Y9621821D01*
X27923249Y9619420D01*
X27906595Y9599392D01*
X27475285Y8844598D01*
X27475285Y9562181D01*
X27457738Y9610390D01*
X27413309Y9636042D01*
X27362785Y9627133D01*
X27329808Y9587833D01*
X27325285Y9562181D01*
X27325285Y8562181D01*
X26999094Y8562181D01*
X26999094Y9562181D01*
X26992430Y9580490D01*
X26989046Y9599681D01*
X26983861Y9604032D01*
X26981547Y9610390D01*
X26964673Y9620133D01*
X26949746Y9632658D01*
X26940003Y9634376D01*
X26937118Y9636042D01*
X26933835Y9635464D01*
X26924094Y9637181D01*
X26685999Y9637181D01*
X26684461Y9636622D01*
X26662281Y9633332D01*
X26519425Y9585713D01*
X26515914Y9582927D01*
X26511446Y9582536D01*
X26490109Y9567595D01*
X26394871Y9472357D01*
X26394180Y9470876D01*
X26380822Y9452865D01*
X26333203Y9357627D01*
X26332796Y9354099D01*
X26327524Y9342276D01*
X26279905Y9151800D01*
X26280265Y9148352D01*
X26277666Y9133610D01*
X26277666Y8990753D01*
X26134809Y8990753D01*
X26134809Y9780038D01*
X29237189Y9780038D01*
X29237189Y8344324D01*
G37*
G36*
X29138905Y1709019D02*
G01*
X28265094Y1709019D01*
X28265094Y1974496D01*
X28379380Y1974496D01*
X28384979Y1959112D01*
X28386407Y1942800D01*
X28395798Y1929388D01*
X28396927Y1926287D01*
X28398676Y1925277D01*
X28401347Y1921463D01*
X28439443Y1883367D01*
X28443507Y1881472D01*
X28445854Y1877652D01*
X28468759Y1865249D01*
X28583044Y1827154D01*
X28584678Y1827199D01*
X28606761Y1823305D01*
X28682952Y1823305D01*
X28684490Y1823866D01*
X28706669Y1827154D01*
X28820955Y1865249D01*
X28824466Y1868037D01*
X28828935Y1868427D01*
X28850271Y1883367D01*
X28926462Y1959559D01*
X28927153Y1961042D01*
X28940510Y1979050D01*
X28978605Y2055240D01*
X28979010Y2058767D01*
X28984284Y2070590D01*
X29022380Y2222972D01*
X29022019Y2226421D01*
X29024619Y2241162D01*
X29024619Y2355448D01*
X29023433Y2358706D01*
X29022380Y2373638D01*
X28984284Y2526020D01*
X28982295Y2528964D01*
X28978605Y2541370D01*
X28940510Y2617561D01*
X28939323Y2618685D01*
X28926461Y2637053D01*
X28850271Y2713243D01*
X28846207Y2715138D01*
X28843860Y2718959D01*
X28820955Y2731361D01*
X28706669Y2769456D01*
X28705034Y2769412D01*
X28682952Y2773305D01*
X28568666Y2773305D01*
X28564452Y2771772D01*
X28560092Y2772813D01*
X28535125Y2765387D01*
X28458935Y2727292D01*
X28423663Y2690038D01*
X28420588Y2638827D01*
X28451152Y2597622D01*
X28501050Y2585702D01*
X28526017Y2593128D01*
X28586371Y2623305D01*
X28670782Y2623305D01*
X28756724Y2594658D01*
X28811788Y2539594D01*
X28840758Y2481655D01*
X28874619Y2346213D01*
X28874619Y2250398D01*
X28840758Y2114957D01*
X28811788Y2057018D01*
X28756723Y2001952D01*
X28670782Y1973305D01*
X28618931Y1973305D01*
X28532990Y2001952D01*
X28529380Y2005562D01*
X28529380Y2166162D01*
X28606761Y2166162D01*
X28654970Y2183709D01*
X28680622Y2228138D01*
X28671713Y2278662D01*
X28632413Y2311639D01*
X28606761Y2316162D01*
X28454380Y2316162D01*
X28436071Y2309499D01*
X28416880Y2306114D01*
X28412529Y2300930D01*
X28406171Y2298615D01*
X28396428Y2281742D01*
X28383903Y2266814D01*
X28382185Y2257072D01*
X28380519Y2254186D01*
X28381097Y2250904D01*
X28379380Y2241162D01*
X28379380Y1974496D01*
X28265094Y1974496D01*
X28265094Y2887591D01*
X29138905Y2887591D01*
X29138905Y1709019D01*
G37*
X39560476Y9689181D02*
X40036666Y9689181D01*
X40036666Y9689181D02*
X40084285Y9212991D01*
X40084285Y9212991D02*
X40036666Y9260610D01*
X40036666Y9260610D02*
X39941428Y9308229D01*
X39941428Y9308229D02*
X39703333Y9308229D01*
X39703333Y9308229D02*
X39608095Y9260610D01*
X39608095Y9260610D02*
X39560476Y9212991D01*
X39560476Y9212991D02*
X39512857Y9117753D01*
X39512857Y9117753D02*
X39512857Y8879658D01*
X39512857Y8879658D02*
X39560476Y8784420D01*
X39560476Y8784420D02*
X39608095Y8736800D01*
X39608095Y8736800D02*
X39703333Y8689181D01*
X39703333Y8689181D02*
X39941428Y8689181D01*
X39941428Y8689181D02*
X40036666Y8736800D01*
X40036666Y8736800D02*
X40084285Y8784420D01*
X39227142Y9689181D02*
X38893809Y8689181D01*
X38893809Y8689181D02*
X38560476Y9689181D01*
G36*
X20248905Y1734419D02*
G01*
X19375094Y1734419D01*
X19375094Y1999896D01*
X19489380Y1999896D01*
X19494979Y1984512D01*
X19496407Y1968200D01*
X19505798Y1954788D01*
X19506927Y1951687D01*
X19508676Y1950677D01*
X19511347Y1946863D01*
X19549443Y1908767D01*
X19553507Y1906872D01*
X19555854Y1903052D01*
X19578759Y1890649D01*
X19693044Y1852554D01*
X19694678Y1852599D01*
X19716761Y1848705D01*
X19792952Y1848705D01*
X19794490Y1849266D01*
X19816669Y1852554D01*
X19930955Y1890649D01*
X19934466Y1893437D01*
X19938935Y1893827D01*
X19960271Y1908767D01*
X20036462Y1984959D01*
X20037153Y1986442D01*
X20050510Y2004450D01*
X20088605Y2080640D01*
X20089010Y2084167D01*
X20094284Y2095990D01*
X20132380Y2248372D01*
X20132019Y2251821D01*
X20134619Y2266562D01*
X20134619Y2380848D01*
X20133433Y2384106D01*
X20132380Y2399038D01*
X20094284Y2551420D01*
X20092295Y2554364D01*
X20088605Y2566770D01*
X20050510Y2642961D01*
X20049323Y2644085D01*
X20036461Y2662453D01*
X19960271Y2738643D01*
X19956207Y2740538D01*
X19953860Y2744359D01*
X19930955Y2756761D01*
X19816669Y2794856D01*
X19815034Y2794812D01*
X19792952Y2798705D01*
X19678666Y2798705D01*
X19674452Y2797172D01*
X19670092Y2798213D01*
X19645125Y2790787D01*
X19568935Y2752692D01*
X19533663Y2715438D01*
X19530588Y2664227D01*
X19561152Y2623022D01*
X19611050Y2611102D01*
X19636017Y2618528D01*
X19696371Y2648705D01*
X19780782Y2648705D01*
X19866724Y2620058D01*
X19921788Y2564994D01*
X19950758Y2507055D01*
X19984619Y2371613D01*
X19984619Y2275798D01*
X19950758Y2140357D01*
X19921788Y2082418D01*
X19866723Y2027352D01*
X19780782Y1998705D01*
X19728931Y1998705D01*
X19642990Y2027352D01*
X19639380Y2030962D01*
X19639380Y2191562D01*
X19716761Y2191562D01*
X19764970Y2209109D01*
X19790622Y2253538D01*
X19781713Y2304062D01*
X19742413Y2337039D01*
X19716761Y2341562D01*
X19564380Y2341562D01*
X19546071Y2334899D01*
X19526880Y2331514D01*
X19522529Y2326330D01*
X19516171Y2324015D01*
X19506428Y2307142D01*
X19493903Y2292214D01*
X19492185Y2282472D01*
X19490519Y2279586D01*
X19491097Y2276304D01*
X19489380Y2266562D01*
X19489380Y1999896D01*
X19375094Y1999896D01*
X19375094Y2912991D01*
X20248905Y2912991D01*
X20248905Y1734419D01*
G37*
X35758094Y22913181D02*
X35758094Y23913181D01*
X35758094Y23913181D02*
X35424761Y23198896D01*
X35424761Y23198896D02*
X35091428Y23913181D01*
X35091428Y23913181D02*
X35091428Y22913181D01*
X34615237Y22913181D02*
X34615237Y23913181D01*
X34615237Y23913181D02*
X34234285Y23913181D01*
X34234285Y23913181D02*
X34139047Y23865562D01*
X34139047Y23865562D02*
X34091428Y23817943D01*
X34091428Y23817943D02*
X34043809Y23722705D01*
X34043809Y23722705D02*
X34043809Y23579848D01*
X34043809Y23579848D02*
X34091428Y23484610D01*
X34091428Y23484610D02*
X34139047Y23436991D01*
X34139047Y23436991D02*
X34234285Y23389372D01*
X34234285Y23389372D02*
X34615237Y23389372D01*
X33091428Y22913181D02*
X33662856Y22913181D01*
X33377142Y22913181D02*
X33377142Y23913181D01*
X33377142Y23913181D02*
X33472380Y23770324D01*
X33472380Y23770324D02*
X33567618Y23675086D01*
X33567618Y23675086D02*
X33662856Y23627467D01*
X32186666Y23913181D02*
X32662856Y23913181D01*
X32662856Y23913181D02*
X32710475Y23436991D01*
X32710475Y23436991D02*
X32662856Y23484610D01*
X32662856Y23484610D02*
X32567618Y23532229D01*
X32567618Y23532229D02*
X32329523Y23532229D01*
X32329523Y23532229D02*
X32234285Y23484610D01*
X32234285Y23484610D02*
X32186666Y23436991D01*
X32186666Y23436991D02*
X32139047Y23341753D01*
X32139047Y23341753D02*
X32139047Y23103658D01*
X32139047Y23103658D02*
X32186666Y23008420D01*
X32186666Y23008420D02*
X32234285Y22960800D01*
X32234285Y22960800D02*
X32329523Y22913181D01*
X32329523Y22913181D02*
X32567618Y22913181D01*
X32567618Y22913181D02*
X32662856Y22960800D01*
X32662856Y22960800D02*
X32710475Y23008420D01*
X31567618Y23484610D02*
X31662856Y23532229D01*
X31662856Y23532229D02*
X31710475Y23579848D01*
X31710475Y23579848D02*
X31758094Y23675086D01*
X31758094Y23675086D02*
X31758094Y23722705D01*
X31758094Y23722705D02*
X31710475Y23817943D01*
X31710475Y23817943D02*
X31662856Y23865562D01*
X31662856Y23865562D02*
X31567618Y23913181D01*
X31567618Y23913181D02*
X31377142Y23913181D01*
X31377142Y23913181D02*
X31281904Y23865562D01*
X31281904Y23865562D02*
X31234285Y23817943D01*
X31234285Y23817943D02*
X31186666Y23722705D01*
X31186666Y23722705D02*
X31186666Y23675086D01*
X31186666Y23675086D02*
X31234285Y23579848D01*
X31234285Y23579848D02*
X31281904Y23532229D01*
X31281904Y23532229D02*
X31377142Y23484610D01*
X31377142Y23484610D02*
X31567618Y23484610D01*
X31567618Y23484610D02*
X31662856Y23436991D01*
X31662856Y23436991D02*
X31710475Y23389372D01*
X31710475Y23389372D02*
X31758094Y23294134D01*
X31758094Y23294134D02*
X31758094Y23103658D01*
X31758094Y23103658D02*
X31710475Y23008420D01*
X31710475Y23008420D02*
X31662856Y22960800D01*
X31662856Y22960800D02*
X31567618Y22913181D01*
X31567618Y22913181D02*
X31377142Y22913181D01*
X31377142Y22913181D02*
X31281904Y22960800D01*
X31281904Y22960800D02*
X31234285Y23008420D01*
X31234285Y23008420D02*
X31186666Y23103658D01*
X31186666Y23103658D02*
X31186666Y23294134D01*
X31186666Y23294134D02*
X31234285Y23389372D01*
X31234285Y23389372D02*
X31281904Y23436991D01*
X31281904Y23436991D02*
X31377142Y23484610D01*
X30329523Y23579848D02*
X30329523Y22913181D01*
X30567618Y23960800D02*
X30805713Y23246515D01*
X30805713Y23246515D02*
X30186666Y23246515D01*
X39481047Y48694181D02*
X40052475Y48694181D01*
X39766761Y48694181D02*
X39766761Y49694181D01*
X39766761Y49694181D02*
X39861999Y49551324D01*
X39861999Y49551324D02*
X39957237Y49456086D01*
X39957237Y49456086D02*
X40052475Y49408467D01*
X39100094Y49598943D02*
X39052475Y49646562D01*
X39052475Y49646562D02*
X38957237Y49694181D01*
X38957237Y49694181D02*
X38719142Y49694181D01*
X38719142Y49694181D02*
X38623904Y49646562D01*
X38623904Y49646562D02*
X38576285Y49598943D01*
X38576285Y49598943D02*
X38528666Y49503705D01*
X38528666Y49503705D02*
X38528666Y49408467D01*
X38528666Y49408467D02*
X38576285Y49265610D01*
X38576285Y49265610D02*
X39147713Y48694181D01*
X39147713Y48694181D02*
X38528666Y48694181D01*
X38242951Y49694181D02*
X37909618Y48694181D01*
X37909618Y48694181D02*
X37576285Y49694181D01*
X39179476Y14642181D02*
X39655666Y14642181D01*
X39655666Y14642181D02*
X39703285Y14165991D01*
X39703285Y14165991D02*
X39655666Y14213610D01*
X39655666Y14213610D02*
X39560428Y14261229D01*
X39560428Y14261229D02*
X39322333Y14261229D01*
X39322333Y14261229D02*
X39227095Y14213610D01*
X39227095Y14213610D02*
X39179476Y14165991D01*
X39179476Y14165991D02*
X39131857Y14070753D01*
X39131857Y14070753D02*
X39131857Y13832658D01*
X39131857Y13832658D02*
X39179476Y13737420D01*
X39179476Y13737420D02*
X39227095Y13689800D01*
X39227095Y13689800D02*
X39322333Y13642181D01*
X39322333Y13642181D02*
X39560428Y13642181D01*
X39560428Y13642181D02*
X39655666Y13689800D01*
X39655666Y13689800D02*
X39703285Y13737420D01*
X38846142Y14642181D02*
X38512809Y13642181D01*
X38512809Y13642181D02*
X38179476Y14642181D01*
G36*
X26722094Y48769181D02*
G01*
X26571169Y48769181D01*
X26456656Y48807352D01*
X26382543Y48881466D01*
X26344049Y48958453D01*
X26300666Y49131987D01*
X26300666Y49256376D01*
X26344049Y49429910D01*
X26382543Y49506897D01*
X26456656Y49581010D01*
X26571169Y49619181D01*
X26722094Y49619181D01*
X26722094Y48769181D01*
G37*
G36*
X29110189Y48476324D02*
G01*
X26007809Y48476324D01*
X26007809Y49122753D01*
X26150666Y49122753D01*
X26151851Y49119496D01*
X26152905Y49104563D01*
X26200524Y48914087D01*
X26202512Y48911143D01*
X26206203Y48898736D01*
X26253822Y48803498D01*
X26255008Y48802375D01*
X26267871Y48784006D01*
X26363109Y48688767D01*
X26367173Y48686872D01*
X26369520Y48683052D01*
X26392425Y48670649D01*
X26535281Y48623030D01*
X26536916Y48623075D01*
X26558999Y48619181D01*
X26797094Y48619181D01*
X26815402Y48625845D01*
X26834594Y48629229D01*
X26838944Y48634414D01*
X26845303Y48636728D01*
X26855045Y48653602D01*
X26867571Y48668529D01*
X26869288Y48678272D01*
X26870955Y48681157D01*
X26870376Y48684440D01*
X26872094Y48694181D01*
X27198285Y48694181D01*
X27200656Y48687665D01*
X27199483Y48680829D01*
X27209222Y48664132D01*
X27215832Y48645972D01*
X27221837Y48642505D01*
X27225332Y48636513D01*
X27243523Y48629984D01*
X27260261Y48620320D01*
X27267092Y48621525D01*
X27273619Y48619182D01*
X27291750Y48625873D01*
X27310785Y48629229D01*
X27315242Y48634542D01*
X27321749Y48636942D01*
X27338403Y48656971D01*
X27769713Y49411765D01*
X27769713Y48694181D01*
X27787260Y48645972D01*
X27831689Y48620320D01*
X27882213Y48629229D01*
X27915190Y48668529D01*
X27919713Y48694181D01*
X27919713Y48789420D01*
X28198285Y48789420D01*
X28203884Y48774037D01*
X28205311Y48757725D01*
X28214703Y48744311D01*
X28215832Y48741211D01*
X28217581Y48740202D01*
X28220251Y48736388D01*
X28267870Y48688768D01*
X28271934Y48686873D01*
X28274282Y48683052D01*
X28297187Y48670649D01*
X28440043Y48623030D01*
X28441678Y48623075D01*
X28463761Y48619181D01*
X28558999Y48619181D01*
X28560537Y48619742D01*
X28582716Y48623030D01*
X28725573Y48670649D01*
X28729085Y48673437D01*
X28733552Y48673827D01*
X28754889Y48688767D01*
X28850128Y48784007D01*
X28850819Y48785490D01*
X28864176Y48803498D01*
X28911795Y48898736D01*
X28912201Y48902265D01*
X28917474Y48914087D01*
X28965093Y49104563D01*
X28964732Y49108012D01*
X28967332Y49122753D01*
X28967332Y49265610D01*
X28966146Y49268868D01*
X28965093Y49283800D01*
X28917474Y49474276D01*
X28915485Y49477221D01*
X28911795Y49489627D01*
X28864176Y49584865D01*
X28862989Y49585989D01*
X28850127Y49604357D01*
X28754889Y49699595D01*
X28750825Y49701490D01*
X28748478Y49705311D01*
X28725573Y49717713D01*
X28582716Y49765332D01*
X28581081Y49765288D01*
X28558999Y49769181D01*
X28416142Y49769181D01*
X28411928Y49767648D01*
X28407567Y49768689D01*
X28382601Y49761263D01*
X28287363Y49713644D01*
X28252091Y49676390D01*
X28249016Y49625179D01*
X28279580Y49583974D01*
X28329478Y49572054D01*
X28354445Y49579480D01*
X28433847Y49619181D01*
X28546829Y49619181D01*
X28661342Y49581010D01*
X28735455Y49506897D01*
X28773948Y49429910D01*
X28817332Y49256376D01*
X28817332Y49131987D01*
X28773948Y48958453D01*
X28735454Y48881466D01*
X28661342Y48807353D01*
X28546829Y48769181D01*
X28475931Y48769181D01*
X28361418Y48807352D01*
X28348285Y48820486D01*
X28348285Y49047753D01*
X28463761Y49047753D01*
X28511970Y49065300D01*
X28537622Y49109729D01*
X28528713Y49160253D01*
X28489413Y49193230D01*
X28463761Y49197753D01*
X28273285Y49197753D01*
X28254976Y49191090D01*
X28235785Y49187705D01*
X28231434Y49182521D01*
X28225076Y49180206D01*
X28215333Y49163333D01*
X28202808Y49148405D01*
X28201090Y49138663D01*
X28199424Y49135777D01*
X28200002Y49132495D01*
X28198285Y49122753D01*
X28198285Y48789420D01*
X27919713Y48789420D01*
X27919713Y49694181D01*
X27917340Y49700699D01*
X27918515Y49707534D01*
X27908775Y49724232D01*
X27902166Y49742390D01*
X27896161Y49745858D01*
X27892666Y49751849D01*
X27874474Y49758379D01*
X27857737Y49768042D01*
X27850905Y49766838D01*
X27844379Y49769180D01*
X27826247Y49762490D01*
X27807213Y49759133D01*
X27802755Y49753821D01*
X27796249Y49751420D01*
X27779595Y49731392D01*
X27348285Y48976598D01*
X27348285Y49694181D01*
X27330738Y49742390D01*
X27286309Y49768042D01*
X27235785Y49759133D01*
X27202808Y49719833D01*
X27198285Y49694181D01*
X27198285Y48694181D01*
X26872094Y48694181D01*
X26872094Y49694181D01*
X26865430Y49712490D01*
X26862046Y49731681D01*
X26856861Y49736032D01*
X26854547Y49742390D01*
X26837673Y49752133D01*
X26822746Y49764658D01*
X26813003Y49766376D01*
X26810118Y49768042D01*
X26806835Y49767464D01*
X26797094Y49769181D01*
X26558999Y49769181D01*
X26557461Y49768622D01*
X26535281Y49765332D01*
X26392425Y49717713D01*
X26388914Y49714927D01*
X26384446Y49714536D01*
X26363109Y49699595D01*
X26267871Y49604357D01*
X26267180Y49602876D01*
X26253822Y49584865D01*
X26206203Y49489627D01*
X26205796Y49486099D01*
X26200524Y49474276D01*
X26152905Y49283800D01*
X26153265Y49280352D01*
X26150666Y49265610D01*
X26150666Y49122753D01*
X26007809Y49122753D01*
X26007809Y49912038D01*
X29110189Y49912038D01*
X29110189Y48476324D01*
G37*
G36*
X10313694Y10973981D02*
G01*
X10162769Y10973981D01*
X10048256Y11012152D01*
X9974143Y11086266D01*
X9935649Y11163253D01*
X9892266Y11336787D01*
X9892266Y11461176D01*
X9935649Y11634710D01*
X9974143Y11711697D01*
X10048256Y11785810D01*
X10162769Y11823981D01*
X10313694Y11823981D01*
X10313694Y10973981D01*
G37*
G36*
X12701789Y10681124D02*
G01*
X9599409Y10681124D01*
X9599409Y11327553D01*
X9742266Y11327553D01*
X9743451Y11324296D01*
X9744505Y11309363D01*
X9792124Y11118887D01*
X9794112Y11115943D01*
X9797803Y11103536D01*
X9845422Y11008298D01*
X9846608Y11007175D01*
X9859471Y10988806D01*
X9954709Y10893567D01*
X9958773Y10891672D01*
X9961120Y10887852D01*
X9984025Y10875449D01*
X10126881Y10827830D01*
X10128516Y10827875D01*
X10150599Y10823981D01*
X10388694Y10823981D01*
X10407002Y10830645D01*
X10426194Y10834029D01*
X10430544Y10839214D01*
X10436903Y10841528D01*
X10446645Y10858402D01*
X10459171Y10873329D01*
X10460888Y10883072D01*
X10462555Y10885957D01*
X10461976Y10889240D01*
X10463694Y10898981D01*
X10789885Y10898981D01*
X10792256Y10892465D01*
X10791083Y10885629D01*
X10800822Y10868932D01*
X10807432Y10850772D01*
X10813437Y10847305D01*
X10816932Y10841313D01*
X10835123Y10834784D01*
X10851861Y10825120D01*
X10858692Y10826325D01*
X10865219Y10823982D01*
X10883350Y10830673D01*
X10902385Y10834029D01*
X10906842Y10839342D01*
X10913349Y10841742D01*
X10930003Y10861771D01*
X11361313Y11616565D01*
X11361313Y10898981D01*
X11378860Y10850772D01*
X11423289Y10825120D01*
X11473813Y10834029D01*
X11506790Y10873329D01*
X11511313Y10898981D01*
X11511313Y10994220D01*
X11789885Y10994220D01*
X11795484Y10978837D01*
X11796911Y10962525D01*
X11806303Y10949111D01*
X11807432Y10946011D01*
X11809181Y10945002D01*
X11811851Y10941188D01*
X11859470Y10893568D01*
X11863534Y10891673D01*
X11865882Y10887852D01*
X11888787Y10875449D01*
X12031643Y10827830D01*
X12033278Y10827875D01*
X12055361Y10823981D01*
X12150599Y10823981D01*
X12152137Y10824542D01*
X12174316Y10827830D01*
X12317173Y10875449D01*
X12320685Y10878237D01*
X12325152Y10878627D01*
X12346489Y10893567D01*
X12441728Y10988807D01*
X12442419Y10990290D01*
X12455776Y11008298D01*
X12503395Y11103536D01*
X12503801Y11107065D01*
X12509074Y11118887D01*
X12556693Y11309363D01*
X12556332Y11312812D01*
X12558932Y11327553D01*
X12558932Y11470410D01*
X12557746Y11473668D01*
X12556693Y11488600D01*
X12509074Y11679076D01*
X12507085Y11682021D01*
X12503395Y11694427D01*
X12455776Y11789665D01*
X12454589Y11790789D01*
X12441727Y11809157D01*
X12346489Y11904395D01*
X12342425Y11906290D01*
X12340078Y11910111D01*
X12317173Y11922513D01*
X12174316Y11970132D01*
X12172681Y11970088D01*
X12150599Y11973981D01*
X12007742Y11973981D01*
X12003528Y11972448D01*
X11999167Y11973489D01*
X11974201Y11966063D01*
X11878963Y11918444D01*
X11843691Y11881190D01*
X11840616Y11829979D01*
X11871180Y11788774D01*
X11921078Y11776854D01*
X11946045Y11784280D01*
X12025447Y11823981D01*
X12138429Y11823981D01*
X12252942Y11785810D01*
X12327055Y11711697D01*
X12365548Y11634710D01*
X12408932Y11461176D01*
X12408932Y11336787D01*
X12365548Y11163253D01*
X12327054Y11086266D01*
X12252942Y11012153D01*
X12138429Y10973981D01*
X12067531Y10973981D01*
X11953018Y11012152D01*
X11939885Y11025286D01*
X11939885Y11252553D01*
X12055361Y11252553D01*
X12103570Y11270100D01*
X12129222Y11314529D01*
X12120313Y11365053D01*
X12081013Y11398030D01*
X12055361Y11402553D01*
X11864885Y11402553D01*
X11846576Y11395890D01*
X11827385Y11392505D01*
X11823034Y11387321D01*
X11816676Y11385006D01*
X11806933Y11368133D01*
X11794408Y11353205D01*
X11792690Y11343463D01*
X11791024Y11340577D01*
X11791602Y11337295D01*
X11789885Y11327553D01*
X11789885Y10994220D01*
X11511313Y10994220D01*
X11511313Y11898981D01*
X11508940Y11905499D01*
X11510115Y11912334D01*
X11500375Y11929032D01*
X11493766Y11947190D01*
X11487761Y11950658D01*
X11484266Y11956649D01*
X11466074Y11963179D01*
X11449337Y11972842D01*
X11442505Y11971638D01*
X11435979Y11973980D01*
X11417847Y11967290D01*
X11398813Y11963933D01*
X11394355Y11958621D01*
X11387849Y11956220D01*
X11371195Y11936192D01*
X10939885Y11181398D01*
X10939885Y11898981D01*
X10922338Y11947190D01*
X10877909Y11972842D01*
X10827385Y11963933D01*
X10794408Y11924633D01*
X10789885Y11898981D01*
X10789885Y10898981D01*
X10463694Y10898981D01*
X10463694Y11898981D01*
X10457030Y11917290D01*
X10453646Y11936481D01*
X10448461Y11940832D01*
X10446147Y11947190D01*
X10429273Y11956933D01*
X10414346Y11969458D01*
X10404603Y11971176D01*
X10401718Y11972842D01*
X10398435Y11972264D01*
X10388694Y11973981D01*
X10150599Y11973981D01*
X10149061Y11973422D01*
X10126881Y11970132D01*
X9984025Y11922513D01*
X9980514Y11919727D01*
X9976046Y11919336D01*
X9954709Y11904395D01*
X9859471Y11809157D01*
X9858780Y11807676D01*
X9845422Y11789665D01*
X9797803Y11694427D01*
X9797396Y11690899D01*
X9792124Y11679076D01*
X9744505Y11488600D01*
X9744865Y11485152D01*
X9742266Y11470410D01*
X9742266Y11327553D01*
X9599409Y11327553D01*
X9599409Y12116838D01*
X12701789Y12116838D01*
X12701789Y10681124D01*
G37*
G36*
X38028905Y1709019D02*
G01*
X37155094Y1709019D01*
X37155094Y1974496D01*
X37269380Y1974496D01*
X37274979Y1959112D01*
X37276407Y1942800D01*
X37285798Y1929388D01*
X37286927Y1926287D01*
X37288676Y1925277D01*
X37291347Y1921463D01*
X37329443Y1883367D01*
X37333507Y1881472D01*
X37335854Y1877652D01*
X37358759Y1865249D01*
X37473044Y1827154D01*
X37474678Y1827199D01*
X37496761Y1823305D01*
X37572952Y1823305D01*
X37574490Y1823866D01*
X37596669Y1827154D01*
X37710955Y1865249D01*
X37714466Y1868037D01*
X37718935Y1868427D01*
X37740271Y1883367D01*
X37816462Y1959559D01*
X37817153Y1961042D01*
X37830510Y1979050D01*
X37868605Y2055240D01*
X37869010Y2058767D01*
X37874284Y2070590D01*
X37912380Y2222972D01*
X37912019Y2226421D01*
X37914619Y2241162D01*
X37914619Y2355448D01*
X37913433Y2358706D01*
X37912380Y2373638D01*
X37874284Y2526020D01*
X37872295Y2528964D01*
X37868605Y2541370D01*
X37830510Y2617561D01*
X37829323Y2618685D01*
X37816461Y2637053D01*
X37740271Y2713243D01*
X37736207Y2715138D01*
X37733860Y2718959D01*
X37710955Y2731361D01*
X37596669Y2769456D01*
X37595034Y2769412D01*
X37572952Y2773305D01*
X37458666Y2773305D01*
X37454452Y2771772D01*
X37450092Y2772813D01*
X37425125Y2765387D01*
X37348935Y2727292D01*
X37313663Y2690038D01*
X37310588Y2638827D01*
X37341152Y2597622D01*
X37391050Y2585702D01*
X37416017Y2593128D01*
X37476371Y2623305D01*
X37560782Y2623305D01*
X37646724Y2594658D01*
X37701788Y2539594D01*
X37730758Y2481655D01*
X37764619Y2346213D01*
X37764619Y2250398D01*
X37730758Y2114957D01*
X37701788Y2057018D01*
X37646723Y2001952D01*
X37560782Y1973305D01*
X37508931Y1973305D01*
X37422990Y2001952D01*
X37419380Y2005562D01*
X37419380Y2166162D01*
X37496761Y2166162D01*
X37544970Y2183709D01*
X37570622Y2228138D01*
X37561713Y2278662D01*
X37522413Y2311639D01*
X37496761Y2316162D01*
X37344380Y2316162D01*
X37326071Y2309499D01*
X37306880Y2306114D01*
X37302529Y2300930D01*
X37296171Y2298615D01*
X37286428Y2281742D01*
X37273903Y2266814D01*
X37272185Y2257072D01*
X37270519Y2254186D01*
X37271097Y2250904D01*
X37269380Y2241162D01*
X37269380Y1974496D01*
X37155094Y1974496D01*
X37155094Y2887591D01*
X38028905Y2887591D01*
X38028905Y1709019D01*
G37*
G36*
X30786094Y54865181D02*
G01*
X30635169Y54865181D01*
X30520656Y54903352D01*
X30446543Y54977466D01*
X30408049Y55054453D01*
X30364666Y55227987D01*
X30364666Y55352376D01*
X30408049Y55525910D01*
X30446543Y55602897D01*
X30520656Y55677010D01*
X30635169Y55715181D01*
X30786094Y55715181D01*
X30786094Y54865181D01*
G37*
G36*
X33174189Y54572324D02*
G01*
X30071809Y54572324D01*
X30071809Y55218753D01*
X30214666Y55218753D01*
X30215851Y55215496D01*
X30216905Y55200563D01*
X30264524Y55010087D01*
X30266512Y55007143D01*
X30270203Y54994736D01*
X30317822Y54899498D01*
X30319008Y54898375D01*
X30331871Y54880006D01*
X30427109Y54784767D01*
X30431173Y54782872D01*
X30433520Y54779052D01*
X30456425Y54766649D01*
X30599281Y54719030D01*
X30600916Y54719075D01*
X30622999Y54715181D01*
X30861094Y54715181D01*
X30879402Y54721845D01*
X30898594Y54725229D01*
X30902944Y54730414D01*
X30909303Y54732728D01*
X30919045Y54749602D01*
X30931571Y54764529D01*
X30933288Y54774272D01*
X30934955Y54777157D01*
X30934376Y54780440D01*
X30936094Y54790181D01*
X31262285Y54790181D01*
X31264656Y54783665D01*
X31263483Y54776829D01*
X31273222Y54760132D01*
X31279832Y54741972D01*
X31285837Y54738505D01*
X31289332Y54732513D01*
X31307523Y54725984D01*
X31324261Y54716320D01*
X31331092Y54717525D01*
X31337619Y54715182D01*
X31355750Y54721873D01*
X31374785Y54725229D01*
X31379242Y54730542D01*
X31385749Y54732942D01*
X31402403Y54752971D01*
X31833713Y55507765D01*
X31833713Y54790181D01*
X31851260Y54741972D01*
X31895689Y54716320D01*
X31946213Y54725229D01*
X31979190Y54764529D01*
X31983713Y54790181D01*
X31983713Y54885420D01*
X32262285Y54885420D01*
X32267884Y54870037D01*
X32269311Y54853725D01*
X32278703Y54840311D01*
X32279832Y54837211D01*
X32281581Y54836202D01*
X32284251Y54832388D01*
X32331870Y54784768D01*
X32335934Y54782873D01*
X32338282Y54779052D01*
X32361187Y54766649D01*
X32504043Y54719030D01*
X32505678Y54719075D01*
X32527761Y54715181D01*
X32622999Y54715181D01*
X32624537Y54715742D01*
X32646716Y54719030D01*
X32789573Y54766649D01*
X32793085Y54769437D01*
X32797552Y54769827D01*
X32818889Y54784767D01*
X32914128Y54880007D01*
X32914819Y54881490D01*
X32928176Y54899498D01*
X32975795Y54994736D01*
X32976201Y54998265D01*
X32981474Y55010087D01*
X33029093Y55200563D01*
X33028732Y55204012D01*
X33031332Y55218753D01*
X33031332Y55361610D01*
X33030146Y55364868D01*
X33029093Y55379800D01*
X32981474Y55570276D01*
X32979485Y55573221D01*
X32975795Y55585627D01*
X32928176Y55680865D01*
X32926989Y55681989D01*
X32914127Y55700357D01*
X32818889Y55795595D01*
X32814825Y55797490D01*
X32812478Y55801311D01*
X32789573Y55813713D01*
X32646716Y55861332D01*
X32645081Y55861288D01*
X32622999Y55865181D01*
X32480142Y55865181D01*
X32475928Y55863648D01*
X32471567Y55864689D01*
X32446601Y55857263D01*
X32351363Y55809644D01*
X32316091Y55772390D01*
X32313016Y55721179D01*
X32343580Y55679974D01*
X32393478Y55668054D01*
X32418445Y55675480D01*
X32497847Y55715181D01*
X32610829Y55715181D01*
X32725342Y55677010D01*
X32799455Y55602897D01*
X32837948Y55525910D01*
X32881332Y55352376D01*
X32881332Y55227987D01*
X32837948Y55054453D01*
X32799454Y54977466D01*
X32725342Y54903353D01*
X32610829Y54865181D01*
X32539931Y54865181D01*
X32425418Y54903352D01*
X32412285Y54916486D01*
X32412285Y55143753D01*
X32527761Y55143753D01*
X32575970Y55161300D01*
X32601622Y55205729D01*
X32592713Y55256253D01*
X32553413Y55289230D01*
X32527761Y55293753D01*
X32337285Y55293753D01*
X32318976Y55287090D01*
X32299785Y55283705D01*
X32295434Y55278521D01*
X32289076Y55276206D01*
X32279333Y55259333D01*
X32266808Y55244405D01*
X32265090Y55234663D01*
X32263424Y55231777D01*
X32264002Y55228495D01*
X32262285Y55218753D01*
X32262285Y54885420D01*
X31983713Y54885420D01*
X31983713Y55790181D01*
X31981340Y55796699D01*
X31982515Y55803534D01*
X31972775Y55820232D01*
X31966166Y55838390D01*
X31960161Y55841858D01*
X31956666Y55847849D01*
X31938474Y55854379D01*
X31921737Y55864042D01*
X31914905Y55862838D01*
X31908379Y55865180D01*
X31890247Y55858490D01*
X31871213Y55855133D01*
X31866755Y55849821D01*
X31860249Y55847420D01*
X31843595Y55827392D01*
X31412285Y55072598D01*
X31412285Y55790181D01*
X31394738Y55838390D01*
X31350309Y55864042D01*
X31299785Y55855133D01*
X31266808Y55815833D01*
X31262285Y55790181D01*
X31262285Y54790181D01*
X30936094Y54790181D01*
X30936094Y55790181D01*
X30929430Y55808490D01*
X30926046Y55827681D01*
X30920861Y55832032D01*
X30918547Y55838390D01*
X30901673Y55848133D01*
X30886746Y55860658D01*
X30877003Y55862376D01*
X30874118Y55864042D01*
X30870835Y55863464D01*
X30861094Y55865181D01*
X30622999Y55865181D01*
X30621461Y55864622D01*
X30599281Y55861332D01*
X30456425Y55813713D01*
X30452914Y55810927D01*
X30448446Y55810536D01*
X30427109Y55795595D01*
X30331871Y55700357D01*
X30331180Y55698876D01*
X30317822Y55680865D01*
X30270203Y55585627D01*
X30269796Y55582099D01*
X30264524Y55570276D01*
X30216905Y55379800D01*
X30217265Y55376352D01*
X30214666Y55361610D01*
X30214666Y55218753D01*
X30071809Y55218753D01*
X30071809Y56008038D01*
X33174189Y56008038D01*
X33174189Y54572324D01*
G37*
X17424380Y2749105D02*
X17805332Y2749105D01*
X17805332Y2749105D02*
X17843428Y2368153D01*
X17843428Y2368153D02*
X17805332Y2406248D01*
X17805332Y2406248D02*
X17729142Y2444343D01*
X17729142Y2444343D02*
X17538666Y2444343D01*
X17538666Y2444343D02*
X17462475Y2406248D01*
X17462475Y2406248D02*
X17424380Y2368153D01*
X17424380Y2368153D02*
X17386285Y2291962D01*
X17386285Y2291962D02*
X17386285Y2101486D01*
X17386285Y2101486D02*
X17424380Y2025296D01*
X17424380Y2025296D02*
X17462475Y1987200D01*
X17462475Y1987200D02*
X17538666Y1949105D01*
X17538666Y1949105D02*
X17729142Y1949105D01*
X17729142Y1949105D02*
X17805332Y1987200D01*
X17805332Y1987200D02*
X17843428Y2025296D01*
X17157713Y2749105D02*
X16891046Y1949105D01*
X16891046Y1949105D02*
X16624380Y2749105D01*
X5826047Y10898981D02*
X6397475Y10898981D01*
X6111761Y10898981D02*
X6111761Y11898981D01*
X6111761Y11898981D02*
X6206999Y11756124D01*
X6206999Y11756124D02*
X6302237Y11660886D01*
X6302237Y11660886D02*
X6397475Y11613267D01*
X5445094Y11803743D02*
X5397475Y11851362D01*
X5397475Y11851362D02*
X5302237Y11898981D01*
X5302237Y11898981D02*
X5064142Y11898981D01*
X5064142Y11898981D02*
X4968904Y11851362D01*
X4968904Y11851362D02*
X4921285Y11803743D01*
X4921285Y11803743D02*
X4873666Y11708505D01*
X4873666Y11708505D02*
X4873666Y11613267D01*
X4873666Y11613267D02*
X4921285Y11470410D01*
X4921285Y11470410D02*
X5492713Y10898981D01*
X5492713Y10898981D02*
X4873666Y10898981D01*
X4587951Y11898981D02*
X4254618Y10898981D01*
X4254618Y10898981D02*
X3921285Y11898981D01*
G36*
X26722094Y13717181D02*
G01*
X26571169Y13717181D01*
X26456656Y13755352D01*
X26382543Y13829466D01*
X26344049Y13906453D01*
X26300666Y14079987D01*
X26300666Y14204376D01*
X26344049Y14377910D01*
X26382543Y14454897D01*
X26456656Y14529010D01*
X26571169Y14567181D01*
X26722094Y14567181D01*
X26722094Y13717181D01*
G37*
G36*
X29110189Y13424324D02*
G01*
X26007809Y13424324D01*
X26007809Y14070753D01*
X26150666Y14070753D01*
X26151851Y14067496D01*
X26152905Y14052563D01*
X26200524Y13862087D01*
X26202512Y13859143D01*
X26206203Y13846736D01*
X26253822Y13751498D01*
X26255008Y13750375D01*
X26267871Y13732006D01*
X26363109Y13636767D01*
X26367173Y13634872D01*
X26369520Y13631052D01*
X26392425Y13618649D01*
X26535281Y13571030D01*
X26536916Y13571075D01*
X26558999Y13567181D01*
X26797094Y13567181D01*
X26815402Y13573845D01*
X26834594Y13577229D01*
X26838944Y13582414D01*
X26845303Y13584728D01*
X26855045Y13601602D01*
X26867571Y13616529D01*
X26869288Y13626272D01*
X26870955Y13629157D01*
X26870376Y13632440D01*
X26872094Y13642181D01*
X27198285Y13642181D01*
X27200656Y13635665D01*
X27199483Y13628829D01*
X27209222Y13612132D01*
X27215832Y13593972D01*
X27221837Y13590505D01*
X27225332Y13584513D01*
X27243523Y13577984D01*
X27260261Y13568320D01*
X27267092Y13569525D01*
X27273619Y13567182D01*
X27291750Y13573873D01*
X27310785Y13577229D01*
X27315242Y13582542D01*
X27321749Y13584942D01*
X27338403Y13604971D01*
X27769713Y14359765D01*
X27769713Y13642181D01*
X27787260Y13593972D01*
X27831689Y13568320D01*
X27882213Y13577229D01*
X27915190Y13616529D01*
X27919713Y13642181D01*
X27919713Y13737420D01*
X28198285Y13737420D01*
X28203884Y13722037D01*
X28205311Y13705725D01*
X28214703Y13692311D01*
X28215832Y13689211D01*
X28217581Y13688202D01*
X28220251Y13684388D01*
X28267870Y13636768D01*
X28271934Y13634873D01*
X28274282Y13631052D01*
X28297187Y13618649D01*
X28440043Y13571030D01*
X28441678Y13571075D01*
X28463761Y13567181D01*
X28558999Y13567181D01*
X28560537Y13567742D01*
X28582716Y13571030D01*
X28725573Y13618649D01*
X28729085Y13621437D01*
X28733552Y13621827D01*
X28754889Y13636767D01*
X28850128Y13732007D01*
X28850819Y13733490D01*
X28864176Y13751498D01*
X28911795Y13846736D01*
X28912201Y13850265D01*
X28917474Y13862087D01*
X28965093Y14052563D01*
X28964732Y14056012D01*
X28967332Y14070753D01*
X28967332Y14213610D01*
X28966146Y14216868D01*
X28965093Y14231800D01*
X28917474Y14422276D01*
X28915485Y14425221D01*
X28911795Y14437627D01*
X28864176Y14532865D01*
X28862989Y14533989D01*
X28850127Y14552357D01*
X28754889Y14647595D01*
X28750825Y14649490D01*
X28748478Y14653311D01*
X28725573Y14665713D01*
X28582716Y14713332D01*
X28581081Y14713288D01*
X28558999Y14717181D01*
X28416142Y14717181D01*
X28411928Y14715648D01*
X28407567Y14716689D01*
X28382601Y14709263D01*
X28287363Y14661644D01*
X28252091Y14624390D01*
X28249016Y14573179D01*
X28279580Y14531974D01*
X28329478Y14520054D01*
X28354445Y14527480D01*
X28433847Y14567181D01*
X28546829Y14567181D01*
X28661342Y14529010D01*
X28735455Y14454897D01*
X28773948Y14377910D01*
X28817332Y14204376D01*
X28817332Y14079987D01*
X28773948Y13906453D01*
X28735454Y13829466D01*
X28661342Y13755353D01*
X28546829Y13717181D01*
X28475931Y13717181D01*
X28361418Y13755352D01*
X28348285Y13768486D01*
X28348285Y13995753D01*
X28463761Y13995753D01*
X28511970Y14013300D01*
X28537622Y14057729D01*
X28528713Y14108253D01*
X28489413Y14141230D01*
X28463761Y14145753D01*
X28273285Y14145753D01*
X28254976Y14139090D01*
X28235785Y14135705D01*
X28231434Y14130521D01*
X28225076Y14128206D01*
X28215333Y14111333D01*
X28202808Y14096405D01*
X28201090Y14086663D01*
X28199424Y14083777D01*
X28200002Y14080495D01*
X28198285Y14070753D01*
X28198285Y13737420D01*
X27919713Y13737420D01*
X27919713Y14642181D01*
X27917340Y14648699D01*
X27918515Y14655534D01*
X27908775Y14672232D01*
X27902166Y14690390D01*
X27896161Y14693858D01*
X27892666Y14699849D01*
X27874474Y14706379D01*
X27857737Y14716042D01*
X27850905Y14714838D01*
X27844379Y14717180D01*
X27826247Y14710490D01*
X27807213Y14707133D01*
X27802755Y14701821D01*
X27796249Y14699420D01*
X27779595Y14679392D01*
X27348285Y13924598D01*
X27348285Y14642181D01*
X27330738Y14690390D01*
X27286309Y14716042D01*
X27235785Y14707133D01*
X27202808Y14667833D01*
X27198285Y14642181D01*
X27198285Y13642181D01*
X26872094Y13642181D01*
X26872094Y14642181D01*
X26865430Y14660490D01*
X26862046Y14679681D01*
X26856861Y14684032D01*
X26854547Y14690390D01*
X26837673Y14700133D01*
X26822746Y14712658D01*
X26813003Y14714376D01*
X26810118Y14716042D01*
X26806835Y14715464D01*
X26797094Y14717181D01*
X26558999Y14717181D01*
X26557461Y14716622D01*
X26535281Y14713332D01*
X26392425Y14665713D01*
X26388914Y14662927D01*
X26384446Y14662536D01*
X26363109Y14647595D01*
X26267871Y14552357D01*
X26267180Y14550876D01*
X26253822Y14532865D01*
X26206203Y14437627D01*
X26205796Y14434099D01*
X26200524Y14422276D01*
X26152905Y14231800D01*
X26153265Y14228352D01*
X26150666Y14213610D01*
X26150666Y14070753D01*
X26007809Y14070753D01*
X26007809Y14860038D01*
X29110189Y14860038D01*
X29110189Y13424324D01*
G37*
G36*
X37771094Y40133181D02*
G01*
X37620169Y40133181D01*
X37505656Y40171352D01*
X37431543Y40245466D01*
X37393049Y40322453D01*
X37349666Y40495987D01*
X37349666Y40620376D01*
X37393049Y40793910D01*
X37431543Y40870897D01*
X37505656Y40945010D01*
X37620169Y40983181D01*
X37771094Y40983181D01*
X37771094Y40133181D01*
G37*
G36*
X40159189Y39840324D02*
G01*
X37056809Y39840324D01*
X37056809Y40486753D01*
X37199666Y40486753D01*
X37200851Y40483496D01*
X37201905Y40468563D01*
X37249524Y40278087D01*
X37251512Y40275143D01*
X37255203Y40262736D01*
X37302822Y40167498D01*
X37304008Y40166375D01*
X37316871Y40148006D01*
X37412109Y40052767D01*
X37416173Y40050872D01*
X37418520Y40047052D01*
X37441425Y40034649D01*
X37584281Y39987030D01*
X37585916Y39987075D01*
X37607999Y39983181D01*
X37846094Y39983181D01*
X37864402Y39989845D01*
X37883594Y39993229D01*
X37887944Y39998414D01*
X37894303Y40000728D01*
X37904045Y40017602D01*
X37916571Y40032529D01*
X37918288Y40042272D01*
X37919955Y40045157D01*
X37919376Y40048440D01*
X37921094Y40058181D01*
X38247285Y40058181D01*
X38249656Y40051665D01*
X38248483Y40044829D01*
X38258222Y40028132D01*
X38264832Y40009972D01*
X38270837Y40006505D01*
X38274332Y40000513D01*
X38292523Y39993984D01*
X38309261Y39984320D01*
X38316092Y39985525D01*
X38322619Y39983182D01*
X38340750Y39989873D01*
X38359785Y39993229D01*
X38364242Y39998542D01*
X38370749Y40000942D01*
X38387403Y40020971D01*
X38818713Y40775765D01*
X38818713Y40058181D01*
X38836260Y40009972D01*
X38880689Y39984320D01*
X38931213Y39993229D01*
X38964190Y40032529D01*
X38968713Y40058181D01*
X38968713Y40153420D01*
X39247285Y40153420D01*
X39252884Y40138037D01*
X39254311Y40121725D01*
X39263703Y40108311D01*
X39264832Y40105211D01*
X39266581Y40104202D01*
X39269251Y40100388D01*
X39316870Y40052768D01*
X39320934Y40050873D01*
X39323282Y40047052D01*
X39346187Y40034649D01*
X39489043Y39987030D01*
X39490678Y39987075D01*
X39512761Y39983181D01*
X39607999Y39983181D01*
X39609537Y39983742D01*
X39631716Y39987030D01*
X39774573Y40034649D01*
X39778085Y40037437D01*
X39782552Y40037827D01*
X39803889Y40052767D01*
X39899128Y40148007D01*
X39899819Y40149490D01*
X39913176Y40167498D01*
X39960795Y40262736D01*
X39961201Y40266265D01*
X39966474Y40278087D01*
X40014093Y40468563D01*
X40013732Y40472012D01*
X40016332Y40486753D01*
X40016332Y40629610D01*
X40015146Y40632868D01*
X40014093Y40647800D01*
X39966474Y40838276D01*
X39964485Y40841221D01*
X39960795Y40853627D01*
X39913176Y40948865D01*
X39911989Y40949989D01*
X39899127Y40968357D01*
X39803889Y41063595D01*
X39799825Y41065490D01*
X39797478Y41069311D01*
X39774573Y41081713D01*
X39631716Y41129332D01*
X39630081Y41129288D01*
X39607999Y41133181D01*
X39465142Y41133181D01*
X39460928Y41131648D01*
X39456567Y41132689D01*
X39431601Y41125263D01*
X39336363Y41077644D01*
X39301091Y41040390D01*
X39298016Y40989179D01*
X39328580Y40947974D01*
X39378478Y40936054D01*
X39403445Y40943480D01*
X39482847Y40983181D01*
X39595829Y40983181D01*
X39710342Y40945010D01*
X39784455Y40870897D01*
X39822948Y40793910D01*
X39866332Y40620376D01*
X39866332Y40495987D01*
X39822948Y40322453D01*
X39784454Y40245466D01*
X39710342Y40171353D01*
X39595829Y40133181D01*
X39524931Y40133181D01*
X39410418Y40171352D01*
X39397285Y40184486D01*
X39397285Y40411753D01*
X39512761Y40411753D01*
X39560970Y40429300D01*
X39586622Y40473729D01*
X39577713Y40524253D01*
X39538413Y40557230D01*
X39512761Y40561753D01*
X39322285Y40561753D01*
X39303976Y40555090D01*
X39284785Y40551705D01*
X39280434Y40546521D01*
X39274076Y40544206D01*
X39264333Y40527333D01*
X39251808Y40512405D01*
X39250090Y40502663D01*
X39248424Y40499777D01*
X39249002Y40496495D01*
X39247285Y40486753D01*
X39247285Y40153420D01*
X38968713Y40153420D01*
X38968713Y41058181D01*
X38966340Y41064699D01*
X38967515Y41071534D01*
X38957775Y41088232D01*
X38951166Y41106390D01*
X38945161Y41109858D01*
X38941666Y41115849D01*
X38923474Y41122379D01*
X38906737Y41132042D01*
X38899905Y41130838D01*
X38893379Y41133180D01*
X38875247Y41126490D01*
X38856213Y41123133D01*
X38851755Y41117821D01*
X38845249Y41115420D01*
X38828595Y41095392D01*
X38397285Y40340598D01*
X38397285Y41058181D01*
X38379738Y41106390D01*
X38335309Y41132042D01*
X38284785Y41123133D01*
X38251808Y41083833D01*
X38247285Y41058181D01*
X38247285Y40058181D01*
X37921094Y40058181D01*
X37921094Y41058181D01*
X37914430Y41076490D01*
X37911046Y41095681D01*
X37905861Y41100032D01*
X37903547Y41106390D01*
X37886673Y41116133D01*
X37871746Y41128658D01*
X37862003Y41130376D01*
X37859118Y41132042D01*
X37855835Y41131464D01*
X37846094Y41133181D01*
X37607999Y41133181D01*
X37606461Y41132622D01*
X37584281Y41129332D01*
X37441425Y41081713D01*
X37437914Y41078927D01*
X37433446Y41078536D01*
X37412109Y41063595D01*
X37316871Y40968357D01*
X37316180Y40966876D01*
X37302822Y40948865D01*
X37255203Y40853627D01*
X37254796Y40850099D01*
X37249524Y40838276D01*
X37201905Y40647800D01*
X37202265Y40644352D01*
X37199666Y40629610D01*
X37199666Y40486753D01*
X37056809Y40486753D01*
X37056809Y41276038D01*
X40159189Y41276038D01*
X40159189Y39840324D01*
G37*
X35204380Y2749105D02*
X35585332Y2749105D01*
X35585332Y2749105D02*
X35623428Y2368153D01*
X35623428Y2368153D02*
X35585332Y2406248D01*
X35585332Y2406248D02*
X35509142Y2444343D01*
X35509142Y2444343D02*
X35318666Y2444343D01*
X35318666Y2444343D02*
X35242475Y2406248D01*
X35242475Y2406248D02*
X35204380Y2368153D01*
X35204380Y2368153D02*
X35166285Y2291962D01*
X35166285Y2291962D02*
X35166285Y2101486D01*
X35166285Y2101486D02*
X35204380Y2025296D01*
X35204380Y2025296D02*
X35242475Y1987200D01*
X35242475Y1987200D02*
X35318666Y1949105D01*
X35318666Y1949105D02*
X35509142Y1949105D01*
X35509142Y1949105D02*
X35585332Y1987200D01*
X35585332Y1987200D02*
X35623428Y2025296D01*
X34937713Y2749105D02*
X34671046Y1949105D01*
X34671046Y1949105D02*
X34404380Y2749105D01*
X35440666Y8689181D02*
X35916856Y8689181D01*
X35916856Y8689181D02*
X35916856Y9689181D01*
X35107332Y8689181D02*
X35107332Y9689181D01*
X35107332Y9689181D02*
X34773999Y8974896D01*
X34773999Y8974896D02*
X34440666Y9689181D01*
X34440666Y9689181D02*
X34440666Y8689181D01*
X34012094Y9593943D02*
X33964475Y9641562D01*
X33964475Y9641562D02*
X33869237Y9689181D01*
X33869237Y9689181D02*
X33631142Y9689181D01*
X33631142Y9689181D02*
X33535904Y9641562D01*
X33535904Y9641562D02*
X33488285Y9593943D01*
X33488285Y9593943D02*
X33440666Y9498705D01*
X33440666Y9498705D02*
X33440666Y9403467D01*
X33440666Y9403467D02*
X33488285Y9260610D01*
X33488285Y9260610D02*
X34059713Y8689181D01*
X34059713Y8689181D02*
X33440666Y8689181D01*
X32535904Y9689181D02*
X33012094Y9689181D01*
X33012094Y9689181D02*
X33059713Y9212991D01*
X33059713Y9212991D02*
X33012094Y9260610D01*
X33012094Y9260610D02*
X32916856Y9308229D01*
X32916856Y9308229D02*
X32678761Y9308229D01*
X32678761Y9308229D02*
X32583523Y9260610D01*
X32583523Y9260610D02*
X32535904Y9212991D01*
X32535904Y9212991D02*
X32488285Y9117753D01*
X32488285Y9117753D02*
X32488285Y8879658D01*
X32488285Y8879658D02*
X32535904Y8784420D01*
X32535904Y8784420D02*
X32583523Y8736800D01*
X32583523Y8736800D02*
X32678761Y8689181D01*
X32678761Y8689181D02*
X32916856Y8689181D01*
X32916856Y8689181D02*
X33012094Y8736800D01*
X33012094Y8736800D02*
X33059713Y8784420D01*
X32012094Y8689181D02*
X31821618Y8689181D01*
X31821618Y8689181D02*
X31726380Y8736800D01*
X31726380Y8736800D02*
X31678761Y8784420D01*
X31678761Y8784420D02*
X31583523Y8927277D01*
X31583523Y8927277D02*
X31535904Y9117753D01*
X31535904Y9117753D02*
X31535904Y9498705D01*
X31535904Y9498705D02*
X31583523Y9593943D01*
X31583523Y9593943D02*
X31631142Y9641562D01*
X31631142Y9641562D02*
X31726380Y9689181D01*
X31726380Y9689181D02*
X31916856Y9689181D01*
X31916856Y9689181D02*
X32012094Y9641562D01*
X32012094Y9641562D02*
X32059713Y9593943D01*
X32059713Y9593943D02*
X32107332Y9498705D01*
X32107332Y9498705D02*
X32107332Y9260610D01*
X32107332Y9260610D02*
X32059713Y9165372D01*
X32059713Y9165372D02*
X32012094Y9117753D01*
X32012094Y9117753D02*
X31916856Y9070134D01*
X31916856Y9070134D02*
X31726380Y9070134D01*
X31726380Y9070134D02*
X31631142Y9117753D01*
X31631142Y9117753D02*
X31583523Y9165372D01*
X31583523Y9165372D02*
X31535904Y9260610D01*
X30678761Y9689181D02*
X30869237Y9689181D01*
X30869237Y9689181D02*
X30964475Y9641562D01*
X30964475Y9641562D02*
X31012094Y9593943D01*
X31012094Y9593943D02*
X31107332Y9451086D01*
X31107332Y9451086D02*
X31154951Y9260610D01*
X31154951Y9260610D02*
X31154951Y8879658D01*
X31154951Y8879658D02*
X31107332Y8784420D01*
X31107332Y8784420D02*
X31059713Y8736800D01*
X31059713Y8736800D02*
X30964475Y8689181D01*
X30964475Y8689181D02*
X30773999Y8689181D01*
X30773999Y8689181D02*
X30678761Y8736800D01*
X30678761Y8736800D02*
X30631142Y8784420D01*
X30631142Y8784420D02*
X30583523Y8879658D01*
X30583523Y8879658D02*
X30583523Y9117753D01*
X30583523Y9117753D02*
X30631142Y9212991D01*
X30631142Y9212991D02*
X30678761Y9260610D01*
X30678761Y9260610D02*
X30773999Y9308229D01*
X30773999Y9308229D02*
X30964475Y9308229D01*
X30964475Y9308229D02*
X31059713Y9260610D01*
X31059713Y9260610D02*
X31107332Y9212991D01*
X31107332Y9212991D02*
X31154951Y9117753D01*
X26314380Y2749105D02*
X26695332Y2749105D01*
X26695332Y2749105D02*
X26733428Y2368153D01*
X26733428Y2368153D02*
X26695332Y2406248D01*
X26695332Y2406248D02*
X26619142Y2444343D01*
X26619142Y2444343D02*
X26428666Y2444343D01*
X26428666Y2444343D02*
X26352475Y2406248D01*
X26352475Y2406248D02*
X26314380Y2368153D01*
X26314380Y2368153D02*
X26276285Y2291962D01*
X26276285Y2291962D02*
X26276285Y2101486D01*
X26276285Y2101486D02*
X26314380Y2025296D01*
X26314380Y2025296D02*
X26352475Y1987200D01*
X26352475Y1987200D02*
X26428666Y1949105D01*
X26428666Y1949105D02*
X26619142Y1949105D01*
X26619142Y1949105D02*
X26695332Y1987200D01*
X26695332Y1987200D02*
X26733428Y2025296D01*
X26047713Y2749105D02*
X25781046Y1949105D01*
X25781046Y1949105D02*
X25514380Y2749105D01*
X16113047Y54663181D02*
X16684475Y54663181D01*
X16398761Y54663181D02*
X16398761Y55663181D01*
X16398761Y55663181D02*
X16493999Y55520324D01*
X16493999Y55520324D02*
X16589237Y55425086D01*
X16589237Y55425086D02*
X16684475Y55377467D01*
X15732094Y55567943D02*
X15684475Y55615562D01*
X15684475Y55615562D02*
X15589237Y55663181D01*
X15589237Y55663181D02*
X15351142Y55663181D01*
X15351142Y55663181D02*
X15255904Y55615562D01*
X15255904Y55615562D02*
X15208285Y55567943D01*
X15208285Y55567943D02*
X15160666Y55472705D01*
X15160666Y55472705D02*
X15160666Y55377467D01*
X15160666Y55377467D02*
X15208285Y55234610D01*
X15208285Y55234610D02*
X15779713Y54663181D01*
X15779713Y54663181D02*
X15160666Y54663181D01*
X14874951Y55663181D02*
X14541618Y54663181D01*
X14541618Y54663181D02*
X14208285Y55663181D01*
X35123190Y16563181D02*
X35456523Y17039372D01*
X35694618Y16563181D02*
X35694618Y17563181D01*
X35694618Y17563181D02*
X35313666Y17563181D01*
X35313666Y17563181D02*
X35218428Y17515562D01*
X35218428Y17515562D02*
X35170809Y17467943D01*
X35170809Y17467943D02*
X35123190Y17372705D01*
X35123190Y17372705D02*
X35123190Y17229848D01*
X35123190Y17229848D02*
X35170809Y17134610D01*
X35170809Y17134610D02*
X35218428Y17086991D01*
X35218428Y17086991D02*
X35313666Y17039372D01*
X35313666Y17039372D02*
X35694618Y17039372D01*
X34837475Y17563181D02*
X34266047Y17563181D01*
X34551761Y16563181D02*
X34551761Y17563181D01*
X33789856Y17134610D02*
X33885094Y17182229D01*
X33885094Y17182229D02*
X33932713Y17229848D01*
X33932713Y17229848D02*
X33980332Y17325086D01*
X33980332Y17325086D02*
X33980332Y17372705D01*
X33980332Y17372705D02*
X33932713Y17467943D01*
X33932713Y17467943D02*
X33885094Y17515562D01*
X33885094Y17515562D02*
X33789856Y17563181D01*
X33789856Y17563181D02*
X33599380Y17563181D01*
X33599380Y17563181D02*
X33504142Y17515562D01*
X33504142Y17515562D02*
X33456523Y17467943D01*
X33456523Y17467943D02*
X33408904Y17372705D01*
X33408904Y17372705D02*
X33408904Y17325086D01*
X33408904Y17325086D02*
X33456523Y17229848D01*
X33456523Y17229848D02*
X33504142Y17182229D01*
X33504142Y17182229D02*
X33599380Y17134610D01*
X33599380Y17134610D02*
X33789856Y17134610D01*
X33789856Y17134610D02*
X33885094Y17086991D01*
X33885094Y17086991D02*
X33932713Y17039372D01*
X33932713Y17039372D02*
X33980332Y16944134D01*
X33980332Y16944134D02*
X33980332Y16753658D01*
X33980332Y16753658D02*
X33932713Y16658420D01*
X33932713Y16658420D02*
X33885094Y16610800D01*
X33885094Y16610800D02*
X33789856Y16563181D01*
X33789856Y16563181D02*
X33599380Y16563181D01*
X33599380Y16563181D02*
X33504142Y16610800D01*
X33504142Y16610800D02*
X33456523Y16658420D01*
X33456523Y16658420D02*
X33408904Y16753658D01*
X33408904Y16753658D02*
X33408904Y16944134D01*
X33408904Y16944134D02*
X33456523Y17039372D01*
X33456523Y17039372D02*
X33504142Y17086991D01*
X33504142Y17086991D02*
X33599380Y17134610D01*
X33027951Y17467943D02*
X32980332Y17515562D01*
X32980332Y17515562D02*
X32885094Y17563181D01*
X32885094Y17563181D02*
X32646999Y17563181D01*
X32646999Y17563181D02*
X32551761Y17515562D01*
X32551761Y17515562D02*
X32504142Y17467943D01*
X32504142Y17467943D02*
X32456523Y17372705D01*
X32456523Y17372705D02*
X32456523Y17277467D01*
X32456523Y17277467D02*
X32504142Y17134610D01*
X32504142Y17134610D02*
X33075570Y16563181D01*
X33075570Y16563181D02*
X32456523Y16563181D01*
X31885094Y17134610D02*
X31980332Y17182229D01*
X31980332Y17182229D02*
X32027951Y17229848D01*
X32027951Y17229848D02*
X32075570Y17325086D01*
X32075570Y17325086D02*
X32075570Y17372705D01*
X32075570Y17372705D02*
X32027951Y17467943D01*
X32027951Y17467943D02*
X31980332Y17515562D01*
X31980332Y17515562D02*
X31885094Y17563181D01*
X31885094Y17563181D02*
X31694618Y17563181D01*
X31694618Y17563181D02*
X31599380Y17515562D01*
X31599380Y17515562D02*
X31551761Y17467943D01*
X31551761Y17467943D02*
X31504142Y17372705D01*
X31504142Y17372705D02*
X31504142Y17325086D01*
X31504142Y17325086D02*
X31551761Y17229848D01*
X31551761Y17229848D02*
X31599380Y17182229D01*
X31599380Y17182229D02*
X31694618Y17134610D01*
X31694618Y17134610D02*
X31885094Y17134610D01*
X31885094Y17134610D02*
X31980332Y17086991D01*
X31980332Y17086991D02*
X32027951Y17039372D01*
X32027951Y17039372D02*
X32075570Y16944134D01*
X32075570Y16944134D02*
X32075570Y16753658D01*
X32075570Y16753658D02*
X32027951Y16658420D01*
X32027951Y16658420D02*
X31980332Y16610800D01*
X31980332Y16610800D02*
X31885094Y16563181D01*
X31885094Y16563181D02*
X31694618Y16563181D01*
X31694618Y16563181D02*
X31599380Y16610800D01*
X31599380Y16610800D02*
X31551761Y16658420D01*
X31551761Y16658420D02*
X31504142Y16753658D01*
X31504142Y16753658D02*
X31504142Y16944134D01*
X31504142Y16944134D02*
X31551761Y17039372D01*
X31551761Y17039372D02*
X31599380Y17086991D01*
X31599380Y17086991D02*
X31694618Y17134610D01*
X31027951Y16563181D02*
X30837475Y16563181D01*
X30837475Y16563181D02*
X30742237Y16610800D01*
X30742237Y16610800D02*
X30694618Y16658420D01*
X30694618Y16658420D02*
X30599380Y16801277D01*
X30599380Y16801277D02*
X30551761Y16991753D01*
X30551761Y16991753D02*
X30551761Y17372705D01*
X30551761Y17372705D02*
X30599380Y17467943D01*
X30599380Y17467943D02*
X30646999Y17515562D01*
X30646999Y17515562D02*
X30742237Y17563181D01*
X30742237Y17563181D02*
X30932713Y17563181D01*
X30932713Y17563181D02*
X31027951Y17515562D01*
X31027951Y17515562D02*
X31075570Y17467943D01*
X31075570Y17467943D02*
X31123189Y17372705D01*
X31123189Y17372705D02*
X31123189Y17134610D01*
X31123189Y17134610D02*
X31075570Y17039372D01*
X31075570Y17039372D02*
X31027951Y16991753D01*
X31027951Y16991753D02*
X30932713Y16944134D01*
X30932713Y16944134D02*
X30742237Y16944134D01*
X30742237Y16944134D02*
X30646999Y16991753D01*
X30646999Y16991753D02*
X30599380Y17039372D01*
X30599380Y17039372D02*
X30551761Y17134610D01*
X27749476Y26326181D02*
X28225666Y26326181D01*
X28225666Y26326181D02*
X28273285Y25849991D01*
X28273285Y25849991D02*
X28225666Y25897610D01*
X28225666Y25897610D02*
X28130428Y25945229D01*
X28130428Y25945229D02*
X27892333Y25945229D01*
X27892333Y25945229D02*
X27797095Y25897610D01*
X27797095Y25897610D02*
X27749476Y25849991D01*
X27749476Y25849991D02*
X27701857Y25754753D01*
X27701857Y25754753D02*
X27701857Y25516658D01*
X27701857Y25516658D02*
X27749476Y25421420D01*
X27749476Y25421420D02*
X27797095Y25373800D01*
X27797095Y25373800D02*
X27892333Y25326181D01*
X27892333Y25326181D02*
X28130428Y25326181D01*
X28130428Y25326181D02*
X28225666Y25373800D01*
X28225666Y25373800D02*
X28273285Y25421420D01*
X27416142Y26326181D02*
X27082809Y25326181D01*
X27082809Y25326181D02*
X26749476Y26326181D01*
G36*
X37644094Y25655181D02*
G01*
X37493169Y25655181D01*
X37378656Y25693352D01*
X37304543Y25767466D01*
X37266049Y25844453D01*
X37222666Y26017987D01*
X37222666Y26142376D01*
X37266049Y26315910D01*
X37304543Y26392897D01*
X37378656Y26467010D01*
X37493169Y26505181D01*
X37644094Y26505181D01*
X37644094Y25655181D01*
G37*
G36*
X40032189Y25362324D02*
G01*
X36929809Y25362324D01*
X36929809Y26008753D01*
X37072666Y26008753D01*
X37073851Y26005496D01*
X37074905Y25990563D01*
X37122524Y25800087D01*
X37124512Y25797143D01*
X37128203Y25784736D01*
X37175822Y25689498D01*
X37177008Y25688375D01*
X37189871Y25670006D01*
X37285109Y25574767D01*
X37289173Y25572872D01*
X37291520Y25569052D01*
X37314425Y25556649D01*
X37457281Y25509030D01*
X37458916Y25509075D01*
X37480999Y25505181D01*
X37719094Y25505181D01*
X37737402Y25511845D01*
X37756594Y25515229D01*
X37760944Y25520414D01*
X37767303Y25522728D01*
X37777045Y25539602D01*
X37789571Y25554529D01*
X37791288Y25564272D01*
X37792955Y25567157D01*
X37792376Y25570440D01*
X37794094Y25580181D01*
X38120285Y25580181D01*
X38122656Y25573665D01*
X38121483Y25566829D01*
X38131222Y25550132D01*
X38137832Y25531972D01*
X38143837Y25528505D01*
X38147332Y25522513D01*
X38165523Y25515984D01*
X38182261Y25506320D01*
X38189092Y25507525D01*
X38195619Y25505182D01*
X38213750Y25511873D01*
X38232785Y25515229D01*
X38237242Y25520542D01*
X38243749Y25522942D01*
X38260403Y25542971D01*
X38691713Y26297765D01*
X38691713Y25580181D01*
X38709260Y25531972D01*
X38753689Y25506320D01*
X38804213Y25515229D01*
X38837190Y25554529D01*
X38841713Y25580181D01*
X38841713Y25675420D01*
X39120285Y25675420D01*
X39125884Y25660037D01*
X39127311Y25643725D01*
X39136703Y25630311D01*
X39137832Y25627211D01*
X39139581Y25626202D01*
X39142251Y25622388D01*
X39189870Y25574768D01*
X39193934Y25572873D01*
X39196282Y25569052D01*
X39219187Y25556649D01*
X39362043Y25509030D01*
X39363678Y25509075D01*
X39385761Y25505181D01*
X39480999Y25505181D01*
X39482537Y25505742D01*
X39504716Y25509030D01*
X39647573Y25556649D01*
X39651085Y25559437D01*
X39655552Y25559827D01*
X39676889Y25574767D01*
X39772128Y25670007D01*
X39772819Y25671490D01*
X39786176Y25689498D01*
X39833795Y25784736D01*
X39834201Y25788265D01*
X39839474Y25800087D01*
X39887093Y25990563D01*
X39886732Y25994012D01*
X39889332Y26008753D01*
X39889332Y26151610D01*
X39888146Y26154868D01*
X39887093Y26169800D01*
X39839474Y26360276D01*
X39837485Y26363221D01*
X39833795Y26375627D01*
X39786176Y26470865D01*
X39784989Y26471989D01*
X39772127Y26490357D01*
X39676889Y26585595D01*
X39672825Y26587490D01*
X39670478Y26591311D01*
X39647573Y26603713D01*
X39504716Y26651332D01*
X39503081Y26651288D01*
X39480999Y26655181D01*
X39338142Y26655181D01*
X39333928Y26653648D01*
X39329567Y26654689D01*
X39304601Y26647263D01*
X39209363Y26599644D01*
X39174091Y26562390D01*
X39171016Y26511179D01*
X39201580Y26469974D01*
X39251478Y26458054D01*
X39276445Y26465480D01*
X39355847Y26505181D01*
X39468829Y26505181D01*
X39583342Y26467010D01*
X39657455Y26392897D01*
X39695948Y26315910D01*
X39739332Y26142376D01*
X39739332Y26017987D01*
X39695948Y25844453D01*
X39657454Y25767466D01*
X39583342Y25693353D01*
X39468829Y25655181D01*
X39397931Y25655181D01*
X39283418Y25693352D01*
X39270285Y25706486D01*
X39270285Y25933753D01*
X39385761Y25933753D01*
X39433970Y25951300D01*
X39459622Y25995729D01*
X39450713Y26046253D01*
X39411413Y26079230D01*
X39385761Y26083753D01*
X39195285Y26083753D01*
X39176976Y26077090D01*
X39157785Y26073705D01*
X39153434Y26068521D01*
X39147076Y26066206D01*
X39137333Y26049333D01*
X39124808Y26034405D01*
X39123090Y26024663D01*
X39121424Y26021777D01*
X39122002Y26018495D01*
X39120285Y26008753D01*
X39120285Y25675420D01*
X38841713Y25675420D01*
X38841713Y26580181D01*
X38839340Y26586699D01*
X38840515Y26593534D01*
X38830775Y26610232D01*
X38824166Y26628390D01*
X38818161Y26631858D01*
X38814666Y26637849D01*
X38796474Y26644379D01*
X38779737Y26654042D01*
X38772905Y26652838D01*
X38766379Y26655180D01*
X38748247Y26648490D01*
X38729213Y26645133D01*
X38724755Y26639821D01*
X38718249Y26637420D01*
X38701595Y26617392D01*
X38270285Y25862598D01*
X38270285Y26580181D01*
X38252738Y26628390D01*
X38208309Y26654042D01*
X38157785Y26645133D01*
X38124808Y26605833D01*
X38120285Y26580181D01*
X38120285Y25580181D01*
X37794094Y25580181D01*
X37794094Y26580181D01*
X37787430Y26598490D01*
X37784046Y26617681D01*
X37778861Y26622032D01*
X37776547Y26628390D01*
X37759673Y26638133D01*
X37744746Y26650658D01*
X37735003Y26652376D01*
X37732118Y26654042D01*
X37728835Y26653464D01*
X37719094Y26655181D01*
X37480999Y26655181D01*
X37479461Y26654622D01*
X37457281Y26651332D01*
X37314425Y26603713D01*
X37310914Y26600927D01*
X37306446Y26600536D01*
X37285109Y26585595D01*
X37189871Y26490357D01*
X37189180Y26488876D01*
X37175822Y26470865D01*
X37128203Y26375627D01*
X37127796Y26372099D01*
X37122524Y26360276D01*
X37074905Y26169800D01*
X37075265Y26166352D01*
X37072666Y26151610D01*
X37072666Y26008753D01*
X36929809Y26008753D01*
X36929809Y26798038D01*
X40032189Y26798038D01*
X40032189Y25362324D01*
G37*
%LPC*%
D11*
%TO.C,DCDC3*%
X40254000Y46163000D03*
X37714000Y46163000D03*
X28794000Y46218000D03*
X26254000Y46218000D03*
X40269000Y17163000D03*
X37729000Y17163000D03*
X28794000Y17163000D03*
X26254000Y17163000D03*
%TD*%
%TO.C,DCDC1*%
X28996000Y42523000D03*
X26456000Y42523000D03*
X39856000Y42523000D03*
X37316000Y42523000D03*
X28996000Y24123000D03*
X26456000Y24123000D03*
X39856000Y24123000D03*
X37316000Y24123000D03*
%TD*%
D12*
%TO.C,DCDC2*%
X42074728Y49064717D03*
X24221890Y49055988D03*
X42069444Y9216627D03*
X24231217Y9207065D03*
%TD*%
D13*
%TO.C,JP1*%
X10287000Y18669000D03*
D14*
X12827000Y18669000D03*
%TD*%
D15*
%TO.C,J5*%
X5207000Y8559800D03*
D16*
X11207000Y8559800D03*
%TD*%
D17*
%TO.C,D2*%
X19329400Y48895000D03*
D18*
X19329400Y33655000D03*
%TD*%
D13*
%TO.C,J3*%
X19227800Y16129000D03*
D14*
X19227800Y18669000D03*
%TD*%
D19*
%TO.C,K1*%
X10541000Y37515800D03*
D20*
X10541000Y40055800D03*
X10541000Y47675800D03*
X5461000Y47675800D03*
X5461000Y40055800D03*
X5461000Y37515800D03*
%TD*%
D21*
%TO.C,J7*%
X17272000Y4191000D03*
D22*
X19772000Y4191000D03*
%TD*%
D23*
%TO.C,J1*%
X19595000Y55245000D03*
D24*
X27395000Y55245000D03*
%TD*%
D21*
%TO.C,J9*%
X35052000Y4191000D03*
D22*
X37552000Y4191000D03*
%TD*%
D21*
%TO.C,J8*%
X26182000Y4191000D03*
D22*
X28682000Y4191000D03*
%TD*%
D13*
%TO.C,JP2*%
X10287000Y16129000D03*
D14*
X12827000Y16129000D03*
%TD*%
D25*
%TO.C,K2*%
X8051800Y51689000D03*
D26*
X2001800Y49739000D03*
D25*
X2001800Y37539000D03*
X14051800Y37489000D03*
D26*
X14001800Y49739000D03*
%TD*%
D27*
%TO.C,J2*%
X5461000Y26187400D03*
D28*
X5461000Y23687400D03*
X5461000Y21187400D03*
X5461000Y18687400D03*
X5461000Y16187400D03*
%TD*%
%LPD*%
M02*
