%TF.GenerationSoftware,KiCad,Pcbnew,7.0.1*%
%TF.CreationDate,2023-03-25T18:58:35+09:00*%
%TF.ProjectId,rasp_power_module,72617370-5f70-46f7-9765-725f6d6f6475,3*%
%TF.SameCoordinates,PX74269e8PY6f4e628*%
%TF.FileFunction,Legend,Bot*%
%TF.FilePolarity,Positive*%
%FSLAX46Y46*%
G04 Gerber Fmt 4.6, Leading zero omitted, Abs format (unit mm)*
G04 Created by KiCad (PCBNEW 7.0.1) date 2023-03-25 18:58:35*
%MOMM*%
%LPD*%
G01*
G04 APERTURE LIST*
G04 Aperture macros list*
%AMRoundRect*
0 Rectangle with rounded corners*
0 $1 Rounding radius*
0 $2 $3 $4 $5 $6 $7 $8 $9 X,Y pos of 4 corners*
0 Add a 4 corners polygon primitive as box body*
4,1,4,$2,$3,$4,$5,$6,$7,$8,$9,$2,$3,0*
0 Add four circle primitives for the rounded corners*
1,1,$1+$1,$2,$3*
1,1,$1+$1,$4,$5*
1,1,$1+$1,$6,$7*
1,1,$1+$1,$8,$9*
0 Add four rect primitives between the rounded corners*
20,1,$1+$1,$2,$3,$4,$5,0*
20,1,$1+$1,$4,$5,$6,$7,0*
20,1,$1+$1,$6,$7,$8,$9,0*
20,1,$1+$1,$8,$9,$2,$3,0*%
G04 Aperture macros list end*
%ADD10C,0.150000*%
%ADD11C,1.524000*%
%ADD12R,3.000000X3.000000*%
%ADD13R,1.700000X1.700000*%
%ADD14O,1.700000X1.700000*%
%ADD15RoundRect,0.249999X-1.300001X-1.300001X1.300001X-1.300001X1.300001X1.300001X-1.300001X1.300001X0*%
%ADD16C,3.100000*%
%ADD17R,3.200000X3.200000*%
%ADD18O,3.200000X3.200000*%
%ADD19R,2.000000X2.000000*%
%ADD20C,2.000000*%
%ADD21RoundRect,0.250000X-0.600000X-0.750000X0.600000X-0.750000X0.600000X0.750000X-0.600000X0.750000X0*%
%ADD22O,1.700000X2.000000*%
%ADD23RoundRect,0.250002X-1.699998X-1.699998X1.699998X-1.699998X1.699998X1.699998X-1.699998X1.699998X0*%
%ADD24C,3.900000*%
%ADD25C,3.000000*%
%ADD26C,2.500000*%
%ADD27RoundRect,0.250000X-0.725000X0.600000X-0.725000X-0.600000X0.725000X-0.600000X0.725000X0.600000X0*%
%ADD28O,1.950000X1.700000*%
G04 APERTURE END LIST*
D10*
X24571247Y43961981D02*
X25142675Y43961981D01*
X24856961Y43961981D02*
X24856961Y44961981D01*
X24856961Y44961981D02*
X24952199Y44819124D01*
X24952199Y44819124D02*
X25047437Y44723886D01*
X25047437Y44723886D02*
X25142675Y44676267D01*
X24190294Y44866743D02*
X24142675Y44914362D01*
X24142675Y44914362D02*
X24047437Y44961981D01*
X24047437Y44961981D02*
X23809342Y44961981D01*
X23809342Y44961981D02*
X23714104Y44914362D01*
X23714104Y44914362D02*
X23666485Y44866743D01*
X23666485Y44866743D02*
X23618866Y44771505D01*
X23618866Y44771505D02*
X23618866Y44676267D01*
X23618866Y44676267D02*
X23666485Y44533410D01*
X23666485Y44533410D02*
X24237913Y43961981D01*
X24237913Y43961981D02*
X23618866Y43961981D01*
X23333151Y44961981D02*
X22999818Y43961981D01*
X22999818Y43961981D02*
X22666485Y44961981D01*
X26995095Y7268381D02*
X26804619Y7268381D01*
X26804619Y7268381D02*
X26709381Y7220762D01*
X26709381Y7220762D02*
X26614143Y7125524D01*
X26614143Y7125524D02*
X26566524Y6935048D01*
X26566524Y6935048D02*
X26566524Y6601715D01*
X26566524Y6601715D02*
X26614143Y6411239D01*
X26614143Y6411239D02*
X26709381Y6316000D01*
X26709381Y6316000D02*
X26804619Y6268381D01*
X26804619Y6268381D02*
X26995095Y6268381D01*
X26995095Y6268381D02*
X27090333Y6316000D01*
X27090333Y6316000D02*
X27185571Y6411239D01*
X27185571Y6411239D02*
X27233190Y6601715D01*
X27233190Y6601715D02*
X27233190Y6935048D01*
X27233190Y6935048D02*
X27185571Y7125524D01*
X27185571Y7125524D02*
X27090333Y7220762D01*
X27090333Y7220762D02*
X26995095Y7268381D01*
X25709381Y6935048D02*
X25709381Y6268381D01*
X26137952Y6935048D02*
X26137952Y6411239D01*
X26137952Y6411239D02*
X26090333Y6316000D01*
X26090333Y6316000D02*
X25995095Y6268381D01*
X25995095Y6268381D02*
X25852238Y6268381D01*
X25852238Y6268381D02*
X25757000Y6316000D01*
X25757000Y6316000D02*
X25709381Y6363620D01*
X25376047Y6935048D02*
X24995095Y6935048D01*
X25233190Y7268381D02*
X25233190Y6411239D01*
X25233190Y6411239D02*
X25185571Y6316000D01*
X25185571Y6316000D02*
X25090333Y6268381D01*
X25090333Y6268381D02*
X24995095Y6268381D01*
X24899857Y6173143D02*
X24137952Y6173143D01*
X23376047Y7220762D02*
X23471285Y7268381D01*
X23471285Y7268381D02*
X23614142Y7268381D01*
X23614142Y7268381D02*
X23756999Y7220762D01*
X23756999Y7220762D02*
X23852237Y7125524D01*
X23852237Y7125524D02*
X23899856Y7030286D01*
X23899856Y7030286D02*
X23947475Y6839810D01*
X23947475Y6839810D02*
X23947475Y6696953D01*
X23947475Y6696953D02*
X23899856Y6506477D01*
X23899856Y6506477D02*
X23852237Y6411239D01*
X23852237Y6411239D02*
X23756999Y6316000D01*
X23756999Y6316000D02*
X23614142Y6268381D01*
X23614142Y6268381D02*
X23518904Y6268381D01*
X23518904Y6268381D02*
X23376047Y6316000D01*
X23376047Y6316000D02*
X23328428Y6363620D01*
X23328428Y6363620D02*
X23328428Y6696953D01*
X23328428Y6696953D02*
X23518904Y6696953D01*
X22899856Y6268381D02*
X22899856Y7268381D01*
X22899856Y7268381D02*
X22328428Y6268381D01*
X22328428Y6268381D02*
X22328428Y7268381D01*
X21852237Y6268381D02*
X21852237Y7268381D01*
X21852237Y7268381D02*
X21614142Y7268381D01*
X21614142Y7268381D02*
X21471285Y7220762D01*
X21471285Y7220762D02*
X21376047Y7125524D01*
X21376047Y7125524D02*
X21328428Y7030286D01*
X21328428Y7030286D02*
X21280809Y6839810D01*
X21280809Y6839810D02*
X21280809Y6696953D01*
X21280809Y6696953D02*
X21328428Y6506477D01*
X21328428Y6506477D02*
X21376047Y6411239D01*
X21376047Y6411239D02*
X21471285Y6316000D01*
X21471285Y6316000D02*
X21614142Y6268381D01*
X21614142Y6268381D02*
X21852237Y6268381D01*
X44425857Y7014381D02*
X44235381Y7014381D01*
X44235381Y7014381D02*
X44140143Y6966762D01*
X44140143Y6966762D02*
X44044905Y6871524D01*
X44044905Y6871524D02*
X43997286Y6681048D01*
X43997286Y6681048D02*
X43997286Y6347715D01*
X43997286Y6347715D02*
X44044905Y6157239D01*
X44044905Y6157239D02*
X44140143Y6062000D01*
X44140143Y6062000D02*
X44235381Y6014381D01*
X44235381Y6014381D02*
X44425857Y6014381D01*
X44425857Y6014381D02*
X44521095Y6062000D01*
X44521095Y6062000D02*
X44616333Y6157239D01*
X44616333Y6157239D02*
X44663952Y6347715D01*
X44663952Y6347715D02*
X44663952Y6681048D01*
X44663952Y6681048D02*
X44616333Y6871524D01*
X44616333Y6871524D02*
X44521095Y6966762D01*
X44521095Y6966762D02*
X44425857Y7014381D01*
X43140143Y6681048D02*
X43140143Y6014381D01*
X43568714Y6681048D02*
X43568714Y6157239D01*
X43568714Y6157239D02*
X43521095Y6062000D01*
X43521095Y6062000D02*
X43425857Y6014381D01*
X43425857Y6014381D02*
X43283000Y6014381D01*
X43283000Y6014381D02*
X43187762Y6062000D01*
X43187762Y6062000D02*
X43140143Y6109620D01*
X42806809Y6681048D02*
X42425857Y6681048D01*
X42663952Y7014381D02*
X42663952Y6157239D01*
X42663952Y6157239D02*
X42616333Y6062000D01*
X42616333Y6062000D02*
X42521095Y6014381D01*
X42521095Y6014381D02*
X42425857Y6014381D01*
X42330619Y5919143D02*
X41568714Y5919143D01*
X41473475Y7014381D02*
X41140142Y6014381D01*
X41140142Y6014381D02*
X40806809Y7014381D01*
X39902047Y6109620D02*
X39949666Y6062000D01*
X39949666Y6062000D02*
X40092523Y6014381D01*
X40092523Y6014381D02*
X40187761Y6014381D01*
X40187761Y6014381D02*
X40330618Y6062000D01*
X40330618Y6062000D02*
X40425856Y6157239D01*
X40425856Y6157239D02*
X40473475Y6252477D01*
X40473475Y6252477D02*
X40521094Y6442953D01*
X40521094Y6442953D02*
X40521094Y6585810D01*
X40521094Y6585810D02*
X40473475Y6776286D01*
X40473475Y6776286D02*
X40425856Y6871524D01*
X40425856Y6871524D02*
X40330618Y6966762D01*
X40330618Y6966762D02*
X40187761Y7014381D01*
X40187761Y7014381D02*
X40092523Y7014381D01*
X40092523Y7014381D02*
X39949666Y6966762D01*
X39949666Y6966762D02*
X39902047Y6919143D01*
X38902047Y6109620D02*
X38949666Y6062000D01*
X38949666Y6062000D02*
X39092523Y6014381D01*
X39092523Y6014381D02*
X39187761Y6014381D01*
X39187761Y6014381D02*
X39330618Y6062000D01*
X39330618Y6062000D02*
X39425856Y6157239D01*
X39425856Y6157239D02*
X39473475Y6252477D01*
X39473475Y6252477D02*
X39521094Y6442953D01*
X39521094Y6442953D02*
X39521094Y6585810D01*
X39521094Y6585810D02*
X39473475Y6776286D01*
X39473475Y6776286D02*
X39425856Y6871524D01*
X39425856Y6871524D02*
X39330618Y6966762D01*
X39330618Y6966762D02*
X39187761Y7014381D01*
X39187761Y7014381D02*
X39092523Y7014381D01*
X39092523Y7014381D02*
X38949666Y6966762D01*
X38949666Y6966762D02*
X38902047Y6919143D01*
X37268009Y2703210D02*
X37344199Y2741305D01*
X37344199Y2741305D02*
X37458485Y2741305D01*
X37458485Y2741305D02*
X37572771Y2703210D01*
X37572771Y2703210D02*
X37648961Y2627020D01*
X37648961Y2627020D02*
X37687056Y2550829D01*
X37687056Y2550829D02*
X37725152Y2398448D01*
X37725152Y2398448D02*
X37725152Y2284162D01*
X37725152Y2284162D02*
X37687056Y2131781D01*
X37687056Y2131781D02*
X37648961Y2055591D01*
X37648961Y2055591D02*
X37572771Y1979400D01*
X37572771Y1979400D02*
X37458485Y1941305D01*
X37458485Y1941305D02*
X37382294Y1941305D01*
X37382294Y1941305D02*
X37268009Y1979400D01*
X37268009Y1979400D02*
X37229913Y2017496D01*
X37229913Y2017496D02*
X37229913Y2284162D01*
X37229913Y2284162D02*
X37382294Y2284162D01*
X35287056Y2741305D02*
X35668008Y2741305D01*
X35668008Y2741305D02*
X35706104Y2360353D01*
X35706104Y2360353D02*
X35668008Y2398448D01*
X35668008Y2398448D02*
X35591818Y2436543D01*
X35591818Y2436543D02*
X35401342Y2436543D01*
X35401342Y2436543D02*
X35325151Y2398448D01*
X35325151Y2398448D02*
X35287056Y2360353D01*
X35287056Y2360353D02*
X35248961Y2284162D01*
X35248961Y2284162D02*
X35248961Y2093686D01*
X35248961Y2093686D02*
X35287056Y2017496D01*
X35287056Y2017496D02*
X35325151Y1979400D01*
X35325151Y1979400D02*
X35401342Y1941305D01*
X35401342Y1941305D02*
X35591818Y1941305D01*
X35591818Y1941305D02*
X35668008Y1979400D01*
X35668008Y1979400D02*
X35706104Y2017496D01*
X35020389Y2741305D02*
X34753722Y1941305D01*
X34753722Y1941305D02*
X34487056Y2741305D01*
X21583114Y25715239D02*
X21583114Y26191429D01*
X21630733Y25715239D02*
X21630733Y26191429D01*
X21678352Y25762858D02*
X21678352Y26143810D01*
X21725971Y25762858D02*
X21725971Y26143810D01*
X21773590Y25762858D02*
X21773590Y26143810D01*
X21821209Y25810477D02*
X21821209Y26096191D01*
X21868828Y25810477D02*
X21868828Y26096191D01*
X21916447Y25810477D02*
X21916447Y26096191D01*
X21964066Y25858096D02*
X21964066Y26048572D01*
X22011685Y25858096D02*
X22011685Y26048572D01*
X22059304Y25905715D02*
X22059304Y26000953D01*
X22106923Y25905715D02*
X22106923Y26000953D01*
X22154542Y25905715D02*
X22154542Y26000953D01*
X22202161Y25953334D02*
X22154542Y25953334D01*
X21535495Y25715239D02*
X22249780Y25953334D01*
X22249780Y25953334D02*
X21535495Y26191429D01*
X22297399Y25953334D02*
X21535495Y26239048D01*
X21535495Y26239048D02*
X21535495Y25667620D01*
X21535495Y25667620D02*
X22297399Y25953334D01*
X21059304Y25572381D02*
X21059304Y26572381D01*
X21059304Y26572381D02*
X20725971Y25858096D01*
X20725971Y25858096D02*
X20392638Y26572381D01*
X20392638Y26572381D02*
X20392638Y25572381D01*
X19916447Y25572381D02*
X19916447Y26572381D01*
X19916447Y26572381D02*
X19535495Y26572381D01*
X19535495Y26572381D02*
X19440257Y26524762D01*
X19440257Y26524762D02*
X19392638Y26477143D01*
X19392638Y26477143D02*
X19345019Y26381905D01*
X19345019Y26381905D02*
X19345019Y26239048D01*
X19345019Y26239048D02*
X19392638Y26143810D01*
X19392638Y26143810D02*
X19440257Y26096191D01*
X19440257Y26096191D02*
X19535495Y26048572D01*
X19535495Y26048572D02*
X19916447Y26048572D01*
X18392638Y25572381D02*
X18964066Y25572381D01*
X18678352Y25572381D02*
X18678352Y26572381D01*
X18678352Y26572381D02*
X18773590Y26429524D01*
X18773590Y26429524D02*
X18868828Y26334286D01*
X18868828Y26334286D02*
X18964066Y26286667D01*
X17487876Y26572381D02*
X17964066Y26572381D01*
X17964066Y26572381D02*
X18011685Y26096191D01*
X18011685Y26096191D02*
X17964066Y26143810D01*
X17964066Y26143810D02*
X17868828Y26191429D01*
X17868828Y26191429D02*
X17630733Y26191429D01*
X17630733Y26191429D02*
X17535495Y26143810D01*
X17535495Y26143810D02*
X17487876Y26096191D01*
X17487876Y26096191D02*
X17440257Y26000953D01*
X17440257Y26000953D02*
X17440257Y25762858D01*
X17440257Y25762858D02*
X17487876Y25667620D01*
X17487876Y25667620D02*
X17535495Y25620000D01*
X17535495Y25620000D02*
X17630733Y25572381D01*
X17630733Y25572381D02*
X17868828Y25572381D01*
X17868828Y25572381D02*
X17964066Y25620000D01*
X17964066Y25620000D02*
X18011685Y25667620D01*
X16868828Y26143810D02*
X16964066Y26191429D01*
X16964066Y26191429D02*
X17011685Y26239048D01*
X17011685Y26239048D02*
X17059304Y26334286D01*
X17059304Y26334286D02*
X17059304Y26381905D01*
X17059304Y26381905D02*
X17011685Y26477143D01*
X17011685Y26477143D02*
X16964066Y26524762D01*
X16964066Y26524762D02*
X16868828Y26572381D01*
X16868828Y26572381D02*
X16678352Y26572381D01*
X16678352Y26572381D02*
X16583114Y26524762D01*
X16583114Y26524762D02*
X16535495Y26477143D01*
X16535495Y26477143D02*
X16487876Y26381905D01*
X16487876Y26381905D02*
X16487876Y26334286D01*
X16487876Y26334286D02*
X16535495Y26239048D01*
X16535495Y26239048D02*
X16583114Y26191429D01*
X16583114Y26191429D02*
X16678352Y26143810D01*
X16678352Y26143810D02*
X16868828Y26143810D01*
X16868828Y26143810D02*
X16964066Y26096191D01*
X16964066Y26096191D02*
X17011685Y26048572D01*
X17011685Y26048572D02*
X17059304Y25953334D01*
X17059304Y25953334D02*
X17059304Y25762858D01*
X17059304Y25762858D02*
X17011685Y25667620D01*
X17011685Y25667620D02*
X16964066Y25620000D01*
X16964066Y25620000D02*
X16868828Y25572381D01*
X16868828Y25572381D02*
X16678352Y25572381D01*
X16678352Y25572381D02*
X16583114Y25620000D01*
X16583114Y25620000D02*
X16535495Y25667620D01*
X16535495Y25667620D02*
X16487876Y25762858D01*
X16487876Y25762858D02*
X16487876Y25953334D01*
X16487876Y25953334D02*
X16535495Y26048572D01*
X16535495Y26048572D02*
X16583114Y26096191D01*
X16583114Y26096191D02*
X16678352Y26143810D01*
X15630733Y26239048D02*
X15630733Y25572381D01*
X15868828Y26620000D02*
X16106923Y25905715D01*
X16106923Y25905715D02*
X15487876Y25905715D01*
X14154542Y26572381D02*
X13964066Y26572381D01*
X13964066Y26572381D02*
X13868828Y26524762D01*
X13868828Y26524762D02*
X13773590Y26429524D01*
X13773590Y26429524D02*
X13725971Y26239048D01*
X13725971Y26239048D02*
X13725971Y25905715D01*
X13725971Y25905715D02*
X13773590Y25715239D01*
X13773590Y25715239D02*
X13868828Y25620000D01*
X13868828Y25620000D02*
X13964066Y25572381D01*
X13964066Y25572381D02*
X14154542Y25572381D01*
X14154542Y25572381D02*
X14249780Y25620000D01*
X14249780Y25620000D02*
X14345018Y25715239D01*
X14345018Y25715239D02*
X14392637Y25905715D01*
X14392637Y25905715D02*
X14392637Y26239048D01*
X14392637Y26239048D02*
X14345018Y26429524D01*
X14345018Y26429524D02*
X14249780Y26524762D01*
X14249780Y26524762D02*
X14154542Y26572381D01*
X12868828Y26239048D02*
X12868828Y25572381D01*
X13297399Y26239048D02*
X13297399Y25715239D01*
X13297399Y25715239D02*
X13249780Y25620000D01*
X13249780Y25620000D02*
X13154542Y25572381D01*
X13154542Y25572381D02*
X13011685Y25572381D01*
X13011685Y25572381D02*
X12916447Y25620000D01*
X12916447Y25620000D02*
X12868828Y25667620D01*
X12535494Y26239048D02*
X12154542Y26239048D01*
X12392637Y26572381D02*
X12392637Y25715239D01*
X12392637Y25715239D02*
X12345018Y25620000D01*
X12345018Y25620000D02*
X12249780Y25572381D01*
X12249780Y25572381D02*
X12154542Y25572381D01*
X43707980Y14470334D02*
X43707980Y13994144D01*
X43707980Y13994144D02*
X44707980Y13994144D01*
X43707980Y14803668D02*
X44707980Y14803668D01*
X44707980Y14803668D02*
X43993695Y15137001D01*
X43993695Y15137001D02*
X44707980Y15470334D01*
X44707980Y15470334D02*
X43707980Y15470334D01*
X44612742Y15898906D02*
X44660361Y15946525D01*
X44660361Y15946525D02*
X44707980Y16041763D01*
X44707980Y16041763D02*
X44707980Y16279858D01*
X44707980Y16279858D02*
X44660361Y16375096D01*
X44660361Y16375096D02*
X44612742Y16422715D01*
X44612742Y16422715D02*
X44517504Y16470334D01*
X44517504Y16470334D02*
X44422266Y16470334D01*
X44422266Y16470334D02*
X44279409Y16422715D01*
X44279409Y16422715D02*
X43707980Y15851287D01*
X43707980Y15851287D02*
X43707980Y16470334D01*
X44707980Y17375096D02*
X44707980Y16898906D01*
X44707980Y16898906D02*
X44231790Y16851287D01*
X44231790Y16851287D02*
X44279409Y16898906D01*
X44279409Y16898906D02*
X44327028Y16994144D01*
X44327028Y16994144D02*
X44327028Y17232239D01*
X44327028Y17232239D02*
X44279409Y17327477D01*
X44279409Y17327477D02*
X44231790Y17375096D01*
X44231790Y17375096D02*
X44136552Y17422715D01*
X44136552Y17422715D02*
X43898457Y17422715D01*
X43898457Y17422715D02*
X43803219Y17375096D01*
X43803219Y17375096D02*
X43755600Y17327477D01*
X43755600Y17327477D02*
X43707980Y17232239D01*
X43707980Y17232239D02*
X43707980Y16994144D01*
X43707980Y16994144D02*
X43755600Y16898906D01*
X43755600Y16898906D02*
X43803219Y16851287D01*
X43707980Y17898906D02*
X43707980Y18089382D01*
X43707980Y18089382D02*
X43755600Y18184620D01*
X43755600Y18184620D02*
X43803219Y18232239D01*
X43803219Y18232239D02*
X43946076Y18327477D01*
X43946076Y18327477D02*
X44136552Y18375096D01*
X44136552Y18375096D02*
X44517504Y18375096D01*
X44517504Y18375096D02*
X44612742Y18327477D01*
X44612742Y18327477D02*
X44660361Y18279858D01*
X44660361Y18279858D02*
X44707980Y18184620D01*
X44707980Y18184620D02*
X44707980Y17994144D01*
X44707980Y17994144D02*
X44660361Y17898906D01*
X44660361Y17898906D02*
X44612742Y17851287D01*
X44612742Y17851287D02*
X44517504Y17803668D01*
X44517504Y17803668D02*
X44279409Y17803668D01*
X44279409Y17803668D02*
X44184171Y17851287D01*
X44184171Y17851287D02*
X44136552Y17898906D01*
X44136552Y17898906D02*
X44088933Y17994144D01*
X44088933Y17994144D02*
X44088933Y18184620D01*
X44088933Y18184620D02*
X44136552Y18279858D01*
X44136552Y18279858D02*
X44184171Y18327477D01*
X44184171Y18327477D02*
X44279409Y18375096D01*
X44707980Y19232239D02*
X44707980Y19041763D01*
X44707980Y19041763D02*
X44660361Y18946525D01*
X44660361Y18946525D02*
X44612742Y18898906D01*
X44612742Y18898906D02*
X44469885Y18803668D01*
X44469885Y18803668D02*
X44279409Y18756049D01*
X44279409Y18756049D02*
X43898457Y18756049D01*
X43898457Y18756049D02*
X43803219Y18803668D01*
X43803219Y18803668D02*
X43755600Y18851287D01*
X43755600Y18851287D02*
X43707980Y18946525D01*
X43707980Y18946525D02*
X43707980Y19137001D01*
X43707980Y19137001D02*
X43755600Y19232239D01*
X43755600Y19232239D02*
X43803219Y19279858D01*
X43803219Y19279858D02*
X43898457Y19327477D01*
X43898457Y19327477D02*
X44136552Y19327477D01*
X44136552Y19327477D02*
X44231790Y19279858D01*
X44231790Y19279858D02*
X44279409Y19232239D01*
X44279409Y19232239D02*
X44327028Y19137001D01*
X44327028Y19137001D02*
X44327028Y18946525D01*
X44327028Y18946525D02*
X44279409Y18851287D01*
X44279409Y18851287D02*
X44231790Y18803668D01*
X44231790Y18803668D02*
X44136552Y18756049D01*
X44298904Y51023181D02*
X44298904Y52023181D01*
X43822714Y51689848D02*
X43822714Y51023181D01*
X43822714Y51594610D02*
X43775095Y51642229D01*
X43775095Y51642229D02*
X43679857Y51689848D01*
X43679857Y51689848D02*
X43537000Y51689848D01*
X43537000Y51689848D02*
X43441762Y51642229D01*
X43441762Y51642229D02*
X43394143Y51546991D01*
X43394143Y51546991D02*
X43394143Y51023181D01*
X43156048Y50927943D02*
X42394143Y50927943D01*
X42298904Y52023181D02*
X41965571Y51023181D01*
X41965571Y51023181D02*
X41632238Y52023181D01*
X40727476Y51118420D02*
X40775095Y51070800D01*
X40775095Y51070800D02*
X40917952Y51023181D01*
X40917952Y51023181D02*
X41013190Y51023181D01*
X41013190Y51023181D02*
X41156047Y51070800D01*
X41156047Y51070800D02*
X41251285Y51166039D01*
X41251285Y51166039D02*
X41298904Y51261277D01*
X41298904Y51261277D02*
X41346523Y51451753D01*
X41346523Y51451753D02*
X41346523Y51594610D01*
X41346523Y51594610D02*
X41298904Y51785086D01*
X41298904Y51785086D02*
X41251285Y51880324D01*
X41251285Y51880324D02*
X41156047Y51975562D01*
X41156047Y51975562D02*
X41013190Y52023181D01*
X41013190Y52023181D02*
X40917952Y52023181D01*
X40917952Y52023181D02*
X40775095Y51975562D01*
X40775095Y51975562D02*
X40727476Y51927943D01*
X39727476Y51118420D02*
X39775095Y51070800D01*
X39775095Y51070800D02*
X39917952Y51023181D01*
X39917952Y51023181D02*
X40013190Y51023181D01*
X40013190Y51023181D02*
X40156047Y51070800D01*
X40156047Y51070800D02*
X40251285Y51166039D01*
X40251285Y51166039D02*
X40298904Y51261277D01*
X40298904Y51261277D02*
X40346523Y51451753D01*
X40346523Y51451753D02*
X40346523Y51594610D01*
X40346523Y51594610D02*
X40298904Y51785086D01*
X40298904Y51785086D02*
X40251285Y51880324D01*
X40251285Y51880324D02*
X40156047Y51975562D01*
X40156047Y51975562D02*
X40013190Y52023181D01*
X40013190Y52023181D02*
X39917952Y52023181D01*
X39917952Y52023181D02*
X39775095Y51975562D01*
X39775095Y51975562D02*
X39727476Y51927943D01*
X26563342Y50972381D02*
X26563342Y51972381D01*
X26087152Y51639048D02*
X26087152Y50972381D01*
X26087152Y51543810D02*
X26039533Y51591429D01*
X26039533Y51591429D02*
X25944295Y51639048D01*
X25944295Y51639048D02*
X25801438Y51639048D01*
X25801438Y51639048D02*
X25706200Y51591429D01*
X25706200Y51591429D02*
X25658581Y51496191D01*
X25658581Y51496191D02*
X25658581Y50972381D01*
X25420486Y50877143D02*
X24658581Y50877143D01*
X23896676Y51924762D02*
X23991914Y51972381D01*
X23991914Y51972381D02*
X24134771Y51972381D01*
X24134771Y51972381D02*
X24277628Y51924762D01*
X24277628Y51924762D02*
X24372866Y51829524D01*
X24372866Y51829524D02*
X24420485Y51734286D01*
X24420485Y51734286D02*
X24468104Y51543810D01*
X24468104Y51543810D02*
X24468104Y51400953D01*
X24468104Y51400953D02*
X24420485Y51210477D01*
X24420485Y51210477D02*
X24372866Y51115239D01*
X24372866Y51115239D02*
X24277628Y51020000D01*
X24277628Y51020000D02*
X24134771Y50972381D01*
X24134771Y50972381D02*
X24039533Y50972381D01*
X24039533Y50972381D02*
X23896676Y51020000D01*
X23896676Y51020000D02*
X23849057Y51067620D01*
X23849057Y51067620D02*
X23849057Y51400953D01*
X23849057Y51400953D02*
X24039533Y51400953D01*
X23420485Y50972381D02*
X23420485Y51972381D01*
X23420485Y51972381D02*
X22849057Y50972381D01*
X22849057Y50972381D02*
X22849057Y51972381D01*
X22372866Y50972381D02*
X22372866Y51972381D01*
X22372866Y51972381D02*
X22134771Y51972381D01*
X22134771Y51972381D02*
X21991914Y51924762D01*
X21991914Y51924762D02*
X21896676Y51829524D01*
X21896676Y51829524D02*
X21849057Y51734286D01*
X21849057Y51734286D02*
X21801438Y51543810D01*
X21801438Y51543810D02*
X21801438Y51400953D01*
X21801438Y51400953D02*
X21849057Y51210477D01*
X21849057Y51210477D02*
X21896676Y51115239D01*
X21896676Y51115239D02*
X21991914Y51020000D01*
X21991914Y51020000D02*
X22134771Y50972381D01*
X22134771Y50972381D02*
X22372866Y50972381D01*
X11912504Y11843562D02*
X12007742Y11891181D01*
X12007742Y11891181D02*
X12150599Y11891181D01*
X12150599Y11891181D02*
X12293456Y11843562D01*
X12293456Y11843562D02*
X12388694Y11748324D01*
X12388694Y11748324D02*
X12436313Y11653086D01*
X12436313Y11653086D02*
X12483932Y11462610D01*
X12483932Y11462610D02*
X12483932Y11319753D01*
X12483932Y11319753D02*
X12436313Y11129277D01*
X12436313Y11129277D02*
X12388694Y11034039D01*
X12388694Y11034039D02*
X12293456Y10938800D01*
X12293456Y10938800D02*
X12150599Y10891181D01*
X12150599Y10891181D02*
X12055361Y10891181D01*
X12055361Y10891181D02*
X11912504Y10938800D01*
X11912504Y10938800D02*
X11864885Y10986420D01*
X11864885Y10986420D02*
X11864885Y11319753D01*
X11864885Y11319753D02*
X12055361Y11319753D01*
X11436313Y10891181D02*
X11436313Y11891181D01*
X11436313Y11891181D02*
X10864885Y10891181D01*
X10864885Y10891181D02*
X10864885Y11891181D01*
X10388694Y10891181D02*
X10388694Y11891181D01*
X10388694Y11891181D02*
X10150599Y11891181D01*
X10150599Y11891181D02*
X10007742Y11843562D01*
X10007742Y11843562D02*
X9912504Y11748324D01*
X9912504Y11748324D02*
X9864885Y11653086D01*
X9864885Y11653086D02*
X9817266Y11462610D01*
X9817266Y11462610D02*
X9817266Y11319753D01*
X9817266Y11319753D02*
X9864885Y11129277D01*
X9864885Y11129277D02*
X9912504Y11034039D01*
X9912504Y11034039D02*
X10007742Y10938800D01*
X10007742Y10938800D02*
X10150599Y10891181D01*
X10150599Y10891181D02*
X10388694Y10891181D01*
X28428809Y2703210D02*
X28504999Y2741305D01*
X28504999Y2741305D02*
X28619285Y2741305D01*
X28619285Y2741305D02*
X28733571Y2703210D01*
X28733571Y2703210D02*
X28809761Y2627020D01*
X28809761Y2627020D02*
X28847856Y2550829D01*
X28847856Y2550829D02*
X28885952Y2398448D01*
X28885952Y2398448D02*
X28885952Y2284162D01*
X28885952Y2284162D02*
X28847856Y2131781D01*
X28847856Y2131781D02*
X28809761Y2055591D01*
X28809761Y2055591D02*
X28733571Y1979400D01*
X28733571Y1979400D02*
X28619285Y1941305D01*
X28619285Y1941305D02*
X28543094Y1941305D01*
X28543094Y1941305D02*
X28428809Y1979400D01*
X28428809Y1979400D02*
X28390713Y2017496D01*
X28390713Y2017496D02*
X28390713Y2284162D01*
X28390713Y2284162D02*
X28543094Y2284162D01*
X26447856Y2741305D02*
X26828808Y2741305D01*
X26828808Y2741305D02*
X26866904Y2360353D01*
X26866904Y2360353D02*
X26828808Y2398448D01*
X26828808Y2398448D02*
X26752618Y2436543D01*
X26752618Y2436543D02*
X26562142Y2436543D01*
X26562142Y2436543D02*
X26485951Y2398448D01*
X26485951Y2398448D02*
X26447856Y2360353D01*
X26447856Y2360353D02*
X26409761Y2284162D01*
X26409761Y2284162D02*
X26409761Y2093686D01*
X26409761Y2093686D02*
X26447856Y2017496D01*
X26447856Y2017496D02*
X26485951Y1979400D01*
X26485951Y1979400D02*
X26562142Y1941305D01*
X26562142Y1941305D02*
X26752618Y1941305D01*
X26752618Y1941305D02*
X26828808Y1979400D01*
X26828808Y1979400D02*
X26866904Y2017496D01*
X26181189Y2741305D02*
X25914522Y1941305D01*
X25914522Y1941305D02*
X25647856Y2741305D01*
X32384904Y55734762D02*
X32480142Y55782381D01*
X32480142Y55782381D02*
X32622999Y55782381D01*
X32622999Y55782381D02*
X32765856Y55734762D01*
X32765856Y55734762D02*
X32861094Y55639524D01*
X32861094Y55639524D02*
X32908713Y55544286D01*
X32908713Y55544286D02*
X32956332Y55353810D01*
X32956332Y55353810D02*
X32956332Y55210953D01*
X32956332Y55210953D02*
X32908713Y55020477D01*
X32908713Y55020477D02*
X32861094Y54925239D01*
X32861094Y54925239D02*
X32765856Y54830000D01*
X32765856Y54830000D02*
X32622999Y54782381D01*
X32622999Y54782381D02*
X32527761Y54782381D01*
X32527761Y54782381D02*
X32384904Y54830000D01*
X32384904Y54830000D02*
X32337285Y54877620D01*
X32337285Y54877620D02*
X32337285Y55210953D01*
X32337285Y55210953D02*
X32527761Y55210953D01*
X31908713Y54782381D02*
X31908713Y55782381D01*
X31908713Y55782381D02*
X31337285Y54782381D01*
X31337285Y54782381D02*
X31337285Y55782381D01*
X30861094Y54782381D02*
X30861094Y55782381D01*
X30861094Y55782381D02*
X30622999Y55782381D01*
X30622999Y55782381D02*
X30480142Y55734762D01*
X30480142Y55734762D02*
X30384904Y55639524D01*
X30384904Y55639524D02*
X30337285Y55544286D01*
X30337285Y55544286D02*
X30289666Y55353810D01*
X30289666Y55353810D02*
X30289666Y55210953D01*
X30289666Y55210953D02*
X30337285Y55020477D01*
X30337285Y55020477D02*
X30384904Y54925239D01*
X30384904Y54925239D02*
X30480142Y54830000D01*
X30480142Y54830000D02*
X30622999Y54782381D01*
X30622999Y54782381D02*
X30861094Y54782381D01*
X19437209Y2703210D02*
X19513399Y2741305D01*
X19513399Y2741305D02*
X19627685Y2741305D01*
X19627685Y2741305D02*
X19741971Y2703210D01*
X19741971Y2703210D02*
X19818161Y2627020D01*
X19818161Y2627020D02*
X19856256Y2550829D01*
X19856256Y2550829D02*
X19894352Y2398448D01*
X19894352Y2398448D02*
X19894352Y2284162D01*
X19894352Y2284162D02*
X19856256Y2131781D01*
X19856256Y2131781D02*
X19818161Y2055591D01*
X19818161Y2055591D02*
X19741971Y1979400D01*
X19741971Y1979400D02*
X19627685Y1941305D01*
X19627685Y1941305D02*
X19551494Y1941305D01*
X19551494Y1941305D02*
X19437209Y1979400D01*
X19437209Y1979400D02*
X19399113Y2017496D01*
X19399113Y2017496D02*
X19399113Y2284162D01*
X19399113Y2284162D02*
X19551494Y2284162D01*
X17456256Y2741305D02*
X17837208Y2741305D01*
X17837208Y2741305D02*
X17875304Y2360353D01*
X17875304Y2360353D02*
X17837208Y2398448D01*
X17837208Y2398448D02*
X17761018Y2436543D01*
X17761018Y2436543D02*
X17570542Y2436543D01*
X17570542Y2436543D02*
X17494351Y2398448D01*
X17494351Y2398448D02*
X17456256Y2360353D01*
X17456256Y2360353D02*
X17418161Y2284162D01*
X17418161Y2284162D02*
X17418161Y2093686D01*
X17418161Y2093686D02*
X17456256Y2017496D01*
X17456256Y2017496D02*
X17494351Y1979400D01*
X17494351Y1979400D02*
X17570542Y1941305D01*
X17570542Y1941305D02*
X17761018Y1941305D01*
X17761018Y1941305D02*
X17837208Y1979400D01*
X17837208Y1979400D02*
X17875304Y2017496D01*
X17189589Y2741305D02*
X16922922Y1941305D01*
X16922922Y1941305D02*
X16656256Y2741305D01*
X5826047Y10891181D02*
X6397475Y10891181D01*
X6111761Y10891181D02*
X6111761Y11891181D01*
X6111761Y11891181D02*
X6206999Y11748324D01*
X6206999Y11748324D02*
X6302237Y11653086D01*
X6302237Y11653086D02*
X6397475Y11605467D01*
X5445094Y11795943D02*
X5397475Y11843562D01*
X5397475Y11843562D02*
X5302237Y11891181D01*
X5302237Y11891181D02*
X5064142Y11891181D01*
X5064142Y11891181D02*
X4968904Y11843562D01*
X4968904Y11843562D02*
X4921285Y11795943D01*
X4921285Y11795943D02*
X4873666Y11700705D01*
X4873666Y11700705D02*
X4873666Y11605467D01*
X4873666Y11605467D02*
X4921285Y11462610D01*
X4921285Y11462610D02*
X5492713Y10891181D01*
X5492713Y10891181D02*
X4873666Y10891181D01*
X4587951Y11891181D02*
X4254618Y10891181D01*
X4254618Y10891181D02*
X3921285Y11891181D01*
X43256104Y44914362D02*
X43351342Y44961981D01*
X43351342Y44961981D02*
X43494199Y44961981D01*
X43494199Y44961981D02*
X43637056Y44914362D01*
X43637056Y44914362D02*
X43732294Y44819124D01*
X43732294Y44819124D02*
X43779913Y44723886D01*
X43779913Y44723886D02*
X43827532Y44533410D01*
X43827532Y44533410D02*
X43827532Y44390553D01*
X43827532Y44390553D02*
X43779913Y44200077D01*
X43779913Y44200077D02*
X43732294Y44104839D01*
X43732294Y44104839D02*
X43637056Y44009600D01*
X43637056Y44009600D02*
X43494199Y43961981D01*
X43494199Y43961981D02*
X43398961Y43961981D01*
X43398961Y43961981D02*
X43256104Y44009600D01*
X43256104Y44009600D02*
X43208485Y44057220D01*
X43208485Y44057220D02*
X43208485Y44390553D01*
X43208485Y44390553D02*
X43398961Y44390553D01*
X42779913Y43961981D02*
X42779913Y44961981D01*
X42779913Y44961981D02*
X42208485Y43961981D01*
X42208485Y43961981D02*
X42208485Y44961981D01*
X41732294Y43961981D02*
X41732294Y44961981D01*
X41732294Y44961981D02*
X41494199Y44961981D01*
X41494199Y44961981D02*
X41351342Y44914362D01*
X41351342Y44914362D02*
X41256104Y44819124D01*
X41256104Y44819124D02*
X41208485Y44723886D01*
X41208485Y44723886D02*
X41160866Y44533410D01*
X41160866Y44533410D02*
X41160866Y44390553D01*
X41160866Y44390553D02*
X41208485Y44200077D01*
X41208485Y44200077D02*
X41256104Y44104839D01*
X41256104Y44104839D02*
X41351342Y44009600D01*
X41351342Y44009600D02*
X41494199Y43961981D01*
X41494199Y43961981D02*
X41732294Y43961981D01*
X16113047Y54655381D02*
X16684475Y54655381D01*
X16398761Y54655381D02*
X16398761Y55655381D01*
X16398761Y55655381D02*
X16493999Y55512524D01*
X16493999Y55512524D02*
X16589237Y55417286D01*
X16589237Y55417286D02*
X16684475Y55369667D01*
X15732094Y55560143D02*
X15684475Y55607762D01*
X15684475Y55607762D02*
X15589237Y55655381D01*
X15589237Y55655381D02*
X15351142Y55655381D01*
X15351142Y55655381D02*
X15255904Y55607762D01*
X15255904Y55607762D02*
X15208285Y55560143D01*
X15208285Y55560143D02*
X15160666Y55464905D01*
X15160666Y55464905D02*
X15160666Y55369667D01*
X15160666Y55369667D02*
X15208285Y55226810D01*
X15208285Y55226810D02*
X15779713Y54655381D01*
X15779713Y54655381D02*
X15160666Y54655381D01*
X14874951Y55655381D02*
X14541618Y54655381D01*
X14541618Y54655381D02*
X14208285Y55655381D01*
X24396676Y26572381D02*
X24872866Y26572381D01*
X24872866Y26572381D02*
X24920485Y26096191D01*
X24920485Y26096191D02*
X24872866Y26143810D01*
X24872866Y26143810D02*
X24777628Y26191429D01*
X24777628Y26191429D02*
X24539533Y26191429D01*
X24539533Y26191429D02*
X24444295Y26143810D01*
X24444295Y26143810D02*
X24396676Y26096191D01*
X24396676Y26096191D02*
X24349057Y26000953D01*
X24349057Y26000953D02*
X24349057Y25762858D01*
X24349057Y25762858D02*
X24396676Y25667620D01*
X24396676Y25667620D02*
X24444295Y25620000D01*
X24444295Y25620000D02*
X24539533Y25572381D01*
X24539533Y25572381D02*
X24777628Y25572381D01*
X24777628Y25572381D02*
X24872866Y25620000D01*
X24872866Y25620000D02*
X24920485Y25667620D01*
X24063342Y26572381D02*
X23730009Y25572381D01*
X23730009Y25572381D02*
X23396676Y26572381D01*
X43707980Y32644106D02*
X44707980Y32644106D01*
X44707980Y32644106D02*
X43993695Y32977439D01*
X43993695Y32977439D02*
X44707980Y33310772D01*
X44707980Y33310772D02*
X43707980Y33310772D01*
X43707980Y33786963D02*
X44707980Y33786963D01*
X44707980Y33786963D02*
X44707980Y34167915D01*
X44707980Y34167915D02*
X44660361Y34263153D01*
X44660361Y34263153D02*
X44612742Y34310772D01*
X44612742Y34310772D02*
X44517504Y34358391D01*
X44517504Y34358391D02*
X44374647Y34358391D01*
X44374647Y34358391D02*
X44279409Y34310772D01*
X44279409Y34310772D02*
X44231790Y34263153D01*
X44231790Y34263153D02*
X44184171Y34167915D01*
X44184171Y34167915D02*
X44184171Y33786963D01*
X43707980Y35310772D02*
X43707980Y34739344D01*
X43707980Y35025058D02*
X44707980Y35025058D01*
X44707980Y35025058D02*
X44565123Y34929820D01*
X44565123Y34929820D02*
X44469885Y34834582D01*
X44469885Y34834582D02*
X44422266Y34739344D01*
X44707980Y36215534D02*
X44707980Y35739344D01*
X44707980Y35739344D02*
X44231790Y35691725D01*
X44231790Y35691725D02*
X44279409Y35739344D01*
X44279409Y35739344D02*
X44327028Y35834582D01*
X44327028Y35834582D02*
X44327028Y36072677D01*
X44327028Y36072677D02*
X44279409Y36167915D01*
X44279409Y36167915D02*
X44231790Y36215534D01*
X44231790Y36215534D02*
X44136552Y36263153D01*
X44136552Y36263153D02*
X43898457Y36263153D01*
X43898457Y36263153D02*
X43803219Y36215534D01*
X43803219Y36215534D02*
X43755600Y36167915D01*
X43755600Y36167915D02*
X43707980Y36072677D01*
X43707980Y36072677D02*
X43707980Y35834582D01*
X43707980Y35834582D02*
X43755600Y35739344D01*
X43755600Y35739344D02*
X43803219Y35691725D01*
X44279409Y36834582D02*
X44327028Y36739344D01*
X44327028Y36739344D02*
X44374647Y36691725D01*
X44374647Y36691725D02*
X44469885Y36644106D01*
X44469885Y36644106D02*
X44517504Y36644106D01*
X44517504Y36644106D02*
X44612742Y36691725D01*
X44612742Y36691725D02*
X44660361Y36739344D01*
X44660361Y36739344D02*
X44707980Y36834582D01*
X44707980Y36834582D02*
X44707980Y37025058D01*
X44707980Y37025058D02*
X44660361Y37120296D01*
X44660361Y37120296D02*
X44612742Y37167915D01*
X44612742Y37167915D02*
X44517504Y37215534D01*
X44517504Y37215534D02*
X44469885Y37215534D01*
X44469885Y37215534D02*
X44374647Y37167915D01*
X44374647Y37167915D02*
X44327028Y37120296D01*
X44327028Y37120296D02*
X44279409Y37025058D01*
X44279409Y37025058D02*
X44279409Y36834582D01*
X44279409Y36834582D02*
X44231790Y36739344D01*
X44231790Y36739344D02*
X44184171Y36691725D01*
X44184171Y36691725D02*
X44088933Y36644106D01*
X44088933Y36644106D02*
X43898457Y36644106D01*
X43898457Y36644106D02*
X43803219Y36691725D01*
X43803219Y36691725D02*
X43755600Y36739344D01*
X43755600Y36739344D02*
X43707980Y36834582D01*
X43707980Y36834582D02*
X43707980Y37025058D01*
X43707980Y37025058D02*
X43755600Y37120296D01*
X43755600Y37120296D02*
X43803219Y37167915D01*
X43803219Y37167915D02*
X43898457Y37215534D01*
X43898457Y37215534D02*
X44088933Y37215534D01*
X44088933Y37215534D02*
X44184171Y37167915D01*
X44184171Y37167915D02*
X44231790Y37120296D01*
X44231790Y37120296D02*
X44279409Y37025058D01*
X44374647Y38072677D02*
X43707980Y38072677D01*
X44755600Y37834582D02*
X44041314Y37596487D01*
X44041314Y37596487D02*
X44041314Y38215534D01*
X43256104Y26524762D02*
X43351342Y26572381D01*
X43351342Y26572381D02*
X43494199Y26572381D01*
X43494199Y26572381D02*
X43637056Y26524762D01*
X43637056Y26524762D02*
X43732294Y26429524D01*
X43732294Y26429524D02*
X43779913Y26334286D01*
X43779913Y26334286D02*
X43827532Y26143810D01*
X43827532Y26143810D02*
X43827532Y26000953D01*
X43827532Y26000953D02*
X43779913Y25810477D01*
X43779913Y25810477D02*
X43732294Y25715239D01*
X43732294Y25715239D02*
X43637056Y25620000D01*
X43637056Y25620000D02*
X43494199Y25572381D01*
X43494199Y25572381D02*
X43398961Y25572381D01*
X43398961Y25572381D02*
X43256104Y25620000D01*
X43256104Y25620000D02*
X43208485Y25667620D01*
X43208485Y25667620D02*
X43208485Y26000953D01*
X43208485Y26000953D02*
X43398961Y26000953D01*
X42779913Y25572381D02*
X42779913Y26572381D01*
X42779913Y26572381D02*
X42208485Y25572381D01*
X42208485Y25572381D02*
X42208485Y26572381D01*
X41732294Y25572381D02*
X41732294Y26572381D01*
X41732294Y26572381D02*
X41494199Y26572381D01*
X41494199Y26572381D02*
X41351342Y26524762D01*
X41351342Y26524762D02*
X41256104Y26429524D01*
X41256104Y26429524D02*
X41208485Y26334286D01*
X41208485Y26334286D02*
X41160866Y26143810D01*
X41160866Y26143810D02*
X41160866Y26000953D01*
X41160866Y26000953D02*
X41208485Y25810477D01*
X41208485Y25810477D02*
X41256104Y25715239D01*
X41256104Y25715239D02*
X41351342Y25620000D01*
X41351342Y25620000D02*
X41494199Y25572381D01*
X41494199Y25572381D02*
X41732294Y25572381D01*
%LPC*%
D11*
%TO.C,DCDC1*%
X37316000Y26028000D03*
X39856000Y26028000D03*
X26456000Y26028000D03*
X28996000Y26028000D03*
X37316000Y44428000D03*
X39856000Y44428000D03*
X26456000Y44428000D03*
X28996000Y44428000D03*
%TD*%
D12*
%TO.C,DCDC2*%
X42074728Y49064717D03*
X24221890Y49055988D03*
X42069444Y9216627D03*
X24231217Y9207065D03*
%TD*%
D13*
%TO.C,JP1*%
X10287000Y18669000D03*
D14*
X12827000Y18669000D03*
%TD*%
D15*
%TO.C,J5*%
X5207000Y8559800D03*
D16*
X11207000Y8559800D03*
%TD*%
D17*
%TO.C,D2*%
X19329400Y48895000D03*
D18*
X19329400Y33655000D03*
%TD*%
D13*
%TO.C,J3*%
X19227800Y16129000D03*
D14*
X19227800Y18669000D03*
%TD*%
D19*
%TO.C,K1*%
X10541000Y37515800D03*
D20*
X10541000Y40055800D03*
X10541000Y47675800D03*
X5461000Y47675800D03*
X5461000Y40055800D03*
X5461000Y37515800D03*
%TD*%
D21*
%TO.C,J7*%
X17272000Y4191000D03*
D22*
X19772000Y4191000D03*
%TD*%
D23*
%TO.C,J1*%
X19595000Y55245000D03*
D24*
X27395000Y55245000D03*
%TD*%
D21*
%TO.C,J9*%
X35052000Y4191000D03*
D22*
X37552000Y4191000D03*
%TD*%
D21*
%TO.C,J8*%
X26182000Y4191000D03*
D22*
X28682000Y4191000D03*
%TD*%
D13*
%TO.C,JP2*%
X10287000Y16129000D03*
D14*
X12827000Y16129000D03*
%TD*%
D25*
%TO.C,K2*%
X8051800Y51689000D03*
D26*
X2001800Y49739000D03*
D25*
X2001800Y37539000D03*
X14051800Y37489000D03*
D26*
X14001800Y49739000D03*
%TD*%
D27*
%TO.C,J2*%
X5461000Y26187400D03*
D28*
X5461000Y23687400D03*
X5461000Y21187400D03*
X5461000Y18687400D03*
X5461000Y16187400D03*
%TD*%
M02*
